<svg xmlns="http://www.w3.org/2000/svg" width="565" height="960" viewBox="0 0 565 960"><defs><style>.cls-1,.cls-11{fill:#f2a0c6;}.cls-2{fill:#d9cbba;stroke-width:0.92px;}.cls-12,.cls-2{stroke:#000;}.cls-11,.cls-12,.cls-15,.cls-16,.cls-17,.cls-18,.cls-19,.cls-2,.cls-20,.cls-3,.cls-5{stroke-miterlimit:10;}.cls-14,.cls-3,.cls-5{fill:#fbebd2;}.cls-11,.cls-15,.cls-16,.cls-3,.cls-5{stroke:#221f1f;}.cls-3{stroke-width:2.25px;}.cls-4{fill:#221f1f;}.cls-20,.cls-5{stroke-width:1.33px;}.cls-6{opacity:0.47;}.cls-7{opacity:0.57;}.cls-8{fill:#f2a516;}.cls-10,.cls-9{fill:#020101;}.cls-9{opacity:0.61;}.cls-10{opacity:0.55;}.cls-11{stroke-width:2.33px;}.cls-12{fill:#c8aca6;stroke-width:2.08px;opacity:0.69;}.cls-13{fill:#d94625;}.cls-15,.cls-16,.cls-17,.cls-18,.cls-19,.cls-20{fill:none;}.cls-15,.cls-16,.cls-17,.cls-18,.cls-19{stroke-linecap:round;}.cls-15{stroke-width:2.23px;}.cls-16{stroke-width:2.2px;}.cls-17,.cls-18,.cls-19,.cls-20{stroke:#b27996;}.cls-17{stroke-width:1.67px;}.cls-18{stroke-width:0.67px;}.cls-19{stroke-width:0.61px;}</style></defs><g id="figur"><path class="cls-1" d="M82.9,470.81c-.58,12.7-12.7,47.93-20.21,91.23,0,0-30.6,142.62-27.72,153.59l-.19,8.08s68.33,29.45,88.54,30,42.72,4,49.65,5.77,42.15,4,48.5,7.51,31.18,4,32.91,3.46,30.61.58,41.58-2.31a203.87,203.87,0,0,0,24.25-8.66s64.09,0,86-8.08S524,716.78,535,692.53c0,0-10.39-97-16.17-98.73,0,0-18.47-94.7-19.63-105.67s-13.28-75.64-28.29-90.65L443.19,353.6c0-.17,24.55,22.06,28.87,26,3.43,3.11,29.45-5.19,44.46-14.43s50.81-42.73,46.2-60L528.65,263S494.58,149.2,491.12,145.16s-15-30.6-33.49-35.22-21.94-39.26-201.51-9.24c0,0-132.23-4-175.53,35.22,0,0-83.15,203.25-78.53,209.6s-15,16.16,47.35,47.92l50.23,3.47S83.48,458.11,82.9,470.81Z"/><path class="cls-2" d="M150.34,322.92c-2.85,2.29-5.92,14.81-5.94,16.2s-.73,7.92,5.43,9,8.42-1.4,8.54-5.89S153.2,320.64,150.34,322.92Z"/><path class="cls-3" d="M246.19,251.61c-31.72,0-57.44,23.28-57.44,52a48.12,48.12,0,0,0,8.46,27.17,17.49,17.49,0,0,0-8.46,14.71c0,9.91,8.88,18,19.84,18,8.17,0,15.19-4.48,18.23-10.87a62.8,62.8,0,0,0,19.37,3c31.73,0,57.44-23.28,57.44-52S277.92,251.61,246.19,251.61Z"/><path class="cls-4" d="M262,256.6c-21.66.48-38.68,21.19-38,46.26,0,1.18.1,2.34.21,3.5,16.79-6.52,30.45-7,38.05,4.05-10.79,5.6-17.53,15.65-22.42,27.73a36.05,36.05,0,0,0,24.6,9.25c21.66-.47,38.68-21.18,38-46.25S283.65,256.13,262,256.6Z"/><path class="cls-5" d="M337.25,280.83c15.33-5,31.64,2.86,36.43,17.55a26.93,26.93,0,0,1,.44,15.23,9.49,9.49,0,0,1,6.54,6.19,9.88,9.88,0,0,1-6.59,12.31,10.12,10.12,0,0,1-10.62-2.69,30.19,30.19,0,0,1-8.86,4.6c-15.33,5-31.64-2.86-36.43-17.54S321.92,285.83,337.25,280.83Z"/><path class="cls-4" d="M355.7,284.21c-10.43.25-18.64,10-18.36,21.85,0,.56.05,1.11.1,1.65,7-4.09,13.08-3,18.3,1.86a19.77,19.77,0,0,0-10.83,13.1A17.51,17.51,0,0,0,356.73,327c10.42-.25,18.64-10,18.36-21.85S366.12,284,355.7,284.21Z"/><path class="cls-6" d="M562.65,305.6c-33.19,23.56-96.56,58.46-92.34,68-.28,0,2.41,6.9,2.41,6.9,3.48,3.17,38.09-10.15,38.09-11.37.1.43,10.5-5.55,19.76-13.92,9.09-8.22,17.71-17.68,17.85-18.12C550,335.34,566.07,317.43,562.65,305.6Z"/><path class="cls-7" d="M82.77,133c2.07-2.17,23.41-15.79,29.14-15.79-.5-3.92,102.84-22.29,148.12-17.47-1.35-.1,69.14-14.34,132.81-10.44a194,194,0,0,1,39.33,6.08c9.64,2.61,18.83,8.37,26.69,12.9C495.26,129.21,79.64,136.24,82.77,133Z"/><path class="cls-8" d="M240.6,52.63S259.05,71.18,254,131.07h8.24s3.33-72.66-5.94-78.44S240.6,52.63,240.6,52.63Z"/><path class="cls-9" d="M2.57,347.54c1,.6-2.3,7.06,3.77,15,5.9,7.68,18.56,17.71,42.78,30.33.27-.35,38.39,3.4,50.74,3.22C103.54,396,57.34,354.42,2.57,347.54Z"/><path class="cls-10" d="M37.62,711.75a61.93,61.93,0,0,1,47.53-6.06s36.82,1.86,62.92,14.44,87.15,9.79,87.15,9.79,43.8-4.19,58.72-10.25c0,0,51.34-3.15,71.3-8.86,3.26-.93,28-15.67,88.08-7.37,0,0,25.17,2.25,75.5-15.93,0,0,15.22-.44-43.42,32.17s-136.91,35-135.08,34.86-33.05,2-33.05,2-35.7,14.25-75.19,9.65-33.58-6.38-33.58-6.38-23.67.25-45.55-6.45-60.51,0-128.11-33.87Z"/><path class="cls-11" d="M337.54,365.61c46.57,26.63,95.59-22.61,126.06,39.45s1.82,118.62,50.79,185.17c10.33,8.84,26.45,7.61,30.24,20.95,5.89,20.74-71.59,30.93-70.76-6.32.38-17.27-3.06-34-7.94-50.08C454.9,495.47,457.68,417.9,368,452c-11.87,7-28.81,14.11-30.85,29.48"/><path class="cls-12" d="M479.77,611.6c8.42-18.67,52.64-12.41,60.78-2.4,6.78,8.33-11.72,14.55-22,16.52S475.13,621.89,479.77,611.6Z"/><path class="cls-13" d="M379.51,914.15c0-.12-.05,11.86,5.46,15.08,1.41.3,2.57.6,3.87.79,2.27.33,4.56.47,7,.89a25.81,25.81,0,0,0,6.85-.15c5.42-.64,6.75-3.43,7.41-5.72a11.22,11.22,0,0,0,.56-5.45c-.08-.57,1-.7,1.53-.71Z"/><path class="cls-13" d="M187.39,939.27c-.19.44,2.83,16.24,7.19,18.27.08-.13,8.51-.08,15.93.05,3.16.06,11.06.11,11.56-.05.68-.23.92-.83,1.32-1.41s1-1.26,1.26-1.67c1.25-1.82,2.68-3.75,4-5.78,3.19-5,5-9.36,4-10.84Z"/><path class="cls-13" d="M278.22,7.17c-8.55-11-73.92-1.39-66.29,11.83s34.43,42,42.16,45.8C254.09,64.8,286.78,18.23,278.22,7.17ZM249.6,45.32c-6.87,0-21.22-22-19.92-26.75S258.49,10,263.6,12.91,256.47,45.31,249.6,45.32Z"/><path class="cls-13" d="M278.49,247.71c-27.17,20.78-65.62,40-100.15,33.79-13.81-2.49-19.23-9.85-18.14-23.36-1.21-1.19-.65-.89,0,0,1.1-13.51,9.53-19.18,20.38-16.83,27.11,5.86,55.57-11.08,76.85-27.57,8.5-6.59,20.17-6.46,27,6,.76-1.16.31-.67,0,0C291.26,232.3,289.35,239.4,278.49,247.71Z"/><path class="cls-13" d="M385.05,286.06c-21.66,5.63-46.58-1.29-65.92-11.91-7.74-4.24-10.06-8.91-6.25-16.23-.48-.62-.34-.46,0,0,3.81-7.32,10.88-7.61,17.17-4.21,15.75,8.52,33.61,14.31,51.18,9.84,7-1.79,12.16,1.77,13.32,9,.8-.48.59-.38,0,0C395.7,279.75,393.71,283.8,385.05,286.06Z"/><path class="cls-14" d="M223.26,909.62Z"/><path class="cls-14" d="M202,738.39l0,0C201.54,738.36,201.15,738.36,202,738.39Z"/><path class="cls-14" d="M233.62,821c.73-5-1.44-9.7-6.43-11.18a6.66,6.66,0,0,0-1.53-.08c.19-22.43-.39-45-3.95-67.22-.94-5.85-2-4.77-6.67-6.75-.43-.19-.29.08-.68-.14-4.13,2.88-6.51,2.69-5.67,8.41,7.74,52.72,2.19,103-7.9,154.51-1.09,5.61,1.06,5.84,4.57,9.12.31.29.26.12.51.37,5.22-.32,6.5-.06,7.69-5.75,5-23.87,9.5-48,11.35-72.39C229.79,829.35,232.93,825.73,233.62,821Z"/><path class="cls-4" d="M182.91,942.73c-1.58-1.52-1.06-7.26,1.39-14.44,3.69-10.8,11.28-24.44,14.81-28.69.41-.5,13.57-4.05,15.8-4,.73,0,7.61,2.11,13.25,8.58a40.59,40.59,0,0,1,6.76,11.49,41.38,41.38,0,0,1,2.74,11.39c.48,0,.88,14,.28,14C237,941.24,183.61,943.4,182.91,942.73Z"/><path class="cls-4" d="M375.13,913.39c-.44-.12-1.47-2.79,1.06-11.19,2.13-7.08,6.46-16.48,10.91-24.43.47-.84,10.22,1.53,18.22-.78,1.3-.38,3.41-.8,4.94-.15,5.83,2.49,7.47,15.71,6.75,32.24-.25,5.74-.67,9.78-.9,9.94C415.32,919.58,376.07,913.65,375.13,913.39Z"/><path class="cls-14" d="M421.38,795.22c.72-5-1.44-9.71-6.44-11.18a6.58,6.58,0,0,0-1.52-.08c.18-22.43-.4-45-4-67.22-.93-5.85-2-4.77-6.66-6.75-.44-.19-.3.08-.68-.14-4.14,2.88-6.52,2.69-5.68,8.41,7.74,52.72,2.19,103-7.89,154.51-1.1,5.61,1.05,5.84,4.56,9.12.31.28.27.12.51.36,5.22-.31,6.4-.08,7.69-5.74a615.93,615.93,0,0,0,11.36-72.39C417.54,803.58,420.69,800,421.38,795.22Z"/><path class="cls-15" d="M411,786.86c13.85-2.44,16.31,20.11-.54,18.48"/><path class="cls-16" d="M222,814c13.42-2.46,15.76,20.08-.55,18.48"/><line class="cls-17" x1="122.03" y1="340.88" x2="99.57" y2="397.59"/><line class="cls-17" x1="425.97" y1="321.82" x2="443.06" y2="354.47"/><line class="cls-17" x1="442.83" y1="353.96" x2="472.02" y2="380.88"/><path class="cls-18" d="M460.9,112.36s-26.15,21.55-30.29,85.24"/><path class="cls-19" d="M504.24,236.36s2.4,13.71,24.31,28.1"/><path class="cls-18" d="M82.53,134.55s16.67,33.57,24.36,65.08"/><path class="cls-20" d="M134.42,335.53c-17.37,3.24-24.28,14.44-23.57,17.73"/></g></svg>