<svg xmlns="http://www.w3.org/2000/svg" width="460" height="720" viewBox="0 0 460 720"><defs><style>.cls-1{fill:#8cc63f;}.cls-2{fill:#787878;}.cls-3{fill:#221f1f;stroke-width:6.11px;}.cls-3,.cls-4,.cls-5,.cls-7{stroke:#9a9fa0;}.cls-3,.cls-4,.cls-5,.cls-6,.cls-7,.cls-8{stroke-miterlimit:10;}.cls-4{fill:#fbebd2;stroke-width:3.61px;}.cls-5,.cls-7{fill:#fff800;}.cls-6,.cls-8{fill:none;stroke:#fff;stroke-linecap:round;}.cls-7,.cls-8{stroke-width:1.03px;}</style></defs><g id="afslutnings_skærm" data-name="afslutnings skærm"><path class="cls-1" d="M229.93,506.18c-75.11,0-136,12.1-136,27s60.89,27,136,27,136-12.1,136-27S305,506.18,229.93,506.18Zm.39,45.05c-58.73,0-106.35-8.07-106.35-18s47.62-18,106.35-18,106.35,8.07,106.35,18S289.06,551.23,230.32,551.23Z"/><path class="cls-1" d="M229.93,634.56c-47.6,0-86.19,8.92-86.19,19.91s38.59,19.91,86.19,19.91,86.18-8.91,86.18-19.91S277.53,634.56,229.93,634.56Zm.25,33.18c-37.22,0-67.4-5.94-67.4-13.27S193,641.2,230.18,641.2s67.39,5.94,67.39,13.27S267.4,667.74,230.18,667.74Z"/><path class="cls-1" d="M235.46,691.4c-37.55,0-68,6.05-68,13.52s30.45,13.51,68,13.51,68-6,68-13.51S273,691.4,235.46,691.4Zm.2,22.53c-29.37,0-53.17-4-53.17-9s23.8-9,53.17-9,53.17,4,53.17,9S265,713.93,235.66,713.93Z"/><path class="cls-1" d="M225.58,577.26c-58.3,0-105.56,9-105.56,20s47.26,20,105.56,20,105.56-9,105.56-20S283.88,577.26,225.58,577.26Zm.31,33.38c-45.59,0-82.55-6-82.55-13.35s37-13.35,82.55-13.35,82.54,6,82.54,13.35S271.47,610.64,225.89,610.64Z"/><path class="cls-2" d="M91.1,468.7H369.38a0,0,0,0,1,0,0v0a66,66,0,0,1-66,66H157.1a66,66,0,0,1-66-66v0a0,0,0,0,1,0,0Z"/><path class="cls-3" d="M429.47,481.66c-131,1.35-268.23,1.46-398.73-.08-16.32-.19-22.48-44.12-23.32-112.84-.87-72.34-.85-177.6,0-250.08C8.23,49.8,14.46,6.44,30.78,6.2c130.5-2,267.56-2.29,398.87.2,16.42.31,21.72,43.23,22.78,112.21,1.13,72.62,1,177.77,0,250.1C451.54,437.42,445.85,481.49,429.47,481.66Z"/><path class="cls-4" d="M406.88,448.09c-118,1.29-239.25,2.86-358.27-.59C37,447.16,34,410.56,33,350.9c-1-61.63-.82-152.19,0-213.3.76-59.16,4.4-97.77,16-97.88,118.18-1.12,240.38-.92,357.88-.11,11.5.08,15.87,39,16.46,98,.62,60.91.72,152,0,213.21C422.52,410,418.43,448,406.88,448.09Z"/><circle class="cls-5" cx="36.85" cy="25.7" r="9.5"/><path class="cls-6" d="M36.35,20.2s5.14,1,5.57,5.5"/><circle class="cls-5" cx="82.85" cy="25.7" r="9.5"/><path class="cls-6" d="M82.35,20.2s5.14,1,5.57,5.5"/><circle class="cls-5" cx="135.85" cy="25.7" r="9.5"/><path class="cls-6" d="M135.35,20.2s5.14,1,5.57,5.5"/><circle class="cls-5" cx="184.85" cy="25.7" r="9.5"/><path class="cls-6" d="M184.35,20.2s5.14,1,5.57,5.5"/><circle class="cls-5" cx="227.85" cy="25.7" r="9.5"/><path class="cls-6" d="M227.35,20.2s5.14,1,5.57,5.5"/><circle class="cls-5" cx="267.85" cy="25.7" r="9.5"/><path class="cls-6" d="M267.35,20.2s5.14,1,5.57,5.5"/><circle class="cls-5" cx="43.85" cy="464.7" r="9.5"/><path class="cls-6" d="M43.35,459.2s5.14,1,5.57,5.5"/><ellipse class="cls-7" cx="26.35" cy="433.7" rx="10" ry="9.5"/><path class="cls-8" d="M25.82,428.2s5.42,1,5.87,5.5"/><ellipse class="cls-7" cx="22.35" cy="398.7" rx="10" ry="9.5"/><path class="cls-8" d="M21.82,393.2s5.42,1,5.87,5.5"/><ellipse class="cls-7" cx="22.35" cy="363.7" rx="10" ry="9.5"/><path class="cls-8" d="M21.82,358.2s5.42,1,5.87,5.5"/><ellipse class="cls-7" cx="20.35" cy="319.7" rx="10" ry="9.5"/><path class="cls-8" d="M19.82,314.2s5.42,1,5.87,5.5"/><ellipse class="cls-7" cx="21.35" cy="282.7" rx="10" ry="9.5"/><path class="cls-8" d="M20.82,277.2s5.42,1,5.87,5.5"/><ellipse class="cls-7" cx="21.35" cy="245.7" rx="10" ry="9.5"/><path class="cls-8" d="M20.82,240.2s5.42,1,5.87,5.5"/><ellipse class="cls-7" cx="21.35" cy="208.7" rx="10" ry="9.5"/><path class="cls-8" d="M20.82,203.2s5.42,1,5.87,5.5"/><ellipse class="cls-7" cx="20.35" cy="174.7" rx="10" ry="9.5"/><path class="cls-8" d="M19.82,169.2s5.42,1,5.87,5.5"/><ellipse class="cls-7" cx="22.35" cy="140.7" rx="10" ry="9.5"/><path class="cls-8" d="M21.82,135.2s5.42,1,5.87,5.5"/><ellipse class="cls-7" cx="21.35" cy="106.7" rx="10" ry="9.5"/><path class="cls-8" d="M20.82,101.2s5.42,1,5.87,5.5"/><ellipse class="cls-7" cx="24.35" cy="60.7" rx="10" ry="9.5"/><path class="cls-8" d="M23.82,55.2s5.42,1,5.87,5.5"/><circle class="cls-5" cx="86.85" cy="465.7" r="9.5"/><path class="cls-6" d="M86.35,460.2s5.14,1,5.57,5.5"/><circle class="cls-5" cx="140.85" cy="468.7" r="9.5"/><path class="cls-6" d="M140.35,463.2s5.14,1,5.57,5.5"/><circle class="cls-5" cx="186.85" cy="468.7" r="9.5"/><path class="cls-6" d="M186.35,463.2s5.14,1,5.57,5.5"/><circle class="cls-5" cx="229.85" cy="468.7" r="9.5"/><path class="cls-6" d="M229.35,463.2s5.14,1,5.57,5.5"/><circle class="cls-5" cx="269.85" cy="465.7" r="9.5"/><path class="cls-6" d="M269.35,460.2s5.14,1,5.57,5.5"/><circle class="cls-5" cx="309.85" cy="25.7" r="9.5"/><path class="cls-6" d="M309.35,20.2s5.14,1,5.57,5.5"/><circle class="cls-5" cx="349.85" cy="25.7" r="9.5"/><path class="cls-6" d="M349.35,20.2s5.14,1,5.57,5.5"/><circle class="cls-5" cx="394.85" cy="25.7" r="9.5"/><path class="cls-6" d="M394.35,20.2s5.14,1,5.57,5.5"/><circle class="cls-5" cx="428.85" cy="38.7" r="9.5"/><path class="cls-6" d="M428.35,33.2s5.14,1,5.57,5.5"/><circle class="cls-5" cx="433.85" cy="72.7" r="9.5"/><path class="cls-6" d="M433.35,67.2s5.14,1,5.57,5.5"/><circle class="cls-5" cx="435.85" cy="106.7" r="9.5"/><path class="cls-6" d="M435.35,101.2s5.14,1,5.57,5.5"/><circle class="cls-5" cx="437.85" cy="140.7" r="9.5"/><path class="cls-6" d="M437.35,135.2s5.14,1,5.57,5.5"/><circle class="cls-5" cx="438.85" cy="174.7" r="9.5"/><path class="cls-6" d="M438.35,169.2s5.14,1,5.57,5.5"/><circle class="cls-5" cx="437.85" cy="208.7" r="9.5"/><path class="cls-6" d="M437.35,203.2s5.14,1,5.57,5.5"/><circle class="cls-5" cx="438.85" cy="239.7" r="9.5"/><path class="cls-6" d="M438.35,234.2s5.14,1,5.57,5.5"/><circle class="cls-5" cx="438.85" cy="273.7" r="9.5"/><path class="cls-6" d="M438.35,268.2s5.14,1,5.57,5.5"/><circle class="cls-5" cx="437.85" cy="310.7" r="9.5"/><path class="cls-6" d="M437.35,305.2s5.14,1,5.57,5.5"/><circle class="cls-5" cx="438.85" cy="347.7" r="9.5"/><path class="cls-6" d="M438.35,342.2s5.14,1,5.57,5.5"/><circle class="cls-5" cx="437.85" cy="388.7" r="9.5"/><path class="cls-6" d="M437.35,383.2s5.14,1,5.57,5.5"/><circle class="cls-5" cx="434.85" cy="426.7" r="9.5"/><path class="cls-6" d="M434.35,421.2s5.14,1,5.57,5.5"/><circle class="cls-5" cx="423.85" cy="464.7" r="9.5"/><path class="cls-6" d="M423.35,459.2s5.14,1,5.57,5.5"/><circle class="cls-5" cx="389.85" cy="465.7" r="9.5"/><path class="cls-6" d="M389.35,460.2s5.14,1,5.57,5.5"/><circle class="cls-5" cx="351.85" cy="468.7" r="9.5"/><path class="cls-6" d="M351.35,463.2s5.14,1,5.57,5.5"/><circle class="cls-5" cx="309.85" cy="468.7" r="9.5"/><path class="cls-6" d="M309.35,463.2s5.14,1,5.57,5.5"/></g></svg>