<svg xmlns="http://www.w3.org/2000/svg" width="415" height="510" viewBox="0 0 415 510"><defs><style>.cls-1{fill:#c45605;}.cls-2{fill:red;}.cls-3{fill:#c62430;}.cls-21,.cls-23,.cls-4{fill:#fbebd2;}.cls-5{fill:#736357;}.cls-6{fill:#493e37;}.cls-7{fill:#332c28;}.cls-8{fill:#eac31b;}.cls-9{fill:#f15a24;}.cls-10{fill:#ff7f00;}.cls-11{fill:#ed1c24;}.cls-12{fill:#913f26;}.cls-13{fill:#999;}.cls-14{fill:#636363;}.cls-15{fill:#006466;}.cls-16{fill:#6b492d;}.cls-17,.cls-19{fill:#f7b9a1;}.cls-17{stroke:#f7b9a1;stroke-width:0.51px;}.cls-17,.cls-21,.cls-23,.cls-24,.cls-25,.cls-27,.cls-28,.cls-29,.cls-30,.cls-37,.cls-38{stroke-miterlimit:10;}.cls-18{fill:#c69189;}.cls-20,.cls-24{fill:#f2a0c6;}.cls-21,.cls-23,.cls-24{stroke:#221f1f;}.cls-21{stroke-width:0.63px;}.cls-22{fill:#221f1f;}.cls-23,.cls-30{stroke-width:0.37px;}.cls-24{stroke-width:0.65px;}.cls-25{fill:#c8aca6;stroke:#000;stroke-width:0.55px;opacity:0.69;}.cls-26{fill:#d94625;}.cls-27,.cls-28,.cls-29,.cls-30{fill:none;stroke:#b27996;}.cls-27,.cls-28,.cls-29{stroke-linecap:round;}.cls-27{stroke-width:0.47px;}.cls-28{stroke-width:0.19px;}.cls-29{stroke-width:0.17px;}.cls-31{fill:#f2afa0;}.cls-32{fill:#8c6239;}.cls-33{fill:#b78b84;}.cls-34{fill:#fcee21;}.cls-35{fill:#fff;}.cls-36{fill:#dd1212;}.cls-37,.cls-38{stroke:#0c0707;}.cls-37{stroke-width:0.55px;}.cls-38{stroke-width:0.6px;}.cls-39{fill:#08acff;}</style></defs><g id="vinder_krop" data-name="vinder krop"><path class="cls-1" d="M100.2,195.39c-25,77.24,127.06,117.52,185.6,109.31a5.06,5.06,0,0,0,4.6-6h0a5.59,5.59,0,0,0-6.38-4.49c-45.08,8.66-191.23-35.5-173.14-95.6,1.12-3.73-1.19-6-4.07-6.65h0C103.93,191.33,101.65,190.92,100.2,195.39Z"/><ellipse class="cls-2" cx="286.16" cy="299.57" rx="4.18" ry="5.36"/><ellipse class="cls-3" cx="286.16" cy="299.33" rx="2.89" ry="3.71"/><ellipse class="cls-4" cx="286.54" cy="300.2" rx="1.23" ry="1.58"/><path class="cls-5" d="M110.37,197.05c-.64,0,17.36-14.5,16.07-18.92,0,0,1.29-2.52-.64-1.26s-.64-12.62,1.29-13.25,1.28-1.89-1.29-1.26l-.64,1.26a2.75,2.75,0,0,1-1.29-3.79c1.29-2.52,3.86-10.09-2.57-14.51,0,0-.64,8.84-.64,8.21s-3.22-11.36-9-13.25c0,0-1.93-.63-1.93,5.68,0,0-3.85,0-3.85-1.27s-3.22-3.15-2.58,1.9,1.93,9.46,1.29,10.72-2.57.63-3.21-1.89-1.29-2.53-2.57-3.16.72,9.35.64,9.47c-1.29,1.89.08-.12.08-.12s-2-1.14-2.65-.51a1.18,1.18,0,0,0,.57,2.13c1.36.39,0,1,0,1s-.57,11.35,1.36,12.61-1.36,0-1.36,0,1.36-2.45,1.36,8.84c0,.63,1.57,11.35,1.57,11.35Z"/><path class="cls-6" d="M109.74,196.42c-.53,0,14.38-10.63,13.31-13.87,0,0,1.07-1.85-.53-.93s-.53-9.25,1.07-9.71,1.06-1.39-1.07-.92l-.53.92s-2.13-.92-1.07-2.77,3.2-7.4-2.13-10.64c0,0-.53,6.47-.53,6s-2.66-8.32-7.45-9.71c0,0-1.6-.46-1.6,4.16,0,0-3.2,0-3.2-.92s-2.66-2.31-2.13,1.39,1.6,6.93,1.07,7.86-2.13.46-2.67-1.39-1.06-1.85-2.13-2.31.61,6.85.54,6.93c-1.07,1.39.07-.08.07-.08s-1.67-.84-2.2-.38-.66,1.28.47,1.57,0,.75,0,.75-.47,8.32,1.12,9.24-1.12,0-1.12,0,1.12-1.79,1.12,6.48c0,.46,1.31,8.32,1.31,8.32Z"/><path class="cls-7" d="M108.36,195.79c-.35,0,9.47-7,8.77-9.13,0,0,.7-1.22-.36-.61s-.35-6.09.71-6.4.7-.91-.71-.61l-.35.61s-1.4-.61-.7-1.83,2.11-4.87-1.4-7c0,0-.35,4.26-.35,4s-1.75-5.48-4.91-6.4c0,0-1-.3-1,2.74,0,0-2.11,0-2.11-.61s-1.75-1.52-1.4.92,1,4.57.7,5.18-1.4.3-1.75-.92-.7-1.22-1.4-1.52.39,4.51.35,4.57c-.71.91,0-.06,0-.06s-1.1-.55-1.45-.25-.43.84.31,1,0,.5,0,.5-.31,5.48.75,6.09-.75,0-.75,0,.75-1.18.75,4.27c0,.31.85,5.48.85,5.48Z"/><path class="cls-7" d="M111.57,157a3.25,3.25,0,0,0,0-.41c0-2.25-.13-12.07-2.5-14.39l2.5,14.59"/><path class="cls-7" d="M109,157c0-.07,0-.21,0-.41,0-2.25-.13-12.07-2.5-14.39L109,156.76"/><path class="cls-7" d="M115.43,157c0-.07,0-.21,0-.41,0-2.25-.14-12.07-2.5-14.39l2.49,14.59"/><path class="cls-7" d="M112.86,153.81c0-.07,0-.21,0-.4.05-2.26-.14-12.07-2.51-14.39l2.5,14.58"/><path class="cls-7" d="M119.93,159.49c0-.07,0-.21,0-.4,0-2.26-.14-12.07-2.51-14.4l2.5,14.59"/><path class="cls-7" d="M117.77,156.26c0-.07,0-.21,0-.4-.07-2.26-.8-12.05-3.3-14.24l3.31,14.43"/><path class="cls-7" d="M121.51,146.45c0,.08,0,.23-.06.44-.25,2.49-.9,13.32,1.51,16.09l-1.48-16.3"/><path class="cls-7" d="M125,146.54l-.17.42c-.89,2.34-4.32,12.66-2.71,15.93l2.79-16.13"/><path class="cls-7" d="M126.25,151.59a2.62,2.62,0,0,0-.17.42c-.89,2.33-4.33,12.65-2.71,15.93l2.78-16.14"/><path class="cls-7" d="M128.17,154.11l-.17.42c-.89,2.34-4.32,12.66-2.7,15.93l2.78-16.13"/><path class="cls-7" d="M127.5,165.24l-.23.37c-1.25,2.13-6.12,11.69-4.15,15.59l4.26-15.77"/><path class="cls-7" d="M126.89,155.37c0,.08-.09.22-.17.42-.89,2.34-4.32,12.66-2.71,15.93l2.79-16.13"/><path class="cls-7" d="M118.94,144.56a3.57,3.57,0,0,0-.06.44c-.25,2.48-.9,13.32,1.51,16.08l-1.49-16.29"/><path class="cls-7" d="M113.8,138.88a3.57,3.57,0,0,0-.06.44c-.25,2.49-.9,13.32,1.51,16.08l-1.49-16.29"/><path class="cls-7" d="M104.8,141.4a3.52,3.52,0,0,0-.06.45c-.25,2.48-.9,13.32,1.51,16.08l-1.49-16.3"/><path class="cls-7" d="M98.37,156.54c0,.08,0,.23-.05.45-.26,2.48-.9,13.32,1.51,16.08l-1.49-16.3"/><path class="cls-7" d="M102.23,150.23a3.82,3.82,0,0,0-.06.45c-.25,2.48-.9,13.32,1.51,16.08l-1.49-16.29"/><path class="cls-8" d="M209.13,222.45s-10.25,3.56-14.32,22.43-3.55,20.39-8.79,29.53-12.45,24.13-12.45,24.13-.27,14.33.15,20.61,3.94,13.28-4,28c0,0-.41-25.59-3.4-28.18s-8.49,26.44-8.49,26.44-4.43-14.61-2.51-20.75a99.64,99.64,0,0,1,4.6-11.71s-17.23,12.17-16.75,21.62c0,0-7.51-26.22,21.66-41.82,0,0,11.89-14.92,12.68-22.19s5.17-10.6,7.67-30.54c2.38-19,7.25-20.16,15.16-23.75"/><path class="cls-9" d="M174.68,332.8c-.44,3.85-1.78,8.48-4.93,14.34,0,0-.14-8.78-.86-16.57Z"/><path class="cls-9" d="M148.9,322.86c-3.25,3.7-5.89,7.92-5.7,11.7a34.06,34.06,0,0,1-.31-14Z"/><path class="cls-9" d="M161.87,327.86c-2.14,7.71-4,17.54-4,17.54s-4.15-13.66-2.67-20.12Z"/><path class="cls-10" d="M224.67,207c-1.64.19-2.88,1.13-4.56.93l-.23-2.34C221.56,205.74,223.21,205.54,224.67,207Z"/><path class="cls-10" d="M187.33,201c0,.05,12.65-12.74,12.81-14s.11,1.69.33,1.74c2.64.48,25,16.21,25,16.21s-6.36,18.73-6.75,25.1-13.22,11.45-14.13-5c0,0,.31,10.24-7.55,8s-7.16-12.2-4.79-15.25-.07-.78-.07-.78-5.06,13.25-11.15,1.71S187.33,201,187.33,201Zm32.78,6.84c1.68.2,2.92-.74,4.56-.93-1.46-1.41-3.11-1.21-4.79-1.41Z"/><path class="cls-11" d="M200.53,185.81c2.18-3.86,9.49-2.54,16.33,2.95s10.63,13.07,8.45,16.93a3.84,3.84,0,0,1-.86,1.05,4.46,4.46,0,0,1-.43.33,21.46,21.46,0,0,1-3.17.83l-.75,0c-3.16-.23-7.22-2-11.12-5.13C202.14,197.25,198.36,189.67,200.53,185.81Z"/><path class="cls-3" d="M201.23,186.42c2-3.55,8.57-2.32,14.76,2.77s9.62,12.08,7.66,15.64a3.85,3.85,0,0,1-1.16,1.27,18.72,18.72,0,0,1-2.87.76l-.67,0c-2.86-.22-6.53-1.86-10.06-4.76C202.7,197,199.27,190,201.23,186.42Z"/><path class="cls-11" d="M224,207.07a5.84,5.84,0,0,1-3.17.83A21.46,21.46,0,0,0,224,207.07Z"/><path class="cls-4" d="M214.53,198.27s11.39-16.22,11.95-15.77,10.07,2.49,8.74-4.47-8.81-1.72-8.81-1.72.67-10.36-5.28-6.49-1.45,9.26-1.45,9.26l-10.9,15.09Z"/><path d="M217.69,186c-.36-.42-6.2,5.71-6,8.28"/><path class="cls-12" d="M195.16,244s-8.13-4.73-8.87-4,8.48,5.27,8.48,5.27Z"/><path class="cls-12" d="M184.83,243.55s3.82.91,3.57,1.87-3.7-1.15-3.7-1.15Z"/><path class="cls-12" d="M184.08,248s8.47,2.31,7.84,2.78-8.07-1.58-8.07-1.58Z"/><path class="cls-12" d="M191.81,259.81c-1.1.1-10.3-4.3-9.12-5.6,0,0,9.38,5,9.22,5.13s0,0,0,0Z"/><polygon class="cls-12" points="190.35 265.57 180.75 260.49 180.03 262.44 189.96 266.72 190.35 265.57"/><polygon class="cls-12" points="189.02 269.1 179.33 264.32 179.03 265.14 188.52 270.18 189.02 269.1"/><path class="cls-12" d="M177.2,272.78c.14-.54,7.75,4,7.75,4l-1.06,1.93-7.12-4.62Z"/><polygon class="cls-12" points="196.81 238.4 186.62 232.41 186.4 234.17 196.3 239.87 196.81 238.4"/><path class="cls-12" d="M181.58,283s-2.83-3-3.49-3,3,3.95,3,3.95Z"/><path class="cls-12" d="M192.83,255l-9.4-3.81-.31,1.37s9,3,9.31,3.15S192.83,255,192.83,255Z"/><polygon class="cls-12" points="191.12 227.4 188.87 225.75 188.4 226.77 191.75 229.08 191.12 227.4"/><path class="cls-12" d="M196.75,233.38s1.65,1.34,1.63,1.27a5.74,5.74,0,0,1,.43-.86Z"/><path class="cls-12" d="M173.35,280.94l6.43,5.58s-.26.72-.31.61-6.48-5.6-6.48-5.6Z"/><polygon class="cls-12" points="170.99 284.68 177.66 290.69 177.25 291.51 170.63 285.23 170.99 284.68"/><path class="cls-12" d="M164.9,293.13s1.55.95,4.74,2.95a22.5,22.5,0,0,1,4,2.85l1.32-2.72-7.83-6Z"/><path class="cls-13" d="M322.73,203.05s6.87,7.48,9.8,9.28,8.4,7,8.73,11.29,5.87,5.85,5.87,5.85,6.1,16,7.81,17.66,8.64,21.26,11.71,22.53,47-22.89,47-22.89S415,234.72,412.28,231s-32.58-43.61-35.93-46.79c-2.8-4.58-22.15,4.8-26.72-3.23C345.32,173.38,322.73,203.05,322.73,203.05Z"/><path class="cls-14" d="M367.2,269.81s-6.28-11,2.06-13.88,14.26,6.44,14.26,6.44L375,266.81Z"/><path class="cls-14" d="M383.86,262.17s-3.17-14.57,3.24-15.34,10.87,8,10.87,8l-6.81,3.87Z"/><path class="cls-14" d="M398.84,254.78c.06.11-2.53-13.13,2.35-15.66S413.33,247,413.33,247Z"/><path d="M354.58,216.33c-.1-1.22,4.07-4.47,9.7-8.41,2.57-1.81,5.46-3.76,8.38-5.73"/><path d="M355.88,220.53s11.83-5.43,13.76-7.51,11.43-10.58,11.7-11.64"/><path d="M362.89,225.23c1,1.58,24-17.09,23.7-19"/><path d="M360.28,234.47c2.68.19,27.79-21.92,27.22-23"/><path d="M375.33,227.84c.12-.35,2.24-7.83,9.11-8,.29,0,.18.34.18.34s-7.15,3.21-8.15,7.35C376.47,227.5,375.16,228.36,375.33,227.84Z"/><path class="cls-15" d="M332.41,280.47s43.93,66.15-79.49,178.45c0,0-87.66,58.17-184.75,26.78,0,0-28.64,6-67.16,24,0,0,.06-18.83,37.25-27.33,0,0,4.67-2.51,0-16.2-3-8.77-34.68-47-23.4-41S62,471.38,67.39,470.76c8.66-1,63.09,1.54,104.73-79.82,0,0,52.89-94.62,41.18-102.84S332.41,280.47,332.41,280.47Z"/><ellipse class="cls-11" cx="272.1" cy="282.81" rx="60.77" ry="19.94" transform="translate(-0.7 0.68) rotate(-0.14)"/><ellipse class="cls-3" cx="272.59" cy="283.3" rx="48.94" ry="16.06" transform="translate(-0.7 0.68) rotate(-0.14)"/><ellipse class="cls-4" cx="271.68" cy="283.52" rx="20.98" ry="6.88" transform="translate(-0.7 0.68) rotate(-0.14)"/><rect class="cls-16" x="259.13" y="90.43" width="21.84" height="59.55" rx="10.92" transform="translate(63.22 -90.97) rotate(21.6)"/><path class="cls-4" d="M211.88,183c-.35,1.1,1.29,2.62,3.67,3.34a7.88,7.88,0,0,0,3.32.35c.84-.12,1.45-.46,1.62-1,.36-1.09-1.29-2.59-3.67-3.34S212.23,181.91,211.88,183Z"/><ellipse class="cls-17" cx="250.34" cy="175.84" rx="6.52" ry="5.03" transform="matrix(0.02, -1, 1, 0.02, 69.28, 422.43)"/><ellipse class="cls-18" cx="248.62" cy="176.48" rx="1.29" ry="1.61" transform="translate(-28.34 49) rotate(-10.65)"/><ellipse class="cls-17" cx="283.49" cy="181.13" rx="3.57" ry="5.21" transform="translate(-30.73 60.97) rotate(-11.65)"/><ellipse class="cls-18" cx="284.2" cy="181.03" rx="1.6" ry="1.08" transform="translate(86.64 454) rotate(-86.6)"/><polygon class="cls-19" points="208.2 164.61 212.71 161.73 208.83 165.59 208.2 164.61"/><polygon class="cls-19" points="212.42 172.87 215.08 170.94 212.7 173.5 212.42 172.87"/><path class="cls-19" d="M216,184.32l2.85-1.37s-2.74,2.15-2.81,2Z"/><path class="cls-19" d="M214.44,177.72a21.58,21.58,0,0,0,3.62-2.36c1-1-3.65,2.59-3.21,3.42Z"/><path class="cls-19" d="M323.9,173.85a18,18,0,0,0-1.94-3c-.78-.81,1.28,3.72,1.28,3.72Z"/><polygon class="cls-19" points="321.1 177.21 318.43 169.91 320.5 177.98 321.1 177.21"/><path class="cls-19" d="M315.16,185.55l-5.85-2.44s5.89,1.09,6.34,1.69Z"/><path class="cls-19" d="M317.49,182.12s-3.12-3.91-3.55-4,4.11,2.68,4,3.36Z"/><polygon class="cls-19" points="319.07 179.91 316.39 176.24 319.28 179.62 319.07 179.91"/><path class="cls-20" d="M216.41,230.28c-.16,3.55-3.55,13.4-5.65,25.52,0,0-8.56,39.89-7.75,43L203,301s19.12,8.23,24.77,8.4A84.28,84.28,0,0,1,241.61,311c1.94.48,11.79,1.13,13.57,2.1s8.72,1.13,9.21,1,8.56.16,11.63-.65A55.36,55.36,0,0,0,282.8,311s17.93,0,24.07-2.26,32.95-9.69,36-16.48c0,0-2.91-27.13-4.52-27.62,0,0-5.17-26.49-5.49-29.56S329.16,214,325,209.76l-7.75-12.28s6.87,6.18,8.07,7.27c1,.87,8.24-1.45,12.44-4s14.22-12,17.87-17.88l-9.53-11.79s-14.48-30.75-15.44-31.88-4.2-8.56-9.37-9.85-6.14-11-56.38-2.59c0,0-37-1.13-49.1,9.86,0,0-23.26,56.86-22,58.63s-4.2,4.53,13.24,13.41l14.06,1S216.57,226.72,216.41,230.28Z"/><path class="cls-21" d="M261.6,168.46c-8.87,0-16.07,6.51-16.07,14.54a13.52,13.52,0,0,0,2.37,7.61,4.89,4.89,0,0,0-2.37,4.11,5.31,5.31,0,0,0,5.55,5,5.58,5.58,0,0,0,5.1-3,17.52,17.52,0,0,0,5.42.85c8.88,0,16.07-6.51,16.07-14.55S270.48,168.46,261.6,168.46Z"/><path class="cls-22" d="M266,169.85c-6.06.14-10.82,5.93-10.64,12.94,0,.33,0,.66.06,1,4.7-1.82,8.52-2,10.65,1.14-3,1.56-4.91,4.37-6.27,7.75a10,10,0,0,0,6.88,2.59c6.06-.13,10.82-5.92,10.63-12.94S272.08,169.72,266,169.85Z"/><path class="cls-23" d="M287.08,177.13A8,8,0,0,1,297.27,182a7.55,7.55,0,0,1,.12,4.26,2.67,2.67,0,0,1,1.83,1.73,2.76,2.76,0,0,1-1.84,3.44,2.84,2.84,0,0,1-3-.75,8.29,8.29,0,0,1-2.47,1.29,7.83,7.83,0,1,1-4.85-14.88Z"/><path class="cls-22" d="M292.24,178.07c-2.92.07-5.22,2.81-5.14,6.11a3.71,3.71,0,0,0,0,.47,3.93,3.93,0,0,1,5.12.52,5.49,5.49,0,0,0-3,3.66,4.86,4.86,0,0,0,3.3,1.21c2.92-.07,5.22-2.81,5.14-6.11S295.15,178,292.24,178.07Z"/><path class="cls-24" d="M287.19,201.77c14.51,1,34.67.64,31,20s-12.72,32.06-9.5,50.85c.38,2.84,8.78,3.42,5.67,7.78-4.83,6.79-19.19.87-17.71-8.85.69-4.5,3.89-9.85,4.62-14.67,2.15-5.63,10-45.7-6.74-33.72-2.22,3.54-5.65,6.05-6.93,10.09"/><path class="cls-25" d="M298.61,273.78c4.11-3.82,13.07,1.85,14.08,5.92.84,3.38-5.08,1.79-6.95,1.62S296.34,275.88,298.61,273.78Z"/><path class="cls-26" d="M260.6,161.52c-7.86,2.71-17.35,7.91-22.07,15.7-1.89,3.11-1.6,5.18.77,6.76,0,.41,0,.25,0,0,2.36,1.58,4.68.63,6.1-1.87,3.55-6.24,11-9.73,17.21-11.82a5,5,0,0,0,3.5-6.25c.31,0,.16,0,0,0C265.22,161,263.75,160.44,260.6,161.52Z"/><path class="cls-26" d="M305.71,180.62c-3.48-5.44-10.07-8.88-16.19-10.44-2.45-.62-3.84-.09-4.44,2.2h0c-.61,2.29.83,3.74,2.81,4.26,5,1.29,9.84,3.58,12.69,8a2.85,2.85,0,0,0,4.53.73c.08.25.05.19,0,0C306.74,184,307.1,182.8,305.71,180.62Z"/><line class="cls-27" x1="226.86" y1="193.51" x2="220.58" y2="209.37"/><line class="cls-27" x1="311.9" y1="188.17" x2="316.68" y2="197.31"/><line class="cls-27" x1="316.61" y1="197.17" x2="324.78" y2="204.7"/><path class="cls-28" d="M321.67,129.58s-7.32,6-8.48,23.84"/><path class="cls-29" d="M339.21,163.06s.67,3.84,6.8,7.86"/><path class="cls-28" d="M215.82,135.78A103.59,103.59,0,0,1,222.63,154"/><path class="cls-30" d="M230.33,192c-4.86.91-6.79,4-6.59,5"/><path class="cls-4" d="M225.59,77.85S200.25,50.6,229.4,32.77c0,0-5.8,23.78,9.19,30.46S225.59,77.85,225.59,77.85Z"/><path class="cls-4" d="M338.06,25S342.12-7.29,302.6,1.91c0,0,26.63,9.1,21.82,17.83s12.82,5.52,12.82,5.52"/><path class="cls-20" d="M230,85.16c-.91.65-12.34,5.23-20.07-7.1,0,0,7.07-4.29,14.83-2.63S230,85.16,230,85.16Z"/><path class="cls-31" d="M231.72,84.65c-.66.47-9,3.81-14.6-5.17,0,0,5.14-3.12,10.79-1.91S231.72,84.65,231.72,84.65Z"/><path class="cls-20" d="M343,30.67c1.13-.29,12.58-6.19,8.6-20.07,0,0-8.2,2.72-12.34,9.79S343,30.67,343,30.67Z"/><path class="cls-31" d="M339.9,33.64c1-.24,10.87-5.35,7.43-17.34,0,0-7.08,2.35-10.66,8.46S339.9,33.64,339.9,33.64Z"/><path class="cls-32" d="M225.47,76a2.14,2.14,0,0,1-.07-.53c-.05-1.63.95-6.76,14.06-12.49,15.92-7,57.23-40.58,84-43.35s23.95,24.36,15.88,35S325.78,96.44,335,112.14c.1.18.21.35.31.51.45-.23,3.74,7.43-9.4,14s-17.79.88-17,.61c1.85,1.1-32.82-19.53-28.79-17.09s-38.07-11.77-38.07-11.77S223.26,79.54,225.47,76Z"/><path class="cls-16" d="M234.81,76.52a2,2,0,0,1-.06-.47c-.05-1.43.83-5.92,12.33-11,14-6.11,50.21-35.6,73.71-38s21,21.36,13.93,30.72-11.91,36.68-3.78,50.46l.27.45c.39-.21,3.28,6.51-8.25,12.24s-15.61.77-14.89.54c1.62,1-28.8-17.14-25.26-15s-33.4-10.32-33.4-10.32S232.87,79.65,234.81,76.52Z"/><path class="cls-33" d="M306.86,123.82s1.54-5.28,6.56-4.49,9.25,6.6,7.92,8.45-2,1.92-2,1.92-5.15.38-6.59-2a1.51,1.51,0,0,1-.14-.44S307,123.8,306.86,123.82Z"/><path class="cls-31" d="M308.87,124.53s1.36-4.06,5.45-3.55,7.44,4.87,6.33,6.31-1.71,1.51-1.71,1.51-4.22.38-5.35-1.44a.91.91,0,0,1-.1-.33S309,124.52,308.87,124.53Z"/><path class="cls-33" d="M336.78,108.2c-.2,0-7.8-1.44-7,4s3,9.73,6.11,9.6,3.8-8.45,2.95-9.61A28.6,28.6,0,0,1,336.78,108.2Z"/><path class="cls-31" d="M336.77,109.18c-.16,0-6.3-1.16-5.67,3.27s2.43,7.86,4.94,7.76,3.07-6.83,2.38-7.77A23.11,23.11,0,0,1,336.77,109.18Z"/><path class="cls-34" d="M335.52,112a8.51,8.51,0,0,1-.23,3.81,8.82,8.82,0,0,1,1.39,2.28c2.16,5.12-.76,11.25-6.52,13.67s-12.18.25-14.34-4.87a9.15,9.15,0,0,1-.5-1.59,9.56,9.56,0,0,1-3.17-2,11.47,11.47,0,0,0,.89,4.76c2.74,6.49,10.87,9.25,18.17,6.18s11-10.83,8.25-17.32A11.57,11.57,0,0,0,335.52,112Z"/><ellipse class="cls-35" cx="313.34" cy="67" rx="7.62" ry="5.71" transform="translate(-4.44 108.06) rotate(-19.43)"/><ellipse class="cls-36" cx="313.53" cy="66.93" rx="6.02" ry="4.51" transform="translate(-4.41 108.12) rotate(-19.43)"/><ellipse cx="313.52" cy="67.81" rx="3.31" ry="2.48" transform="translate(5.63 157.8) rotate(-28.5)"/><ellipse class="cls-35" cx="279.06" cy="83.84" rx="7.62" ry="5.71" transform="translate(-12 97.61) rotate(-19.43)"/><ellipse class="cls-36" cx="279.25" cy="83.77" rx="6.02" ry="4.51" transform="translate(-11.96 97.67) rotate(-19.43)"/><ellipse cx="279.24" cy="84.65" rx="3.31" ry="2.48" transform="translate(-6.56 143.49) rotate(-28.5)"/><rect class="cls-37" x="294.07" y="59.97" width="28.65" height="2.98" rx="1.49" transform="translate(46.87 236.07) rotate(-45)"/><rect class="cls-38" x="262.12" y="75.9" width="33.32" height="2.98" rx="1.49"/><path class="cls-39" d="M245.57,194.22c0-.11,10.23,1.93,10.23,1.93v26.1s-1,9.24-4.32-4.91l-1-18S246.38,199.32,245.57,194.22Z"/><path class="cls-39" d="M299.2,188.85c0-.06-4.23,1.12-4.23,1.12l-.34,16.2s.29,5.75,1.84-3l.65-11.19S298.8,192,299.2,188.85Z"/></g><g id="startskærm"><path class="cls-35" d="M266.21,50.91a.9.9,0,0,0,0-1.8.9.9,0,0,0,0,1.8Z"/></g></svg>