<svg xmlns="http://www.w3.org/2000/svg" width="495" height="135" viewBox="0 0 495 135"><defs><style>.cls-1{fill:#ff0b0b;}</style></defs><g id="liv"><path class="cls-1" d="M155.65,41.88c0-22-19.42-39.83-43.37-39.83A44.92,44.92,0,0,0,79,16.35,44.91,44.91,0,0,0,45.69,2.05c-24,0-43.38,17.83-43.38,39.83,0,13.1,6.9,24.73,17.54,32L79,128.16l59.13-54.29C148.76,66.61,155.65,55,155.65,41.88Z"/><path class="cls-1" d="M321.78,41.88c0-22-19.42-39.83-43.38-39.83a44.92,44.92,0,0,0-33.3,14.3,44.88,44.88,0,0,0-33.29-14.3c-24,0-43.38,17.83-43.38,39.83,0,13.1,6.9,24.73,17.54,32l59.13,54.29,59.14-54.29C314.88,66.61,321.78,55,321.78,41.88Z"/><path class="cls-1" d="M492.69,46.67c0-22-19.42-39.83-43.38-39.83A44.91,44.91,0,0,0,416,21.14a44.92,44.92,0,0,0-33.3-14.3c-24,0-43.37,17.83-43.37,39.83,0,13.1,6.89,24.73,17.54,32L416,133l59.13-54.29C485.79,71.4,492.69,59.77,492.69,46.67Z"/></g></svg>