<svg xmlns="http://www.w3.org/2000/svg" width="285" height="160" viewBox="0 0 285 160"><defs><style>.cls-1,.cls-3{fill:#221f1f;}.cls-1,.cls-2{stroke:#9a9fa0;stroke-miterlimit:10;}.cls-1{stroke-width:2.41px;}.cls-2{fill:#fbebd2;stroke-width:1.29px;}</style></defs><g id="startskærm"><path class="cls-1" d="M256.23,148.68c-72.77.38-149,.41-221.56,0-9.07-.06-12.49-12.37-13-31.64-.49-20.29-.48-49.8,0-70.13.45-19.31,3.91-31.46,13-31.53,72.51-.56,148.67-.64,221.64.05,9.13.09,12.07,12.12,12.66,31.47.62,20.36.55,49.85,0,70.13C268.49,136.28,265.33,148.63,256.23,148.68Z"/><path class="cls-2" d="M243.76,128.86c-65,.3-131.73.66-197.26-.14-6.42-.07-8.07-8.52-8.62-22.29-.57-14.22-.45-35.11,0-49.22.42-13.65,2.42-22.56,8.79-22.58,65.07-.26,132.36-.22,197,0,6.33,0,8.74,9,9.07,22.61.34,14.06.39,35.08,0,49.2C252.37,120.07,250.12,128.83,243.76,128.86Z"/><path class="cls-3" d="M106.35,94.41a11.44,11.44,0,0,1-1.47.27,14.59,14.59,0,0,1-2,.13,8.67,8.67,0,0,1-1.72-.15,3,3,0,0,1-1.26-.56A2.37,2.37,0,0,1,99.17,93a5.57,5.57,0,0,1-.26-1.86V70.22a2,2,0,0,1,.49-1.44,3.4,3.4,0,0,1,1.34-.82,14.85,14.85,0,0,1,3.29-.78,28.81,28.81,0,0,1,3.72-.24c3.91,0,6.89.87,9,2.61a8.82,8.82,0,0,1,3.1,7.11,11,11,0,0,1-.66,3.92,8.2,8.2,0,0,1-2,3,8.74,8.74,0,0,1-3.27,2,13.86,13.86,0,0,1-4.57.68h-3Zm2.21-14.25a4,4,0,0,0,2.73-.86,3.39,3.39,0,0,0,1-2.64,3.33,3.33,0,0,0-1-2.6,4.14,4.14,0,0,0-2.91-.91l-1.12,0a7.67,7.67,0,0,0-.92.11v6.88Z"/><path class="cls-3" d="M127.54,94.72a3.81,3.81,0,0,1-2.89-1.11,4.21,4.21,0,0,1-1.06-3v-23l1.49-.24a13.42,13.42,0,0,1,2-.15,8.74,8.74,0,0,1,1.72.15A2.91,2.91,0,0,1,130,68a2.42,2.42,0,0,1,.76,1.1,5.71,5.71,0,0,1,.25,1.87V88.46h9.73a6.14,6.14,0,0,1,.55,1.31,5.76,5.76,0,0,1,.26,1.71,3.52,3.52,0,0,1-.72,2.51,2.58,2.58,0,0,1-1.92.73Z"/><path class="cls-3" d="M151.28,68.49a8.66,8.66,0,0,1,2.19-.85,11.44,11.44,0,0,1,2.95-.39,10.18,10.18,0,0,1,3.76.64,3.32,3.32,0,0,1,2.1,2c.51,1.54,1.07,3.33,1.66,5.37s1.19,4.15,1.79,6.32L167.47,88c.56,2.12,1.06,4,1.48,5.62a3.61,3.61,0,0,1-1.53,1A7,7,0,0,1,165,95a7.62,7.62,0,0,1-1.72-.17,3,3,0,0,1-1.14-.54,2.55,2.55,0,0,1-.73-.93,8.5,8.5,0,0,1-.48-1.33L160.16,89h-7.69c-.22.88-.45,1.8-.68,2.75s-.45,1.86-.68,2.75a10.78,10.78,0,0,1-1.25.38,7.28,7.28,0,0,1-1.59.15,5.42,5.42,0,0,1-3.21-.77,2.56,2.56,0,0,1-1-2.16,4.87,4.87,0,0,1,.17-1.24c.11-.41.24-.9.38-1.46.2-.8.48-1.79.83-3s.74-2.46,1.17-3.84.88-2.79,1.36-4.24.93-2.82,1.36-4.1.81-2.44,1.17-3.44S151.09,69,151.28,68.49Zm5.1,5.72c-.4,1.25-.84,2.63-1.34,4.15s-.94,3.08-1.34,4.64H159c-.4-1.59-.8-3.15-1.21-4.68s-.78-2.89-1.12-4.11Z"/><path class="cls-3" d="M184,94.41a11.1,11.1,0,0,1-1.44.27,13.94,13.94,0,0,1-1.91.13,5.07,5.07,0,0,1-2.93-.69c-.66-.46-1-1.42-1-2.9v-6c-.71-1.09-1.47-2.31-2.29-3.64s-1.63-2.69-2.43-4.08-1.52-2.76-2.2-4.11a37.16,37.16,0,0,1-1.66-3.7,5.89,5.89,0,0,1,1.51-1.47,4,4,0,0,1,2.35-.66,4.63,4.63,0,0,1,2.7.71,6.62,6.62,0,0,1,2,2.66l3.52,7.41h.26c.39-.91.74-1.75,1-2.51s.59-1.5.87-2.26.58-1.54.89-2.35.67-1.75,1.06-2.82a7.28,7.28,0,0,1,1.7-.62,7.61,7.61,0,0,1,1.79-.22,3.91,3.91,0,0,1,2.52.82,2.93,2.93,0,0,1,1,2.46,4.9,4.9,0,0,1-.21,1.29,14.74,14.74,0,0,1-1,2.28Q189.47,76,188,78.56c-1,1.75-2.3,4-4,6.84Z"/></g></svg>