<svg xmlns="http://www.w3.org/2000/svg" width="490" height="155" viewBox="0 0 490 155"><defs><style>.cls-1{fill:#fbebd2;}</style></defs><g id="Layer_12" data-name="Layer 12"><rect class="cls-1" x="13.66" y="16.22" width="446" height="123" rx="12"/><path d="M66.52,49.92a17.13,17.13,0,0,1,4.12-1.52,21.92,21.92,0,0,1,5.56-.72,20.06,20.06,0,0,1,7.08,1.16,6.18,6.18,0,0,1,4,3.64q1.44,4.16,3.12,9.68t3.36,11.4Q95.4,79.44,97,85.16t2.8,10.12a6.54,6.54,0,0,1-2.88,1.8,13.77,13.77,0,0,1-4.56.68,14.17,14.17,0,0,1-3.24-.32,5.67,5.67,0,0,1-2.16-1A4.73,4.73,0,0,1,85.6,94.8a14.34,14.34,0,0,1-.92-2.4l-1.44-5.52H68.76c-.43,1.6-.85,3.25-1.28,5s-.85,3.36-1.28,5a20.32,20.32,0,0,1-2.36.68,13.66,13.66,0,0,1-3,.28q-4.08,0-6-1.4a4.5,4.5,0,0,1-2-3.88,8.25,8.25,0,0,1,.32-2.24c.21-.74.45-1.63.72-2.64.37-1.44.89-3.22,1.56-5.36s1.4-4.44,2.2-6.92,1.65-5,2.56-7.64,1.76-5.08,2.56-7.4,1.53-4.39,2.2-6.2S66.15,50.88,66.52,49.92Zm9.6,10.32Q75,63.6,73.6,67.72c-.93,2.75-1.77,5.53-2.52,8.36H81q-1.12-4.32-2.28-8.44c-.77-2.75-1.48-5.21-2.12-7.4Z"/><path d="M130,72.32a4.48,4.48,0,0,0-1.4-3.64,5.79,5.79,0,0,0-3.8-1.16,12.5,12.5,0,0,0-3.16.4,8.13,8.13,0,0,0-2.68,1.2V96.88a18.33,18.33,0,0,1-2.52.48,25.74,25.74,0,0,1-3.56.24,18.82,18.82,0,0,1-3.16-.24,5.4,5.4,0,0,1-2.36-1,4.62,4.62,0,0,1-1.48-2,8.41,8.41,0,0,1-.52-3.24v-24a6.2,6.2,0,0,1,.92-3.52,9.6,9.6,0,0,1,2.52-2.48,22.84,22.84,0,0,1,6.84-3.12,32.72,32.72,0,0,1,9.16-1.2q9,0,13.92,4t4.88,11v25a18.33,18.33,0,0,1-2.52.48,25.74,25.74,0,0,1-3.56.24,18.82,18.82,0,0,1-3.16-.24,5.4,5.4,0,0,1-2.36-1,4.62,4.62,0,0,1-1.48-2A8.41,8.41,0,0,1,130,91.2Z"/><path d="M165.56,83.6a3.29,3.29,0,0,0,1.32,3,6.64,6.64,0,0,0,3.72.88,15.25,15.25,0,0,0,2.48-.2,14,14,0,0,0,2.24-.52,10,10,0,0,1,1.24,2,5.91,5.91,0,0,1,.52,2.6,6.18,6.18,0,0,1-2.28,5q-2.28,1.92-8,1.92-7,0-10.84-3.2t-3.8-10.4V50.32c.59-.16,1.43-.33,2.52-.52a20.28,20.28,0,0,1,3.48-.28,10.2,10.2,0,0,1,5.48,1.24q2,1.25,2,5.24v5.12H176a13.52,13.52,0,0,1,.92,2.2,9.27,9.27,0,0,1,.44,2.92,5.52,5.52,0,0,1-1.24,4,4.47,4.47,0,0,1-3.32,1.24h-7.28Z"/><path d="M200,56.88a32.72,32.72,0,0,1,7.88.88,17.72,17.72,0,0,1,6.08,2.68A12.12,12.12,0,0,1,217.8,65a14.54,14.54,0,0,1,1.36,6.52V89.44a5,5,0,0,1-1.16,3.4,11.82,11.82,0,0,1-2.76,2.28q-5.2,3.12-14.64,3.12a33.57,33.57,0,0,1-7.64-.8,18,18,0,0,1-5.84-2.4A11,11,0,0,1,183.36,91,12.06,12.06,0,0,1,182,85.2q0-5.52,3.28-8.48T195.48,73L206,71.92v-.56a3.43,3.43,0,0,0-2-3.32A13.83,13.83,0,0,0,198,67a27,27,0,0,0-5.92.64,31.58,31.58,0,0,0-5.2,1.6,5.46,5.46,0,0,1-1.76-2.2,7,7,0,0,1-.72-3.08,5.12,5.12,0,0,1,1-3.32,7.74,7.74,0,0,1,3.08-2.12A24,24,0,0,1,194,57.28,47,47,0,0,1,200,56.88Zm.64,31.44a17.72,17.72,0,0,0,3-.28,7.47,7.47,0,0,0,2.44-.76v-6.4l-5.76.48a9,9,0,0,0-3.68,1,2.58,2.58,0,0,0-1.44,2.4,3.17,3.17,0,0,0,1.24,2.6A6.76,6.76,0,0,0,200.6,88.32Z"/><path d="M241.32,96.88c-.59.11-1.46.25-2.6.44a21.31,21.31,0,0,1-3.48.28,18.73,18.73,0,0,1-3.16-.24,5.35,5.35,0,0,1-2.36-1,4.55,4.55,0,0,1-1.48-2,8.41,8.41,0,0,1-.52-3.24V44.8c.58-.11,1.45-.25,2.6-.44a21.22,21.22,0,0,1,3.48-.28,18.9,18.9,0,0,1,3.16.24,5.4,5.4,0,0,1,2.36,1,4.69,4.69,0,0,1,1.48,2,8.64,8.64,0,0,1,.52,3.24Z"/><path d="M307.4,72.64a34.49,34.49,0,0,1-1.6,11,23.23,23.23,0,0,1-4.44,8,18.64,18.64,0,0,1-6.8,4.92,23.06,23.06,0,0,1-17.28,0,18.55,18.55,0,0,1-6.8-4.92,22.53,22.53,0,0,1-4.4-8,35.41,35.41,0,0,1-1.56-11,35.06,35.06,0,0,1,1.56-10.92,22.6,22.6,0,0,1,4.4-8,18.55,18.55,0,0,1,6.8-4.92,23.06,23.06,0,0,1,17.28,0,18.64,18.64,0,0,1,6.8,4.92,23.31,23.31,0,0,1,4.44,8A34.15,34.15,0,0,1,307.4,72.64Zm-13.68,0q0-7-2-10.88c-1.36-2.56-3.3-3.84-5.8-3.84s-4.42,1.28-5.72,3.84-2,6.19-2,10.88.65,8.33,2,10.92,3.21,3.88,5.72,3.88,4.44-1.29,5.8-3.88S293.72,77.34,293.72,72.64Z"/><path d="M321.48,105.44a21.16,21.16,0,0,1-2.16.2c-.7,0-1.34,0-1.92,0a8.09,8.09,0,0,1-5.16-1.44q-1.8-1.44-1.8-4.64a15.45,15.45,0,0,1,.64-4.36c.42-1.47.8-2.76,1.12-3.88l14.08-50.8c.8-.1,1.54-.17,2.24-.2s1.33,0,1.92,0a8.5,8.5,0,0,1,5.08,1.36,5.07,5.07,0,0,1,1.88,4.4,15.1,15.1,0,0,1-.64,4.4c-.43,1.39-.83,2.77-1.2,4.16Z"/><path d="M351.24,61.28l-8,2.48a11.44,11.44,0,0,1-2.4-2.24,6.06,6.06,0,0,1-1.2-4q0-4.8,5.84-6.72l9-3h3a6.91,6.91,0,0,1,7.44,7.44V96.88c-.59.11-1.46.25-2.6.44a21.31,21.31,0,0,1-3.48.28,18.73,18.73,0,0,1-3.16-.24,5.35,5.35,0,0,1-2.36-1,4.55,4.55,0,0,1-1.48-2,8.41,8.41,0,0,1-.52-3.24Z"/><path d="M416,72.64a34.78,34.78,0,0,1-1.6,11,23.23,23.23,0,0,1-4.44,8,18.64,18.64,0,0,1-6.8,4.92,23.06,23.06,0,0,1-17.28,0,18.55,18.55,0,0,1-6.8-4.92,22.53,22.53,0,0,1-4.4-8,35.41,35.41,0,0,1-1.56-11,35.06,35.06,0,0,1,1.56-10.92,22.6,22.6,0,0,1,4.4-8,18.55,18.55,0,0,1,6.8-4.92,23.06,23.06,0,0,1,17.28,0,18.64,18.64,0,0,1,6.8,4.92,23.31,23.31,0,0,1,4.44,8A34.43,34.43,0,0,1,416,72.64Zm-13.68,0q0-7-2-10.88c-1.36-2.56-3.3-3.84-5.8-3.84s-4.42,1.28-5.72,3.84-2,6.19-2,10.88.65,8.33,2,10.92,3.21,3.88,5.72,3.88,4.44-1.29,5.8-3.88S402.28,77.34,402.28,72.64Z"/></g></svg>