<svg xmlns="http://www.w3.org/2000/svg" xmlns:xlink="http://www.w3.org/1999/xlink" width="220" height="250" viewBox="0 0 220 250"><defs><style>.cls-1{fill:#c69c6d;}.cls-2{fill:#6b543c;}.cls-3{fill:url(#White_Black);}.cls-4{fill:#b8babb;}.cls-5{fill:#fbebd2;}.cls-6{fill:#ff0b0b;opacity:0.52;}</style><linearGradient id="White_Black" x1="84.62" y1="11.34" x2="93.58" y2="11.34" gradientUnits="userSpaceOnUse"><stop offset="0" stop-color="#fff"/><stop offset="1"/></linearGradient></defs><g id="tid"><path class="cls-1" d="M28.44,114.37S78.05,3.28,90.59,11s91.24,103.33,91.24,103.33l-13.14.22S100.63,25.06,93,24.78c-10-.38-7.71-14.53-54.52,89.81"/><polygon class="cls-2" points="35.47 99.09 43.62 103.12 44.02 102.24 35.65 98.7 35.47 99.09"/><path class="cls-2" d="M37.29,95.22c.74,0,8.82,2.41,8.82,2.41l.54-1.21-9.1-1.75Z"/><polygon class="cls-2" points="41.97 106.77 32.75 104.93 32.33 105.85 41.32 108.23 41.97 106.77"/><ellipse class="cls-3" cx="89.1" cy="11.34" rx="4.48" ry="3.88"/><polygon class="cls-2" points="29.91 111.13 39.74 111.72 39.11 113.13 29.3 112.47 29.91 111.13"/><polygon class="cls-2" points="40.29 88.93 50.36 88.29 49.51 90.16 39.74 90.07 40.29 88.93"/><polygon class="cls-2" points="52.04 84.63 44.02 81.22 44.54 80.16 52.45 83.75 52.04 84.63"/><polygon class="cls-2" points="55.95 76.18 49.37 70.44 50.09 69.01 56.41 75.19 55.95 76.18"/><polygon class="cls-2" points="51.95 65.34 59.75 68.07 59.16 69.32 51.5 66.22 51.95 65.34"/><path class="cls-2" d="M56.17,57.21C56,57,64.38,58.4,64.38,58.4l-.48,1L55.74,58Z"/><path class="cls-2" d="M60.43,49.25c.3,0,8.48,0,8.48,0l-.58,1.15-8.27-.48Z"/><path class="cls-2" d="M58.55,52.72c-.21.13,8.62,0,8.62,0l-.6,1.2-8.34-.6Z"/><polygon class="cls-2" points="64.98 41.08 73.27 40.88 72.67 42.01 64.48 41.95 64.98 41.08"/><path class="cls-2" d="M69.35,33.64C69.09,33.74,76,36,76,36l-.53.92-7.11-1.64Z"/><polygon class="cls-2" points="73.27 27.38 80.45 29.09 79.63 30.24 72.82 28.08 73.27 27.38"/><polygon class="cls-2" points="78.68 19.62 83.14 25.98 82.55 26.56 77.37 21.39 78.68 19.62"/><polygon class="cls-2" points="87.74 15.04 88.56 24.03 89.44 24.36 88.59 15.22 87.74 15.04"/><polygon class="cls-2" points="93.32 13.16 91.65 24.65 92.48 24.75 93.58 13.39 93.32 13.16"/><polygon class="cls-2" points="102.04 21.74 99.69 29.95 103.32 23.09 102.04 21.74"/><polygon class="cls-2" points="101.5 31.8 107 27.04 107.69 27.78 101.9 32.21 101.5 31.8"/><polygon class="cls-2" points="104.03 34.49 110.34 30.68 111.02 31.43 104.77 35.29 104.03 34.49"/><polygon class="cls-2" points="117 38.09 111.59 43.01 112.21 43.73 117.46 38.61 117 38.09"/><polygon class="cls-2" points="121.14 42.77 114.12 45.96 114.94 46.93 121.48 43.16 121.14 42.77"/><polygon class="cls-2" points="125.76 48.05 117.86 50.4 119.11 51.89 126.45 48.84 125.76 48.05"/><polygon class="cls-2" points="126.19 60.49 133.69 57.19 127.17 61.7 126.19 60.49"/><polygon class="cls-2" points="146.86 72.59 140.97 78.92 141.95 80.16 148.02 73.96 146.86 72.59"/><polygon class="cls-2" points="153.12 94.39 161.28 89.67 162.35 90.95 154.08 95.63 153.12 94.39"/><polygon class="cls-2" points="157.42 99.93 165.08 95.63 166.26 95.63 166.98 96.49 158.54 101.38 157.42 99.93"/><polygon class="cls-2" points="172.3 102.87 164.03 108.49 165.28 110.13 172.87 103.55 172.3 102.87"/><path class="cls-2" d="M167,112.35l10.6-2.22s1.93,1,1.67,1.11.92,1.11.92,1.11l-12,1.52Z"/><polygon class="cls-2" points="148.73 88.77 155.1 83.31 155.93 83.31 156.55 84.05 149.17 89.33 148.73 88.77"/><polygon class="cls-2" points="133.07 69.01 139.54 64.01 140.24 64.82 133.69 69.77 133.07 69.01"/><rect class="cls-4" x="4.58" y="109.59" width="214.43" height="139.17" rx="34.38" transform="translate(-6.57 4.27) rotate(-2.13)"/><rect class="cls-5" x="14.13" y="120.95" width="194.72" height="115.87" rx="34.38" transform="translate(-6.56 4.26) rotate(-2.13)"/><path d="M77.63,179.6a4.08,4.08,0,0,0-3.2,1.41,5.42,5.42,0,0,0-1,3.69,5,5,0,0,0,1.38,3.63,4.48,4.48,0,0,0,3.41,1.17,5.21,5.21,0,0,0,1.9-.38,11.23,11.23,0,0,0,1.47-.74,2.85,2.85,0,0,1,.76.9,2.8,2.8,0,0,1,.31,1.24,2.25,2.25,0,0,1-1.18,1.95,7.29,7.29,0,0,1-3.77.92,11,11,0,0,1-3.48-.39,7.74,7.74,0,0,1-2.89-1.5,7.59,7.59,0,0,1-2-2.67,10.24,10.24,0,0,1-.85-4,9.91,9.91,0,0,1,.54-3.8,8.05,8.05,0,0,1,1.73-2.83,8,8,0,0,1,2.67-1.8,9.61,9.61,0,0,1,3.33-.7,7.77,7.77,0,0,1,3.94.68,2.41,2.41,0,0,1,1.47,2.06,2.16,2.16,0,0,1-.31,1.25,2.85,2.85,0,0,1-.8.85,8.82,8.82,0,0,0-1.55-.73A4.89,4.89,0,0,0,77.63,179.6Z"/><path d="M87.87,192.61A2.55,2.55,0,0,1,86,192a2.52,2.52,0,0,1-.76-1.84L84.7,176l1-.18a8.29,8.29,0,0,1,1.26-.15,5.61,5.61,0,0,1,1.12.06,1.92,1.92,0,0,1,.82.31,1.54,1.54,0,0,1,.52.67,3.2,3.2,0,0,1,.2,1.14L90,188.65l6.29-.23a3.65,3.65,0,0,1,.38.79,3.77,3.77,0,0,1,.21,1,2.13,2.13,0,0,1-.41,1.57,1.69,1.69,0,0,1-1.22.5Z"/><path d="M97.44,183.81A10.22,10.22,0,0,1,98,180a7.68,7.68,0,0,1,4.42-4.61,9.86,9.86,0,0,1,3.4-.71,10.16,10.16,0,0,1,3.44.45,8,8,0,0,1,2.82,1.59,7.71,7.71,0,0,1,2,2.69,9.9,9.9,0,0,1,.81,3.76,10.08,10.08,0,0,1-.52,3.83,7.52,7.52,0,0,1-1.72,2.84,7.73,7.73,0,0,1-2.7,1.79,10,10,0,0,1-3.43.71,10.17,10.17,0,0,1-3.49-.46,7.71,7.71,0,0,1-4.72-4.32A10.08,10.08,0,0,1,97.44,183.81Zm4.94-.18a5.83,5.83,0,0,0,1.16,3.69,3.63,3.63,0,0,0,5.46-.2,7.36,7.36,0,0,0-.26-7.44,3.34,3.34,0,0,0-2.78-1.14,3.41,3.41,0,0,0-2.68,1.33A5.66,5.66,0,0,0,102.38,183.63Z"/><path d="M122.35,184.62c-.81-.25-1.56-.5-2.23-.76a6.94,6.94,0,0,1-1.74-1,4.25,4.25,0,0,1-1.16-1.4,4.78,4.78,0,0,1-.48-2,4.54,4.54,0,0,1,1.66-3.8,8,8,0,0,1,5-1.58,13.2,13.2,0,0,1,2.21.08,6.47,6.47,0,0,1,1.76.44,3,3,0,0,1,1.17.84,2,2,0,0,1,.46,1.23,2.26,2.26,0,0,1-.29,1.24,3.42,3.42,0,0,1-.76.89,6.3,6.3,0,0,0-1.65-.61,8,8,0,0,0-2.23-.21,3.66,3.66,0,0,0-1.8.41,1,1,0,0,0-.55.89.83.83,0,0,0,.39.66,3.87,3.87,0,0,0,1.09.44l1.47.41a10.5,10.5,0,0,1,4,2,4.48,4.48,0,0,1,1.52,3.42,4.57,4.57,0,0,1-1.7,3.84,8.65,8.65,0,0,1-5.36,1.64,12.7,12.7,0,0,1-2.35-.12,7.25,7.25,0,0,1-1.92-.53,3.61,3.61,0,0,1-1.3-.94,2.21,2.21,0,0,1-.5-1.34,2.06,2.06,0,0,1,.42-1.38,3.31,3.31,0,0,1,1-.9,7.5,7.5,0,0,0,1.92,1,6.53,6.53,0,0,0,2.45.35,3.27,3.27,0,0,0,1.87-.48,1.2,1.2,0,0,0,.52-1,1,1,0,0,0-.47-.83,5.61,5.61,0,0,0-1.26-.51Z"/><path d="M132.48,176.76a2.38,2.38,0,0,1,2.46-2.65l9.06-.33a3,3,0,0,1,.37.78,3.25,3.25,0,0,1,.19,1,2,2,0,0,1-.39,1.5,1.69,1.69,0,0,1-1.18.48l-5.79.22.09,2.55,6.18-.23a3.46,3.46,0,0,1,.37.77,3.76,3.76,0,0,1,.19,1,2,2,0,0,1-.39,1.5,1.58,1.58,0,0,1-1.16.49l-5,.18.11,2.89,7.05-.26a2.84,2.84,0,0,1,.37.78,3.2,3.2,0,0,1,.19,1,2,2,0,0,1-.39,1.51,1.67,1.67,0,0,1-1.18.5l-8,.29a2.37,2.37,0,0,1-2.65-2.45Z"/><path d="M154.38,190.49l-1.07,0c-.4,0-.82,0-1.26-.07s-.86-.09-1.29-.16a6.13,6.13,0,0,1-1.21-.29,2,2,0,0,1-1.58-2l-.48-12.82a1.25,1.25,0,0,1,.28-.91,2.3,2.3,0,0,1,.85-.54,12.15,12.15,0,0,1,2.48-.6,22.08,22.08,0,0,1,2.36-.21,13.46,13.46,0,0,1,3.9.38,8,8,0,0,1,3,1.49,7.26,7.26,0,0,1,2,2.66,10.15,10.15,0,0,1,.83,3.88,10.27,10.27,0,0,1-.52,3.85A7.19,7.19,0,0,1,161,188a7.6,7.6,0,0,1-2.86,1.77A12.13,12.13,0,0,1,154.38,190.49Zm-1.68-4c.2,0,.45.05.74.07a7.75,7.75,0,0,0,.83,0,4.85,4.85,0,0,0,1.7-.34,3.45,3.45,0,0,0,1.32-.9,4.14,4.14,0,0,0,.82-1.53,7.11,7.11,0,0,0,.23-2.22,5.32,5.32,0,0,0-1.29-3.68,4,4,0,0,0-3.12-1.13l-.78.05q-.41,0-.81.12Z"/><rect class="cls-6" x="3.71" y="111.26" width="214.43" height="137.57" rx="33.48" transform="translate(-6.6 4.24) rotate(-2.13)"/></g></svg>