<svg xmlns="http://www.w3.org/2000/svg" xmlns:xlink="http://www.w3.org/1999/xlink" width="220" height="250" viewBox="0 0 220 250"><defs><style>.cls-1{fill:#c69c6d;}.cls-2{fill:#6b543c;}.cls-3{fill:url(#White_Black);}.cls-4{fill:#b8babb;}.cls-5{fill:#fbebd2;}.cls-6{fill:#ff0b0b;opacity:0.52;}</style><linearGradient id="White_Black" x1="85.06" y1="7.38" x2="94.02" y2="7.38" gradientUnits="userSpaceOnUse"><stop offset="0" stop-color="#fff"/><stop offset="1"/></linearGradient></defs><g id="tid"><path class="cls-1" d="M28.88,110.41S78.49-.68,91,7.08s91.24,103.33,91.24,103.33l-13.14.22S101.06,21.11,93.42,20.82c-10-.38-7.71-14.53-54.52,89.81"/><polygon class="cls-2" points="35.91 95.13 44.06 99.16 44.46 98.28 36.09 94.74 35.91 95.13"/><path class="cls-2" d="M37.73,91.26c.74,0,8.82,2.41,8.82,2.41l.54-1.21L38,90.71Z"/><polygon class="cls-2" points="42.41 102.81 33.19 100.97 32.76 101.89 41.76 104.27 42.41 102.81"/><ellipse class="cls-3" cx="89.54" cy="7.38" rx="4.48" ry="3.88"/><polygon class="cls-2" points="30.34 107.17 40.18 107.77 39.55 109.17 29.74 108.51 30.34 107.17"/><polygon class="cls-2" points="40.73 84.97 50.8 84.33 49.95 86.2 40.18 86.11 40.73 84.97"/><polygon class="cls-2" points="52.48 80.67 44.46 77.27 44.98 76.2 52.89 79.79 52.48 80.67"/><polygon class="cls-2" points="56.39 72.22 49.8 66.48 50.53 65.05 56.85 71.23 56.39 72.22"/><polygon class="cls-2" points="52.39 61.38 60.19 64.11 59.6 65.36 51.94 62.26 52.39 61.38"/><path class="cls-2" d="M56.61,53.25c-.22-.18,8.21,1.19,8.21,1.19l-.48,1-8.16-1.37Z"/><path class="cls-2" d="M60.87,45.29c.3,0,8.47,0,8.47,0l-.57,1.15L60.5,46Z"/><path class="cls-2" d="M59,48.76c-.21.13,8.62,0,8.62,0L67,50l-8.34-.6Z"/><polygon class="cls-2" points="65.42 37.12 73.71 36.92 73.1 38.05 64.92 38 65.42 37.12"/><path class="cls-2" d="M69.79,29.69c-.26.09,6.65,2.36,6.65,2.36l-.53.92L68.8,31.33Z"/><polygon class="cls-2" points="73.71 23.42 80.89 25.13 80.06 26.28 73.26 24.12 73.71 23.42"/><polygon class="cls-2" points="79.12 15.66 83.57 22.02 82.99 22.6 77.81 17.43 79.12 15.66"/><polygon class="cls-2" points="88.17 11.08 88.99 20.07 89.87 20.4 89.03 11.26 88.17 11.08"/><polygon class="cls-2" points="93.76 9.2 92.09 20.69 92.92 20.79 94.02 9.43 93.76 9.2"/><polygon class="cls-2" points="102.48 17.78 100.12 25.99 103.76 19.13 102.48 17.78"/><polygon class="cls-2" points="101.94 27.84 107.44 23.08 108.13 23.82 102.34 28.25 101.94 27.84"/><polygon class="cls-2" points="104.47 30.53 110.78 26.72 111.46 27.48 105.2 31.33 104.47 30.53"/><polygon class="cls-2" points="117.44 34.13 112.03 39.05 112.65 39.77 117.9 34.65 117.44 34.13"/><polygon class="cls-2" points="121.58 38.81 114.56 42 115.38 42.97 121.92 39.2 121.58 38.81"/><polygon class="cls-2" points="126.2 44.09 118.3 46.44 119.55 47.94 126.89 44.88 126.2 44.09"/><polygon class="cls-2" points="126.63 56.53 134.13 53.23 127.61 57.74 126.63 56.53"/><polygon class="cls-2" points="147.3 68.64 141.41 74.96 142.39 76.2 148.46 70 147.3 68.64"/><polygon class="cls-2" points="153.56 90.43 161.71 85.72 162.79 87 154.52 91.67 153.56 90.43"/><polygon class="cls-2" points="157.86 95.97 165.51 91.67 166.7 91.67 167.42 92.53 158.98 97.42 157.86 95.97"/><polygon class="cls-2" points="172.74 98.91 164.46 104.53 165.72 106.17 173.3 99.59 172.74 98.91"/><path class="cls-2" d="M167.42,108.39l10.6-2.22s1.93,1,1.67,1.11.92,1.11.92,1.11l-12,1.52Z"/><polygon class="cls-2" points="149.16 84.81 155.54 79.35 156.36 79.35 156.99 80.09 149.61 85.38 149.16 84.81"/><polygon class="cls-2" points="133.51 65.05 139.98 60.05 140.68 60.86 134.13 65.81 133.51 65.05"/><rect class="cls-4" x="5.02" y="105.63" width="214.43" height="139.17" rx="34.38" transform="translate(-6.42 4.28) rotate(-2.13)"/><rect class="cls-5" x="14.57" y="116.99" width="194.72" height="115.87" rx="34.38" transform="translate(-6.41 4.27) rotate(-2.13)"/><path d="M78.07,175.64a4.08,4.08,0,0,0-3.2,1.41,5.47,5.47,0,0,0-1,3.69,5.06,5.06,0,0,0,1.39,3.63,4.47,4.47,0,0,0,3.41,1.17,5.43,5.43,0,0,0,1.9-.37,12.69,12.69,0,0,0,1.47-.75,2.85,2.85,0,0,1,.76.9,2.8,2.8,0,0,1,.31,1.24,2.25,2.25,0,0,1-1.18,1.95,7.32,7.32,0,0,1-3.77.92,11,11,0,0,1-3.48-.39,7.74,7.74,0,0,1-2.89-1.5,7.59,7.59,0,0,1-2-2.67,10.24,10.24,0,0,1-.85-4,10.11,10.11,0,0,1,.53-3.8,8.08,8.08,0,0,1,1.74-2.82,7.85,7.85,0,0,1,2.67-1.81,9.84,9.84,0,0,1,3.33-.7,7.77,7.77,0,0,1,3.94.68,2.44,2.44,0,0,1,1.47,2.06,2.24,2.24,0,0,1-.31,1.25,3,3,0,0,1-.8.86A8.49,8.49,0,0,0,80,175.9,4.89,4.89,0,0,0,78.07,175.64Z"/><path d="M88.31,188.65a2.55,2.55,0,0,1-1.89-.62,2.5,2.5,0,0,1-.76-1.84L85.13,172l1-.18a9.79,9.79,0,0,1,1.26-.15,6.29,6.29,0,0,1,1.11.06,1.92,1.92,0,0,1,.83.31,1.54,1.54,0,0,1,.52.67,3.21,3.21,0,0,1,.2,1.15l.41,10.84,6.29-.23a3.65,3.65,0,0,1,.38.79,3.43,3.43,0,0,1,.2,1.06,2.08,2.08,0,0,1-.4,1.56,1.69,1.69,0,0,1-1.22.5Z"/><path d="M97.88,179.85a9.94,9.94,0,0,1,.53-3.81,7.86,7.86,0,0,1,1.74-2.83,7.74,7.74,0,0,1,2.68-1.79,10.1,10.1,0,0,1,3.4-.71,9.92,9.92,0,0,1,3.44.46,7.83,7.83,0,0,1,2.82,1.58,7.71,7.71,0,0,1,2,2.69,9.91,9.91,0,0,1,.81,3.77,10.26,10.26,0,0,1-.52,3.82,7.65,7.65,0,0,1-1.72,2.84,7.73,7.73,0,0,1-2.7,1.79,10,10,0,0,1-3.44.71,10.15,10.15,0,0,1-3.48-.46,7.78,7.78,0,0,1-2.81-1.62,8,8,0,0,1-1.91-2.7A10.08,10.08,0,0,1,97.88,179.85Zm4.94-.18a5.77,5.77,0,0,0,1.16,3.69,3.35,3.35,0,0,0,2.76,1.14,3.4,3.4,0,0,0,2.7-1.34,7.36,7.36,0,0,0-.26-7.44,3.35,3.35,0,0,0-2.78-1.14,3.45,3.45,0,0,0-2.69,1.33A5.72,5.72,0,0,0,102.82,179.67Z"/><path d="M122.79,180.66c-.81-.25-1.56-.5-2.23-.76a6.6,6.6,0,0,1-1.74-1,4.19,4.19,0,0,1-1.16-1.39,4.72,4.72,0,0,1-.48-2,4.54,4.54,0,0,1,1.66-3.8,8.1,8.1,0,0,1,5-1.58,13,13,0,0,1,2.2.08,6.55,6.55,0,0,1,1.77.44,3,3,0,0,1,1.17.84,2,2,0,0,1,.46,1.23,2.26,2.26,0,0,1-.29,1.24,3.62,3.62,0,0,1-.76.89,6.44,6.44,0,0,0-1.65-.61,8,8,0,0,0-2.23-.21,3.66,3.66,0,0,0-1.8.41,1,1,0,0,0-.55.89.83.83,0,0,0,.39.66,3.78,3.78,0,0,0,1.08.44l1.48.41a10.5,10.5,0,0,1,4,2,4.48,4.48,0,0,1,1.52,3.42,4.57,4.57,0,0,1-1.7,3.84,8.59,8.59,0,0,1-5.36,1.64,12.74,12.74,0,0,1-2.35-.11,7.64,7.64,0,0,1-1.92-.54,3.49,3.49,0,0,1-1.3-.94,2.15,2.15,0,0,1-.5-1.34,2.06,2.06,0,0,1,.42-1.38,3.31,3.31,0,0,1,1-.9,7.34,7.34,0,0,0,1.92,1,6.51,6.51,0,0,0,2.44.35,3.21,3.21,0,0,0,1.88-.48,1.2,1.2,0,0,0,.52-1,1,1,0,0,0-.47-.82A5.15,5.15,0,0,0,124,181Z"/><path d="M132.92,172.8a2.38,2.38,0,0,1,2.46-2.65l9.06-.33a3,3,0,0,1,.37.78,3.55,3.55,0,0,1,.19,1,2,2,0,0,1-.4,1.5,1.65,1.65,0,0,1-1.17.48l-5.8.22.1,2.55,6.18-.23a3.69,3.69,0,0,1,.37.77,3.76,3.76,0,0,1,.19,1,2.11,2.11,0,0,1-.39,1.5,1.61,1.61,0,0,1-1.16.48l-5,.19L138,183l7.06-.26a2.84,2.84,0,0,1,.37.78,3.55,3.55,0,0,1,.19,1,2,2,0,0,1-.4,1.51,1.63,1.63,0,0,1-1.17.5l-8,.3a2.55,2.55,0,0,1-1.89-.62,2.5,2.5,0,0,1-.76-1.84Z"/><path d="M154.82,186.54h-1.07c-.4,0-.82,0-1.26-.07l-1.29-.15A6.91,6.91,0,0,1,150,186a2,2,0,0,1-1.58-1.95l-.48-12.82a1.25,1.25,0,0,1,.28-.91,2.3,2.3,0,0,1,.85-.54,12.15,12.15,0,0,1,2.48-.6c.87-.11,1.66-.18,2.35-.21a13.5,13.5,0,0,1,3.91.38,8,8,0,0,1,3,1.49,7.34,7.34,0,0,1,2,2.66,11.44,11.44,0,0,1,.31,7.73,7.42,7.42,0,0,1-1.78,2.82,7.86,7.86,0,0,1-2.86,1.77A12.75,12.75,0,0,1,154.82,186.54Zm-1.69-4c.21,0,.45,0,.75.07a7.59,7.59,0,0,0,.82,0,4.86,4.86,0,0,0,1.71-.34,3.42,3.42,0,0,0,1.31-.9,3.94,3.94,0,0,0,.83-1.53,7.11,7.11,0,0,0,.23-2.22,5.32,5.32,0,0,0-1.29-3.68,4,4,0,0,0-3.12-1.13l-.79.06a7.67,7.67,0,0,0-.8.11Z"/><path class="cls-6" d="M26.54,146.26H197.25a23.28,23.28,0,0,1,23.28,23.28v37a37.87,37.87,0,0,1-37.87,37.87H43.36A37.87,37.87,0,0,1,5.49,206.59V167.31a21.05,21.05,0,0,1,21.05-21.05Z" transform="translate(-7.17 4.33) rotate(-2.13)"/></g></svg>