<svg xmlns="http://www.w3.org/2000/svg" xmlns:xlink="http://www.w3.org/1999/xlink" width="220" height="250" viewBox="0 0 220 250"><defs><style>.cls-1{fill:#c69c6d;}.cls-2{fill:#6b543c;}.cls-3{fill:url(#White_Black);}.cls-4{fill:#b8babb;}.cls-5{fill:#fbebd2;}.cls-6{fill:#ff0b0b;opacity:0.52;}</style><linearGradient id="White_Black" x1="87.52" y1="6.64" x2="96.48" y2="6.64" gradientUnits="userSpaceOnUse"><stop offset="0" stop-color="#fff"/><stop offset="1"/></linearGradient></defs><g id="tid"><path class="cls-1" d="M31.34,109.68S81-1.42,93.49,6.34s91.24,103.34,91.24,103.34l-13.15.21s-68.06-89.52-75.7-89.81c-10-.38-7.71-14.53-54.52,89.81"/><polygon class="cls-2" points="38.37 94.39 46.52 98.42 46.92 97.55 38.55 94 38.37 94.39"/><path class="cls-2" d="M40.19,90.53c.74,0,8.82,2.4,8.82,2.4l.54-1.2L40.45,90Z"/><polygon class="cls-2" points="44.87 102.08 35.65 100.24 35.22 101.16 44.22 103.53 44.87 102.08"/><ellipse class="cls-3" cx="92" cy="6.64" rx="4.48" ry="3.88"/><polygon class="cls-2" points="32.8 106.44 42.64 107.03 42.01 108.43 32.2 107.77 32.8 106.44"/><polygon class="cls-2" points="43.18 84.24 53.26 83.6 52.41 85.46 42.64 85.37 43.18 84.24"/><polygon class="cls-2" points="54.94 79.93 46.92 76.53 47.44 75.46 55.35 79.06 54.94 79.93"/><polygon class="cls-2" points="58.85 71.49 52.26 65.74 52.99 64.31 59.31 70.49 58.85 71.49"/><polygon class="cls-2" points="54.85 60.64 62.65 63.38 62.06 64.63 54.4 61.52 54.85 60.64"/><path class="cls-2" d="M59.07,52.51c-.22-.17,8.21,1.19,8.21,1.19l-.48,1-8.16-1.37Z"/><path class="cls-2" d="M63.33,44.55c.3,0,8.47,0,8.47,0l-.58,1.15L63,45.23Z"/><path class="cls-2" d="M61.45,48c-.21.13,8.61,0,8.61,0l-.59,1.21-8.34-.61Z"/><polygon class="cls-2" points="67.88 36.38 76.17 36.18 75.56 37.31 67.38 37.26 67.88 36.38"/><path class="cls-2" d="M72.25,29C72,29,78.9,31.32,78.9,31.32l-.54.92-7.1-1.65Z"/><polygon class="cls-2" points="76.17 22.68 83.35 24.39 82.52 25.54 75.72 23.39 76.17 22.68"/><polygon class="cls-2" points="81.58 14.93 86.03 21.29 85.45 21.86 80.27 16.7 81.58 14.93"/><polygon class="cls-2" points="90.64 10.34 91.45 19.33 92.33 19.66 91.48 10.53 90.64 10.34"/><polygon class="cls-2" points="96.22 8.46 94.55 19.95 95.38 20.05 96.48 8.69 96.22 8.46"/><polygon class="cls-2" points="104.94 17.05 102.58 25.25 106.22 18.39 104.94 17.05"/><polygon class="cls-2" points="104.4 27.11 109.9 22.34 110.59 23.09 104.8 27.52 104.4 27.11"/><polygon class="cls-2" points="106.93 29.8 113.24 25.98 113.92 26.74 107.66 30.59 106.93 29.8"/><polygon class="cls-2" points="119.89 33.4 114.49 38.31 115.11 39.03 120.36 33.91 119.89 33.4"/><polygon class="cls-2" points="124.03 38.08 117.02 41.26 117.84 42.23 124.38 38.46 124.03 38.08"/><polygon class="cls-2" points="128.66 43.35 120.76 45.7 122.01 47.2 129.35 44.14 128.66 43.35"/><polygon class="cls-2" points="129.09 55.8 136.59 52.49 130.07 57.01 129.09 55.8"/><polygon class="cls-2" points="149.76 67.9 143.87 74.22 144.85 75.46 150.92 69.26 149.76 67.9"/><polygon class="cls-2" points="156.01 89.69 164.17 84.98 165.25 86.26 156.98 90.93 156.01 89.69"/><polygon class="cls-2" points="160.32 95.23 167.97 90.93 169.16 90.93 169.88 91.8 161.44 96.68 160.32 95.23"/><polygon class="cls-2" points="175.2 98.17 166.92 103.8 168.18 105.44 175.76 98.85 175.2 98.17"/><path class="cls-2" d="M169.88,107.66l10.6-2.22s1.93,1,1.67,1.11.92,1.11.92,1.11l-12,1.52Z"/><polygon class="cls-2" points="151.62 84.07 158 78.62 158.82 78.62 159.45 79.36 152.07 84.64 151.62 84.07"/><polygon class="cls-2" points="135.97 64.31 142.44 59.31 143.13 60.13 136.59 65.08 135.97 64.31"/><rect class="cls-4" x="7.48" y="104.9" width="214.43" height="139.17" rx="34.38" transform="translate(-6.39 4.38) rotate(-2.13)"/><rect class="cls-5" x="17.03" y="116.26" width="194.72" height="115.87" rx="34.38" transform="translate(-6.38 4.36) rotate(-2.13)"/><path d="M80.52,174.9a4.07,4.07,0,0,0-3.19,1.41,5.37,5.37,0,0,0-1,3.69,5.07,5.07,0,0,0,1.39,3.64,4.46,4.46,0,0,0,3.41,1.16,5.43,5.43,0,0,0,1.9-.37,14.42,14.42,0,0,0,1.47-.74,2.71,2.71,0,0,1,.76.89,2.8,2.8,0,0,1,.31,1.24,2.29,2.29,0,0,1-1.18,2,7.43,7.43,0,0,1-3.78.92,11.38,11.38,0,0,1-3.48-.4,7.49,7.49,0,0,1-2.88-1.5,7.59,7.59,0,0,1-2-2.67,10.19,10.19,0,0,1-.85-3.94,9.86,9.86,0,0,1,.53-3.8,8,8,0,0,1,1.74-2.83,7.68,7.68,0,0,1,2.67-1.8,9.61,9.61,0,0,1,3.33-.71,7.77,7.77,0,0,1,3.94.68,2.47,2.47,0,0,1,1.47,2.07,2.13,2.13,0,0,1-.32,1.24,2.74,2.74,0,0,1-.79.86,9.2,9.2,0,0,0-1.55-.74A4.92,4.92,0,0,0,80.52,174.9Z"/><path d="M90.77,187.91a2.38,2.38,0,0,1-2.65-2.46l-.53-14.19c.2,0,.52-.11,1-.19a8.23,8.23,0,0,1,1.26-.14,5.52,5.52,0,0,1,1.11,0,2.05,2.05,0,0,1,.83.31,1.62,1.62,0,0,1,.52.67,3.21,3.21,0,0,1,.2,1.15L92.88,184l6.28-.23a3.7,3.7,0,0,1,.59,1.85,2.07,2.07,0,0,1-.41,1.57,1.7,1.7,0,0,1-1.21.5Z"/><path d="M100.34,179.11a10,10,0,0,1,.53-3.81,7.86,7.86,0,0,1,1.74-2.83,7.74,7.74,0,0,1,2.68-1.79,9.86,9.86,0,0,1,3.4-.7,9.69,9.69,0,0,1,3.44.45,7.68,7.68,0,0,1,4.78,4.27,10,10,0,0,1,.81,3.77,10.23,10.23,0,0,1-.52,3.82,7.57,7.57,0,0,1-1.72,2.84,7.75,7.75,0,0,1-2.7,1.8,10.28,10.28,0,0,1-3.44.7,9.68,9.68,0,0,1-3.48-.46,7.76,7.76,0,0,1-2.81-1.61,8.13,8.13,0,0,1-1.91-2.71A10,10,0,0,1,100.34,179.11Zm4.94-.18a5.72,5.72,0,0,0,1.16,3.69,3.34,3.34,0,0,0,2.76,1.14,3.37,3.37,0,0,0,2.7-1.34,7.36,7.36,0,0,0-.26-7.44,3.31,3.31,0,0,0-2.78-1.13,3.39,3.39,0,0,0-2.69,1.32A5.72,5.72,0,0,0,105.28,178.93Z"/><path d="M125.25,179.92c-.81-.24-1.56-.5-2.23-.76a6.59,6.59,0,0,1-1.74-1,4.23,4.23,0,0,1-1.16-1.4,4.71,4.71,0,0,1-.48-2,4.5,4.5,0,0,1,1.66-3.8,8,8,0,0,1,5-1.59,14.18,14.18,0,0,1,2.2.08,7.18,7.18,0,0,1,1.76.44,3.11,3.11,0,0,1,1.18.84,2,2,0,0,1,.45,1.24,2.16,2.16,0,0,1-.28,1.23,3.29,3.29,0,0,1-.76.89,6.44,6.44,0,0,0-1.65-.61,8,8,0,0,0-2.23-.2,3.56,3.56,0,0,0-1.8.41,1,1,0,0,0-.55.88.78.78,0,0,0,.39.66,3.51,3.51,0,0,0,1.08.44l1.48.42a10.43,10.43,0,0,1,4,2,4.51,4.51,0,0,1,1.52,3.42,4.58,4.58,0,0,1-1.7,3.84,8.65,8.65,0,0,1-5.36,1.65,12.7,12.7,0,0,1-2.35-.12,7.24,7.24,0,0,1-1.92-.54,3.39,3.39,0,0,1-1.3-.94A2.15,2.15,0,0,1,120,184a2.11,2.11,0,0,1,.41-1.38,3.78,3.78,0,0,1,1-.9,7.34,7.34,0,0,0,1.92,1,6.28,6.28,0,0,0,2.44.35,3.21,3.21,0,0,0,1.88-.48,1.19,1.19,0,0,0,.52-1,1,1,0,0,0-.47-.82,6.08,6.08,0,0,0-1.26-.52Z"/><path d="M135.38,172.07a2.37,2.37,0,0,1,2.46-2.65l9.06-.34a3.07,3.07,0,0,1,.37.79,3.48,3.48,0,0,1,.19,1,2,2,0,0,1-.4,1.5,1.62,1.62,0,0,1-1.17.49l-5.8.21.1,2.55,6.17-.23a3.54,3.54,0,0,1,.38.78,3.62,3.62,0,0,1,.19,1,2.11,2.11,0,0,1-.39,1.5,1.61,1.61,0,0,1-1.16.48l-5,.19.1,2.88,7.06-.26a3.67,3.67,0,0,1,.56,1.82,2,2,0,0,1-.4,1.51,1.59,1.59,0,0,1-1.17.5l-8,.3a2.38,2.38,0,0,1-2.65-2.46Z"/><path d="M157.28,185.8h-1.07c-.41,0-.82,0-1.26-.06s-.86-.1-1.29-.16a6.91,6.91,0,0,1-1.21-.3,2.06,2.06,0,0,1-1.59-1.95l-.47-12.82a1.17,1.17,0,0,1,.28-.9,2.36,2.36,0,0,1,.85-.55,12,12,0,0,1,2.48-.6c.87-.11,1.66-.18,2.35-.21a13.86,13.86,0,0,1,3.91.38,8.13,8.13,0,0,1,3.05,1.49,7.29,7.29,0,0,1,2,2.67,11.41,11.41,0,0,1,.31,7.72,7.34,7.34,0,0,1-1.78,2.82,7.86,7.86,0,0,1-2.86,1.77A12.13,12.13,0,0,1,157.28,185.8Zm-1.69-4a6.7,6.7,0,0,0,.75.06,7.59,7.59,0,0,0,.82,0,5.2,5.2,0,0,0,1.71-.33,3.65,3.65,0,0,0,1.31-.9,3.87,3.87,0,0,0,.82-1.53,6.87,6.87,0,0,0,.24-2.23,5.29,5.29,0,0,0-1.29-3.67,4,4,0,0,0-3.12-1.14l-.79.06c-.26,0-.53.06-.8.11Z"/><rect class="cls-6" x="8.52" y="188.37" width="215.4" height="55.19" rx="27.6" transform="translate(-7.93 4.46) rotate(-2.13)"/></g></svg>