<svg xmlns="http://www.w3.org/2000/svg" xmlns:xlink="http://www.w3.org/1999/xlink" width="220" height="250" viewBox="0 0 220 250"><defs><style>.cls-1{fill:#c69c6d;}.cls-2{fill:#6b543c;}.cls-3{fill:url(#White_Black);}.cls-4{fill:#b8babb;}.cls-5{fill:#fbebd2;}.cls-6{fill:#ff0b0b;opacity:0.52;}</style><linearGradient id="White_Black" x1="84.16" y1="6.37" x2="93.12" y2="6.37" gradientUnits="userSpaceOnUse"><stop offset="0" stop-color="#fff"/><stop offset="1"/></linearGradient></defs><g id="tid"><path class="cls-1" d="M28,109.4S77.59-1.7,90.13,6.07,181.38,109.4,181.38,109.4l-13.15.21s-68.06-89.52-75.71-89.8c-10-.38-7.71-14.54-54.52,89.8"/><polygon class="cls-2" points="35.01 94.12 43.16 98.15 43.56 97.27 35.2 93.72 35.01 94.12"/><path class="cls-2" d="M36.83,90.25c.74,0,8.82,2.4,8.82,2.4l.55-1.2L37.09,89.7Z"/><polygon class="cls-2" points="41.52 101.8 32.29 99.96 31.87 100.88 40.86 103.26 41.52 101.8"/><ellipse class="cls-3" cx="88.64" cy="6.37" rx="4.48" ry="3.88"/><polygon class="cls-2" points="29.45 106.16 39.29 106.75 38.66 108.16 28.84 107.49 29.45 106.16"/><polygon class="cls-2" points="39.83 83.96 49.9 83.32 49.05 85.19 39.29 85.09 39.83 83.96"/><polygon class="cls-2" points="51.59 79.66 43.56 76.25 44.08 75.19 51.99 78.78 51.59 79.66"/><polygon class="cls-2" points="55.49 71.21 48.91 65.46 49.63 64.03 55.95 70.22 55.49 71.21"/><polygon class="cls-2" points="51.49 60.37 59.29 63.1 58.7 64.35 51.04 61.25 51.49 60.37"/><path class="cls-2" d="M55.71,52.23c-.22-.17,8.21,1.19,8.21,1.19l-.48,1L55.28,53Z"/><path class="cls-2" d="M60,44.27c.3,0,8.48,0,8.48,0l-.58,1.15L59.6,45Z"/><path class="cls-2" d="M58.09,47.75c-.21.13,8.62,0,8.62,0l-.6,1.2-8.34-.6Z"/><polygon class="cls-2" points="64.52 36.11 72.81 35.91 72.21 37.03 64.03 36.98 64.52 36.11"/><path class="cls-2" d="M68.89,28.67c-.26.09,6.65,2.37,6.65,2.37L75,32,67.9,30.32Z"/><polygon class="cls-2" points="72.81 22.41 79.99 24.11 79.17 25.27 72.36 23.11 72.81 22.41"/><polygon class="cls-2" points="78.22 14.65 82.68 21.01 82.09 21.59 76.91 16.42 78.22 14.65"/><polygon class="cls-2" points="87.28 10.06 88.1 19.06 88.98 19.39 88.13 10.25 87.28 10.06"/><polygon class="cls-2" points="92.86 8.19 91.19 19.68 92.03 19.77 93.12 8.41 92.86 8.19"/><polygon class="cls-2" points="101.58 16.77 99.23 24.97 102.86 18.12 101.58 16.77"/><polygon class="cls-2" points="101.05 26.83 106.55 22.07 107.23 22.81 101.44 27.24 101.05 26.83"/><polygon class="cls-2" points="103.58 29.52 109.88 25.71 110.57 26.46 104.31 30.32 103.58 29.52"/><polygon class="cls-2" points="116.54 33.12 111.13 38.03 111.75 38.76 117 33.64 116.54 33.12"/><polygon class="cls-2" points="120.68 37.8 113.66 40.99 114.48 41.96 121.02 38.19 120.68 37.8"/><polygon class="cls-2" points="125.3 43.07 117.4 45.42 118.65 46.92 125.99 43.86 125.3 43.07"/><polygon class="cls-2" points="125.73 55.52 133.23 52.22 126.72 56.73 125.73 55.52"/><polygon class="cls-2" points="146.4 67.62 140.51 73.95 141.5 75.19 147.56 68.99 146.4 67.62"/><polygon class="cls-2" points="152.66 89.42 160.82 84.7 161.89 85.98 153.62 90.66 152.66 89.42"/><polygon class="cls-2" points="156.96 94.96 164.62 90.66 165.8 90.66 166.53 91.52 158.08 96.41 156.96 94.96"/><polygon class="cls-2" points="171.84 97.89 163.57 103.52 164.82 105.16 172.41 98.58 171.84 97.89"/><path class="cls-2" d="M166.53,107.38l10.59-2.22s1.93,1,1.67,1.11.92,1.11.92,1.11l-12,1.52Z"/><polygon class="cls-2" points="148.27 83.8 154.64 78.34 155.47 78.34 156.09 79.08 148.71 84.36 148.27 83.8"/><polygon class="cls-2" points="132.62 64.03 139.08 59.03 139.78 59.85 133.23 64.8 132.62 64.03"/><rect class="cls-4" x="4.13" y="104.62" width="214.43" height="139.17" rx="34.38" transform="translate(-6.39 4.25) rotate(-2.13)"/><rect class="cls-5" x="13.67" y="115.98" width="194.72" height="115.87" rx="34.38" transform="translate(-6.38 4.24) rotate(-2.13)"/><path d="M77.17,174.62A4.12,4.12,0,0,0,74,176a5.38,5.38,0,0,0-1,3.7,5.1,5.1,0,0,0,1.38,3.63,4.5,4.5,0,0,0,3.42,1.17,5.36,5.36,0,0,0,1.89-.38,12.61,12.61,0,0,0,1.47-.74,2.7,2.7,0,0,1,.76.89,2.84,2.84,0,0,1,.31,1.24,2.24,2.24,0,0,1-1.18,2,7.29,7.29,0,0,1-3.77.92,11,11,0,0,1-3.48-.39,7.82,7.82,0,0,1-2.89-1.5,7.72,7.72,0,0,1-2-2.68,10.19,10.19,0,0,1-.85-3.94,9.88,9.88,0,0,1,.54-3.8,7.87,7.87,0,0,1,1.73-2.83,7.68,7.68,0,0,1,2.67-1.8,9.61,9.61,0,0,1,3.33-.7,7.67,7.67,0,0,1,3.94.68,2.41,2.41,0,0,1,1.47,2.06,2.16,2.16,0,0,1-.31,1.25,3.09,3.09,0,0,1-.79.85,9.3,9.3,0,0,0-1.56-.74A5.09,5.09,0,0,0,77.17,174.62Z"/><path d="M87.41,187.63a2.5,2.5,0,0,1-1.89-.61,2.48,2.48,0,0,1-.75-1.85L84.24,171l1-.19a8.23,8.23,0,0,1,1.26-.14,4.92,4.92,0,0,1,1.12.06,1.92,1.92,0,0,1,.82.31,1.42,1.42,0,0,1,.52.67,3.36,3.36,0,0,1,.21,1.14l.4,10.85,6.29-.24a4.6,4.6,0,0,1,.39.8,3.75,3.75,0,0,1,.2,1,2.1,2.1,0,0,1-.41,1.57,1.73,1.73,0,0,1-1.22.5Z"/><path d="M97,178.84a10,10,0,0,1,.54-3.82,7.87,7.87,0,0,1,1.73-2.83,7.76,7.76,0,0,1,2.69-1.78,9.8,9.8,0,0,1,3.39-.71,10.13,10.13,0,0,1,3.44.45,7.85,7.85,0,0,1,2.82,1.59,7.71,7.71,0,0,1,2,2.69,9.86,9.86,0,0,1,.81,3.76,10.32,10.32,0,0,1-.51,3.83,7.57,7.57,0,0,1-4.42,4.63,10.08,10.08,0,0,1-3.44.7,9.62,9.62,0,0,1-3.48-.46,7.6,7.6,0,0,1-2.81-1.61,7.82,7.82,0,0,1-1.92-2.71A10.18,10.18,0,0,1,97,178.84Zm5-.19a5.78,5.78,0,0,0,1.15,3.7,3.65,3.65,0,0,0,5.46-.2,7.36,7.36,0,0,0-.26-7.44,3.34,3.34,0,0,0-2.78-1.14,3.37,3.37,0,0,0-2.68,1.32A5.64,5.64,0,0,0,101.93,178.65Z"/><path d="M121.89,179.64q-1.22-.36-2.22-.75a6.6,6.6,0,0,1-1.74-1,4.28,4.28,0,0,1-1.17-1.4,4.68,4.68,0,0,1-.47-2,4.47,4.47,0,0,1,1.66-3.8,8,8,0,0,1,5-1.59,13.12,13.12,0,0,1,2.21.09,6.47,6.47,0,0,1,1.76.44,3,3,0,0,1,1.17.84,2,2,0,0,1,.46,1.23,2.12,2.12,0,0,1-.29,1.23,3.31,3.31,0,0,1-.76.9,6,6,0,0,0-1.64-.61,8.05,8.05,0,0,0-2.24-.21,3.72,3.72,0,0,0-1.8.41,1,1,0,0,0-.54.89.8.8,0,0,0,.38.66,3.87,3.87,0,0,0,1.09.44l1.47.41a10.62,10.62,0,0,1,4,2,4.5,4.5,0,0,1,1.51,3.42,4.58,4.58,0,0,1-1.7,3.85,8.68,8.68,0,0,1-5.35,1.64,12.81,12.81,0,0,1-2.36-.12,7.65,7.65,0,0,1-1.92-.53,3.61,3.61,0,0,1-1.3-.94,2.24,2.24,0,0,1-.5-1.35,2,2,0,0,1,.42-1.37,3.49,3.49,0,0,1,1-.91,7.51,7.51,0,0,0,1.92,1,6.74,6.74,0,0,0,2.45.35,3.42,3.42,0,0,0,1.88-.48,1.22,1.22,0,0,0,.51-1,.94.94,0,0,0-.47-.82,6.08,6.08,0,0,0-1.26-.52Z"/><path d="M132,171.79a2.38,2.38,0,0,1,2.46-2.65l9.06-.34a3.07,3.07,0,0,1,.37.79,3.49,3.49,0,0,1,.2,1,2,2,0,0,1-.4,1.5,1.64,1.64,0,0,1-1.18.49l-5.79.21.09,2.56,6.18-.23a3.26,3.26,0,0,1,.37.77,3.36,3.36,0,0,1,.19,1,2,2,0,0,1-.38,1.5,1.56,1.56,0,0,1-1.17.48l-5.05.19.11,2.88,7-.26a3.43,3.43,0,0,1,.38.79,3.84,3.84,0,0,1,.19,1,2.11,2.11,0,0,1-.4,1.52,1.59,1.59,0,0,1-1.18.49l-8,.3a2.37,2.37,0,0,1-2.64-2.46Z"/><path d="M153.92,185.52c-.31,0-.67,0-1.07,0s-.82,0-1.25-.06-.87-.09-1.3-.16a5.64,5.64,0,0,1-1.21-.3,2,2,0,0,1-1.58-1.95L147,170.24a1.23,1.23,0,0,1,.28-.9,2.3,2.3,0,0,1,.85-.54,11,11,0,0,1,2.48-.6A22.31,22.31,0,0,1,153,168a13.44,13.44,0,0,1,3.9.37,8.07,8.07,0,0,1,3,1.5,7.26,7.26,0,0,1,2,2.66,10,10,0,0,1,.83,3.87,10.3,10.3,0,0,1-.51,3.86,7.5,7.5,0,0,1-1.78,2.81,7.9,7.9,0,0,1-2.87,1.77A12.13,12.13,0,0,1,153.92,185.52Zm-1.68-4c.2,0,.45.05.74.07s.57,0,.83,0a5.35,5.35,0,0,0,1.7-.34,3.45,3.45,0,0,0,1.32-.9,4,4,0,0,0,.82-1.53,6.56,6.56,0,0,0,.23-2.22,5.32,5.32,0,0,0-1.29-3.68,4,4,0,0,0-3.12-1.14q-.39,0-.78.06l-.81.11Z"/><rect class="cls-6" x="4.62" y="128.3" width="214.43" height="117.55" rx="36.78" transform="translate(-6.86 4.28) rotate(-2.13)"/></g></svg>