<svg xmlns="http://www.w3.org/2000/svg" xmlns:xlink="http://www.w3.org/1999/xlink" width="220" height="250" viewBox="0 0 220 250"><defs><style>.cls-1{fill:#c69c6d;}.cls-2{fill:#6b543c;}.cls-3{fill:url(#White_Black);}.cls-4{fill:#b8babb;}.cls-5{fill:#fbebd2;}.cls-6{fill:#ff0b0b;opacity:0.52;}</style><linearGradient id="White_Black" x1="84.96" y1="6.49" x2="93.92" y2="6.49" gradientUnits="userSpaceOnUse"><stop offset="0" stop-color="#fff"/><stop offset="1"/></linearGradient></defs><g id="tid"><path class="cls-1" d="M28.78,109.52S78.39-1.57,90.93,6.19s91.24,103.33,91.24,103.33l-13.15.22S101,20.22,93.32,19.93c-10-.38-7.71-14.53-54.52,89.81"/><polygon class="cls-2" points="35.81 94.24 43.96 98.27 44.36 97.39 35.99 93.85 35.81 94.24"/><path class="cls-2" d="M37.63,90.37c.74,0,8.82,2.41,8.82,2.41l.54-1.2-9.1-1.76Z"/><polygon class="cls-2" points="42.31 101.92 33.09 100.08 32.66 101 41.65 103.38 42.31 101.92"/><ellipse class="cls-3" cx="89.44" cy="6.49" rx="4.48" ry="3.88"/><polygon class="cls-2" points="30.24 106.28 40.08 106.88 39.45 108.28 29.64 107.62 30.24 106.28"/><polygon class="cls-2" points="40.62 84.09 50.7 83.45 49.85 85.31 40.08 85.22 40.62 84.09"/><polygon class="cls-2" points="52.38 79.78 44.36 76.38 44.88 75.31 52.78 78.9 52.38 79.78"/><polygon class="cls-2" points="56.29 71.34 49.7 65.59 50.42 64.16 56.75 70.34 56.29 71.34"/><polygon class="cls-2" points="52.29 60.49 60.09 63.23 59.5 64.47 51.84 61.37 52.29 60.49"/><path class="cls-2" d="M56.51,52.36c-.22-.18,8.21,1.19,8.21,1.19l-.48,1-8.16-1.37Z"/><path class="cls-2" d="M60.77,44.4c.3,0,8.47,0,8.47,0l-.58,1.15-8.26-.47Z"/><path class="cls-2" d="M58.89,47.87c-.21.13,8.61,0,8.61,0l-.59,1.21-8.34-.61Z"/><polygon class="cls-2" points="65.32 36.23 73.61 36.03 73 37.16 64.82 37.11 65.32 36.23"/><path class="cls-2" d="M69.69,28.8c-.26.09,6.65,2.36,6.65,2.36l-.54.92-7.1-1.64Z"/><polygon class="cls-2" points="73.61 22.53 80.79 24.24 79.96 25.39 73.16 23.23 73.61 22.53"/><polygon class="cls-2" points="79.02 14.78 83.47 21.13 82.89 21.71 77.7 16.55 79.02 14.78"/><polygon class="cls-2" points="88.07 10.19 88.89 19.18 89.77 19.51 88.92 10.37 88.07 10.19"/><polygon class="cls-2" points="93.66 8.31 91.99 19.8 92.82 19.9 93.92 8.54 93.66 8.31"/><polygon class="cls-2" points="102.38 16.9 100.02 25.1 103.66 18.24 102.38 16.9"/><polygon class="cls-2" points="101.84 26.95 107.34 22.19 108.03 22.93 102.24 27.37 101.84 26.95"/><polygon class="cls-2" points="104.37 29.64 110.68 25.83 111.36 26.59 105.1 30.44 104.37 29.64"/><polygon class="cls-2" points="117.33 33.24 111.93 38.16 112.55 38.88 117.8 33.76 117.33 33.24"/><polygon class="cls-2" points="121.47 37.92 114.45 41.11 115.28 42.08 121.81 38.31 121.47 37.92"/><polygon class="cls-2" points="126.1 43.2 118.2 45.55 119.45 47.05 126.79 43.99 126.1 43.2"/><polygon class="cls-2" points="126.53 55.65 134.03 52.34 127.51 56.85 126.53 55.65"/><polygon class="cls-2" points="147.2 67.75 141.31 74.07 142.29 75.31 148.35 69.11 147.2 67.75"/><polygon class="cls-2" points="153.46 89.54 161.61 84.83 162.69 86.11 154.42 90.78 153.46 89.54"/><polygon class="cls-2" points="157.76 95.08 165.41 90.78 166.6 90.78 167.32 91.64 158.88 96.53 157.76 95.08"/><polygon class="cls-2" points="172.64 98.02 164.36 103.65 165.62 105.29 173.2 98.7 172.64 98.02"/><path class="cls-2" d="M167.32,107.51l10.6-2.22s1.93,1,1.67,1.11.92,1.11.92,1.11l-12,1.51Z"/><polygon class="cls-2" points="149.06 83.92 155.44 78.47 156.26 78.47 156.89 79.2 149.51 84.49 149.06 83.92"/><polygon class="cls-2" points="133.41 64.16 139.88 59.16 140.57 59.98 134.03 64.92 133.41 64.16"/><rect class="cls-4" x="4.92" y="104.75" width="214.43" height="139.17" rx="34.38" transform="translate(-6.39 4.28) rotate(-2.13)"/><rect class="cls-5" x="14.47" y="116.11" width="194.72" height="115.87" rx="34.38" transform="translate(-6.38 4.27) rotate(-2.13)"/><path d="M78,174.75a4.05,4.05,0,0,0-3.19,1.41,5.37,5.37,0,0,0-1,3.69,5.07,5.07,0,0,0,1.39,3.64,4.46,4.46,0,0,0,3.41,1.16,5.43,5.43,0,0,0,1.9-.37,14.42,14.42,0,0,0,1.47-.74,2.71,2.71,0,0,1,.76.89,2.8,2.8,0,0,1,.31,1.24,2.27,2.27,0,0,1-1.18,2,7.32,7.32,0,0,1-3.78.93,11.38,11.38,0,0,1-3.48-.4,7.49,7.49,0,0,1-2.88-1.5,7.59,7.59,0,0,1-2-2.67,10.23,10.23,0,0,1-.85-3.94,9.86,9.86,0,0,1,.53-3.8,8,8,0,0,1,1.74-2.83,7.68,7.68,0,0,1,2.67-1.8,9.61,9.61,0,0,1,3.33-.71,7.77,7.77,0,0,1,3.94.68,2.47,2.47,0,0,1,1.47,2.06,2.14,2.14,0,0,1-.32,1.25,2.86,2.86,0,0,1-.79.86,9.2,9.2,0,0,0-1.55-.74A4.92,4.92,0,0,0,78,174.75Z"/><path d="M88.21,187.76a2.38,2.38,0,0,1-2.65-2.46L85,171.1l1-.18a8.09,8.09,0,0,1,1.26-.14,5.52,5.52,0,0,1,1.11.05,2.05,2.05,0,0,1,.83.31,1.62,1.62,0,0,1,.52.67,3.45,3.45,0,0,1,.2,1.15l.4,10.84,6.29-.23a3.7,3.7,0,0,1,.59,1.85,2.11,2.11,0,0,1-.41,1.57,1.66,1.66,0,0,1-1.21.49Z"/><path d="M97.78,179a9.94,9.94,0,0,1,.53-3.81,7.86,7.86,0,0,1,1.74-2.83,7.74,7.74,0,0,1,2.68-1.79,9.86,9.86,0,0,1,3.4-.7,9.72,9.72,0,0,1,3.44.45,7.91,7.91,0,0,1,2.82,1.58,7.8,7.8,0,0,1,2,2.69,10.1,10.1,0,0,1,.81,3.77,10.23,10.23,0,0,1-.52,3.82,7.65,7.65,0,0,1-1.72,2.84,7.75,7.75,0,0,1-2.7,1.8,10.28,10.28,0,0,1-3.44.7,9.91,9.91,0,0,1-3.48-.46,7.78,7.78,0,0,1-2.81-1.62,8,8,0,0,1-1.91-2.7A10,10,0,0,1,97.78,179Zm4.94-.18a5.75,5.75,0,0,0,1.16,3.69,3.32,3.32,0,0,0,2.76,1.14,3.37,3.37,0,0,0,2.7-1.34,7.36,7.36,0,0,0-.26-7.44,3.31,3.31,0,0,0-2.78-1.13,3.39,3.39,0,0,0-2.69,1.32A5.72,5.72,0,0,0,102.72,178.78Z"/><path d="M122.69,179.77c-.81-.25-1.56-.5-2.23-.76a6.88,6.88,0,0,1-1.74-1,4.23,4.23,0,0,1-1.16-1.4,4.71,4.71,0,0,1-.48-2,4.49,4.49,0,0,1,1.66-3.8,8,8,0,0,1,5-1.59,14.18,14.18,0,0,1,2.2.08,6.75,6.75,0,0,1,1.76.44,3,3,0,0,1,1.18.84,2,2,0,0,1,.45,1.24,2.16,2.16,0,0,1-.28,1.23,3.29,3.29,0,0,1-.76.89,6.44,6.44,0,0,0-1.65-.61,8,8,0,0,0-2.23-.21,3.78,3.78,0,0,0-1.8.41,1,1,0,0,0-.55.89.79.79,0,0,0,.38.66,3.7,3.7,0,0,0,1.09.44l1.48.41a10.58,10.58,0,0,1,4,2,4.48,4.48,0,0,1,1.52,3.42,4.58,4.58,0,0,1-1.7,3.84,8.65,8.65,0,0,1-5.36,1.65,12.7,12.7,0,0,1-2.35-.12,7.24,7.24,0,0,1-1.92-.54,3.49,3.49,0,0,1-1.3-.94,2.15,2.15,0,0,1-.5-1.34,2.11,2.11,0,0,1,.41-1.38,3.62,3.62,0,0,1,1-.9,7.18,7.18,0,0,0,1.92,1,6.48,6.48,0,0,0,2.44.35,3.21,3.21,0,0,0,1.88-.48,1.15,1.15,0,0,0,.51-1,.94.94,0,0,0-.46-.82,5.78,5.78,0,0,0-1.26-.52Z"/><path d="M132.82,171.92a2.37,2.37,0,0,1,2.46-2.65l9.06-.34a3.56,3.56,0,0,1,.37.78,3.61,3.61,0,0,1,.19,1,2,2,0,0,1-.4,1.5,1.61,1.61,0,0,1-1.17.48l-5.8.22.1,2.55,6.17-.23a3.68,3.68,0,0,1,.38.77,3.76,3.76,0,0,1,.19,1,2.11,2.11,0,0,1-.39,1.5,1.61,1.61,0,0,1-1.16.48l-5,.19.1,2.88,7.06-.26a3.35,3.35,0,0,1,.37.78,3.55,3.55,0,0,1,.19,1,2,2,0,0,1-.4,1.51,1.59,1.59,0,0,1-1.17.5l-8,.3a2.38,2.38,0,0,1-2.65-2.46Z"/><path d="M154.72,185.65h-1.07c-.41,0-.82,0-1.26-.07s-.86-.09-1.3-.15a7,7,0,0,1-1.2-.3,2.06,2.06,0,0,1-1.59-1.95l-.47-12.82a1.2,1.2,0,0,1,.28-.91,2.39,2.39,0,0,1,.85-.54,12,12,0,0,1,2.48-.6c.87-.11,1.66-.18,2.35-.21a13.86,13.86,0,0,1,3.91.38,8,8,0,0,1,3.05,1.49,7.34,7.34,0,0,1,2,2.66,10.43,10.43,0,0,1,.83,3.88,10.24,10.24,0,0,1-.52,3.85,7.34,7.34,0,0,1-1.78,2.82,7.86,7.86,0,0,1-2.86,1.77A12.13,12.13,0,0,1,154.72,185.65Zm-1.69-4a6.42,6.42,0,0,0,.75.07,7.59,7.59,0,0,0,.82,0,5.2,5.2,0,0,0,1.71-.33,3.65,3.65,0,0,0,1.31-.9,3.84,3.84,0,0,0,.82-1.54,6.81,6.81,0,0,0,.24-2.22,5.29,5.29,0,0,0-1.29-3.67,4,4,0,0,0-3.12-1.14l-.79.06c-.26,0-.53.06-.8.11Z"/><rect class="cls-6" x="10.08" y="210.45" width="214.43" height="33.24" rx="4.55" transform="translate(-8.34 4.51) rotate(-2.13)"/></g></svg>