<svg xmlns="http://www.w3.org/2000/svg" xmlns:xlink="http://www.w3.org/1999/xlink" width="220" height="250" viewBox="0 0 220 250"><defs><style>.cls-1{fill:#c69c6d;}.cls-2{fill:#6b543c;}.cls-3{fill:url(#White_Black);}.cls-4{fill:#b8babb;}.cls-5{fill:#fbebd2;}</style><linearGradient id="White_Black" x1="82.73" y1="6.39" x2="91.69" y2="6.39" gradientUnits="userSpaceOnUse"><stop offset="0" stop-color="#fff"/><stop offset="1"/></linearGradient></defs><g id="tid"><path class="cls-1" d="M26.55,109.42S76.16-1.67,88.71,6.09,180,109.42,180,109.42l-13.15.22S98.74,20.12,91.09,19.83c-10-.38-7.71-14.53-54.52,89.81"/><polygon class="cls-2" points="33.58 94.14 41.73 98.17 42.13 97.29 33.77 93.75 33.58 94.14"/><path class="cls-2" d="M35.4,90.27c.74,0,8.82,2.41,8.82,2.41l.55-1.2-9.11-1.76Z"/><polygon class="cls-2" points="40.09 101.82 30.86 99.98 30.44 100.9 39.43 103.28 40.09 101.82"/><ellipse class="cls-3" cx="87.21" cy="6.39" rx="4.48" ry="3.88"/><polygon class="cls-2" points="28.02 106.18 37.86 106.78 37.23 108.18 27.41 107.52 28.02 106.18"/><polygon class="cls-2" points="38.4 83.98 48.48 83.35 47.62 85.21 37.86 85.12 38.4 83.98"/><polygon class="cls-2" points="50.16 79.68 42.13 76.28 42.65 75.21 50.56 78.8 50.16 79.68"/><polygon class="cls-2" points="54.06 71.23 47.48 65.49 48.2 64.06 54.52 70.24 54.06 71.23"/><polygon class="cls-2" points="50.06 60.39 57.86 63.12 57.27 64.37 49.61 61.27 50.06 60.39"/><path class="cls-2" d="M54.28,52.26c-.22-.18,8.21,1.19,8.21,1.19l-.48,1-8.15-1.37Z"/><path class="cls-2" d="M58.54,44.3c.3,0,8.48,0,8.48,0l-.58,1.15L58.17,45Z"/><path class="cls-2" d="M56.67,47.77c-.22.13,8.61,0,8.61,0l-.6,1.2-8.34-.6Z"/><polygon class="cls-2" points="63.09 36.13 71.39 35.93 70.78 37.06 62.6 37.01 63.09 36.13"/><path class="cls-2" d="M67.46,28.7c-.26.09,6.65,2.36,6.65,2.36l-.53.92-7.11-1.64Z"/><polygon class="cls-2" points="71.39 22.43 78.56 24.14 77.74 25.29 70.93 23.13 71.39 22.43"/><polygon class="cls-2" points="76.8 14.67 81.25 21.03 80.67 21.61 75.48 16.45 76.8 14.67"/><polygon class="cls-2" points="85.85 10.09 86.67 19.08 87.55 19.41 86.7 10.27 85.85 10.09"/><polygon class="cls-2" points="91.43 8.21 89.76 19.7 90.6 19.8 91.69 8.44 91.43 8.21"/><polygon class="cls-2" points="100.16 16.8 97.8 25 101.44 18.14 100.16 16.8"/><polygon class="cls-2" points="99.62 26.85 105.12 22.09 105.8 22.83 100.01 27.27 99.62 26.85"/><polygon class="cls-2" points="102.15 29.54 108.45 25.73 109.14 26.49 102.88 30.34 102.15 29.54"/><polygon class="cls-2" points="115.11 33.14 109.7 38.06 110.32 38.78 115.57 33.66 115.11 33.14"/><polygon class="cls-2" points="119.25 37.82 112.23 41.01 113.06 41.98 119.59 38.21 119.25 37.82"/><polygon class="cls-2" points="123.87 43.1 115.97 45.45 117.22 46.95 124.56 43.89 123.87 43.1"/><polygon class="cls-2" points="124.3 55.54 131.8 52.24 125.29 56.75 124.3 55.54"/><polygon class="cls-2" points="144.97 67.65 139.09 73.97 140.07 75.21 146.13 69.01 144.97 67.65"/><polygon class="cls-2" points="151.23 89.44 159.39 84.73 160.46 86.01 152.19 90.68 151.23 89.44"/><polygon class="cls-2" points="155.53 94.98 163.19 90.68 164.37 90.68 165.1 91.54 156.65 96.43 155.53 94.98"/><polygon class="cls-2" points="170.41 97.92 162.14 103.55 163.4 105.19 170.98 98.6 170.41 97.92"/><path class="cls-2" d="M165.1,107.41l10.59-2.22s1.93,1,1.67,1.11.92,1.11.92,1.11l-12,1.51Z"/><polygon class="cls-2" points="146.84 83.82 153.21 78.36 154.04 78.36 154.66 79.1 147.28 84.39 146.84 83.82"/><polygon class="cls-2" points="131.19 64.06 137.65 59.06 138.35 59.87 131.8 64.83 131.19 64.06"/><rect class="cls-4" x="2.7" y="104.64" width="214.43" height="139.17" rx="34.38" transform="translate(-6.39 4.2) rotate(-2.13)"/><rect class="cls-5" x="12.24" y="116" width="194.72" height="115.87" rx="34.38" transform="translate(-6.38 4.19) rotate(-2.13)"/><path d="M75.74,174.65a4.05,4.05,0,0,0-3.19,1.41,5.37,5.37,0,0,0-1,3.69,5.06,5.06,0,0,0,1.38,3.63,4.5,4.5,0,0,0,3.42,1.17,5.37,5.37,0,0,0,1.89-.37,12.61,12.61,0,0,0,1.47-.74,2.74,2.74,0,0,1,.77.89,2.94,2.94,0,0,1,.3,1.24,2.23,2.23,0,0,1-1.18,2,7.28,7.28,0,0,1-3.77.93,11.31,11.31,0,0,1-3.48-.4,7.75,7.75,0,0,1-2.89-1.5,7.59,7.59,0,0,1-2-2.67,10.23,10.23,0,0,1-.84-3.94,9.75,9.75,0,0,1,.53-3.81,7.94,7.94,0,0,1,1.74-2.82,7.71,7.71,0,0,1,2.66-1.81,9.84,9.84,0,0,1,3.33-.7,7.75,7.75,0,0,1,3.94.68,2.42,2.42,0,0,1,1.47,2.06,2.07,2.07,0,0,1-.31,1.25,3.13,3.13,0,0,1-.79.86,8.58,8.58,0,0,0-1.56-.74A4.89,4.89,0,0,0,75.74,174.65Z"/><path d="M86,187.66a2.37,2.37,0,0,1-2.64-2.46L82.81,171l1-.18a9.79,9.79,0,0,1,1.26-.15,6.41,6.41,0,0,1,1.12.06A1.87,1.87,0,0,1,87,171a1.47,1.47,0,0,1,.52.67,3.42,3.42,0,0,1,.21,1.15l.4,10.84,6.29-.23a4.27,4.27,0,0,1,.39.8,3.32,3.32,0,0,1,.2,1,2.07,2.07,0,0,1-.41,1.56,1.65,1.65,0,0,1-1.22.5Z"/><path d="M95.55,178.86a9.94,9.94,0,0,1,.54-3.81,7.59,7.59,0,0,1,4.42-4.62,9.85,9.85,0,0,1,3.39-.7,9.66,9.66,0,0,1,3.44.45,8,8,0,0,1,2.83,1.58,7.81,7.81,0,0,1,2,2.69,9.91,9.91,0,0,1,.81,3.77,10.06,10.06,0,0,1-.51,3.82,7.67,7.67,0,0,1-1.73,2.84,7.85,7.85,0,0,1-2.69,1.8,10.33,10.33,0,0,1-3.44.7,9.85,9.85,0,0,1-3.48-.46,7.7,7.7,0,0,1-2.81-1.62,7.88,7.88,0,0,1-1.92-2.7A10.23,10.23,0,0,1,95.55,178.86Zm5-.18a5.75,5.75,0,0,0,1.15,3.69,3.36,3.36,0,0,0,2.77,1.14,3.4,3.4,0,0,0,2.7-1.34,7.39,7.39,0,0,0-.27-7.44,3.3,3.3,0,0,0-2.78-1.13,3.37,3.37,0,0,0-2.68,1.32A5.61,5.61,0,0,0,100.5,178.68Z"/><path d="M120.47,179.67c-.82-.25-1.56-.5-2.23-.76a6.88,6.88,0,0,1-1.74-1,4.49,4.49,0,0,1-1.17-1.4,4.87,4.87,0,0,1-.47-2,4.48,4.48,0,0,1,1.66-3.8,8.05,8.05,0,0,1,5-1.58,14.31,14.31,0,0,1,2.21.08,6.38,6.38,0,0,1,1.76.44,3,3,0,0,1,1.17.84,2,2,0,0,1,.46,1.23,2.26,2.26,0,0,1-.28,1.24,3.66,3.66,0,0,1-.77.89,6.36,6.36,0,0,0-1.64-.61,8.05,8.05,0,0,0-2.24-.21,3.72,3.72,0,0,0-1.8.41,1,1,0,0,0-.54.89.79.79,0,0,0,.38.66,3.59,3.59,0,0,0,1.09.44l1.47.41a10.63,10.63,0,0,1,4,2,4.47,4.47,0,0,1,1.51,3.42,4.57,4.57,0,0,1-1.7,3.84,8.62,8.62,0,0,1-5.35,1.65,12.81,12.81,0,0,1-2.36-.12,7.56,7.56,0,0,1-1.91-.54,3.34,3.34,0,0,1-1.3-.94,2.16,2.16,0,0,1-.51-1.34,2.06,2.06,0,0,1,.42-1.38,3.58,3.58,0,0,1,1-.9,7.5,7.5,0,0,0,1.92,1,6.53,6.53,0,0,0,2.45.35,3.25,3.25,0,0,0,1.88-.48,1.22,1.22,0,0,0,.51-1,.93.93,0,0,0-.47-.82,5.57,5.57,0,0,0-1.26-.52Z"/><path d="M130.59,171.81a2.58,2.58,0,0,1,.62-1.89,2.55,2.55,0,0,1,1.84-.75l9.06-.34a3.54,3.54,0,0,1,.38.78,4,4,0,0,1,.19,1,2,2,0,0,1-.4,1.5,1.63,1.63,0,0,1-1.18.48l-5.79.22.09,2.55,6.18-.23a3.69,3.69,0,0,1,.37.77,3.42,3.42,0,0,1,.19,1,2.06,2.06,0,0,1-.38,1.5,1.63,1.63,0,0,1-1.17.48l-5.05.19.11,2.88,7-.26a3.15,3.15,0,0,1,.38.78,3.91,3.91,0,0,1,.19,1,2.07,2.07,0,0,1-.4,1.51,1.59,1.59,0,0,1-1.18.5l-8,.3a2.37,2.37,0,0,1-2.64-2.46Z"/><path d="M152.49,185.55h-1.07c-.4,0-.82,0-1.25-.07s-.87-.09-1.3-.15a7.38,7.38,0,0,1-1.21-.3,2,2,0,0,1-1.58-1.95l-.48-12.82a1.21,1.21,0,0,1,.29-.91,2.18,2.18,0,0,1,.84-.54,12.31,12.31,0,0,1,2.48-.6c.88-.11,1.66-.18,2.36-.21a13.39,13.39,0,0,1,3.9.38,7.84,7.84,0,0,1,3.05,1.49,7.34,7.34,0,0,1,2,2.66,10,10,0,0,1,.83,3.88,10.25,10.25,0,0,1-.51,3.85,7.46,7.46,0,0,1-1.78,2.82,7.9,7.9,0,0,1-2.87,1.77A12.69,12.69,0,0,1,152.49,185.55Zm-1.68-4a6.44,6.44,0,0,0,.74.07,7.78,7.78,0,0,0,.83,0,4.85,4.85,0,0,0,1.7-.34,3.38,3.38,0,0,0,1.32-.9,3.85,3.85,0,0,0,.82-1.53,6.56,6.56,0,0,0,.23-2.22,5.34,5.34,0,0,0-1.29-3.68,4,4,0,0,0-3.12-1.13q-.39,0-.78.06c-.26,0-.53.06-.81.11Z"/></g></svg>