<svg xmlns="http://www.w3.org/2000/svg" width="165" height="405" viewBox="0 0 165 405"><defs><style>.cls-1{fill:#ffd6ae;}.cls-2{fill:#ed1c24;}.cls-3{fill:#c62430;}.cls-4{fill:#fbebd2;}.cls-5{fill:#f7b9a1;}.cls-6{fill:none;stroke:#020202;stroke-linecap:round;stroke-miterlimit:10;stroke-width:3.34px;}</style></defs><g id="kropsedele"><path class="cls-1" d="M70.11,70.19,21.4,83.5,63.52,201.57s.19,19.65-6.38,29.74L53.26,353.66s-3.68,9.3,10,13.85,28.12,9.94,28.12,9.94S112.6,383,109.87,391s25.51,12.74,25.51,12.74,14.73-3-10-13.85c0,0,21.58,10.69,26,4.28S130,380.37,130,380.37s36.4,11.82,34.9-1.25c0,0-2.63-9.64-29.39-12.7,0,0,32.37,4.63,28.94-7.91s-44-17-44-17-20.35-10-22.21-39.54l11.29-49.74s42.43-34.4-2.85-63.49-.26-1-.26-1S77.83,79.48,70.11,70.19Z"/><ellipse class="cls-2" cx="44.79" cy="74.26" rx="27" ry="19.25" transform="translate(-17.99 14.44) rotate(-15.29)"/><ellipse class="cls-3" cx="44.82" cy="74.14" rx="21.94" ry="15.64" transform="translate(-17.96 14.44) rotate(-15.29)"/><path class="cls-4" d="M51.22,73.28s-.06-26.72-4.41-36c0,0,15.63-15.71,2.64-26.79S20.33-6.63,24.35,21.33c0,0-21.92-17.26-24.18,4.28s23.45,14.66,24.1,16.16,9.89,36.17,9.89,36.17Z"/><path class="cls-5" d="M154.64,383.26c3.7-.45,8-1.4,6.68-3.63-1.94-3.25-5.17-4.38-8.33-4.57C152.34,377.74,151.64,382,154.64,383.26Z"/><path class="cls-5" d="M145.65,393.76c2.32-.11,5-.47,4.06-1.82a7.47,7.47,0,0,0-5.45-3C144,390.46,143.71,392.88,145.65,393.76Z"/><path class="cls-5" d="M154,365c4.24-.8,7.24-2.37,7.69-5.12.51-3.06-2.69-5.64-7.57-7.76A9.13,9.13,0,0,0,154,365Z"/><path class="cls-5" d="M135,402.11c1.57-.22,2.67-.7,2.82-1.58s-1.06-1.83-2.89-2.56A2.66,2.66,0,0,0,135,402.11Z"/><path class="cls-6" d="M107,254.48l9.73-11.6c6.67-10.41,11.52-20.22,9-29.81-2.89-11-16.3-23.74-36.41-34.62"/></g></svg>