<svg xmlns="http://www.w3.org/2000/svg" width="225" height="400" viewBox="0 0 225 400"><defs><style>.cls-1{fill:#ffd6ae;}.cls-2{fill:#ed1c24;}.cls-3{fill:#c62430;}.cls-4{fill:#fbebd2;}.cls-5{fill:#f7b9a1;}.cls-6{fill:none;stroke:#020202;stroke-linecap:round;stroke-miterlimit:10;stroke-width:3.48px;}</style></defs><g id="kropsedele"><path class="cls-1" d="M148.12,62.7l44.94,28L131.21,204.66s-3.66,20.89.93,33.51L114.21,369.72s1.92,11-12.18,11.93S73,384.26,73,384.26s-21.59-.1-20.36,9.23-27,6.34-27,6.34-13.78-7.38,12.18-11.93c0,0-22.86,5.27-26.06-2.83s23.24-8.68,23.24-8.68-37.45,2.26-33.67-11.25c0,0,4.27-9.53,30.79-5.19,0,0-32.26-4.26-26.7-16.65s45.78-5.61,45.78-5.61,21.54-4.86,28.59-35.85l-2.14-56.23s-35.11-48.73,14-66.89.43-.95.43-.95S139,70.42,148.12,62.7Z"/><ellipse class="cls-2" cx="171.99" cy="74.24" rx="19.75" ry="28.58" transform="translate(5.52 160.14) rotate(-50.64)"/><ellipse class="cls-3" cx="171.98" cy="74.1" rx="16.05" ry="23.22" transform="translate(5.62 160.09) rotate(-50.64)"/><path class="cls-4" d="M165.91,71.36s4.8-28.47,10.67-37.12c0,0-12.38-21.19,2.19-29.31s31.32-10,22.45,18.69c0,0,24.35-12.18,22.72,11.43s-25.37,9-26.26,10.38-16,35.76-16,35.76Z"/><path class="cls-5" d="M10.5,372.47C7,370.94,3,368.71,4.65,366.71c2.47-2.92,5.8-3.21,8.9-2.51C13.71,367.25,13.64,372,10.5,372.47Z"/><path class="cls-5" d="M17.36,386.22c-2.22-.77-4.76-1.91-3.61-3.09a6.42,6.42,0,0,1,5.82-1.66C19.58,383.18,19.41,385.84,17.36,386.22Z"/><path class="cls-5" d="M14.32,353.19c-4-2.06-6.62-4.58-6.57-7.65,0-3.4,3.62-5.24,8.73-6.12C19.39,344.08,18.34,350.19,14.32,353.19Z"/><path class="cls-5" d="M26.23,398.15c-1.49-.68-2.47-1.5-2.46-2.48S25.12,394,27,393.76A3,3,0,0,1,26.23,398.15Z"/><path class="cls-6" d="M79.6,248.71l-7.4-15.13c-4.63-13-7.6-24.83-3.47-34.35,4.77-11,20-20.67,41.51-26.56"/></g></svg>