<svg xmlns="http://www.w3.org/2000/svg" width="185" height="330" viewBox="0 0 185 330"><defs><style>.cls-1{fill:#999;}.cls-2{fill:#ed1c24;}.cls-3{fill:#c62430;}.cls-4{fill:#fbebd2;}.cls-5{fill:#636363;}</style></defs><g id="dyredele"><path class="cls-1" d="M177.22,98.49s-5.61,27.24-10.09,35.62-10.09,28.28-4.49,38.76-5.6,22-5.6,22,9,45.94,7.28,52.3,10.66,61.88,5.05,69.21S20.23,330,20.23,330-1.08,303.81,0,291.24,14.54,143.16,18,131c0-14.67,9.82-31.34,9-56.57C26.15,50.52,177.22,98.49,177.22,98.49Z"/><path class="cls-2" d="M27,73.35c-1.79,10.16,31.22,26,72.48,32.3s76.14,3.22,77.92-6.94S147.15,75.19,105.9,68.87,28.74,63.2,27,73.35Z"/><path class="cls-3" d="M41.18,76.11c-1.44,8.22,25.25,21,58.6,26.12s61.56,2.6,63-5.61S138.36,77.6,105,72.49,42.62,67.9,41.18,76.11Z"/><path class="cls-4" d="M133.49,97.45c0-2.1,7.85-39.81,19.06-42.95s42.61-13.62,29.16-29.33-35.89-6.29-44.86-1.05-9,7.33-9,7.33S132.37-1,97.6,0,85.27,32.5,85.27,32.5c-.39.57-27,42-25.09,49.12Z"/><path d="M131.81,48.72s-14.94,24.4-13.36,32.9"/><path class="cls-5" d="M168.23,317.52c0-.09-1.1-34.66-25.77-29.42s-25.24,35.33-25.24,35.33l27.48-1.81Z"/><path class="cls-5" d="M116.1,323.43s-14-38.47-30.83-31.14S70.66,326.5,70.66,326.5l22.46-.69Z"/><path class="cls-5" d="M68.42,327.54c0,.36-13.43-34.2-29.13-33.16S21.35,330,21.35,330Z"/><path d="M119.18,174.84c-1.57-3-16.6-4.62-36.26-5.8-9-.53-19-1-29.05-1.41"/><path d="M122.27,186.49s-37,4.19-44.85,2.09-43.74-8.38-46-10.47"/><path d="M112.18,207.44c0,5.05-84.24-5.65-86.41-10.67"/><path d="M132.37,225.25c-6.27,4.26-100.7-11.5-100.93-14.86"/><path d="M85.65,231.25c-.82-.65-17.17-15.09-34.27-5.74-.72.39.1,1,.1,1s22.26-2.71,30.87,5.52C82.35,232.07,86.86,232.21,85.65,231.25Z"/></g></svg>