<svg xmlns="http://www.w3.org/2000/svg" width="230" height="515" viewBox="0 0 230 515"><defs><style>.cls-1{fill:#eac31b;}.cls-2{fill:#f15a24;}.cls-3{fill:#ff7f00;}.cls-4{fill:#ed1c24;}.cls-5{fill:#c62430;}.cls-6{fill:#fbebd2;}.cls-7{fill:#913f26;}</style></defs><g id="dyredele"><path class="cls-1" d="M95.61,148.65s-17.43,27.91,7,75.41,28.33,49.62,32.55,79.16,14.4,75.21,14.4,75.21,25.06,30.43,37.32,42.7,33,19.84,41,66.31c0,0-46.87-52.54-58.44-52s27.69,72.11,27.69,72.11-36.5-21.61-43-38.28a261.94,261.94,0,0,1-10.34-33.62s-18.17,59.8-.12,78.58c0,0-64.48-39.72-24.72-130.52,0,0,.84-54.88-10.35-71.62s-7-32.45-37-79C43,188.65,52.23,176.54,64.15,153.23"/><path class="cls-2" d="M213.6,447.69c5.88,8.93,11.09,21.25,14.28,39.75,0,0-16.08-18-31.72-32.84Z"/><path class="cls-2" d="M135.88,478.45c-.89,14.2.53,28.28,7.75,35.8,0,0-14.81-9.13-25.85-28.63Z"/><path class="cls-2" d="M175,463c8.84,20.37,22.13,44.6,22.13,44.6S163,487.36,154.84,471Z"/><path class="cls-3" d="M103.9,85.26C100.43,89,99.23,93.39,95,96.34L90.24,91.9C94.5,89,98,85.25,103.9,85.26Z"/><path class="cls-3" d="M6.57,147.53c.08.11,6.53-51.85,4.69-54.72-1.75-2.72,3.3,3.33,3.89,3,7-4.27,87.17-16.12,87.17-16.12s18.84,51.8,29.37,65.87-10.16,50.27-41.86,17.68c0,0,19.1,20.74-3.18,31.8s-38.5-11.16-38.46-22.25-1.58-1.49-1.58-1.49,12,37.74-22.81,25.85S6.57,147.53,6.57,147.53ZM95,96.34c4.26-3,5.46-7.39,8.93-11.08C98,85.25,94.5,89,90.24,91.9Z"/><path class="cls-4" d="M9.91,89.38C8,77,27.39,65.13,53.13,62.92s48.12,6,50,18.45A11,11,0,0,1,103,85.3a10.58,10.58,0,0,1-.41,1.51c-2.09,2.74-3.42,5.7-5.87,8.09-.56.48-1.15,1-1.77,1.42-7.77,5.85-20.37,10.24-35.05,11.5C34.16,110,11.78,101.78,9.91,89.38Z"/><path class="cls-5" d="M12.62,89.27c-1.83-11.34,15.74-22,39.24-23.72s44,6,45.87,17.34a10.25,10.25,0,0,1-.07,3.58,11.2,11.2,0,0,1-.36,1.38C95.41,90.33,94.22,93,92,95.17c-.51.44-1,.86-1.6,1.28-7,5.26-18.51,9.15-31.92,10.15C35,108.36,14.46,100.6,12.62,89.27Z"/><path class="cls-4" d="M102.59,86.81a19.3,19.3,0,0,1-5.87,8.09C99.17,92.51,100.5,89.55,102.59,86.81Z"/><path class="cls-6" d="M64.76,87.42s-2.64-56.59-.53-56.77S92.09,15.72,76.51,3.86,53,17.88,53,17.88s-17-23-23.91-3S42.31,37.09,42.31,37.09l1.74,53.26Z"/><path d="M50.15,55.59c-1.57-.15-4.12,24.3.91,29.27"/><path class="cls-7" d="M101.83,221.49s-27.39,6.36-27.76,9.4S103.23,225,103.23,225Z"/><path class="cls-7" d="M77.05,241.21s10.49-5.72,11.64-3.22S78,243,78,243Z"/><path class="cls-7" d="M83.22,251.92s23.81-12.08,23.21-9.86-21.59,12.85-21.59,12.85Z"/><path class="cls-7" d="M122.42,261.18c-2.37,2.42-31.63,11.6-31.22,6.54,0,0,30.77-8.27,30.62-7.71s-.09-.09-.09-.09Z"/><polygon class="cls-7" points="129.36 276.14 97.95 284.7 99.79 290.21 130.52 279.3 129.36 276.14"/><polygon class="cls-7" points="132.6 286.14 101.53 295.52 102.31 297.85 133.39 289.4 132.6 286.14"/><path class="cls-7" d="M111.76,317.43c-.65-1.41,25.14-7.15,25.14-7.15l1,6.14L113.09,321Z"/><polygon class="cls-7" points="95.61 206.55 61.2 214.39 63.84 218.51 97.06 210.62 95.61 206.55"/><path class="cls-7" d="M140.33,330.06s-12.07-.7-13.46.78,14,2.25,14,2.25Z"/><path class="cls-7" d="M116.06,249,87.42,259.85l1.71,3.47s26.33-11.7,27.28-12S116.06,249,116.06,249Z"/><polygon class="cls-7" points="62.68 194.95 54.48 196.02 55.21 199.06 67.14 197.19 62.68 194.95"/><path class="cls-7" d="M86.48,196.19s6.23-.5,6.06-.62a16.08,16.08,0,0,1-.55-2.63Z"/><path class="cls-7" d="M117.45,342.16l25-1.21s.7,2,.37,1.89-25.08,1.25-25.08,1.25Z"/><polygon class="cls-7" points="118.7 354.67 144.99 353.88 145.5 356.41 118.84 356.55 118.7 354.67"/><path class="cls-7" d="M119.7,384.47s5.31-1.12,16.29-3.32,14.35-2,14.35-2l-1.81-8.32-28.91,3.2Z"/></g></svg>