<svg xmlns="http://www.w3.org/2000/svg" width="305" height="265" viewBox="0 0 305 265"><defs><style>.cls-1{fill:#c45605;}.cls-2{fill:red;}.cls-3{fill:#c62430;}.cls-4{fill:#fbebd2;}.cls-5{fill:#736357;}.cls-6{fill:#493e37;}.cls-7{fill:#332c28;}</style></defs><g id="dyredele"><path class="cls-1" d="M297.57,89.83C336.5,212.26,99.89,276.12,8.81,263.09a8,8,0,0,1-7.16-9.49h0a8.72,8.72,0,0,1,9.92-7.12C81.71,260.21,309.1,190.22,281,95c-1.75-5.92,1.84-9.54,6.32-10.55h0C291.77,83.39,295.32,82.74,297.57,89.83Z"/><ellipse class="cls-2" cx="8.24" cy="254.96" rx="6.5" ry="8.5"/><ellipse class="cls-3" cx="8.24" cy="254.58" rx="4.5" ry="5.88"/><ellipse class="cls-4" cx="7.66" cy="255.96" rx="1.91" ry="2.5"/><path class="cls-5" d="M281.74,92.46c1,0-27-23-25-30,0,0-2-4,1-2s1-20-2-21-2-3,2-2l1,2s4-2,2-6-6-16,4-23c0,0,1,14,1,13s5-18,14-21c0,0,3-1,3,9,0,0,6,0,6-2s5-5,4,3-3,15-2,17,4,1,5-3,2-4,4-5-1.12,14.81-1,15c2,3-.12-.19-.12-.19s3.12-1.81,4.12-.81,1.23,2.76-.88,3.38,0,1.64,0,1.64.88,18-2.12,20,2.12,0,2.12,0-2.12-3.88-2.12,14c0,1-2.44,18-2.44,18Z"/><path class="cls-6" d="M282.73,91.46c.83,0-22.37-16.86-20.71-22,0,0-1.66-2.93.83-1.47s.82-14.66-1.66-15.39-1.66-2.2,1.66-1.47l.82,1.47s3.32-1.47,1.66-4.4-5-11.73,3.32-16.86c0,0,.82,10.26.82,9.53s4.15-13.2,11.6-15.4c0,0,2.49-.73,2.49,6.6,0,0,5,0,5-1.47s4.14-3.66,3.32,2.2-2.49,11-1.66,12.47,3.31.73,4.14-2.2,1.66-2.94,3.32-3.67-.94,10.86-.83,11c1.65,2.2-.11-.14-.11-.14s2.59-1.33,3.42-.59,1,2-.73,2.47,0,1.2,0,1.2.73,13.19-1.75,14.65,1.75,0,1.75,0-1.75-2.84-1.75,10.28c0,.73-2,13.19-2,13.19Z"/><path class="cls-7" d="M284.88,90.46c.55,0-14.73-11.1-13.64-14.48,0,0-1.09-1.93.55-1s.54-9.65-1.09-10.13-1.1-1.45,1.09-1l.54,1s2.19-1,1.09-2.9-3.27-7.73,2.19-11.11c0,0,.54,6.76.54,6.28s2.73-8.69,7.64-10.14c0,0,1.64-.48,1.64,4.35,0,0,3.27,0,3.27-1s2.73-2.41,2.18,1.45-1.63,7.24-1.09,8.21,2.19.48,2.73-1.45,1.09-1.93,2.18-2.41-.61,7.14-.54,7.24c1.09,1.45-.07-.1-.07-.1s1.71-.87,2.25-.39.67,1.34-.48,1.64,0,.79,0,.79.48,8.68-1.16,9.64,1.16,0,1.16,0-1.16-1.87-1.16,6.76c0,.49-1.33,8.69-1.33,8.69Z"/><path class="cls-7" d="M279.88,28.92c0-.12,0-.33,0-.64-.08-3.58.21-19.13,3.89-22.82l-3.88,23.13"/><path class="cls-7" d="M283.88,28.92c0-.12,0-.33,0-.64-.08-3.58.21-19.13,3.89-22.82l-3.88,23.13"/><path class="cls-7" d="M273.88,28.92c0-.12,0-.33,0-.64-.08-3.58.21-19.13,3.89-22.82l-3.88,23.13"/><path class="cls-7" d="M277.88,23.92c0-.12,0-.33,0-.64-.08-3.58.21-19.13,3.89-22.82l-3.88,23.13"/><path class="cls-7" d="M266.88,32.92c0-.12,0-.33,0-.64-.08-3.58.21-19.13,3.89-22.82l-3.88,23.13"/><path class="cls-7" d="M270.24,27.8c0-.12,0-.34,0-.64.11-3.58,1.25-19.1,5.14-22.57l-5.15,22.87"/><path class="cls-7" d="M264.42,12.24c0,.13.05.37.09.71.39,3.93,1.4,21.12-2.35,25.49l2.31-25.83"/><path class="cls-7" d="M259.05,12.39c.06.12.14.34.26.66,1.39,3.71,6.73,20.07,4.22,25.25l-4.34-25.57"/><path class="cls-7" d="M257.05,20.39c.06.12.14.34.26.66,1.39,3.71,6.73,20.07,4.22,25.25l-4.34-25.57"/><path class="cls-7" d="M254.05,24.39c.06.12.14.34.26.66,1.39,3.71,6.73,20.07,4.22,25.25l-4.34-25.57"/><path class="cls-7" d="M255.09,42a6.81,6.81,0,0,1,.37.6c2,3.37,9.52,18.51,6.45,24.7l-6.62-25"/><path class="cls-7" d="M256.05,26.39c.06.12.14.34.26.66,1.39,3.71,6.73,20.07,4.22,25.25l-4.34-25.57"/><path class="cls-7" d="M268.42,9.24c0,.13.05.37.09.71.39,3.93,1.4,21.12-2.35,25.49l2.31-25.83"/><path class="cls-7" d="M276.42.24c0,.13.05.37.09.71.39,3.93,1.4,21.12-2.35,25.49L276.47.61"/><path class="cls-7" d="M290.42,4.24c0,.13.05.37.09.71.39,3.93,1.4,21.12-2.35,25.49l2.31-25.83"/><path class="cls-7" d="M300.42,28.24c0,.13.05.37.09.71.39,3.93,1.4,21.12-2.35,25.49l2.31-25.83"/><path class="cls-7" d="M294.42,18.24c0,.13.05.37.09.71.39,3.93,1.4,21.12-2.35,25.49l2.31-25.83"/></g></svg>