<svg xmlns="http://www.w3.org/2000/svg" width="645" height="245" viewBox="0 0 645 245"><defs><style>.cls-1{fill:#006466;}.cls-2{fill:#ed1c24;}.cls-3{fill:#c62430;}.cls-4{fill:#fbebd2;}</style></defs><g id="dyredele"><path class="cls-1" d="M4,140.33S47,241.7,321,242.7c0,0,166-20,223-134,0,0,37-19,100-35,0,0-25-18-74,6,0,0-8.06,1.63-21.5-15.5-8.6-11-27-75-30.5-59.5s13.28,85,7,89c-10.12,6.53-62,56-212,14,0,0-179-45-178-63S4,140.33,4,140.33Z"/><ellipse class="cls-2" cx="68.3" cy="90.44" rx="81.51" ry="31.48" transform="translate(-41.08 60.76) rotate(-37.76)"/><ellipse class="cls-3" cx="68.45" cy="91.35" rx="65.64" ry="25.35" transform="translate(-41.6 61.04) rotate(-37.76)"/><ellipse class="cls-4" cx="69.67" cy="90.77" rx="28.13" ry="10.86" transform="translate(-40.99 61.66) rotate(-37.76)"/></g></svg>