<svg xmlns="http://www.w3.org/2000/svg" width="320" height="420" viewBox="0 0 320 420"><defs><style>.cls-1{fill:#ffd6ae;}.cls-2,.cls-4{fill:#f7b9a1;}.cls-2{stroke:#f7b9a1;stroke-miterlimit:10;stroke-width:1.01px;}.cls-3{fill:#c69189;}.cls-5{fill:#ed1c24;}.cls-6{fill:#c62430;}.cls-7{fill:#fbebd2;}</style></defs><g id="kropsedele"><path class="cls-1" d="M121.22,12.13l67.88-10,7.09,20.07s3,9,14.18,4,76,16.06,76,57.2c-.53-.1-1.68.87-3.19,2.53-6.41,7-19.3,26.26-19.09,27.58.49,3.13-39.51-15.06-28.37,23.08s47.61,165.58,47.61,165.58,16.15,18.09,19.25,26.09c5.07,13.05,12.16,35.12,3,46.16s-41.53,45.16-51.67,20.07-29.37-65.23-51.66-62.21-27.36-7-28.37,23.08-4.05,69.24-23.3,64.22-63.82-29.1-56.73-45.16,8.1-17.06,8.1-44.15S100.2,156.7,71.58,149.61c-24.31-6-27.35,17.06-32.42-8,0,0-8.95-11.83-17.18-19.86-4.45-4.35-8.69-7.59-11.18-7.24-7.1,1,33.59-64.62,105.36-82.29C119,31.5,111.66,15.47,121.22,12.13Z"/><ellipse class="cls-2" cx="116.09" cy="118.33" rx="11.68" ry="10.79" transform="translate(-23.46 28.85) rotate(-12.88)"/><ellipse class="cls-3" cx="112.34" cy="120.08" rx="2.62" ry="3.05" transform="translate(-20.92 216.41) rotate(-82.77)"/><ellipse class="cls-2" cx="193.37" cy="113.62" rx="7.81" ry="9.14" transform="translate(-13.12 201.15) rotate(-53.41)"/><ellipse class="cls-3" cx="194.95" cy="113.18" rx="2.67" ry="2.48" transform="translate(53.63 288.8) rotate(-81.31)"/><ellipse class="cls-3" cx="179.76" cy="256.68" rx="2.67" ry="2.48" transform="matrix(0.15, -0.99, 0.99, 0.15, -101.13, 395.61)"/><polygon class="cls-4" points="16.54 116.98 25.99 110.48 18.25 118.33 16.54 116.98"/><polygon class="cls-4" points="28.6 128.74 34.1 124.53 29.42 129.67 28.6 128.74"/><path class="cls-4" d="M40.15,146l6.1-3.39s-5.62,4.61-5.85,4.31Z"/><path class="cls-4" d="M34.62,135.84s5.56-3.29,7.58-5.29-7.58,5.68-6.32,6.85Z"/><path class="cls-4" d="M283.55,85.49a32,32,0,0,0-5.3-4.12c-2-1,4,5.56,4,5.56Z"/><polygon class="cls-4" points="278.12 92.09 269.9 81.27 277 93.59 278.12 92.09"/><path class="cls-4" d="M267,108.09l-14.09-1.63s13.78-.59,15,.21Z"/><path class="cls-4" d="M271.33,101.55s-8.28-5.12-9.29-5.12,10.17,2.72,10.15,3.87Z"/><polygon class="cls-4" points="274.29 97.31 267.11 92.41 274.69 96.75 274.29 97.31"/><path class="cls-4" d="M101.19,392.17c-.12-.36,3.82-8.73,3.82-11.75l-2.66,12.86A2.33,2.33,0,0,1,101.19,392.17Z"/><polygon class="cls-4" points="115.96 403.5 117.15 397.01 114.66 402.66 115.96 403.5"/><path class="cls-4" d="M126.29,409.47v-.05l9.11-10.93-7.06,12.05Z"/><path class="cls-4" d="M140.12,416c.35-.41,5.42-13.46,5.42-14.46s-3.4,14-2.71,15.52Z"/><path class="cls-4" d="M286.23,393.6s-10-7.15-10-8.16c0,0,9.93,10.1,8.55,9.29Z"/><polygon class="cls-4" points="293.94 386.84 292.43 383.44 295.39 385.44 293.94 386.84"/><path class="cls-4" d="M300.66,380c-.12.39-4.18-7.63-4.18-7.63l5.42,6.27Z"/><path class="cls-4" d="M306.57,373.09c0,.31-9.07-14.74-6-10.73a113.43,113.43,0,0,1,6.47,10Z"/><ellipse class="cls-5" cx="153.01" cy="9" rx="37.74" ry="6.02" transform="translate(0.87 27.6) rotate(-10.34)"/><ellipse class="cls-6" cx="152.79" cy="8.63" rx="27.89" ry="4.11" transform="translate(0.93 27.56) rotate(-10.34)"/><ellipse class="cls-7" cx="152.81" cy="8.79" rx="8.85" ry="1.3" transform="translate(0.9 27.56) rotate(-10.34)"/><polygon points="236.55 383.3 192.42 394.65 169 305.29 213.13 293.94 236.55 383.3"/></g></svg>