<svg xmlns="http://www.w3.org/2000/svg" width="290" height="475" viewBox="0 0 290 475"><defs><style>.cls-1{fill:#ffd6ae;}.cls-2{fill:#f7b9a1;}.cls-3{fill:#ed1c24;}.cls-4{fill:#c62430;}.cls-5{fill:#fbebd2;}</style></defs><g id="kropsedele"><path class="cls-1" d="M258,337.67c-3.75-11.25-12.16-7.41-22.5-10.5-6.21-1.86-21-14-20.5-13.5s-14-17-25-82c0,0-12.34-33.3-11.67-60.65.58-23.87-13.05-61.19-15.87-71a11.41,11.41,0,0,0,.92-8.37c-3.25-10.23-23.8-12.84-45.9-5.83S80,106.9,83.37,117.08a10.68,10.68,0,0,0,4.55,5.5c-.3,0-.59.06-.89.09,0,0,31,41,31,53s30,116,30,116,4.27,33.06,4.62,57.52c.13,9-.27,16.89-1.62,21.48-5,17-18,42-11,47s18,5,23-4,7-29,7-29-1,42,11,42,9-45,9-45,5.81,49,23,44c16.24-4.7,5.28-45.24,5-47-.31-2,19.83,32.9,26,22,13-23-17-47-17-47S264,355.67,258,337.67Z"/><path class="cls-2" d="M229.85,390.71c3.27,4.36,7.61,9.15,9.48,5.84,2.73-4.83,1.82-9.74-.24-13.88C235.2,383.79,229.3,386,229.85,390.71Z"/><path class="cls-2" d="M243.68,345.48c5.31-1.23,11.44-3.28,9.17-6.33-3.33-4.44-8.19-5.58-12.82-5.36C239.49,337.8,239.12,344.08,243.68,345.48Z"/><path class="cls-2" d="M176,416.79c1.25,3.09,3,5.16,5.31,5.16,2.62,0,4.32-2.73,5.42-6.67A8.24,8.24,0,0,0,176,416.79Z"/><path class="cls-2" d="M144.23,408.55c.13,3.33,1.05,5.85,3.26,6.65,2.46.88,5-1.12,7.35-4.45A8.22,8.22,0,0,0,144.23,408.55Z"/><path class="cls-2" d="M204,413.41c1.48,4,3.51,6.76,6.3,6.76,3.1,0,5.12-3.58,6.43-8.74A9.14,9.14,0,0,0,204,413.41Z"/><path class="cls-3" d="M162.93,91.35c3.27,10.31-12.06,24.63-34.41,31.46-11.48,3.52-22.56,4.51-31.05,3.26-7.93-1.17-13.59-4.29-15.2-9.13-3.41-10.27,12.13-24.4,34.41-31.47S159.66,81,162.93,91.35Z"/><path class="cls-4" d="M152.89,94c2.48,7.83-9.15,18.69-26.1,23.87-8.71,2.67-17.12,3.42-23.56,2.47-6-.88-10.31-3.25-11.53-6.92-2.58-7.79,9.21-18.51,26.1-23.88S150.41,86.21,152.89,94Z"/><path class="cls-5" d="M132.08,100.43c.83,2.6-3.05,6.22-8.69,7.95a18.56,18.56,0,0,1-7.85.82c-2-.29-3.43-1.08-3.84-2.31-.86-2.59,3.07-6.16,8.69-8S131.25,97.82,132.08,100.43Z"/></g></svg>