<svg xmlns="http://www.w3.org/2000/svg" width="180" height="345" viewBox="0 0 180 345"><defs><style>.cls-1{fill:#ffd6ae;}.cls-2{fill:#f7b9a1;}.cls-3{fill:#ed1c24;}.cls-4{fill:#c62430;}.cls-5{fill:#fbebd2;}</style></defs><g id="kropsedele"><path class="cls-1" d="M1.77,256c3.77-11.24,12.22-7.4,22.62-10.49,6.23-1.86,21.1-14,20.6-13.5s14.07-17,25.13-82c0,0,12.4-33.27,11.73-60.62C81.26,65.61,95,28.31,97.79,18.55a11.41,11.41,0,0,1-.92-8.37C100.14,0,120.79-2.65,143,4.36s37.71,21,34.31,31.2a10.65,10.65,0,0,1-4.57,5.49c.3,0,.59.07.89.09,0,0-31.15,41-31.15,53s-30.15,115.94-30.15,115.94-4.29,33.05-4.65,57.5c-.13,9,.28,16.88,1.63,21.47,5,17,18.09,42,11.06,47s-18.09,5-23.12-4-7-29-7-29,1,42-11.06,42-9-45-9-45S64.27,349,47,344c-16.33-4.69-5.3-45.22-5-47,.31-2-19.94,32.9-26.13,22-13.07-23,17.08-47,17.08-47S-4.26,274,1.77,256Z"/><path class="cls-2" d="M30.1,309.06c-3.29,4.36-7.65,9.15-9.53,5.84-2.75-4.83-1.83-9.74.24-13.88C24.72,302.14,30.65,304.32,30.1,309.06Z"/><path class="cls-2" d="M16.2,263.85c-5.34-1.23-11.51-3.28-9.22-6.32,3.34-4.44,8.23-5.58,12.88-5.36C20.4,256.18,20.78,262.45,16.2,263.85Z"/><path class="cls-2" d="M84.19,335.13c-1.26,3.09-3,5.15-5.34,5.15-2.63,0-4.34-2.73-5.44-6.66A8.31,8.31,0,0,1,84.19,335.13Z"/><path class="cls-2" d="M116.14,326.89c-.13,3.33-1,5.85-3.27,6.65-2.48.88-5-1.12-7.39-4.45A8.31,8.31,0,0,1,116.14,326.89Z"/><path class="cls-2" d="M56.05,331.75c-1.49,4.05-3.53,6.75-6.34,6.75-3.12,0-5.15-3.57-6.45-8.73A9.22,9.22,0,0,1,56.05,331.75Z"/><path class="cls-3" d="M97.35,9.84c-3.28,10.31,12.12,24.62,34.58,31.45,11.55,3.51,22.68,4.5,31.21,3.25,8-1.16,13.66-4.28,15.27-9.12C181.84,25.15,166.22,11,143.84,4S100.64-.47,97.35,9.84Z"/><path class="cls-4" d="M107.44,12.52c-2.49,7.82,9.2,18.68,26.23,23.86,8.76,2.67,17.21,3.42,23.68,2.47,6-.89,10.36-3.25,11.59-6.92,2.6-7.79-9.25-18.51-26.23-23.86S109.94,4.7,107.44,12.52Z"/><path class="cls-5" d="M128.36,18.92c-.83,2.6,3.06,6.22,8.73,7.94a18.74,18.74,0,0,0,7.89.82c2-.29,3.45-1.08,3.86-2.3.87-2.59-3.08-6.16-8.74-7.95S129.19,16.31,128.36,18.92Z"/></g></svg>