<svg xmlns="http://www.w3.org/2000/svg" width="1920" height="1080" viewBox="0 0 1920 1080"><defs><style>.cls-1{fill:#221f1f;}.cls-2{fill:#fff;}</style></defs><g id="startskærm"><rect class="cls-1" x="-2" width="1920" height="1080"/><path class="cls-2" d="M521.07,218.06a30,30,0,0,1,4.35-1.75c1.43-.48,2.85-.85,4.26-1.19a57.39,57.39,0,0,1,8.36-1.28,71.08,71.08,0,0,1,31.86,4.9,57.32,57.32,0,0,1,7.58,3.75c1.24.75,2.48,1.53,3.7,2.43a29.69,29.69,0,0,1,3.62,3,30.51,30.51,0,0,1-4.35,1.76c-1.44.48-2.85.85-4.26,1.2a59,59,0,0,1-8.36,1.29,71.5,71.5,0,0,1-31.86-5,56.7,56.7,0,0,1-7.58-3.75c-1.24-.75-2.48-1.52-3.7-2.42A31.25,31.25,0,0,1,521.07,218.06Z"/><path class="cls-2" d="M557.08,185.12a39,39,0,0,1,1.86,5c.52,1.66.92,3.3,1.3,4.93a77.46,77.46,0,0,1,1.49,9.75,96.18,96.18,0,0,1-.23,19.13,94.69,94.69,0,0,1-3.89,18.73,77.41,77.41,0,0,1-3.57,9.19c-.73,1.52-1.48,3-2.34,4.54a40,40,0,0,1-2.91,4.47,38.3,38.3,0,0,1-1.87-5c-.52-1.65-.93-3.29-1.31-4.93a79.51,79.51,0,0,1-1.5-9.74,95.52,95.52,0,0,1,.26-19.14,96.5,96.5,0,0,1,3.91-18.73,79.73,79.73,0,0,1,3.57-9.18c.72-1.52,1.47-3,2.34-4.54A38.9,38.9,0,0,1,557.08,185.12Z"/><path class="cls-2" d="M292.48,439.12A74.7,74.7,0,0,1,302.13,456a121.36,121.36,0,0,1,8.92,36.35,73.72,73.72,0,0,1-.77,19.46,73.77,73.77,0,0,1-9.66-16.9,115.94,115.94,0,0,1-5.86-17.84,118.17,118.17,0,0,1-3-18.53A74.47,74.47,0,0,1,292.48,439.12Z"/><path class="cls-2" d="M321.23,470.32a28.63,28.63,0,0,1-8.58,7.76,36.23,36.23,0,0,1-9.55,4,35.52,35.52,0,0,1-10.29,1.17,28.43,28.43,0,0,1-11.28-2.61,28.41,28.41,0,0,1,8.57-7.78A36.88,36.88,0,0,1,310,467.72,28.67,28.67,0,0,1,321.23,470.32Z"/><path class="cls-2" d="M32.07,79.28a30.55,30.55,0,0,1,10.38-2.59,42.67,42.67,0,0,1,9.93.39A42.06,42.06,0,0,1,62,79.69a30.12,30.12,0,0,1,9.11,5.62A30.1,30.1,0,0,1,60.69,87.9a41.6,41.6,0,0,1-9.93-.4,42.17,42.17,0,0,1-9.57-2.63A30.25,30.25,0,0,1,32.07,79.28Z"/><path class="cls-2" d="M54.11,59.12a39.42,39.42,0,0,1,2.84,12,57.94,57.94,0,0,1-.14,11.71,57.92,57.92,0,0,1-2.38,11.47A39,39,0,0,1,49,105.46a38.87,38.87,0,0,1-2.85-12,57.22,57.22,0,0,1,.15-11.71,58.11,58.11,0,0,1,2.4-11.47A39.17,39.17,0,0,1,54.11,59.12Z"/><path class="cls-2" d="M1251.1,431a44.42,44.42,0,0,1,4.78,7.69,69.41,69.41,0,0,1,3.33,7.87,83.34,83.34,0,0,1,3.84,16.15,81.69,81.69,0,0,1,.64,16.57,55.49,55.49,0,0,1-3.65,17.17,55.31,55.31,0,0,1-8.12-15.56,81.79,81.79,0,0,1-3.83-16.14,83.29,83.29,0,0,1-.62-16.58,69.7,69.7,0,0,1,1.09-8.49A45.13,45.13,0,0,1,1251.1,431Z"/><path class="cls-2" d="M1284.94,468.29a38.56,38.56,0,0,1-7.91,2.5,57.66,57.66,0,0,1-7.69,1,67.58,67.58,0,0,1-14.94-.69,66.32,66.32,0,0,1-14.43-3.88,46.55,46.55,0,0,1-13.77-8.17,46.7,46.7,0,0,1,15.61-3.57,66.33,66.33,0,0,1,14.93.71,67.53,67.53,0,0,1,14.43,3.9,59.57,59.57,0,0,1,7,3.35A39,39,0,0,1,1284.94,468.29Z"/><path class="cls-2" d="M1169.9,102.79a44.49,44.49,0,0,1,7.54,5,69.64,69.64,0,0,1,6.3,5.78,85.18,85.18,0,0,1,17.69,27.89,55.48,55.48,0,0,1,3.81,17.13,55.47,55.47,0,0,1-13.86-10.77,85.34,85.34,0,0,1-17.65-27.92,68.69,68.69,0,0,1-2.53-8.17A45,45,0,0,1,1169.9,102.79Z"/><path class="cls-2" d="M1216.19,122.66a38.14,38.14,0,0,1-6.16,5.56,57.56,57.56,0,0,1-6.55,4.16,69.4,69.4,0,0,1-28.61,8.06,46.7,46.7,0,0,1-15.92-1.71,46.63,46.63,0,0,1,12.71-9.74,66.79,66.79,0,0,1,13.87-5.56,67.56,67.56,0,0,1,14.75-2.45,57.73,57.73,0,0,1,7.76.14A38.09,38.09,0,0,1,1216.19,122.66Z"/><path class="cls-2" d="M1643.07,272.59a34,34,0,0,1,12.25-1.43,47.56,47.56,0,0,1,21.6,6.6,33.73,33.73,0,0,1,9.34,8.07,33.62,33.62,0,0,1-12.26,1.46,47.95,47.95,0,0,1-21.59-6.64A33.83,33.83,0,0,1,1643.07,272.59Z"/><path class="cls-2" d="M1669.58,250.12a52.14,52.14,0,0,1,2.44,15.37,79,79,0,0,1-1.12,14.78,77.17,77.17,0,0,1-3.78,14.32,51.39,51.39,0,0,1-7.37,13.72,51.53,51.53,0,0,1-2.45-15.38,81.05,81.05,0,0,1,4.93-29.09A52.17,52.17,0,0,1,1669.58,250.12Z"/><path class="cls-2" d="M1829.07,697.12a17.4,17.4,0,0,1-4.06,5.71,22,22,0,0,1-11.07,5.61,17.06,17.06,0,0,1-7-.13,17,17,0,0,1,4.06-5.72,20.8,20.8,0,0,1,5.14-3.59,21.23,21.23,0,0,1,5.94-2A17.17,17.17,0,0,1,1829.07,697.12Z"/><path class="cls-2" d="M1815.48,678.12a52,52,0,0,1,4.5,12,85.35,85.35,0,0,1,2.16,12.21,82.52,82.52,0,0,1,.37,12.39,51.21,51.21,0,0,1-2,12.63,50.77,50.77,0,0,1-4.52-12,84,84,0,0,1-2.15-12.21,85.26,85.26,0,0,1-.36-12.39A51.61,51.61,0,0,1,1815.48,678.12Z"/><path class="cls-2" d="M272.22,160.15a1.5,1.5,0,0,0,0-3,1.5,1.5,0,0,0,0,3Z"/><path class="cls-2" d="M939,359.09a1.5,1.5,0,0,0,0-3,1.5,1.5,0,0,0,0,3Z"/><path class="cls-2" d="M418.69,496.81a1.5,1.5,0,0,0,0-3,1.5,1.5,0,0,0,0,3Z"/><path class="cls-2" d="M102.82,345.6l-2.18,2.18a1.56,1.56,0,0,0-.44,1.06,1.5,1.5,0,0,0,.44,1.06,1.46,1.46,0,0,0,1.06.44,1.56,1.56,0,0,0,1.06-.44l2.19-2.18a1.58,1.58,0,0,0,.44-1.06,1.54,1.54,0,0,0-.44-1.06,1.49,1.49,0,0,0-1.06-.44,1.54,1.54,0,0,0-1.07.44Z"/><path class="cls-2" d="M1555.48,195.13a1.5,1.5,0,0,0,0-3,1.5,1.5,0,0,0,0,3Z"/><path class="cls-2" d="M1225.37,216.17h-2.19a1.58,1.58,0,0,0-1.06.44,1.56,1.56,0,0,0-.44,1.06,1.59,1.59,0,0,0,.44,1.07,1.62,1.62,0,0,0,1.06.43h2.19a1.49,1.49,0,0,0,1.5-1.5,1.52,1.52,0,0,0-.44-1.06,1.54,1.54,0,0,0-1.06-.44Z"/><path class="cls-2" d="M689.77,544.91a1.5,1.5,0,0,0,0-3,1.5,1.5,0,0,0,0,3Z"/><path class="cls-2" d="M1546.73,599.56a1.5,1.5,0,0,0,0-3,1.5,1.5,0,0,0,0,3Z"/><path class="cls-2" d="M1546.73,599.56a1.5,1.5,0,0,0,0-3,1.5,1.5,0,0,0,0,3Z"/><path class="cls-2" d="M1806.88,453.09a1.5,1.5,0,0,0,0-3,1.5,1.5,0,0,0,0,3Z"/><path class="cls-2" d="M1446.17,415.93a1.5,1.5,0,0,0,0-3,1.5,1.5,0,0,0,0,3Z"/><path class="cls-2" d="M764.78,114.93v2.18a1.54,1.54,0,0,0,.44,1.06,1.52,1.52,0,0,0,1.06.44,1.46,1.46,0,0,0,1.06-.44,1.54,1.54,0,0,0,.44-1.06v-2.18a1.5,1.5,0,0,0-1.5-1.5,1.46,1.46,0,0,0-1.06.44,1.54,1.54,0,0,0-.44,1.06Z"/><path class="cls-2" d="M893.08,206.19c7.72,0,7.73-12,0-12s-7.74,12,0,12Z"/><path class="cls-2" d="M1063.6,225.86c7.72,0,7.73-12,0-12s-7.74,12,0,12Z"/><path class="cls-2" d="M554.23,492.57c7.72,0,7.73-12,0-12s-7.74,12,0,12Z"/><path class="cls-2" d="M184.77,252.73c8.55,0,8.56-13.28,0-13.28s-8.56,13.28,0,13.28Z"/><path class="cls-2" d="M244.77,329.09c15.44,0,15.47-24,0-24s-15.47,24,0,24Z"/><path class="cls-2" d="M99.51,136.23c7.72,0,7.74-12,0-12s-7.73,12,0,12Z"/><path class="cls-2" d="M357.48,120.93c7.72,0,7.73-12,0-12s-7.74,12,0,12Z"/><path class="cls-2" d="M912.88,82.26l-2.18,2.19a6.18,6.18,0,0,0-1.76,4.24,6.11,6.11,0,0,0,1.76,4.25,6,6,0,0,0,4.24,1.75,6.28,6.28,0,0,0,4.24-1.75l2.19-2.19a6,6,0,0,0,0-8.49,6,6,0,0,0-4.24-1.75,6.28,6.28,0,0,0-4.25,1.75Z"/><path class="cls-2" d="M1686.64,315.49c7.73,0,7.74-12,0-12s-7.73,12,0,12Z"/><path class="cls-2" d="M1391.52,372.33c7.72,0,7.73-12,0-12s-7.74,12,0,12Z"/><path class="cls-2" d="M1054.85,540.66c7.72,0,7.74-12,0-12s-7.73,12,0,12Z"/><path class="cls-2" d="M757.54,510.06c7.72,0,7.73-12,0-12s-7.74,12,0,12Z"/><path class="cls-2" d="M687.58,326.42c7.72,0,7.74-12,0-12s-7.73,12,0,12Z"/><path class="cls-2" d="M303.38,425.36v2.18a6.2,6.2,0,0,0,1.76,4.25,6,6,0,0,0,8.48,0,6.25,6.25,0,0,0,1.76-4.25v-2.18a6.2,6.2,0,0,0-1.76-4.25,6,6,0,0,0-8.48,0,6.25,6.25,0,0,0-1.76,4.25Z"/><path class="cls-2" d="M62.35,667.46c7.72,0,7.73-12,0-12s-7.74,12,0,12Z"/><path class="cls-2" d="M477.71,582.2c7.73,0,7.74-12,0-12s-7.73,12,0,12Z"/><path class="cls-2" d="M702.89,512.24c7.72,0,7.73-12,0-12s-7.74,12,0,12Z"/><path class="cls-2" d="M1046.11,232.42c7.72,0,7.73-12,0-12s-7.74,12,0,12Z"/><path class="cls-2" d="M1380.59,83.76c7.72,0,7.73-12,0-12s-7.74,12,0,12Z"/><path class="cls-2" d="M1758.79,35.67c7.72,0,7.73-12,0-12s-7.74,12,0,12Z"/><path class="cls-2" d="M1841.86,136.23c7.72,0,7.73-12,0-12s-7.74,12,0,12Z"/><path class="cls-2" d="M1789.39,328.61c7.72,0,7.74-12,0-12s-7.73,12,0,12Z"/><path class="cls-2" d="M1861.53,682.76c7.73,0,7.74-12,0-12s-7.73,12,0,12Z"/><path class="cls-2" d="M1697.57,682.76c7.73,0,7.74-12,0-12s-7.73,12,0,12Z"/><path class="cls-2" d="M1686.64,505.69c7.73,0,7.74-12,0-12s-7.73,12,0,12Z"/><path class="cls-2" d="M1467.64,509.69c7.73,0,7.74-12,0-12s-7.73,12,0,12Z"/><path class="cls-2" d="M1096.39,641.23c7.72,0,7.73-12,0-12s-7.74,12,0,12Z"/><path class="cls-2" d="M829.68,586.57c7.72,0,7.73-12,0-12s-7.73,12,0,12Z"/><path class="cls-2" d="M544.33,2.77A13,13,0,0,0,544.55,1a13.32,13.32,0,0,0-.22-1.65.56.56,0,0,0,0-.12c0-.17-.53-1.32-.62-1.47a6.18,6.18,0,0,0-.51-.67,6.9,6.9,0,0,0-.58-.73c-.13-.12-1.11-.88-1.26-1l-.11-.06a12.84,12.84,0,0,0-1.48-.62l-.1,0a11.65,11.65,0,0,0-1.76-.25h-.36c-.34,0-1.33.15-1.66.22l-.21,0c-.25.08-.77.32-.79.33s-.56.21-.79.34l-.11.07a11.91,11.91,0,0,0-1.25,1l-.07.06a13,13,0,0,0-1,1.25.41.41,0,0,0,0,.09A14.77,14.77,0,0,0,531-.72l0,.12c0,.19-.21,1.46-.22,1.65,0,0,0,.07,0,.11A13.57,13.57,0,0,0,531,2.84a4.56,4.56,0,0,0,1.07,2,4.55,4.55,0,0,0,1.69,1.54,4.49,4.49,0,0,0,2.23.72A4.63,4.63,0,0,0,538.35,7a6.1,6.1,0,0,0,3.59-2.76l.6-1.43a6,6,0,0,0,0-3.19V-.41l.21,1.59a.85.85,0,0,1,0-.16l-.22,1.6a.83.83,0,0,1,0-.15L542,3.91a.54.54,0,0,1,.07-.13L541.08,5a.62.62,0,0,1,.14-.14L540,5.8a.77.77,0,0,1,.18-.1l-1.44.6a1.92,1.92,0,0,1,.32-.09l-1.59.22a1.28,1.28,0,0,1,.39,0l-1.59-.21a.84.84,0,0,1,.26.07l-1.43-.61.18.1-1.22-.94a.62.62,0,0,1,.14.14l-.94-1.22a.56.56,0,0,0,.05.08l-.61-1.43a.78.78,0,0,1,0,.14L532.54,1a.81.81,0,0,1,0,.16l.21-1.59v0a4.56,4.56,0,0,0-.1,2.4,4.38,4.38,0,0,0,.71,2.23,4.53,4.53,0,0,0,1.54,1.68,4.58,4.58,0,0,0,2,1.08,6.09,6.09,0,0,0,4.63-.61l1.21-.94a6,6,0,0,0,1.55-2.65Z"/><path class="cls-2" d="M212,45.65a6.62,6.62,0,0,0-1.8-3.14L209,41.57l-.06,0a6,6,0,0,0-1.52-.65,6.92,6.92,0,0,0-1.81-.24,7,7,0,0,0-1.82.25l-.16.06a13.4,13.4,0,0,0-1.51.64,7.66,7.66,0,0,0-1.73,1.31,2,2,0,0,0-.24.26,11.06,11.06,0,0,0-1.1,1.45,7,7,0,0,0-1,3.48,6.67,6.67,0,0,0,5,6.44,4.53,4.53,0,0,0,2.39.11,5.33,5.33,0,0,0,3.92-2.26,4.47,4.47,0,0,0,1.07-2l.22-1.59a6,6,0,0,0-.82-3A6.24,6.24,0,0,0,206.19,43l-.19-.07,1.43.61-.15-.09,1.21.94a.52.52,0,0,1-.1-.11l.93,1.22-.07-.12.61,1.43a.65.65,0,0,1,0-.13l.22,1.59a.54.54,0,0,1,0-.18l-.21,1.6a1.34,1.34,0,0,1,.07-.27l-.6,1.44a1.9,1.9,0,0,1,.23-.39l-.94,1.22a2.65,2.65,0,0,1,.41-.41l-1.22.94a2.73,2.73,0,0,1,.43-.26l-1.43.6a1.58,1.58,0,0,1,.31-.09l-1.59.22h.18l-1.6-.22.14,0-1.44-.61a.35.35,0,0,1,.12.07L201.69,51a.52.52,0,0,1,.1.11l-.94-1.22a1.19,1.19,0,0,1,.09.15l-.61-1.44a1,1,0,0,1,.08.25,4.47,4.47,0,0,0,1.07,2,4.53,4.53,0,0,0,1.68,1.54,4.41,4.41,0,0,0,2.23.71,4.56,4.56,0,0,0,2.4-.1,6,6,0,0,0,3.58-2.76l.61-1.43a6.16,6.16,0,0,0,0-3.19Z"/><path class="cls-2" d="M366.22,46.6c7.72,0,7.74-12,0-12s-7.73,12,0,12Z"/><path class="cls-2" d="M51.42,16c7.72,0,7.73-12,0-12s-7.74,12,0,12Z"/><path class="cls-2" d="M103.89,442.29c7.72,0,7.73-12,0-12s-7.74,12,0,12Z"/><path class="cls-2" d="M779.4,283.89c6.43,0,6.44-10,0-10s-6.45,10,0,10Z"/><path class="cls-2" d="M523.62,332c6.44,0,6.45-10,0-10s-6.44,10,0,10Z"/><path class="cls-2" d="M523.62,332c6.44,0,6.45-10,0-10s-6.44,10,0,10Z"/><path class="cls-2" d="M357.62,350c6.44,0,6.45-10,0-10s-6.44,10,0,10Z"/><path class="cls-2" d="M396.83,205.19c6.43,0,6.44-10,0-10s-6.45,10,0,10Z"/><path class="cls-2" d="M160.72,579.94h-2.18a5.17,5.17,0,0,0-3.54,1.47,5,5,0,0,0,0,7.07,5.19,5.19,0,0,0,3.54,1.46h2.18a5.14,5.14,0,0,0,3.54-1.46,5,5,0,0,0,0-7.07,5.2,5.2,0,0,0-3.54-1.47Z"/><path class="cls-2" d="M208.82,655.53c6.43,0,6.44-10,0-10s-6.45,10,0,10Z"/><path class="cls-2" d="M20.81,314.49c6.44,0,6.45-10,0-10s-6.44,10,0,10Z"/><path class="cls-2" d="M36.12,139.6c6.43,0,6.44-10,0-10s-6.45,10,0,10Z"/><path class="cls-2" d="M1133.55,78.39c6.44,0,6.45-10,0-10s-6.44,10,0,10Z"/><path class="cls-2" d="M1015.5,417.24c6.44,0,6.45-10,0-10s-6.44,10,0,10Z"/><path class="cls-2" d="M657,670.83c6.43,0,6.44-10,0-10s-6.45,10,0,10Z"/><path class="cls-2" d="M1417.75,664.27c6.43,0,6.45-10,0-10s-6.45,10,0,10Z"/><path class="cls-2" d="M1400.26,461c6.44,0,6.45-10,0-10s-6.44,10,0,10Z"/><path class="cls-2" d="M1177.28,327.61c6.43,0,6.44-10,0-10s-6.45,10,0,10Z"/><path class="cls-2" d="M1428.68,220.49c6.44,0,6.45-10,0-10s-6.44,10,0,10Z"/><path class="cls-2" d="M1697.57,235.79c6.44,0,6.45-10,0-10s-6.44,10,0,10Z"/><path class="cls-2" d="M1535.8,100.25c6.44,0,6.45-10,0-10s-6.44,10,0,10Z"/><path class="cls-2" d="M1601.38,15c6.44,0,6.45-10,0-10s-6.44,10,0,10Z"/><path class="cls-2" d="M309.38,435.6a1.5,1.5,0,0,0,0-3,1.5,1.5,0,0,0,0,3Z"/><path class="cls-2" d="M200.08,440a1.5,1.5,0,0,0,0-3,1.5,1.5,0,0,0,0,3Z"/><path class="cls-2" d="M136.68,380.13h-2.19a1.56,1.56,0,0,0-1.06.44,1.52,1.52,0,0,0-.44,1.06,1.5,1.5,0,0,0,1.5,1.5h2.19a1.52,1.52,0,0,0,1.06-.44,1.54,1.54,0,0,0,.44-1.06,1.56,1.56,0,0,0-.44-1.06,1.58,1.58,0,0,0-1.06-.44Z"/><path class="cls-2" d="M77.65,262.9a1.5,1.5,0,0,0,0-3,1.5,1.5,0,0,0,0,3Z"/><path class="cls-2" d="M162.91,151.4a1.5,1.5,0,0,0,0-3,1.5,1.5,0,0,0,0,3Z"/><path class="cls-2" d="M805.63,171.08a1.5,1.5,0,0,0,0-3,1.5,1.5,0,0,0,0,3Z"/><path class="cls-2" d="M884.33,96.75a1.5,1.5,0,0,0,0-3,1.5,1.5,0,0,0,0,3Z"/><path class="cls-2" d="M959.18,92.12l-4.45,8.7a1.55,1.55,0,0,0,.54,2.06,1.53,1.53,0,0,0,2.05-.54l4.45-8.71a1.53,1.53,0,0,0-.54-2,1.52,1.52,0,0,0-2.05.54Z"/><path class="cls-2" d="M936.8,179.82a1.5,1.5,0,0,0,0-3,1.5,1.5,0,0,0,0,3Z"/><path class="cls-2" d="M735.68,593a1.5,1.5,0,0,0,0-3,1.5,1.5,0,0,0,0,3Z"/><path class="cls-2" d="M842.8,494.63a1.5,1.5,0,0,0,0-3,1.5,1.5,0,0,0,0,3Z"/><path class="cls-2" d="M980.52,188.57a1.5,1.5,0,0,0,0-3,1.5,1.5,0,0,0,0,3Z"/><path class="cls-2" d="M1015.5,356.9a1.5,1.5,0,0,0,0-3,1.5,1.5,0,0,0,0,3Z"/><path class="cls-2" d="M914.94,586.44a1.5,1.5,0,0,0,0-3,1.5,1.5,0,0,0,0,3Z"/><path class="cls-2" d="M538.93,669.52a1.5,1.5,0,0,0,0-3,1.5,1.5,0,0,0,0,3Z"/><path class="cls-2" d="M388.08,656.4a1.5,1.5,0,0,0,0-3,1.5,1.5,0,0,0,0,3Z"/><path class="cls-2" d="M263.47,492.44a1.5,1.5,0,0,0,0-3,1.5,1.5,0,0,0,0,3Z"/><path class="cls-2" d="M134.49,562.4a1.5,1.5,0,0,0,0-3,1.5,1.5,0,0,0,0,3Z"/><path class="cls-2" d="M1607.94,337.23a1.5,1.5,0,0,0,0-3,1.5,1.5,0,0,0,0,3Z"/><path class="cls-2" d="M1618.87,190.75a1.5,1.5,0,0,0,0-3,1.5,1.5,0,0,0,0,3Z"/><path class="cls-2" d="M1756.6,88a1.5,1.5,0,0,0,0-3,1.5,1.5,0,0,0,0,3Z"/><path class="cls-2" d="M1542.36,83.63a1.5,1.5,0,0,0,0-3,1.5,1.5,0,0,0,0,3Z"/><path class="cls-2" d="M1262.53,184.2a1.5,1.5,0,0,0,0-3,1.5,1.5,0,0,0,0,3Z"/><path class="cls-2" d="M1092,269.46a1.5,1.5,0,0,0,0-3,1.5,1.5,0,0,0,0,3Z"/><path class="cls-2" d="M1256,129.54a1.5,1.5,0,0,0,0-3,1.5,1.5,0,0,0,0,3Z"/><path class="cls-2" d="M1210.07,90.19a1.5,1.5,0,0,0,0-3,1.5,1.5,0,0,0,0,3Z"/><path class="cls-2" d="M991.45,96.75a1.5,1.5,0,0,0,0-3,1.5,1.5,0,0,0,0,3Z"/><path class="cls-2" d="M768.47,61.77a1.5,1.5,0,0,0,0-3,1.5,1.5,0,0,0,0,3Z"/><path class="cls-2" d="M598,74.89a1.5,1.5,0,0,0,0-3,1.5,1.5,0,0,0,0,3Z"/><path class="cls-2" d="M565.16,155.78a1.5,1.5,0,0,0,0-3,1.5,1.5,0,0,0,0,3Z"/><path class="cls-2" d="M1124.81,420.3a1.5,1.5,0,0,0,0-3,1.5,1.5,0,0,0,0,3Z"/><path class="cls-2" d="M871.22,488.07a1.5,1.5,0,0,0,0-3,1.5,1.5,0,0,0,0,3Z"/><path class="cls-2" d="M729.12,437.79a1.5,1.5,0,0,0,0-3,1.5,1.5,0,0,0,0,3Z"/><path class="cls-2" d="M657,356.9a1.5,1.5,0,0,0,0-3,1.5,1.5,0,0,0,0,3Z"/><path class="cls-2" d="M434,372.2a1.5,1.5,0,0,0,0-3,1.5,1.5,0,0,0,0,3Z"/><path class="cls-2" d="M381.52,477.14a1.5,1.5,0,0,0,0-3,1.5,1.5,0,0,0,0,3Z"/><path class="cls-2" d="M289.71,265.08a1.5,1.5,0,0,0,0-3,1.5,1.5,0,0,0,0,3Z"/><path class="cls-2" d="M399,623.61a1.5,1.5,0,0,0,0-3,1.5,1.5,0,0,0,0,3Z"/><path class="cls-2" d="M259.1,671.7a1.5,1.5,0,0,0,0-3,1.5,1.5,0,0,0,0,3Z"/><path class="cls-2" d="M1562,599.56a1.5,1.5,0,0,0,0-3,1.5,1.5,0,0,0,0,3Z"/><path class="cls-2" d="M1579.52,435.6a1.5,1.5,0,0,0,0-3,1.5,1.5,0,0,0,0,3Z"/><path class="cls-2" d="M1529.24,343.78a1.5,1.5,0,0,0,0-3,1.5,1.5,0,0,0,0,3Z"/><path class="cls-2" d="M1498.64,317.55a1.5,1.5,0,0,0,0-3,1.5,1.5,0,0,0,0,3Z"/><path class="cls-2" d="M1802.51,516.49a1.5,1.5,0,0,0,0-3,1.5,1.5,0,0,0,0,3Z"/><path class="cls-2" d="M1817.81,722a1.5,1.5,0,0,0,0-3,1.5,1.5,0,0,0,0,3Z"/><path class="cls-2" d="M1876.84,612.68a1.5,1.5,0,0,0,0-3,1.5,1.5,0,0,0,0,3Z"/><path class="cls-2" d="M1854.29,410.05V403.5a1.5,1.5,0,0,0-3,0v6.55a1.5,1.5,0,1,0,3,0Z"/><path class="cls-2" d="M1847.53,251.22l2.18-4.37a1.59,1.59,0,0,0,.15-1.15,1.49,1.49,0,0,0-.69-.9,1.52,1.52,0,0,0-2.05.54l-2.18,4.37a1.56,1.56,0,0,0-.15,1.16,1.5,1.5,0,0,0,2.74.35Z"/><path class="cls-2" d="M1871.73,99.22l-2.19-6.55a1.53,1.53,0,0,0-1.85-1,1.51,1.51,0,0,0-1,1.84l2.18,6.56a1.5,1.5,0,0,0,2.9-.8Z"/><path class="cls-2" d="M947.73,48.66a1.5,1.5,0,0,0,0-3,1.5,1.5,0,0,0,0,3Z"/><path class="cls-2" d="M713.82,31.17a1.5,1.5,0,0,0,0-3,1.5,1.5,0,0,0,0,3Z"/><path class="cls-2" d="M637.3,184.2a1.5,1.5,0,0,0,0-3,1.5,1.5,0,0,0,0,3Z"/><path class="cls-2" d="M355.79,346c.14-.16,0-.29-.5,0l-.21.46Z"/><path class="cls-2" d="M352.3,346.87c-.5.41-1,1-.55,1.07.43-.54.62-.49,1.07-1.11.47-.25.89-.29.86-.14.13-.15.77-.27.95-.58a4.44,4.44,0,0,0-2.28,1C352.15,347.1,352.28,347,352.3,346.87Z"/><path class="cls-2" d="M305.46,369l.31-.12A1.22,1.22,0,0,0,305.46,369Z"/><path class="cls-2" d="M277.17,384.22c.21-.12.28-.2.28-.23C277.26,384.12,277.11,384.22,277.17,384.22Z"/><path class="cls-2" d="M272.22,386.62l.29-.14A.66.66,0,0,0,272.22,386.62Z"/><path class="cls-2" d="M305.46,369l-.81.3C304.64,369.44,305.07,369.18,305.46,369Z"/><path class="cls-2" d="M346.14,350.57a2.5,2.5,0,0,0,.38-.27l-.38.21Z"/><path class="cls-2" d="M317.92,362.29l.24-.11a1,1,0,0,0,.13-.22Z"/><path class="cls-2" d="M327.66,357.46c-.23.09-.18.38-.21.54a.88.88,0,0,1,.4-.41A.27.27,0,0,0,327.66,357.46Z"/><path class="cls-2" d="M343.45,350.55l.26-.16Z"/><path class="cls-2" d="M311,365.75a.19.19,0,0,0-.13-.05A.16.16,0,0,0,311,365.75Z"/><path class="cls-2" d="M72.12,550.64s0,0,0,0S72.07,550.71,72.12,550.64Z"/><path class="cls-2" d="M62.62,559l.1-.14a.43.43,0,0,0-.09-.13Z"/><path class="cls-2" d="M263.41,391.45l0,0C263.66,391.27,263.54,391.35,263.41,391.45Z"/><path class="cls-2" d="M187,443c1-.43-1.17,1.27.26.55C187.08,443.54,188.15,442.34,187,443Z"/><path class="cls-2" d="M345.87,350.65l-.41.19A2.32,2.32,0,0,0,345.87,350.65Z"/><path class="cls-2" d="M187.27,443.54h0l.14-.08Z"/><path class="cls-2" d="M243.78,403.71a.65.65,0,0,0,.27,0S244,403.67,243.78,403.71Z"/><path class="cls-2" d="M258.63,395l-.38.18A2.28,2.28,0,0,0,258.63,395Z"/><path class="cls-2" d="M236.43,408.83a1.93,1.93,0,0,0-.54.31l.1,0A1,1,0,0,1,236.43,408.83Z"/><path class="cls-2" d="M228.67,414l.17-.05.24-.18Z"/><path class="cls-2" d="M91.4,530a1.28,1.28,0,0,1-.48.13C91.17,530.19,90.27,531.22,91.4,530Z"/><path class="cls-2" d="M346.07,350.43c0,.09-.08.15-.2.22l.27-.14C346.15,350.46,346.14,350.42,346.07,350.43Z"/><path class="cls-2" d="M237.32,410.89l-1.27.75C236.41,411.44,236.87,411.17,237.32,410.89Z"/><path class="cls-2" d="M139.81,484.22l-.23.25A1,1,0,0,0,139.81,484.22Z"/><path class="cls-2" d="M232.43,414.11a4.09,4.09,0,0,0-.8.3,1,1,0,0,0-.1.16Z"/><path class="cls-2" d="M90.92,530.15Z"/><path class="cls-2" d="M84.66,537.62c1-1,.19-.72.25-1.09,1.09-1.28.73-.37,1.27-.65.65-.82,1-1.64,1.52-2.19.08,0,.2-.09.14.09.55-1,2.27-2.38,2.9-3.57a.36.36,0,0,1,.18-.06.47.47,0,0,1-.5-.21c.43-.46.65-1,1-1a1.07,1.07,0,0,0-.3.55l.39-.55c.66-.18-.54.74-.36.92a25.53,25.53,0,0,1,2.41-2.94c.38.09-1.52,1.75-.39,1l-1.16,1c1.2-.47-.67.64.49.27,1.47-1.37,1.42-1.76,2.91-3.1.19-.45-.31-.09-.12-.54,1.79-2.24,2.21-1,3.38-2.76a2.67,2.67,0,0,1,1.3-1.88l-.1.63c1.42-1.34.41-1.18,2-2.42-.15.36-1,1.16-.76,1,1.16-.71.52-.81,1.24-1.53l.39.1c1.44-1.49,2.89-3.27,4.49-4.92,0,.16-.23.51.22.21,1-1.08,2.09-2.16,3.22-3.19s2.33-2,3.42-2.85l.58-.94c.18-.17.43-.22.27,0,.87-.66-.09-.18.22-.62s.71-.43.48-.1A33.65,33.65,0,0,1,121,501l-.23.33c1.24-1,.89-1.66,2.15-2.45l-.17.23c2.58-2.24,5.16-5,7.44-6.4.09-.64,2.66-2.1,2.43-2.69a26.26,26.26,0,0,0,3.5-2.3c.57-.46.57-1,1.21-1.65l.22.22.71-1.06.74-.16.59-.62c-.27.21-.64.37-.66.27a7.7,7.7,0,0,1,2.7-1.88l2.19-2.29c0,.14-.34.53-.6.86,1-1.35.44.05,1.41-1.19-.2.08,0-.21-.05-.29a17.42,17.42,0,0,0,3-2.36l-.05.32c1.83-1.45,3.71-3.23,5.72-4.91-.79.53-.86.1-.29-.42l.44.06c.25-.48-.69.42-.07-.43.78-.6.74-.13.38.31l.84-.85c.12,0-.06.25,0,.39.24-.47,1.78-1.07,2.1-1.79l.11,0c2-1.68,2.85-2.53,4.47-3.91-.14-.24.54-.73.88-1.31,1.29-.91,2.79-1.82,4.25-3,1-.93.16-.43.52-.93.24.14,1.7-1.05,1.05-.3,1.75-1.44,2.24-1.84,4.35-3.78-.3.11-.61.29-.52.11.38-.36,1-.65,1-.51l-.09.11c2.29-2.3,6.27-4,8-6l-.1.11,2-1.82c1-.7-.47.6.35.18,2-2.06,3.66-2.67,5.38-4.31,1.91-.5,5.15-3.94,7.41-5l-.22-.06c.41-.52.68-.38,1.08-.63-.14-.07-.65.29-.39,0a71.79,71.79,0,0,1,6.76-4.8c2.35-1.53,4.74-3,7-4.57,1.68-1.13.41-1.42,2.73-2.55l-.4.69a61.43,61.43,0,0,1,5-3.74c1.73-1.14,3.46-2.28,5-3.53-.15.19-.1.28-.43.5a6.81,6.81,0,0,0,2.51-1.9c.53-.33.21.06.59-.07.78-.35,1.6-1.44,2.1-1.49.09,0-.15.2-.27.3.39-.41,2.15-1.41,1.56-1.34,1.32-.73,2.32-1.71,3.4-2.24.48-.69,2.22-1.3,2.19-1.81.16.44,2.37-1.17,3.07-1.84-.19.29.78-.32.57,0,.91-.58,1.7-1.18,1.42-1.28,2-.61,3.15-2.51,4.48-2.53,2.59-1.92,5-3.65,7.41-5.29.15.44-2.68,1.75-2.33,2.08a57,57,0,0,1,5.72-4.16c.63-.32-.24.38-.4.57,2.22-1.63,4.57-2.7,6.53-4.17,0,0-.19.21-.38.37.4-.26,1-.52.84-.66l-.37.28c-.82.14,1.32-1.51,1.31-1.69-.4.93,2.15-1.1,1.42.2.25-.2.54-.48.41-.57.42-.2.59-.21.26.17,1.43-1,.79-.85,2.13-1.65,0,.09-.2.28-.28.47a8.41,8.41,0,0,1,2.34-1.75c0,.09.13.08-.21.28,1.94-1.18,3.06-2.42,5.3-3.53-.42.75.79-.31,1.09-.06l1.11-.76-.56.11a31.17,31.17,0,0,1,2.73-1.7l-.68.56,1.88-1.13-1.15.48c.93-.75-.35-.35,1.06-1a14.73,14.73,0,0,1,1.67-.67h0a5.69,5.69,0,0,1,1.71-1.13c.25,0,0,.45.21.44.34-.55,2.35-1.41,2.82-2.06-.17.19-.09.37,0,.36l.3-.45c.51-.2.6-.2.6,0,1.44-.76-.69-.16,1.1-.93-.12.09,0,.09-.3.28,1.75-.86,3.21-2,4.83-2.74.64.07-1.32.84-.64.82,1.11-.66,2.22-1.41,3.33-2.14a36.09,36.09,0,0,1,3.38-1.91l-.43.18c.05-.63,1.77-.64,2.77-1.44-.26.17-.22.44-.18.35a57.37,57.37,0,0,0,5.25-3.09l-.22.27c.95-.36,2.38-1.17,3.37-1.62.23-.27.79-.54.36-.54,3.33-.85,5.46-3.39,8.44-4.09-.32.16-.71.48-.45.36l2.21-1.23c-.28-.12-.36,0-.92.09a5.51,5.51,0,0,1,1.39-.95c-.95.64.18.33.68.23-.11,0,0-.17-.06-.22,1.37-.21,0-.51,1.74-1.06l0,.15a14.12,14.12,0,0,1,1.74-1.06c.39.1-.59.43-.53.64.91-.46,1.59-1.34,2.54-1.51-.36.26-.92.53-1.28.79a5.36,5.36,0,0,0,1.81-.57l-.07,0,1.62-.63-.43.12c.85-1.2,2.29-1.27,3.64-2.44-1.32,1.13-.14.35-.12.67.43-.11,1.07-.32.94-.16.62-.58,1.3-.43,2.18-1.26.09.06.79-.38.73-.07.92-.54-.3-.05-.27-.2,1.32-1,3.66-1.25,5.6-2.66,1.77-1,2-1.46,3.62-2.4.64-.12-.33.54-.33.54a10.49,10.49,0,0,0,2.52-1.14c-.15.15.07.14.38.11.7-.34.33-.54,1.32-.83a3,3,0,0,1-.55.68c.8-.46,1.54-1,2.37-1.48.3.05-.42.47-.67.71a10.71,10.71,0,0,0,2.63-1.67l-.66.2c.34-.17.27.13,0,.29-.74.57-1.23.46-1.32.4l.59-.34c-.87-.23-2.43,1.21-3.67,1.74l.34-.61-1.12.89c-.32,0-.6-.1,0-.44-1,.22-.73.5-1.58.64-.1,0-.07,0,0-.08l-.81.51c.13-.16-.27-.2.29-.39-1.66.49-2.38,1.43-3.09,1.41L340,352c-2.1,1.12-.08.38-1.55,1.44l-1.4-.18-.09.37c-.22.09-.67.27-.64.12-.74.57.2.06-.2.46-1.2.22-2.87,1.51-3.32,1.19-.28.39,1.09-.34,0,.36-.55-.31-1.26.72-2.33,1,.18-.39,1.15-.71.08-.45-.38.69-1.92.83-2.69,1.31.12.34-1.71,1-3,1.78,0-.15-2.66,1.08-4,1.59v-.07c-.08.45-1.42,1-2.34,1.56-.06-.21.07-.37.55-.72l-.9.45a3.09,3.09,0,0,1-1,.72l.1-.35a36.42,36.42,0,0,1-3.87,2.07c0,.27,1.52,0,0,1-.12-.1-.29-.28.11-.55a3.08,3.08,0,0,1-.74.46l.53-.55c-.74.27-.27.37-.83.64-.08-.19-.48.08-.47-.1a3.6,3.6,0,0,0,.7-.36,6.2,6.2,0,0,1-1.77.59c.11.07.13.23-.32.5-1.17.63-.51,0-1.24.27-.23.27-1,.54-.93.81a.89.89,0,0,1-.64.09c-.55.43-2.83,1.53-2,1.44l.17-.06-.09.06h0c-1.86,1.31-4.23,2-6.15,3.19l-.05-.09c-1.13.72-2.6,1.44-3.34,2.07-.35.18-.91.27-.82.09a10.32,10.32,0,0,1-2.29,1.25c.81-.65-.39,0,.86-.62a8.58,8.58,0,0,0-2.66,1.51c.3-.46-1,.21-1.54.58l.9-.29c-.6.38-1.15.66-1.71.95l.13-.46c-2.56,1-3.94,3-6.07,3.41-.51.56,1.37-.57.94,0a25.9,25.9,0,0,1-2.83,1c-1.58.67-1.15,1.2-2.78,2,.26,0,.61.16-.5.91-1.12.57-1.59.32-.95-.15.26-.16.4-.19.41-.15.33-.24.77-.54.27-.41l-.08.18c-.6.2-2.1,1.05-1.84.68-.77.56-.26.37.38.08-1.48.64-2.2,1.2-3.67,2,.26-.08.54-.08.31,0-2.15,1.11-.8.74-2.18,1.62-.89.32.07-.54-1.28.44-.92.41-.34-.17,0-.45a15.28,15.28,0,0,1-3.26,1.71l.64-.49a9.93,9.93,0,0,1-1.06.69l.51,0c-.42.21-.76.41-.8.32-.33.38.52.15-.19.82-.6.21-1.56,1.08-1.91.92,1.74-.91-.34-.16,1.05-1.05a5.87,5.87,0,0,1-1,.59c-.08,0,0-.09.12-.17-1.75.72-.55.75-2.22,1.73.12-.28-.56-.06-.81.14.67-.4.47.06-.07.54a8.86,8.86,0,0,0-1.68,1.1l.68-.33c-.13.29-.67.58-1.39,1.07-.13-.08.63-.48.33-.37-.66.75-2,.83-3.07,1.69-.6.22-.23-.25-.74,0-1.17,1-1.51.65-2.75,1.65.51,0,.55-.13-.27.66l2.11-1.53L252.3,399c.67-.42,1.32-1,1.74-1.23-.57.59-.53.5-.11.47-1.09.26-1.69,1.31-2.86,1.76l-.28-.52c-1.71.77-2.63,2-4.76,3.19l.72-.33c-.15.38-1.25.83-1.86,1.33,0-.21-.49,0-.84.07.11.1-1.51.93-1.48,1.38l-1,.36c-1.71.95-1.58,1.66-3.2,2.61.36-.48-.44-.15.54-1-.53.34-1,.61-1,.73-.38.09-1.32,1.15-1.91,1.3-.18.21-.14.43-.74.79-.09,0-.05-.08-.05-.08s-.85.71-.22.56c-1.94.56-4.45,3-6.14,3.53-1.1.82-2.43,1.79-3.45,2.49,0-.1,0-.09.15-.2-1.52.8-.56,1.06-2.29,2-1,.29.77-.72.18-.47-.59-.39-1.9,1.38-3.2,1.79l.24-.2c-1,.37-1.89,1.56-3.28,2.43,0,0,0-.09-.05-.08a32.28,32.28,0,0,1-3.64,3.18c.25-.49.5-.52.11-.56-.55.44.41.22-.7,1.1-.45.15-1.35.64-1.62.49l1.08-.78c-.76.1-1.4,1-2,1.36v-.18c-1.64,1.22-1.43,1.56-3.23,2.8l.25,0c-.75,1-1,.41-1.75,1.33l-.52-.11c-.59.53-2,1.91-3.15,2.79a27.73,27.73,0,0,1,2.48-2.52,14.17,14.17,0,0,0-2.37,2,3.75,3.75,0,0,1,.79-.65,12.68,12.68,0,0,1-2.81,2.56c-.23-.78-3.44,2.18-4.67,2.41-2,1.88-4.45,3.19-7,5.15,1.27-.2-.74.58-.21.95-.58.48-.81.65-.89.65l-2,1.07c-.54.18.48-.53.35-.6-1.34.95-.71.21-1.68.73.31,0-.26.59-1.06,1.09l1.22-.57c-1.63,1.63-1.89.78-3.55,2.42l.47-.59c-.44.4-1.31,1.06-2.16,1.75a9.2,9.2,0,0,0-1.93,2c-.21.07-.53.11-.15-.25-2.26,1.71-4.61,4.33-6.53,5.46l.08-.25c-.39.37-.55.79-1.16,1.09,0-.07.08-.25-.12-.11a8.54,8.54,0,0,1-1.54,1.45l.36-.51c-2.28,1.57-3.06,3-4.81,4.48-.27-.34-2.08.88-2.95,1.52v-.07c-2.51,2-4,3.79-6.14,5.84-1.72.82-4.93,3.87-7.38,5.57.4-.23.17.31-.21.68-.59.38-1.28,1.47-1.46,1.09l.2-.15c-.66,0-1.71,1-2.55,1.76l.21.52c-2.7,1.36-5.56,5.29-7.21,5.84-.44.56-1.1,1.14-1.54,1.7l-.16-.23c-1.51,1.24-2.27,1.86-4,3.51l.24-.47c-1,.89-.75,1.74-1.68,2.59l-.57-.06a37.67,37.67,0,0,0-5.25,4.84c0-.07,0-.21.23-.49-.83.76-3.37,2.75-2.68,2.9-.27-.26-1.82,1.65-2.64,2.65l0-.34a7.15,7.15,0,0,1-1.55,2.2c-.28.21-.38.05,0-.23-1,.71-.5.83-1.66,1.71l.27-.49a3.35,3.35,0,0,0-1.13,1.44,5,5,0,0,1-2.06,1.48,2.56,2.56,0,0,1-1,1.27c-.14,0,0-.22.09-.33-1.64,1.26-2,2.37-3.17,3.15a.31.31,0,0,0-.29.05c1.17-1.14,2.12-2.06,2.05-2-.18-.19-1.16.71-.65-.29a17,17,0,0,1-2.63,3.28.61.61,0,0,1-.18,0l.08-.11a3.12,3.12,0,0,0-.56.6c-.32.26-.53.42-.81.69-.26,0-1.16,1-1.64,1.44.24.16-.41.73.33.33-.09.06.07-.11.37-.42a1.46,1.46,0,0,0,.18-.22v.05l1.15-1.17a3.55,3.55,0,0,1-1.2,1.34c-.12.37-.25.76-.34,1-.92.35-2.3,1.42-2.65,1.42-1.32,1.52-3.3,3.39-3.83,4.65-.36.45-.57.36-.79.45a5.77,5.77,0,0,0,.56-.72c-.72.9-2.37,2.41-2.31,2.87-1.14.89.33-.82-1,.63l.1-.27c-3.12,2.39-3.71,5.22-7.25,7.8.24-.18.36-.28.45-.28-1.83,1.66-3.53,3.54-5.24,5.4s-3.46,3.67-5.27,5.31a5.15,5.15,0,0,0-1.37,2h-.43l-.71,1.31c-1.19,1.68-2.93,2.11-4.32,4.35l.38-.11c-.66.66-1.9,2.25-2,2a.81.81,0,0,1-.38.56l-.13-.08-1.34,1.87c-1.28,1.23-.28-.63-2,1.26-.6.75-1.5,2.32-1.18,2.13s.74-.67.88-.58l-.53.7c.24.43.15,1.24,1.84-.13l.79-1.3.5-.21-.84.95a2.75,2.75,0,0,0,1-1.31,1.14,1.14,0,0,0,.61-.3l.66-1.38c.25,0-.18.72.56.06.31-.64-.75.22-.08-.72.64-.38.63-.11,1.06-.86.17,0,.11.18-.08.46.4-.65,1.29-1.5,1.37-2,.69-.37,1.65-1.91,1.93-1.56a8.19,8.19,0,0,1,1.08-1.73c-.46,1.29,1.76-1.88,2-1.25.28-1,2.11-2.62,3-4a.88.88,0,0,1-.21.37,8.39,8.39,0,0,1,1.41-1.13c-.2-.36.73-1.46,1.1-2.18,1.06-.56-.15.81.37.8-.28-.18,1.13-1.64.67-1.54.78-.47.6-.46,1.15-.56-.25-.45.5-.64.78-1.37,1-.74.56.08,1.41-1C85.38,536.62,84.66,537.62,84.66,537.62Zm22.52-23.92h0l-.48.49Zm2-2-.86.84c-.14,0-.13-.15.07-.34C108.3,512.4,108.8,512,109.15,511.75Zm-5.53,2.71c.29-.34.43-.4.51-.4l-.52.56v.06A.42.42,0,0,1,103.62,514.46Z"/><path class="cls-2" d="M103.32,515.28s-.06.08-.11.14l.23-.14a.84.84,0,0,1,0-.17Z"/><path class="cls-2" d="M305.82,368.86l-.05,0,.13,0Z"/><polygon class="cls-2" points="137.59 486.36 137.54 486.31 137.41 486.52 137.59 486.36"/><path class="cls-2" d="M319.82,362.79a.43.43,0,0,0,.21,0S319.92,362.77,319.82,362.79Z"/><path class="cls-2" d="M325.74,360l.88-.32C326.24,359.75,326,359.86,325.74,360Z"/><path class="cls-2" d="M330.34,357.85a.3.3,0,0,0,0-.16h0Z"/><path class="cls-2" d="M259.91,396.39a1.11,1.11,0,0,0-.16.11C259.38,396.78,259.64,396.6,259.91,396.39Z"/><path class="cls-2" d="M280.21,383.75c-.2.17-.39.33-.61.49C280,384.05,280.28,383.89,280.21,383.75Z"/><path class="cls-2" d="M237.46,410.81h0l-.14.09Z"/><path class="cls-2" d="M278.63,384.78a4.59,4.59,0,0,0,1-.54A6.62,6.62,0,0,0,278.63,384.78Z"/><path class="cls-2" d="M350.24,348.72l.23-.09s0,0,0-.05Z"/><path class="cls-2" d="M350.48,348.58l.23-.15C350.6,348.48,350.5,348.53,350.48,348.58Z"/><path class="cls-2" d="M351.2,348.13l-.49.3A1.24,1.24,0,0,0,351.2,348.13Z"/><path class="cls-2" d="M344.11,351.38l0,.13A.15.15,0,0,0,344.11,351.38Z"/><path class="cls-2" d="M342.27,352.26a11.74,11.74,0,0,0,1.79-.65l0-.1C343.86,351.78,342.62,351.91,342.27,352.26Z"/><path class="cls-2" d="M334,354.66c.52-.23,1.06-.43,1.58-.65-.31,0-.73.06,0-.29C333.47,354.33,336.06,353.75,334,354.66Z"/><path class="cls-2" d="M329.21,356.85c.8-.45-.08-.13-.06-.21C328.67,357,328.55,357.07,329.21,356.85Z"/><path class="cls-2" d="M295.15,374.21l0-.27C294.5,374.3,295.15,374,295.15,374.21Z"/><polygon class="cls-2" points="289.39 378.9 290.07 378.71 290.24 378.34 289.39 378.9"/><polygon class="cls-2" points="284.74 379.42 285 379.23 284.01 379.89 284.74 379.42"/><path class="cls-2" d="M229.91,412.84l.35.14C230.62,412.67,230.51,412.32,229.91,412.84Z"/><path class="cls-2" d="M207.22,428.77a2.62,2.62,0,0,0-1.34.82C206.4,429.25,207,429,207.22,428.77Z"/><polygon class="cls-2" points="141.44 479.59 141.79 479.14 141.06 479.91 141.44 479.59"/><path class="cls-2" d="M1661.58,658.37c.14.07.27-.1,0-.38l-.42,0Z"/><path class="cls-2" d="M1660.79,656c-.37-.28-.87-.55-1-.16.5.2.45.35,1,.54.23.29.25.6.12.61.14.06.24.51.52.57a2.12,2.12,0,0,0-.87-1.47C1660.58,655.92,1660.72,656,1660.79,656Z"/><path class="cls-2" d="M1641,626.25l.1.2A.75.75,0,0,0,1641,626.25Z"/><path class="cls-2" d="M1627.16,608.92c.11.12.18.15.21.14S1627.16,608.87,1627.16,608.92Z"/><path class="cls-2" d="M1625,605.81l.13.18A.33.33,0,0,0,1625,605.81Z"/><path class="cls-2" d="M1641,626.25l-.28-.54C1640.59,625.75,1640.82,626,1641,626.25Z"/><path class="cls-2" d="M1657.47,652.25a1.27,1.27,0,0,0,.25.22l-.19-.23Z"/><path class="cls-2" d="M1647,633.92l.1.15.19,0Z"/><path class="cls-2" d="M1651.38,640c-.09-.15-.35,0-.49,0a.54.54,0,0,1,.37.19A.29.29,0,0,0,1651.38,640Z"/><path class="cls-2" d="M1657.54,650.22l.14.16Z"/><path class="cls-2" d="M1643.92,629.54a.17.17,0,0,0,0-.11A.12.12,0,0,0,1643.92,629.54Z"/><path class="cls-2" d="M1477.4,507.62s0,0,0,0S1477.35,507.6,1477.4,507.62Z"/><path class="cls-2" d="M1469.72,503.35l.12,0a.46.46,0,0,0,.07-.14Z"/><path class="cls-2" d="M1620.53,600.46l0,0C1620.7,600.6,1620.62,600.52,1620.53,600.46Z"/><path class="cls-2" d="M1573.42,557.7c.42.64-1.12-.46-.43.42C1573,558,1574,558.37,1573.42,557.7Z"/><path class="cls-2" d="M1657.4,652.06l-.17-.25A1.3,1.3,0,0,0,1657.4,652.06Z"/><path class="cls-2" d="M1573,558.12h0l.07.09Z"/><path class="cls-2" d="M1609.34,589a.4.4,0,0,0,0,.21S1609.38,589.17,1609.34,589Z"/><path class="cls-2" d="M1617.36,597.84l-.17-.24A1.91,1.91,0,0,0,1617.36,597.84Z"/><path class="cls-2" d="M1604.68,585a.93.93,0,0,0-.29-.32l0,.07A.5.5,0,0,1,1604.68,585Z"/><path class="cls-2" d="M1600,580.58a.61.61,0,0,0,0,.12l.16.13Z"/><path class="cls-2" d="M1495.51,514.65a.93.93,0,0,1-.17-.35C1495.35,514.53,1494.45,514.23,1495.51,514.65Z"/><path class="cls-2" d="M1657.6,652.16c-.08,0-.13,0-.2-.1l.13.18S1657.61,652.21,1657.6,652.16Z"/><path class="cls-2" d="M1603,586.37l-.69-.74C1602.45,585.85,1602.71,586.12,1603,586.37Z"/><path class="cls-2" d="M1536.37,535.42l-.21-.09A.35.35,0,0,0,1536.37,535.42Z"/><path class="cls-2" d="M1600,583.62a1.83,1.83,0,0,0-.29-.53.3.3,0,0,0-.13,0Z"/><path class="cls-2" d="M1495.34,514.3Z"/><path class="cls-2" d="M1488.9,512.35c.89.38.56-.16.83-.27,1.1.34.39.45.68.78a15.52,15.52,0,0,1,1.83.3c0,.07.11.13,0,.16.82,0,2.1.85,3.07.85a.57.57,0,0,1,.07.13.62.62,0,0,1,.07-.52c.4.16.84.1.89.38-.24-.11-.3,0-.44,0l.46.07c.24.48-.62-.12-.73.11a12.62,12.62,0,0,1,2.53.72c0,.37-1.52-.5-.8.12l-.92-.52c.53.8-.57-.28-.12.53,1.23.63,1.51.41,2.72,1.08.36,0,0-.3.38-.34,1.92.52,1,1.43,2.54,1.63.43,0,.74-.38,1.58.27l-.48.2c1.2.6.93-.18,2.09.65-.29,0-1-.33-.84-.21.69.67.67.08,1.3.38v.37c1.31.55,2.84,1,4.3,1.61-.12,0-.41,0-.12.29a20.94,20.94,0,0,1,2.82,1.3c.92.52,1.8,1.11,2.6,1.64l.79.08c.15.08.22.27,0,.23.61.45.12-.15.49-.08s.42.41.14.36a15.81,15.81,0,0,1,4.67,2.19l-.28,0c.91.6,1.37,0,2.13.74l-.19,0c2,1.2,4.47,2.16,5.79,3.48.5-.2,1.92,1.33,2.34.9a13.58,13.58,0,0,0,2.17,1.94c.42.28.84.06,1.41.32l-.14.28.89.14.21.55.55.22c-.2-.13-.36-.36-.29-.42a3.7,3.7,0,0,1,1.76,1.45l2,.86c-.11.08-.44-.06-.73-.14,1.16.31,0,.39,1.08.67-.09-.13.16-.12.21-.16a8.34,8.34,0,0,0,2.16,1.5l-.26.09c1.32.91,2.9,1.74,4.42,2.71-.49-.43-.17-.66.3-.4v.38c.4,0-.4-.4.32-.23.55.4.19.56-.2.44l.75.35c0,.1-.2,0-.31.12.4,0,1,1,1.62,1l0,.11c1.52,1,2.27,1.32,3.51,2.09.18-.21.63.15,1.13.19a32.91,32.91,0,0,0,2.76,2.3c.83.41.36,0,.79,0-.09.25,1,1,.33.74a35.52,35.52,0,0,0,3.39,2.07c-.11-.21-.28-.38-.13-.38.32.17.6.55.49.62l-.09,0c2,1,3.76,3.53,5.49,4.14l-.09,0,1.61.89c.64.55-.51-.15-.11.36,1.82.86,2.43,2,3.89,2.71.54,1.36,3.57,2.68,4.62,4.09l0-.2c.46.13.36.41.59.63,0-.13-.27-.41,0-.32a32.57,32.57,0,0,1,4.38,3.66c1.41,1.32,2.79,2.69,4.2,4,1,.93,1.2-.2,2.27,1.26l-.6-.07a26.59,26.59,0,0,1,3.39,2.61,32.91,32.91,0,0,0,3.21,2.75c-.17,0-.24,0-.44-.16.27.57,1.58,1.46,1.72,1.32.3.3,0,.2.08.45.34.5,1.29.76,1.36,1.14,0,.07-.18,0-.27-.11.36.17,1.29,1.22,1.21.77.67.8,1.54,1.25,2,1.92.61.14,1.21,1.31,1.63,1.1-.37.28,1.1,1.48,1.69,1.81-.25-.06.3.5,0,.45.53.53,1.08.95,1.15.69.59,1.36,2.26,1.64,2.32,2.68,1.73,1.39,3.3,2.73,4.79,4.06-.37.27-1.59-1.53-1.87-1.13a27,27,0,0,1,3.77,3.1c.3.39-.34-.06-.51-.12,1.48,1.2,2.46,2.7,3.79,3.76,0,0-.19-.08-.33-.18.24.23.47.61.6.44l-.26-.2c-.14-.59,1.34.55,1.5.48-.81,0,1,1.33-.13,1.18.17.13.43.27.5.14.19.26.2.39-.14.25.88.8.76.35,1.48,1.14-.07.06-.25-.07-.41-.07a4.11,4.11,0,0,1,1.58,1.27c-.08,0-.07.13-.25-.07,1.08,1.13,2.18,1.61,3.2,3-.66-.09.29.52.07.84a8,8,0,0,1,.69.62l-.1-.41c.51.62,1.18,1,1.53,1.6l-.5-.35,1,1.11-.45-.75c.67.5.3-.38.92.51-.17-.14.52.63.62,1.09h0a3,3,0,0,1,1,1c0,.19-.4.17-.39.3.49.1,1.28,1.39,1.86,1.56-.17-.08-.33,0-.32.11l.4.09c.18.34.19.4,0,.46.69.89.13-.58.84.57-.09-.06-.08,0-.25-.14.78,1.09,1.79,1.88,2.48,2.9,0,.51-.76-.77-.74-.25.6.66,1.28,1.29,1.94,1.93a16.35,16.35,0,0,1,1.73,2.05l-.16-.28c.56-.14.57,1.17,1.3,1.71-.16-.15-.4,0-.32,0a29,29,0,0,0,2.79,3.14l-.25-.09c.33.62,1.06,1.49,1.47,2.12.24.09.48.45.48.12.77,2.31,3.07,3.22,3.69,5.31-.14-.2-.43-.41-.32-.25l1.1,1.36c.11-.25,0-.27-.08-.68a2.51,2.51,0,0,1,.86.8c-.58-.56-.3.22-.21.57,0-.08.15,0,.2-.1.18,1,.46-.14,1,1h-.14a6.81,6.81,0,0,1,1,1c-.1.33-.39-.33-.59-.23.42.57,1.22.85,1.37,1.53-.24-.21-.48-.56-.72-.76a2.79,2.79,0,0,0,.51,1.22l0,0,.57,1.06-.11-.29c1.08.32,1.14,1.4,2.2,2.12-1-.71-.32,0-.62.08.11.3.29.73.15.67.52.32.38.87,1.13,1.32-.06.09.33.5.06.53.48.56,0-.23.18-.25.94.73,1.1,2.45,2.36,3.56.91,1.07,1.32,1.11,2.16,2.12.1.46-.49-.11-.49-.11a4.59,4.59,0,0,0,1,1.61c-.14-.07-.13.09-.11.32.31.44.49.11.75.78a1.69,1.69,0,0,1-.62-.24c.41.49.9.91,1.32,1.42,0,.23-.43-.2-.64-.33.45.57,1.14,1.52,1.49,1.57l-.17-.45c.16.22-.12.24-.27.1-.51-.42-.4-.82-.34-.9l.3.36c.23-.71-1.08-1.53-1.55-2.33l.56.1-.8-.62c0-.23.1-.48.4-.12-.19-.68-.44-.42-.56-1,0-.07,0-.06.08,0l-.46-.49c.14.07.19-.25.35.13-.43-1.13-1.28-1.44-1.25-2l.07.06c-1-1.3-.34,0-1.29-.8l.19-1.11-.35,0c-.08-.15-.24-.44-.1-.46-.51-.41,0,.17-.41,0-.19-.85-1.36-1.78-1.06-2.21-.36-.1.3.74-.33.12.29-.49-.65-.77-.88-1.51.36,0,.64.69.42-.05-.64-.11-.75-1.24-1.18-1.71-.32.18-.9-1-1.61-1.82a24.61,24.61,0,0,0-1.42-2.61h.07c-.41.06-.93-.8-1.41-1.36.19-.11.34,0,.65.22l-.4-.56a1.65,1.65,0,0,1-.65-.55l.32,0a16.73,16.73,0,0,1-1.87-2.39c-.24.1,0,1.17-.9.28a.29.29,0,0,1,.49-.07,1.36,1.36,0,0,1-.41-.44l.49.26c-.24-.49-.32-.11-.57-.46.17-.12-.08-.34.08-.39s.17.35.33.44a3.08,3.08,0,0,1-.53-1.19c-.06.1-.21.16-.45-.11-.57-.71,0-.39-.24-.87-.25-.1-.49-.65-.74-.48-.16-.22-.08-.34-.08-.47-.39-.3-1.38-1.74-1.31-1.12l.06.11-.06-.06h0c-1.18-1-1.83-2.66-2.87-3.81l.07-.06a19.17,19.17,0,0,0-1.87-2c-.16-.22-.25-.63-.08-.61a4.8,4.8,0,0,1-1.13-1.4c.58.44,0-.29.55.48a4.06,4.06,0,0,0-1.36-1.6c.41.1-.2-.73-.54-1l.27.6a9.85,9.85,0,0,1-.86-1l.41,0c-.9-1.7-2.71-2.15-3.11-3.68-.5-.23.53.89,0,.72a11.68,11.68,0,0,1-.91-1.89c-.62-1-1.08-.53-1.78-1.56,0,.2-.14.52-.81-.11s-.31-1.14.11-.78c.14.15.18.25.14.27.21.18.49.43.37.09h-.16c-.19-.41-1-1.31-.64-1.23-.5-.42-.32-.08-.06.33a22.35,22.35,0,0,0-1.79-2.25c.08.18.09.39,0,.26-1-1.33-.66-.4-1.47-1.2-.3-.59.48-.11-.4-.85-.38-.6.13-.32.39-.18a7,7,0,0,1-1.57-2l.44.34a5.23,5.23,0,0,1-.63-.6l0,.39c-.19-.27-.37-.47-.3-.53-.34-.14-.12.45-.72.11-.2-.4-1-.87-.84-1.2.83,1.07.13-.32.94.49a3,3,0,0,1-.55-.6c0-.06.08,0,.15,0-.66-1.15-.66-.2-1.56-1.19.25,0,0-.46-.14-.59.37.4,0,.39-.47.12-.48-.73-.71-.62-1-1l.3.42c-.25,0-.52-.33-1-.74.06-.13.43.34.33.14-.67-.27-.78-1.33-1.56-1.86-.2-.4.22-.26,0-.6-.87-.6-.61-1-1.51-1.61,0,.39.13.39-.58,0l1.39,1.15-1.07-.57c.38.39.92.7,1.12,1-.53-.25-.45-.25-.41.07-.26-.77-1.18-.89-1.61-1.66l.44-.4c-.72-1.09-1.84-1.4-2.91-2.68l.31.45c-.33,0-.76-.71-1.21-1,.18-.1,0-.39-.09-.64-.08.12-.85-.88-1.24-.7l-.34-.72c-.88-1-1.48-.68-2.35-1.64.42.12.11-.4.83.11-.31-.31-.56-.61-.66-.52-.09-.27-1-.65-1.18-1.07-.19-.07-.38,0-.71-.31,0-.07.07-.07.07-.07s-.64-.43-.48,0c-.56-1.35-2.78-2.48-3.27-3.65-.74-.59-1.62-1.31-2.26-1.88.08,0,.06-.07.17.06-.75-.94-.92-.08-1.77-1.13-.29-.7.64.35.41,0,.3-.61-1.26-1-1.67-1.92l.18.12c-.36-.63-1.4-1-2.21-1.76,0,0,.08,0,.07-.07a16.67,16.67,0,0,1-2.86-1.77c.43,0,.47.22.48-.11-.4-.28-.17.41-1-.16-.15-.31-.61-.85-.5-1.12l.72.57c-.13-.57-.92-.75-1.25-1.11l.15-.08c-1.11-.86-1.38-.58-2.52-1.57l0,.19c-.88-.23-.39-.61-1.2-.92l.06-.46c-.48-.28-1.71-.93-2.5-1.5a12.52,12.52,0,0,1,2.23,1.07,6.66,6.66,0,0,0-1.76-1.19,1.84,1.84,0,0,1,.59.39,5.9,5.9,0,0,1-2.29-1.32c.63-.47-2-2-2.29-2.87-1.69-.94-2.93-2.4-4.72-3.72.26,1-.52-.38-.79.19-.43-.29-.58-.42-.59-.48l-1-1.24c-.19-.37.47.19.52,0-.87-.72-.22-.49-.72-1.08,0,.27-.5,0-1-.45l.55.78c-1.45-.7-.78-1.24-2.24-2l.52.15c-.36-.2-1-.66-1.59-1.08a4.51,4.51,0,0,0-1.78-.8c-.07-.14-.13-.38.19-.21-1.56-1.19-3.87-2.08-4.94-3.2l.21,0c-.32-.17-.68-.13-1-.52,0,0,.21,0,.07-.14a4.22,4.22,0,0,1-1.29-.69l.44.1c-1.45-1.26-2.63-1.35-4-2.18.25-.36-.89-1.36-1.48-1.82l0,0a47,47,0,0,0-5.21-2.69c-.81-1.09-3.53-2.5-5.12-3.83.22.23-.22.26-.55.1-.36-.33-1.29-.46-1-.76l.14.1c-.1-.53-1-1-1.65-1.39l-.38.39c-1.35-1.67-4.72-2.41-5.33-3.56-.49-.13-1-.43-1.49-.56l.16-.24a31.48,31.48,0,0,0-3.18-1.89h.39c-.8-.49-1.43.11-2.19-.31l0-.5a17.38,17.38,0,0,0-4.35-2.33.34.34,0,0,1,.4,0c-.68-.37-2.52-1.64-2.54-1,.16-.34-1.49-.82-2.35-1.08l.25-.18a3.65,3.65,0,0,1-1.87-.36c-.2-.14-.09-.29.17-.08-.66-.51-.69-.06-1.51-.66l.41,0a1.71,1.71,0,0,0-1.23-.33c-.52-.15-1.4-.81-1.39-1.1a1.27,1.27,0,0,1-1.09-.24c0-.12.17-.08.26-.07-1.17-.83-2-.62-2.8-1.29a.23.23,0,0,0-.08-.22c1,.48,1.84.88,1.75.86.12-.23-.69-.65.12-.66a8.52,8.52,0,0,1-2.82-.78.54.54,0,0,1-.07-.13h.1a1.64,1.64,0,0,0-.53-.2,5.27,5.27,0,0,0-.63-.38c0-.24-.9-.55-1.31-.75-.08.27-.6,0-.2.42,0,0,.09,0,.37.13a.9.9,0,0,0,.19,0h0l1,.46a1.7,1.7,0,0,1-1.16-.42c-.29.06-.6.12-.77.14-.4-.62-1.39-1.32-1.44-1.61-1.33-.45-3-1.3-4-1.18-.38-.11-.35-.33-.45-.47a2.73,2.73,0,0,0,.62.15c-.78-.21-2.14-.94-2.46-.68-.84-.57.64-.09-.63-.59l.22,0c-2.25-1.58-4.41-.81-6.87-2.65.18.12.26.18.28.25a42.28,42.28,0,0,0-4.78-2,41.2,41.2,0,0,1-4.73-2.07,2.65,2.65,0,0,0-1.65-.27l-.09-.36h-1.06c-1.41-.24-2-1.53-3.88-1.69l.15.27c-.59-.25-2-.58-1.77-.76a.42.42,0,0,1-.47-.06l0-.15-1.57-.29c-1.11-.52.38-.52-1.28-1.16-.65-.17-1.93-.21-1.73,0s.61.32.58.48l-.59-.13c-.26.4-.84.7.44,1.51l1.06.08.24.33-.82-.28a1.3,1.3,0,0,0,1.12.29.74.74,0,0,0,.33.39l1.09-.08c.06.22-.54.19.06.51.52,0-.29-.54.49-.4.4.37.2.49.81.51,0,.14-.11.17-.34.14.53.05,1.3.41,1.64.27.39.42,1.66.53,1.46.93a3.81,3.81,0,0,1,1.42.13c-1,.2,1.66.63,1.24,1.08.77-.22,2.25.59,3.41.74-.07,0-.22,0-.3,0a4.22,4.22,0,0,1,1,.69c.22-.34,1.17,0,1.75-.06.59.65-.6.25-.51.68.08-.31,1.37.22,1.22-.12.47.44.44.3.6.72.28-.41.55.14,1.12.05.71.55,0,.51,1,.73C1489.75,512.52,1488.9,512.35,1488.9,512.35Zm21,8.4h0l-.43-.18Zm1.72.8c-.2-.11-.46-.23-.74-.36,0-.12.09-.17.26-.09C1511,521.12,1511.41,521.36,1511.63,521.55Zm-2.81-3.46c.3.09.36.18.38.25l-.5-.19h0A.29.29,0,0,1,1508.82,518.09Z"/><path class="cls-2" d="M1508.17,518.19s-.07,0-.12,0l.14.14.13,0Z"/><path class="cls-2" d="M1641.1,626.49l0,0s0,.07,0,.09S1641.11,626.51,1641.1,626.49Z"/><polygon class="cls-2" points="1534.47 534.48 1534.51 534.42 1534.33 534.39 1534.47 534.48"/><path class="cls-2" d="M1646.58,635.49a.25.25,0,0,0,0,.16A.36.36,0,0,0,1646.58,635.49Z"/><path class="cls-2" d="M1649.12,639.24l.29.58C1649.29,639.56,1649.2,639.38,1649.12,639.24Z"/><path class="cls-2" d="M1651,642.17a.28.28,0,0,0,.14,0h0Z"/><path class="cls-2" d="M1616.15,599.31a.41.41,0,0,0-.1-.09C1615.8,599,1616,599.17,1616.15,599.31Z"/><path class="cls-2" d="M1627.63,611.13a4.6,4.6,0,0,1-.45-.32C1627.36,611.05,1627.5,611.23,1627.63,611.13Z"/><polygon class="cls-2" points="1603.04 586.46 1603.04 586.45 1602.96 586.37 1603.04 586.46"/><path class="cls-2" d="M1626.7,610.22a2.09,2.09,0,0,0,.48.59A3.44,3.44,0,0,0,1626.7,610.22Z"/><path class="cls-2" d="M1659.11,654.88l.08.15h0Z"/><path class="cls-2" d="M1659.24,655l.13.14C1659.32,655.09,1659.28,655,1659.24,655Z"/><path class="cls-2" d="M1659.64,655.45l-.27-.29C1659.44,655.28,1659.52,655.42,1659.64,655.45Z"/><path class="cls-2" d="M1656.75,650.92h-.11A.11.11,0,0,0,1656.75,650.92Z"/><path class="cls-2" d="M1656,649.76a6,6,0,0,0,.57,1.18h.09C1656.4,650.83,1656.29,649.93,1656,649.76Z"/><path class="cls-2" d="M1653.88,644.13c.21.34.39.69.58,1,0-.23,0-.54.27-.1C1654.19,643.63,1654.7,645.44,1653.88,644.13Z"/><path class="cls-2" d="M1651.92,641.05c.4.49.12-.09.2-.1C1651.8,640.68,1651.73,640.61,1651.92,641.05Z"/><path class="cls-2" d="M1636.26,619.82l.24-.11C1636.18,619.35,1636.42,619.77,1636.26,619.82Z"/><polygon class="cls-2" points="1632.03 616.77 1632.21 617.23 1632.54 617.25 1632.03 616.77"/><polygon class="cls-2" points="1631.52 613.33 1631.69 613.47 1631.09 612.9 1631.52 613.33"/><path class="cls-2" d="M1601,581.17l-.1.33C1601.17,581.68,1601.46,581.47,1601,581.17Z"/><path class="cls-2" d="M1586.45,568.72a1.24,1.24,0,0,0-.76-.78A9.78,9.78,0,0,0,1586.45,568.72Z"/><polygon class="cls-2" points="1540.14 534.85 1540.53 534.95 1539.86 534.66 1540.14 534.85"/></g></svg>