<svg xmlns="http://www.w3.org/2000/svg" width="165" height="320" viewBox="0 0 165 320"><defs><style>.cls-1{fill:#999;}.cls-2{fill:#ed1c24;}.cls-3{fill:#c62430;}.cls-4{fill:#fbebd2;}.cls-5{fill:#636363;}</style></defs><g id="dyredele"><path class="cls-1" d="M7,96.51s5,26,9,34,9,27,4,37,5,21,5,21-8,43.86-6.5,49.93S9,297.51,14,304.51s133,13,133,13,19-25,18-37-12.93-141.36-16-153c0-14-8.76-29.92-8-54C141.66,50.72,7,96.51,7,96.51Z"/><path class="cls-2" d="M141,72.51c1.59,9.7-27.85,24.8-64.63,30.83s-67.9,3.08-69.5-6.62S33.76,74.27,70.55,68.23,139.36,62.82,141,72.51Z"/><path class="cls-3" d="M128.27,75.15c1.28,7.84-22.52,20-52.26,24.93s-54.9,2.48-56.19-5.36,21.79-18.15,51.53-23S127,67.31,128.27,75.15Z"/><path class="cls-4" d="M46,95.51c0-2-7-38-17-41s-38-13-26-28,32-6,40-1,8,7,8,7-4-31,27-30,11,31,11,31c.34.55,24,40.07,22.37,46.89Z"/><path d="M47.44,49S60.77,72.29,59.36,80.4"/><path class="cls-5" d="M15,305.6c0-.09,1-33.09,23-28.09s22.5,33.73,22.5,33.73L36,309.51Z"/><path class="cls-5" d="M61.45,311.24S74,274.51,89,281.51s13,32.66,13,32.66l-20-.66Z"/><path class="cls-5" d="M104,315.17c0,.34,12-32.66,26-31.66s16,34,16,34Z"/><path d="M58.71,169.39c1.39-2.84,14.8-4.4,32.33-5.53,8-.51,16.91-.94,25.91-1.35"/><path d="M56,180.51s33,4,40,2,39-8,41-10"/><path d="M65,200.51c0,4.82,75.12-5.39,77.06-10.18"/><path d="M47,217.51c5.59,4.07,89.79-11,90-14.18"/><path d="M88.61,223.25c.73-.62,15.31-14.41,30.56-5.49.64.38-.09,1-.09,1S99.23,216.17,91.55,224C91.55,224,87.53,224.16,88.61,223.25Z"/></g></svg>