<svg xmlns="http://www.w3.org/2000/svg" width="232.28" height="336.68" viewBox="0 0 232.28 336.68"><defs><style>.cls-1,.cls-5,.cls-8{fill:#29abe2;}.cls-1{opacity:0.57;}.cls-2{fill:#3a3f9b;}.cls-3{fill:#fbebd2;stroke:#221f1f;stroke-miterlimit:10;stroke-width:2.9px;}.cls-4{fill:#221f1f;}.cls-5{opacity:0.29;}.cls-6{fill:#4d4d4d;}.cls-7{fill:#7f7f7f;}.cls-9{fill:#c69c6d;}</style></defs><g id="kropsedele"><path class="cls-1" d="M203.07,24.11V14a5,5,0,0,0-5.18-4.87H34.4A5,5,0,0,0,29.21,14V24.11C12.57,27.13,0,40.87,0,57.36A1970.06,1970.06,0,0,1,0,298.9c0,18.7,16.16,33.87,36.1,33.87H196.18c19.94,0,36.1-15.17,36.1-33.87-1.49-83.89-6.67-176.07,0-241.54C232.28,40.87,219.71,27.13,203.07,24.11Z"/><circle class="cls-2" cx="170.3" cy="146.81" r="31.97"/><circle class="cls-3" cx="166.75" cy="146.41" r="28.42"/><path class="cls-4" d="M153.61,144.82c3.24-.33,6.57.17,9.85.08.53-7-2.31-14.59-10.09-15.9s-14.39,5.16-14.63,13.24,6.1,14.1,14.46,13.43a13.71,13.71,0,0,0,4.61-1.54C156.58,150.78,154.26,148.52,153.61,144.82Z"/><ellipse class="cls-2" cx="80.84" cy="254.68" rx="37.23" ry="38.14" transform="translate(-152.47 124.44) rotate(-43.22)"/><ellipse class="cls-3" cx="84.18" cy="252.19" rx="33.09" ry="33.9" transform="translate(-149.86 126.05) rotate(-43.22)"/><path class="cls-4" d="M92.91,250c-3.25,3.81-7.55,6.71-11.12,10.26,7.4,9.08,19.27,15.33,29.49,8.74s10.22-21.43,1.23-31.51S89.57,226.73,81,236.35c-1.82,2-2.45,4.3-3.41,6.72C82.77,245.85,88,246.16,92.91,250Z"/><path class="cls-5" d="M204.88,28V17.92A4.87,4.87,0,0,0,200,13.05H46.63a4.87,4.87,0,0,0-4.87,4.87V28A33.88,33.88,0,0,0,14.35,61.28a2097,2097,0,0,1,0,241.53,33.87,33.87,0,0,0,33.88,33.87H198.41a33.86,33.86,0,0,0,33.87-33.87c-1.4-83.89-6.26-176.07,0-241.53A33.87,33.87,0,0,0,204.88,28Z"/><path class="cls-6" d="M20.38,0H218.67a7.09,7.09,0,0,1,7.09,7.09V26.8a.6.6,0,0,1-.6.6H15a.6.6,0,0,1-.6-.6V6a6,6,0,0,1,6-6Z"/><path class="cls-7" d="M21.56,3.91H217.75a5.4,5.4,0,0,1,5.4,5.4v15a.46.46,0,0,1-.46.46H17.42a.46.46,0,0,1-.46-.46V8.51A4.59,4.59,0,0,1,21.56,3.91Z"/><ellipse class="cls-8" cx="81.53" cy="84.59" rx="17.45" ry="17.4" transform="translate(-5.35 5.5) rotate(-3.74)"/><ellipse class="cls-8" cx="195.46" cy="208.81" rx="12.29" ry="12.26" transform="translate(-13.21 13.21) rotate(-3.74)"/><ellipse class="cls-8" cx="55.29" cy="147.02" rx="12.06" ry="11.85" transform="translate(-9.48 3.92) rotate(-3.74)"/><ellipse class="cls-8" cx="185.15" cy="267.95" rx="9.98" ry="9.8" transform="translate(-17.1 12.66) rotate(-3.74)"/><ellipse class="cls-8" cx="71.77" cy="192.48" rx="6.13" ry="6.29" transform="translate(-12.41 5.1) rotate(-3.74)"/><ellipse class="cls-8" cx="209.2" cy="299.24" rx="5.16" ry="5.29" transform="translate(-19.09 14.3) rotate(-3.74)"/><path class="cls-9" d="M94,55.18l-1.19-2.75c-1.62.56-3.22,1-4.61,1.5,0-2.58,2.06-3.07,3.41-4.28L91,48.42c-2.37,1-4.73,2.19-7.1,3.38a20.76,20.76,0,0,1,6.43-4.94l-.29-.68c-2,1-3.9,1.93-6.14,1.37,1.88-1.89,2.92-3.77,4.61-4.91l-.63-1.47h-3a2.28,2.28,0,0,0,2.11-2l-.34-.8a19.49,19.49,0,0,1-4.87.7c2.15-.73,2.84-2.43,3.39-4.12l-.09-.22-17,7.44h0L5.22,69.68l1.19,2.75c1.62-.56,3.21-1,4.61-1.5C11,73.5,9,74,7.61,75.21l.53,1.23c2.36-1,4.73-2.19,7.1-3.38A20.88,20.88,0,0,1,8.81,78l.29.67c2-1,3.9-1.93,6.14-1.36-1.88,1.89-2.92,3.77-4.61,4.91l.63,1.47h3a2.29,2.29,0,0,0-2.12,2l.35.8a19.42,19.42,0,0,1,4.87-.7c-2.16.72-2.84,2.43-3.4,4.12l.1.22,17-7.44h0Z"/><path d="M37.82,68.11l-3.77,1.6,1.48,3.51,4.21-1.79.45,1.06L34.72,74.8l-4.11-9.72,5.24-2.22.45,1-4,1.7,1.31,3.07,3.77-1.6Z"/><path d="M44,70.86l-1.75-4.12-5.44-4.29,1.43-.61,2.51,2.1c.68.58,1.22,1,1.81,1.6l0,0c0-.75.07-1.52.13-2.41L43,59.83l1.43-.6-.89,7,1.75,4.13Z"/><path d="M52.66,61.83l-3.78,1.6,1.49,3.5,4.21-1.78.44,1-5.46,2.31L45.44,58.8l5.25-2.23.44,1.06-4,1.69,1.3,3.07,3.78-1.6Z"/><path d="M55.83,64.05a4.78,4.78,0,0,0,2.52-.32c1.28-.54,1.75-1.53,1.33-2.51S58.56,60,57,60.06c-1.82.11-3.15-.3-3.73-1.67s.13-3.17,2-4A4.84,4.84,0,0,1,57.67,54l.09,1.17a4.21,4.21,0,0,0-2,.32c-1.33.56-1.5,1.57-1.21,2.23.38.91,1.16,1.11,2.72,1.06,1.91-.07,3.08.37,3.69,1.8s.07,3.27-2.22,4.24a5.35,5.35,0,0,1-2.74.43Z"/></g></svg>