<svg xmlns="http://www.w3.org/2000/svg" width="1920" height="1080" viewBox="0 0 1920 1080"><defs><style>.cls-1{fill:#b8babb;}.cls-2{fill:#787878;}.cls-3{fill:#9a9fa0;}.cls-4{fill:#6b6b6b;}.cls-5{fill:#fff;}</style></defs><g id="startskærm"><path class="cls-1" d="M1917.44,871.12h.41c-202-116-556.64-193-960.41-193C554,678.12,199.51,755-2.56,870.88v200.24h1920Z"/><path class="cls-1" d="M408.22,787.28C358.64,811,292,837.75,236.17,826.09c-15.86-3.31-25.79-12.79-23.76-29.93,1.22-10.24,6.33-22.32,9-31.62,4.49-15.56,23.22-21.82,35.06-21.69,41.67.46,72-13.83,109.57-29.77,10.68-4.53,32.16-5.39,40.76,9.55,5.14,8.91,13.35,19,17.42,28.92C431,768.14,422.3,780.55,408.22,787.28Z"/><ellipse class="cls-2" cx="309.48" cy="733.1" rx="81.16" ry="12.57" transform="translate(-161.38 91.61) rotate(-13.39)"/><ellipse class="cls-3" cx="301.94" cy="996.12" rx="53.5" ry="19" transform="translate(-261.49 120.92) rotate(-15.91)"/><ellipse class="cls-3" cx="1337.94" cy="924.12" rx="53.5" ry="19"/><ellipse class="cls-3" cx="1715.44" cy="971.62" rx="28.5" ry="97" transform="translate(238.75 2277.83) rotate(-71.02)"/><ellipse class="cls-2" cx="1712.34" cy="978.29" rx="17.51" ry="68.51" transform="translate(230.36 2279.4) rotate(-71.02)"/><path class="cls-1" d="M1850.44,838.12s-70.66-87.18-95-93-150.17-41.73-167.19-44.22c-40-5.85-138.77,39.45-138.77,39.45l.31,1Z"/><ellipse class="cls-2" cx="1661.98" cy="735.86" rx="21.69" ry="125.51" transform="translate(563.24 2183.78) rotate(-76.69)"/><ellipse class="cls-4" cx="1661.58" cy="738.7" rx="14.35" ry="83.07" transform="translate(560.17 2185.57) rotate(-76.69)"/><polygon class="cls-1" points="1134.44 722.13 1035.91 635.21 838.36 635.13 739.44 722.04 739.54 722.13 1134.44 722.13"/><ellipse class="cls-3" cx="936.94" cy="640.62" rx="102.5" ry="24.5"/><ellipse class="cls-3" cx="1070.94" cy="705.12" rx="13" ry="35.5" transform="matrix(0.5, -0.87, 0.87, 0.5, -75.19, 1280.02)"/><ellipse class="cls-2" cx="1067.7" cy="710.42" rx="7.08" ry="26.33" transform="translate(-81.39 1279.87) rotate(-60)"/><ellipse class="cls-3" cx="248.94" cy="810.12" rx="40.5" ry="24" transform="translate(-314.32 176.87) rotate(-24.57)"/><ellipse class="cls-3" cx="936.94" cy="824.62" rx="55.5" ry="23.5"/><ellipse class="cls-2" cx="252.33" cy="816.75" rx="32.92" ry="16.42" transform="translate(-316.77 178.88) rotate(-24.57)"/><ellipse class="cls-3" cx="1769.1" cy="851.91" rx="20.35" ry="39.99" transform="translate(429.07 2287.11) rotate(-72.68)"/><ellipse class="cls-2" cx="1765.67" cy="857.39" rx="13.95" ry="32.46" transform="translate(393.95 2261.34) rotate(-71.57)"/><ellipse class="cls-3" cx="1434.19" cy="769.04" rx="18.35" ry="35.05" transform="translate(454.64 2068.58) rotate(-81.19)"/><ellipse class="cls-2" cx="1432.65" cy="774.55" rx="12.56" ry="28.48" transform="translate(438.96 2064.89) rotate(-80.8)"/><ellipse class="cls-3" cx="639.52" cy="929.37" rx="93.95" ry="63.5" transform="translate(-306.12 314.17) rotate(-22.42)"/><ellipse class="cls-1" cx="615.33" cy="924.89" rx="58.64" ry="39.47" transform="translate(-350.15 375.43) rotate(-26.72)"/><ellipse class="cls-2" cx="620.44" cy="929.12" rx="52" ry="35" transform="translate(-307.47 306.87) rotate(-22.42)"/><ellipse class="cls-4" cx="623.76" cy="939.63" rx="46.44" ry="22.94" transform="translate(-311.23 308.94) rotate(-22.42)"/><ellipse class="cls-2" cx="934.44" cy="829.12" rx="45" ry="19"/><ellipse class="cls-2" cx="1008.65" cy="1035.5" rx="17" ry="34.37" transform="translate(-179.43 1858.97) rotate(-80.48)"/><ellipse class="cls-3" cx="544.44" cy="744.12" rx="16" ry="5"/><ellipse class="cls-3" cx="395.82" cy="824.64" rx="12.17" ry="9.07" transform="translate(-180.23 114.1) rotate(-13.39)"/><ellipse class="cls-2" cx="1212.51" cy="821.14" rx="17.51" ry="7.57" transform="translate(-39.58 61.72) rotate(-2.87)"/><ellipse class="cls-3" cx="767.82" cy="914.64" rx="12.17" ry="9.07" transform="translate(-190.96 202.71) rotate(-13.39)"/><ellipse class="cls-3" cx="43.72" cy="980.48" rx="65.57" ry="43.03" transform="translate(-294.17 59.02) rotate(-17.58)"/><ellipse class="cls-1" cx="55.24" cy="967.66" rx="40.84" ry="26.8" transform="translate(-225.53 39.98) rotate(-13.57)"/><ellipse class="cls-2" cx="54.18" cy="972.11" rx="36.29" ry="23.72" transform="translate(-290.87 61.68) rotate(-17.57)"/><ellipse class="cls-4" cx="56.69" cy="979.13" rx="32.41" ry="15.55" transform="translate(-281.19 58.4) rotate(-16.84)"/><ellipse class="cls-2" cx="937.44" cy="641.12" rx="95" ry="17"/><path class="cls-5" d="M1836.44,695.12a17.07,17.07,0,0,1-4.07,5.71,21.81,21.81,0,0,1-11.07,5.61,17.17,17.17,0,0,1-7-.12,17,17,0,0,1,4.06-5.73,21.85,21.85,0,0,1,11.08-5.58A17.34,17.34,0,0,1,1836.44,695.12Z"/><path class="cls-5" d="M1822.84,676.12a52.33,52.33,0,0,1,4.51,12,85.35,85.35,0,0,1,2.16,12.21,83.69,83.69,0,0,1,.37,12.38,51.09,51.09,0,0,1-2,12.63,51.66,51.66,0,0,1-4.52-12,83.92,83.92,0,0,1-2.14-12.21,85.12,85.12,0,0,1-.37-12.38A52.17,52.17,0,0,1,1822.84,676.12Z"/><path class="cls-5" d="M107.44,746.88a44.78,44.78,0,0,1-11.67,9.22,66.66,66.66,0,0,1-26.49,8.21,44.46,44.46,0,0,1-14.84-1A44.21,44.21,0,0,1,66.1,754a64.39,64.39,0,0,1,12.82-5.49,65.08,65.08,0,0,1,13.69-2.69A44.91,44.91,0,0,1,107.44,746.88Z"/><path class="cls-5" d="M89.13,781.58a45.11,45.11,0,0,1-9.21-11.67,64.68,64.68,0,0,1-5.5-12.82,63.65,63.65,0,0,1-2.71-13.68,44.15,44.15,0,0,1,1-14.83A44.46,44.46,0,0,1,82,740.24a64.1,64.1,0,0,1,5.48,12.82,65,65,0,0,1,2.69,13.68A45,45,0,0,1,89.13,781.58Z"/><path class="cls-5" d="M69.72,665.47c7.72,0,7.73-12,0-12s-7.74,12,0,12Z"/><path class="cls-5" d="M136,762.81l4.37-2.19a6,6,0,0,0,2.15-8.21,6.15,6.15,0,0,0-8.21-2.15L130,752.45a6,6,0,0,0-2.15,8.21,6.15,6.15,0,0,0,8.21,2.15Z"/><path class="cls-5" d="M1868.9,680.77c7.72,0,7.74-12,0-12s-7.73,12,0,12Z"/><path class="cls-5" d="M1704.94,680.77c7.72,0,7.74-12,0-12s-7.73,12,0,12Z"/><path class="cls-5" d="M1103.76,639.23c7.72,0,7.73-12,0-12s-7.74,12,0,12Z"/><path class="cls-5" d="M216.19,653.53c6.43,0,6.44-10,0-10s-6.45,10,0,10Z"/><path class="cls-5" d="M664.34,668.84c6.44,0,6.45-10,0-10s-6.44,10,0,10Z"/><path class="cls-5" d="M1425.12,662.28c6.43,0,6.44-10,0-10s-6.45,10,0,10Z"/><path class="cls-5" d="M546.29,667.52a1.5,1.5,0,0,0,0-3,1.5,1.5,0,0,0,0,3Z"/><path class="cls-5" d="M395.45,654.41a1.5,1.5,0,0,0,0-3,1.5,1.5,0,0,0,0,3Z"/><path class="cls-5" d="M128.74,776.83a1.5,1.5,0,0,0,0-3,1.5,1.5,0,0,0,0,3Z"/><path class="cls-5" d="M32.55,776.83a1.5,1.5,0,0,0,0-3,1.5,1.5,0,0,0,0,3Z"/><path class="cls-5" d="M406.38,621.61a1.5,1.5,0,0,0,0-3,1.5,1.5,0,0,0,0,3Z"/><path class="cls-5" d="M266.47,669.71a1.5,1.5,0,0,0,0-3,1.5,1.5,0,0,0,0,3Z"/><path class="cls-5" d="M1825.18,720a1.5,1.5,0,0,0,0-3,1.5,1.5,0,0,0,0,3Z"/><path class="cls-5" d="M1884.2,610.68a1.5,1.5,0,0,0,0-3,1.5,1.5,0,0,0,0,3Z"/></g></svg>