<svg xmlns="http://www.w3.org/2000/svg" width="210" height="485" viewBox="0 0 210 485"><defs><style>.cls-1{fill:#eac31b;}.cls-2{fill:#f15a24;}.cls-3{fill:#ff7f00;}.cls-4{fill:#ed1c24;}.cls-5{fill:#c62430;}.cls-6{fill:#fbebd2;}.cls-7{fill:#913f26;}</style></defs><g id="dyredele"><path class="cls-1" d="M58.65,144.68s28.7,15,31.93,64.67,1,53.13,12.24,79.12,25.58,67.81,25.58,67.81-5.88,36-10.07,51.49-17.87,30.9-1.32,72.41c0,0,13.18-63.79,23.22-68.49S153,482.9,153,482.9s20-33.92,17.11-50.44a239.12,239.12,0,0,0-8.14-32s45.33,40.71,39.51,64.08c0,0,34.47-61.17-44.61-117.55,0,0-28.23-44.42-27.19-63.07s-10.36-29.62-8.44-81c1.84-49-12-54.77-33.8-68.48"/><path class="cls-2" d="M109.12,441.37c-.49,9.91,1.3,22.29,7.89,38.81,0,0,4.52-21.88,10.28-40.95Z"/><path class="cls-2" d="M190.11,431.82c7.87,11.19,13.74,23.32,11.41,32.67,0,0,7.91-14.06,7.45-34.9Z"/><path class="cls-2" d="M149.34,436.63c2.77,20.56,3.7,46.27,3.7,46.27s18.65-31.71,17.31-48.75Z"/><path class="cls-3" d="M19.86,96.64c4.78,1.47,8,4.55,13.1,5.06L34.71,96C29.64,95.46,24.86,94,19.86,96.64Z"/><path class="cls-3" d="M133.2,104.07c0,.12-31.52-39.41-31.4-42.58.11-3-1.11,4.19-1.8,4.16-8-.37-81.62,25.7-81.62,25.7S28.47,142,26.65,158.21,60.43,194.72,70.83,154c0,0-5.71,25.44,18.62,24.53s26.89-26.27,21.29-35.31.59-1.91.59-1.91,8.78,36.16,32.21,10.92S133.2,104.07,133.2,104.07ZM33,101.7c-5.08-.51-8.32-3.59-13.1-5.06,5-2.65,9.78-1.18,14.85-.68Z"/><path class="cls-4" d="M101.22,58.08c-4.65-10.95-26.91-12-49.74-2.32S13.92,82.16,18.57,93.12a10.88,10.88,0,0,0,2.07,3.15,11.08,11.08,0,0,0,1.11,1c3.14,1.31,5.74,3.13,9,4,.71.15,1.45.27,2.2.38,9.49,1.3,22.32-.73,35.34-6.24C91.12,85.76,105.86,69,101.22,58.08Z"/><path class="cls-5" d="M98.87,59.21c-4.14-10.07-24.28-10.9-45-1.86S19.74,81.88,23.88,92a9.73,9.73,0,0,0,1.86,2.89,13,13,0,0,0,1,1c2.84,1.18,5.19,2.85,8.14,3.61.64.13,1.31.25,2,.34,8.58,1.15,20.2-.79,32-6C89.58,84.77,103,69.28,98.87,59.21Z"/><path class="cls-4" d="M21.75,97.32a20.09,20.09,0,0,0,9,4C27.49,100.45,24.89,98.63,21.75,97.32Z"/><path class="cls-6" d="M54,81s-26.15-47.37-28-46.57S-5,34.61,2.14,18s26.91.93,26.91.93S31.89-7.4,47.71,5.81s-.05,24.05-.05,24.05L72.9,74.1Z"/><path d="M50.33,48.45c1.25-.82,15.66,18,13.91,24.3"/><path class="cls-7" d="M90,206.91s26.29-7,28.12-4.71-27.56,8.18-27.56,8.18Z"/><path class="cls-7" d="M120.74,212s-11.72,0-11.43,2.57,11.48-.71,11.48-.71Z"/><path class="cls-7" d="M120.91,223.44s-26.15.76-24.53,2.3,24.65.87,24.65.87Z"/><path class="cls-7" d="M92.48,248.48c3.22.92,32.5-4.63,29.62-8.59,0,0-30.1,7-29.7,7.37s0-.12,0-.12Z"/><polygon class="cls-7" points="94.13 263.78 124.92 256.77 126.13 262.08 94.73 266.88 94.13 263.78"/><polygon class="cls-7" points="96.41 273.39 127.33 267.2 127.84 269.44 97.39 276.41 96.41 273.39"/><path class="cls-7" d="M129.69,289.64c-.16-1.44-24.8,5.38-24.8,5.38l2.23,5.46,23.24-7.33Z"/><polygon class="cls-7" points="87.69 191.94 120.66 182.99 120.5 187.53 88.51 195.91 87.69 191.94"/><path class="cls-7" d="M111.92,312.68s9.83-5.94,11.74-5.36-10.7,8.09-10.7,8.09Z"/><path class="cls-7" d="M91.74,235.71l29.6-3.93.29,3.6s-28.07,2.2-29,2.35S91.74,235.71,91.74,235.71Z"/><polygon class="cls-7" points="109.66 167.78 117.11 165 118.02 167.81 107.01 171.61 109.66 167.78"/><path class="cls-7" d="M90.2,179.41s-5.51,2.38-5.42,2.19a14.77,14.77,0,0,0-.86-2.39Z"/><path class="cls-7" d="M137.29,312.36,115.63,322.5s.44,2,.64,1.71S138.06,314,138.06,314Z"/><polygon class="cls-7" points="142.51 323.12 119.94 334.21 120.78 336.5 143.34 324.73 142.51 323.12"/><path class="cls-7" d="M156.61,347.89s-5,1.46-15.4,4.56-13.1,4.78-13.1,4.78l-2.65-7.59,26-10.28Z"/></g></svg>