<svg xmlns="http://www.w3.org/2000/svg" width="170" height="240" viewBox="0 0 170 240"><defs><style>.cls-1{fill:#fbebd2;}.cls-2{fill:#ffd6ae;}.cls-3,.cls-4,.cls-5{fill:none;stroke-linecap:round;stroke-miterlimit:10;}.cls-3{stroke:#000;stroke-width:1.96px;}.cls-4,.cls-5{stroke:#f2afa0;}.cls-4{stroke-width:1.42px;}.cls-5{stroke-width:1.76px;}</style></defs><g id="kropsedele"><path class="cls-1" d="M88.23,190.6v20.25S66.56,222.29,76.76,233.7s21.67-6.34,22.94-6.34,11.47,17.75,21.67,2.54-7.65-22.82-7.65-22.82l-2.55-21.55Z"/><path class="cls-2" d="M73.15,195.53c-9-3,.54-19.4-3-25-1.27-2-.79-1.27-5-1-16.08,1-45.23,10-44.22-24l0-32.62S-7.25,87.53,1.79,73.53s17.06,0,17.06,0,13.09-69,77.42-71,55.28,55,55.28,55,6-19,16.08,4-15.08,20-15.08,20,16.8,51.46,2,67c-15,15.7-27.2,17.19-28.14,16,0,0,13.07,18,4,24S82.2,198.53,73.15,195.53Z"/><line class="cls-3" x1="114.22" y1="75.87" x2="133.82" y2="93.93"/><line class="cls-3" x1="133.74" y1="75.02" x2="115.58" y2="94.53"/><line class="cls-3" x1="57.93" y1="77.87" x2="77.54" y2="95.93"/><path class="cls-4" d="M84.61,137.92c9.7-1.82,16.77-2.57,26.59-1.17"/><path class="cls-5" d="M15.77,86.57c-11,13.08-6.22-3.93-3-9.41"/><path class="cls-5" d="M157.69,71.13c11.36,10.38,5.09-4.24,1.59-8.76"/><path class="cls-4" d="M88.89,104.42c10.32,13.34,7.78,14,17.48-.62"/><line class="cls-3" x1="77.46" y1="77.02" x2="59.3" y2="96.53"/></g></svg>