<svg xmlns="http://www.w3.org/2000/svg" width="270" height="170" viewBox="0 0 270 170"><defs><style>.cls-1,.cls-3{fill:#221f1f;}.cls-1,.cls-2{stroke:#9a9fa0;stroke-miterlimit:10;}.cls-1{stroke-width:2.41px;}.cls-2{fill:#fbebd2;stroke-width:1.29px;}</style></defs><g id="Layer_10" data-name="Layer 10"><path class="cls-1" d="M237.26,153.09c-72.77.37-149,.41-221.54,0-9.07-.05-12.49-12.37-13-31.64-.49-20.28-.47-49.8,0-70.12.45-19.31,3.91-31.47,13-31.54,72.5-.55,148.66-.64,221.62.06,9.12.09,12.06,12.12,12.65,31.47.63,20.36.55,49.84,0,70.12C249.52,140.68,246.36,153,237.26,153.09Z"/><path class="cls-2" d="M224.79,133.27c-65,.29-131.72.66-197.25-.14-6.41-.08-8.06-8.52-8.61-22.29-.57-14.22-.45-35.12,0-49.22C19.32,48,21.33,39.06,27.7,39c65.06-.25,132.34-.21,197,0,6.33,0,8.73,9,9.06,22.61.34,14.05.39,35.08,0,49.2C233.4,124.48,231.15,133.24,224.79,133.27Z"/><path class="cls-3" d="M43.17,86.14c-1.23-.45-2.36-.89-3.37-1.35a10,10,0,0,1-2.61-1.65,6.74,6.74,0,0,1-1.7-2.31,7.79,7.79,0,0,1-.61-3.27,7.33,7.33,0,0,1,2.76-6c1.83-1.49,4.41-2.24,7.72-2.24a20.87,20.87,0,0,1,3.37.26,9.66,9.66,0,0,1,2.67.82,4.58,4.58,0,0,1,1.75,1.4,3.32,3.32,0,0,1,.63,2,3.67,3.67,0,0,1-.5,2,5.47,5.47,0,0,1-1.22,1.39,9.45,9.45,0,0,0-2.49-1.08,11.87,11.87,0,0,0-3.41-.46,5.4,5.4,0,0,0-2.78.55,1.61,1.61,0,0,0-.88,1.39,1.27,1.27,0,0,0,.55,1.07,5.35,5.35,0,0,0,1.64.77l2.23.75A15.78,15.78,0,0,1,53,83.52a7.35,7.35,0,0,1,2.13,5.56,7.44,7.44,0,0,1-2.82,6q-2.82,2.31-8.3,2.31a18.34,18.34,0,0,1-3.59-.33,11.3,11.3,0,0,1-2.91-1,5.54,5.54,0,0,1-1.94-1.59,3.61,3.61,0,0,1-.69-2.18,3.46,3.46,0,0,1,.71-2.18,5.54,5.54,0,0,1,1.56-1.38A11.56,11.56,0,0,0,40,90.49a9.63,9.63,0,0,0,3.72.7,4.78,4.78,0,0,0,2.91-.66A1.92,1.92,0,0,0,47.51,89a1.56,1.56,0,0,0-.67-1.35,8.27,8.27,0,0,0-1.9-.9Z"/><path class="cls-3" d="M66.5,96.56a11.21,11.21,0,0,1-1.46.27,14.41,14.41,0,0,1-2,.13,8.63,8.63,0,0,1-1.71-.15,3.13,3.13,0,0,1-1.24-.55,2.45,2.45,0,0,1-.76-1.1,5.58,5.58,0,0,1-.25-1.85V72.58a2,2,0,0,1,.48-1.43,3.46,3.46,0,0,1,1.33-.81,15.15,15.15,0,0,1,3.26-.77,28.35,28.35,0,0,1,3.69-.24q5.81,0,8.88,2.59a8.73,8.73,0,0,1,3.07,7,10.93,10.93,0,0,1-.65,3.9,8,8,0,0,1-1.94,3A8.53,8.53,0,0,1,74,87.78a13.55,13.55,0,0,1-4.52.69h-3Zm2.19-14.12a3.92,3.92,0,0,0,2.71-.86A3.36,3.36,0,0,0,72.35,79a3.3,3.3,0,0,0-1-2.57,4.14,4.14,0,0,0-2.88-.9l-1.12,0a5.93,5.93,0,0,0-.91.11v6.82Z"/><path class="cls-3" d="M91,96.56a11,11,0,0,1-1.45.27,14.55,14.55,0,0,1-2,.13,8.63,8.63,0,0,1-1.71-.15,3.13,3.13,0,0,1-1.24-.55,2.45,2.45,0,0,1-.76-1.1,5.86,5.86,0,0,1-.25-1.85V70.08l1.47-.25A13.28,13.28,0,0,1,87,69.68a8.7,8.7,0,0,1,1.71.15,3.13,3.13,0,0,1,1.24.55,2.38,2.38,0,0,1,.75,1.1A5.55,5.55,0,0,1,91,73.33Z"/><path class="cls-3" d="M100.35,96.87a3.76,3.76,0,0,1-2.87-1.1,4.15,4.15,0,0,1-1-3V70l1.47-.24a13.28,13.28,0,0,1,1.94-.15,8.7,8.7,0,0,1,1.71.15,3,3,0,0,1,1.24.55,2.42,2.42,0,0,1,.76,1.1,5.81,5.81,0,0,1,.25,1.85V90.67h9.64a6.09,6.09,0,0,1,.8,3,3.49,3.49,0,0,1-.72,2.49,2.52,2.52,0,0,1-1.89.72Z"/><path class="cls-3" d="M133.82,96.56a11.21,11.21,0,0,1-1.46.27,14.41,14.41,0,0,1-2,.13,8.63,8.63,0,0,1-1.71-.15,3.13,3.13,0,0,1-1.24-.55,2.45,2.45,0,0,1-.76-1.1,5.58,5.58,0,0,1-.25-1.85V70.08l1.47-.25a13.28,13.28,0,0,1,1.94-.15,8.6,8.6,0,0,1,1.7.15,3.18,3.18,0,0,1,1.25.55,2.38,2.38,0,0,1,.75,1.1,5.55,5.55,0,0,1,.26,1.85Z"/><path class="cls-3" d="M162.4,92.38a3.56,3.56,0,0,1-.46,2,4.88,4.88,0,0,1-1.47,1.27,8.27,8.27,0,0,1-1.48.68,15.19,15.19,0,0,1-1.93.58,21.21,21.21,0,0,1-2.21.37,20,20,0,0,1-2.3.13,18.41,18.41,0,0,1-5.68-.85,12.82,12.82,0,0,1-4.61-2.6,12.28,12.28,0,0,1-3.1-4.33,15.05,15.05,0,0,1-1.13-6,14.77,14.77,0,0,1,1.24-6.29,13.24,13.24,0,0,1,3.28-4.47,13.4,13.4,0,0,1,4.68-2.66,16.8,16.8,0,0,1,5.41-.88A12.67,12.67,0,0,1,159,70.67a4,4,0,0,1,2.34,3.5,3.51,3.51,0,0,1-.55,2,4.69,4.69,0,0,1-1.26,1.32,16.51,16.51,0,0,0-2.63-1.3,9.37,9.37,0,0,0-3.56-.64,7.56,7.56,0,0,0-5.62,2.11,8,8,0,0,0-2.09,5.86,9.67,9.67,0,0,0,.57,3.49,6.58,6.58,0,0,0,1.54,2.42,6.22,6.22,0,0,0,2.23,1.41,7.73,7.73,0,0,0,2.7.46,7.38,7.38,0,0,0,1.64-.17,4.13,4.13,0,0,0,1.09-.4V86.58h-4.5a7.68,7.68,0,0,1-.49-1.28,6.12,6.12,0,0,1-.23-1.67,3.14,3.14,0,0,1,.7-2.29,2.4,2.4,0,0,1,1.79-.7h7.11a2.6,2.6,0,0,1,2,.72,2.86,2.86,0,0,1,.69,2Z"/><path class="cls-3" d="M167.24,74.17a4.15,4.15,0,0,1,1.06-3,3.74,3.74,0,0,1,2.86-1.1h13.89a5,5,0,0,1,.53,1.27,6.12,6.12,0,0,1,.23,1.67,3.33,3.33,0,0,1-.69,2.38,2.48,2.48,0,0,1-1.84.7H174.4v4.09h9.47a5.36,5.36,0,0,1,.53,1.26,5.82,5.82,0,0,1,.23,1.65,3.4,3.4,0,0,1-.67,2.38,2.42,2.42,0,0,1-1.81.7H174.4V90.8h10.82a5.43,5.43,0,0,1,.53,1.28,6,6,0,0,1,.23,1.67,3.39,3.39,0,0,1-.7,2.4,2.42,2.42,0,0,1-1.83.72H171.16a3.74,3.74,0,0,1-2.86-1.1,4.15,4.15,0,0,1-1.06-3Z"/><path class="cls-3" d="M213.43,95.82a3.77,3.77,0,0,1-1.71.94,9.45,9.45,0,0,1-2.67.33,9,9,0,0,1-3-.48,4.2,4.2,0,0,1-2.27-2.34l-4.17-8.88Q199,84,198.52,82.81c-.33-.8-.7-1.73-1.09-2.79l-.25,0c.11,1.59.17,3.2.19,4.84s0,3.26,0,4.84v6.82a11.12,11.12,0,0,1-1.41.27,13.3,13.3,0,0,1-1.88.13,9,9,0,0,1-1.64-.13,2.31,2.31,0,0,1-1.89-1.61,5.18,5.18,0,0,1-.25-1.78v-22a3.46,3.46,0,0,1,1.81-1.32,7.69,7.69,0,0,1,2.61-.44,8.89,8.89,0,0,1,3,.5A4.12,4.12,0,0,1,200,72.5l4.21,8.88c.42.91.8,1.77,1.13,2.58s.71,1.73,1.1,2.79l.21,0c-.11-1.59-.18-3.17-.21-4.76s0-3.16,0-4.75V70.08a11.12,11.12,0,0,1,1.41-.27,13.16,13.16,0,0,1,1.87-.13,4.91,4.91,0,0,1,2.82.68c.65.46,1,1.4,1,2.84Z"/></g></svg>