<svg xmlns="http://www.w3.org/2000/svg" xmlns:xlink="http://www.w3.org/1999/xlink" width="1895" height="270" viewBox="0 0 1895 270"><defs><style>.cls-1{fill:#c69c6d;}.cls-2{fill:#6b543c;}.cls-3{fill:url(#White_Black);}.cls-4{fill:#b8babb;}.cls-5{fill:#fbebd2;}.cls-6{fill:url(#White_Black-2);}.cls-7{fill:#ff0b0b;opacity:0.52;}.cls-8{fill:url(#White_Black-3);}.cls-9{fill:url(#White_Black-4);}.cls-10{fill:url(#White_Black-5);}.cls-11{fill:url(#White_Black-6);}.cls-12{fill:url(#White_Black-7);}.cls-13{fill:url(#White_Black-8);}</style><linearGradient id="White_Black" x1="83.23" y1="13.39" x2="92.19" y2="13.39" gradientUnits="userSpaceOnUse"><stop offset="0" stop-color="#fff"/><stop offset="1"/></linearGradient><linearGradient id="White_Black-2" x1="315.23" y1="29.39" x2="324.19" y2="29.39" xlink:href="#White_Black"/><linearGradient id="White_Black-3" x1="564.23" y1="19.39" x2="573.19" y2="19.39" xlink:href="#White_Black"/><linearGradient id="White_Black-4" x1="810.23" y1="7.39" x2="819.19" y2="7.39" xlink:href="#White_Black"/><linearGradient id="White_Black-5" x1="1045.23" y1="14.39" x2="1054.19" y2="14.39" xlink:href="#White_Black"/><linearGradient id="White_Black-6" x1="1276.23" y1="11.39" x2="1285.19" y2="11.39" xlink:href="#White_Black"/><linearGradient id="White_Black-7" x1="1511.23" y1="18.39" x2="1520.19" y2="18.39" xlink:href="#White_Black"/><linearGradient id="White_Black-8" x1="1753.23" y1="4.39" x2="1762.19" y2="4.39" xlink:href="#White_Black"/></defs><g id="tid"><path class="cls-1" d="M27.05,116.42S76.66,5.33,89.21,13.09s91.24,103.33,91.24,103.33l-13.15.22S99.24,27.12,91.59,26.83c-10-.38-7.71-14.53-54.52,89.81"/><polygon class="cls-2" points="34.08 101.14 42.23 105.17 42.63 104.29 34.27 100.75 34.08 101.14"/><path class="cls-2" d="M35.9,97.27c.74,0,8.82,2.41,8.82,2.41l.55-1.2-9.11-1.76Z"/><polygon class="cls-2" points="40.59 108.82 31.36 106.98 30.94 107.9 39.93 110.28 40.59 108.82"/><ellipse class="cls-3" cx="87.71" cy="13.39" rx="4.48" ry="3.88"/><polygon class="cls-2" points="28.52 113.18 38.36 113.78 37.73 115.18 27.91 114.52 28.52 113.18"/><polygon class="cls-2" points="38.9 90.98 48.98 90.35 48.12 92.21 38.36 92.12 38.9 90.98"/><polygon class="cls-2" points="50.66 86.68 42.63 83.28 43.15 82.21 51.06 85.8 50.66 86.68"/><polygon class="cls-2" points="54.56 78.23 47.98 72.49 48.7 71.06 55.02 77.24 54.56 78.23"/><polygon class="cls-2" points="50.56 67.39 58.36 70.12 57.77 71.37 50.11 68.27 50.56 67.39"/><path class="cls-2" d="M54.78,59.26c-.22-.18,8.21,1.19,8.21,1.19l-.48,1-8.15-1.37Z"/><path class="cls-2" d="M59,51.3c.3,0,8.48,0,8.48,0l-.58,1.15L58.67,52Z"/><path class="cls-2" d="M57.17,54.77c-.22.13,8.61,0,8.61,0l-.6,1.2-8.34-.6Z"/><polygon class="cls-2" points="63.59 43.13 71.89 42.93 71.28 44.06 63.1 44.01 63.59 43.13"/><path class="cls-2" d="M68,35.7c-.26.09,6.65,2.36,6.65,2.36l-.53.92L67,37.34Z"/><polygon class="cls-2" points="71.89 29.43 79.06 31.14 78.24 32.29 71.43 30.13 71.89 29.43"/><polygon class="cls-2" points="77.3 21.67 81.75 28.03 81.17 28.61 75.98 23.45 77.3 21.67"/><polygon class="cls-2" points="86.35 17.09 87.17 26.08 88.05 26.41 87.2 17.27 86.35 17.09"/><polygon class="cls-2" points="91.93 15.21 90.26 26.7 91.1 26.8 92.19 15.44 91.93 15.21"/><polygon class="cls-2" points="100.66 23.8 98.3 32 101.94 25.14 100.66 23.8"/><polygon class="cls-2" points="100.12 33.85 105.62 29.09 106.3 29.83 100.51 34.27 100.12 33.85"/><polygon class="cls-2" points="102.65 36.54 108.95 32.73 109.64 33.49 103.38 37.34 102.65 36.54"/><polygon class="cls-2" points="115.61 40.14 110.2 45.06 110.82 45.78 116.07 40.66 115.61 40.14"/><polygon class="cls-2" points="119.75 44.82 112.73 48.01 113.56 48.98 120.09 45.21 119.75 44.82"/><polygon class="cls-2" points="124.37 50.1 116.47 52.45 117.72 53.95 125.06 50.89 124.37 50.1"/><polygon class="cls-2" points="124.8 62.54 132.3 59.24 125.79 63.75 124.8 62.54"/><polygon class="cls-2" points="145.47 74.65 139.59 80.97 140.57 82.21 146.63 76.01 145.47 74.65"/><polygon class="cls-2" points="151.73 96.44 159.89 91.73 160.96 93.01 152.69 97.68 151.73 96.44"/><polygon class="cls-2" points="156.03 101.98 163.69 97.68 164.87 97.68 165.6 98.54 157.15 103.43 156.03 101.98"/><polygon class="cls-2" points="170.91 104.92 162.64 110.55 163.9 112.19 171.48 105.6 170.91 104.92"/><path class="cls-2" d="M165.6,114.41l10.59-2.22s1.93,1,1.67,1.11.92,1.11.92,1.11l-12,1.51Z"/><polygon class="cls-2" points="147.34 90.82 153.71 85.36 154.54 85.36 155.16 86.1 147.78 91.39 147.34 90.82"/><polygon class="cls-2" points="131.69 71.06 138.15 66.06 138.85 66.87 132.3 71.83 131.69 71.06"/><rect class="cls-4" x="3.2" y="111.64" width="214.43" height="139.17" rx="34.38" transform="translate(-6.65 4.22) rotate(-2.13)"/><rect class="cls-5" x="12.74" y="123" width="194.72" height="115.87" rx="34.38" transform="translate(-6.64 4.21) rotate(-2.13)"/><path d="M76.24,181.65a4.05,4.05,0,0,0-3.19,1.41,5.37,5.37,0,0,0-1,3.69,5.06,5.06,0,0,0,1.38,3.63,4.5,4.5,0,0,0,3.42,1.17,5.37,5.37,0,0,0,1.89-.37,12.61,12.61,0,0,0,1.47-.74,2.74,2.74,0,0,1,.77.89,2.94,2.94,0,0,1,.3,1.24,2.23,2.23,0,0,1-1.18,2,7.28,7.28,0,0,1-3.77.93,11.31,11.31,0,0,1-3.48-.4,7.75,7.75,0,0,1-2.89-1.5,7.59,7.59,0,0,1-2-2.67,10.23,10.23,0,0,1-.84-3.94,9.75,9.75,0,0,1,.53-3.81,7.94,7.94,0,0,1,1.74-2.82,7.71,7.71,0,0,1,2.66-1.81,9.84,9.84,0,0,1,3.33-.7,7.75,7.75,0,0,1,3.94.68,2.42,2.42,0,0,1,1.47,2.06,2.07,2.07,0,0,1-.31,1.25,3.13,3.13,0,0,1-.79.86,8.58,8.58,0,0,0-1.56-.74A4.89,4.89,0,0,0,76.24,181.65Z"/><path d="M86.48,194.66a2.37,2.37,0,0,1-2.64-2.46L83.31,178l1-.18a9.79,9.79,0,0,1,1.26-.15,6.41,6.41,0,0,1,1.12.06,1.87,1.87,0,0,1,.82.31,1.47,1.47,0,0,1,.52.67,3.42,3.42,0,0,1,.21,1.15l.4,10.84,6.29-.23a4.27,4.27,0,0,1,.39.8,3.32,3.32,0,0,1,.2,1,2.07,2.07,0,0,1-.41,1.56,1.65,1.65,0,0,1-1.22.5Z"/><path d="M96.05,185.86a9.94,9.94,0,0,1,.54-3.81,7.59,7.59,0,0,1,4.42-4.62,9.85,9.85,0,0,1,3.39-.7,9.66,9.66,0,0,1,3.44.45,8,8,0,0,1,2.83,1.58,7.81,7.81,0,0,1,2,2.69,9.91,9.91,0,0,1,.81,3.77,10.06,10.06,0,0,1-.51,3.82,7.67,7.67,0,0,1-1.73,2.84,7.85,7.85,0,0,1-2.69,1.8,10.33,10.33,0,0,1-3.44.7,9.85,9.85,0,0,1-3.48-.46,7.7,7.7,0,0,1-2.81-1.62,7.88,7.88,0,0,1-1.92-2.7A10.23,10.23,0,0,1,96.05,185.86Zm5-.18a5.75,5.75,0,0,0,1.15,3.69,3.36,3.36,0,0,0,2.77,1.14,3.4,3.4,0,0,0,2.7-1.34,7.39,7.39,0,0,0-.27-7.44,3.3,3.3,0,0,0-2.78-1.13,3.37,3.37,0,0,0-2.68,1.32A5.61,5.61,0,0,0,101,185.68Z"/><path d="M121,186.67c-.82-.25-1.56-.5-2.23-.76a6.88,6.88,0,0,1-1.74-1,4.49,4.49,0,0,1-1.17-1.4,4.87,4.87,0,0,1-.47-2,4.48,4.48,0,0,1,1.66-3.8,8.05,8.05,0,0,1,5-1.58,14.31,14.31,0,0,1,2.21.08,6.38,6.38,0,0,1,1.76.44,3,3,0,0,1,1.17.84,2,2,0,0,1,.46,1.23,2.26,2.26,0,0,1-.28,1.24,3.66,3.66,0,0,1-.77.89,6.36,6.36,0,0,0-1.64-.61,8.05,8.05,0,0,0-2.24-.21,3.72,3.72,0,0,0-1.8.41,1,1,0,0,0-.54.89.79.79,0,0,0,.38.66,3.59,3.59,0,0,0,1.09.44l1.47.41a10.63,10.63,0,0,1,4,2,4.47,4.47,0,0,1,1.51,3.42,4.57,4.57,0,0,1-1.7,3.84,8.62,8.62,0,0,1-5.35,1.65,12.81,12.81,0,0,1-2.36-.12,7.56,7.56,0,0,1-1.91-.54,3.34,3.34,0,0,1-1.3-.94,2.16,2.16,0,0,1-.51-1.34,2.06,2.06,0,0,1,.42-1.38,3.58,3.58,0,0,1,1-.9,7.5,7.5,0,0,0,1.92,1,6.53,6.53,0,0,0,2.45.35,3.25,3.25,0,0,0,1.88-.48,1.22,1.22,0,0,0,.51-1,.93.93,0,0,0-.47-.82,5.57,5.57,0,0,0-1.26-.52Z"/><path d="M131.09,178.81a2.58,2.58,0,0,1,.62-1.89,2.55,2.55,0,0,1,1.84-.75l9.06-.34a3.54,3.54,0,0,1,.38.78,4,4,0,0,1,.19,1,2,2,0,0,1-.4,1.5,1.63,1.63,0,0,1-1.18.48l-5.79.22.09,2.55,6.18-.23a3.69,3.69,0,0,1,.37.77,3.42,3.42,0,0,1,.19,1,2.06,2.06,0,0,1-.38,1.5,1.63,1.63,0,0,1-1.17.48l-5.05.19.11,2.88,7-.26a3.15,3.15,0,0,1,.38.78,3.91,3.91,0,0,1,.19,1,2.07,2.07,0,0,1-.4,1.51,1.59,1.59,0,0,1-1.18.5l-8,.3a2.37,2.37,0,0,1-2.64-2.46Z"/><path d="M153,192.55h-1.07c-.4,0-.82,0-1.25-.07s-.87-.09-1.3-.15a7.38,7.38,0,0,1-1.21-.3,2,2,0,0,1-1.58-1.95l-.48-12.82a1.21,1.21,0,0,1,.29-.91,2.18,2.18,0,0,1,.84-.54,12.31,12.31,0,0,1,2.48-.6c.88-.11,1.66-.18,2.36-.21a13.39,13.39,0,0,1,3.9.38,7.84,7.84,0,0,1,3.05,1.49,7.34,7.34,0,0,1,2,2.66,10,10,0,0,1,.83,3.88,10.25,10.25,0,0,1-.51,3.85,7.46,7.46,0,0,1-1.78,2.82,7.9,7.9,0,0,1-2.87,1.77A12.69,12.69,0,0,1,153,192.55Zm-1.68-4a6.44,6.44,0,0,0,.74.07,7.78,7.78,0,0,0,.83,0,4.85,4.85,0,0,0,1.7-.34,3.38,3.38,0,0,0,1.32-.9,3.85,3.85,0,0,0,.82-1.53,6.56,6.56,0,0,0,.23-2.22,5.34,5.34,0,0,0-1.29-3.68,4,4,0,0,0-3.12-1.13q-.39,0-.78.06c-.26,0-.53.06-.81.11Z"/><path class="cls-1" d="M259.05,132.42S308.66,21.33,321.21,29.09s91.24,103.33,91.24,103.33l-13.15.22s-68.06-89.52-75.71-89.81c-10-.38-7.71-14.53-54.52,89.81"/><polygon class="cls-2" points="266.08 117.14 274.23 121.17 274.63 120.29 266.27 116.75 266.08 117.14"/><path class="cls-2" d="M267.9,113.27c.74,0,8.82,2.41,8.82,2.41l.55-1.2-9.11-1.76Z"/><polygon class="cls-2" points="272.59 124.82 263.36 122.98 262.94 123.9 271.93 126.28 272.59 124.82"/><ellipse class="cls-6" cx="319.71" cy="29.39" rx="4.48" ry="3.88"/><polygon class="cls-2" points="260.52 129.18 270.36 129.78 269.73 131.18 259.91 130.52 260.52 129.18"/><polygon class="cls-2" points="270.9 106.98 280.98 106.35 280.12 108.21 270.36 108.12 270.9 106.98"/><polygon class="cls-2" points="282.66 102.68 274.63 99.28 275.15 98.21 283.06 101.8 282.66 102.68"/><polygon class="cls-2" points="286.56 94.23 279.98 88.49 280.7 87.06 287.02 93.24 286.56 94.23"/><polygon class="cls-2" points="282.56 83.39 290.36 86.12 289.77 87.37 282.11 84.27 282.56 83.39"/><path class="cls-2" d="M286.78,75.26c-.22-.18,8.21,1.19,8.21,1.19l-.48,1-8.15-1.37Z"/><path class="cls-2" d="M291,67.3c.3,0,8.48,0,8.48,0l-.58,1.15L290.67,68Z"/><path class="cls-2" d="M289.17,70.77c-.22.13,8.61,0,8.61,0l-.6,1.2-8.34-.6Z"/><polygon class="cls-2" points="295.59 59.13 303.88 58.93 303.28 60.06 295.1 60.01 295.59 59.13"/><path class="cls-2" d="M300,51.7c-.26.09,6.65,2.36,6.65,2.36l-.53.92L299,53.34Z"/><polygon class="cls-2" points="303.88 45.43 311.06 47.14 310.24 48.29 303.43 46.13 303.88 45.43"/><polygon class="cls-2" points="309.3 37.67 313.75 44.03 313.17 44.61 307.98 39.45 309.3 37.67"/><polygon class="cls-2" points="318.35 33.09 319.17 42.08 320.05 42.41 319.2 33.27 318.35 33.09"/><polygon class="cls-2" points="323.93 31.21 322.26 42.7 323.1 42.8 324.19 31.44 323.93 31.21"/><polygon class="cls-2" points="332.66 39.8 330.3 48 333.94 41.14 332.66 39.8"/><polygon class="cls-2" points="332.12 49.85 337.62 45.09 338.3 45.83 332.51 50.27 332.12 49.85"/><polygon class="cls-2" points="334.65 52.54 340.95 48.73 341.64 49.49 335.38 53.34 334.65 52.54"/><polygon class="cls-2" points="347.61 56.14 342.2 61.06 342.82 61.78 348.07 56.66 347.61 56.14"/><polygon class="cls-2" points="351.75 60.82 344.73 64.01 345.56 64.98 352.09 61.21 351.75 60.82"/><polygon class="cls-2" points="356.37 66.1 348.47 68.45 349.72 69.95 357.06 66.89 356.37 66.1"/><polygon class="cls-2" points="356.8 78.54 364.3 75.24 357.79 79.75 356.8 78.54"/><polygon class="cls-2" points="377.47 90.65 371.58 96.97 372.57 98.21 378.63 92.01 377.47 90.65"/><polygon class="cls-2" points="383.73 112.44 391.89 107.73 392.96 109.01 384.69 113.68 383.73 112.44"/><polygon class="cls-2" points="388.03 117.98 395.69 113.68 396.87 113.68 397.6 114.54 389.15 119.43 388.03 117.98"/><polygon class="cls-2" points="402.91 120.92 394.64 126.55 395.9 128.19 403.48 121.6 402.91 120.92"/><path class="cls-2" d="M397.6,130.41l10.59-2.22s1.93,1,1.67,1.11.92,1.11.92,1.11l-12,1.51Z"/><polygon class="cls-2" points="379.34 106.82 385.71 101.36 386.54 101.36 387.16 102.1 379.78 107.39 379.34 106.82"/><polygon class="cls-2" points="363.69 87.06 370.15 82.06 370.85 82.87 364.3 87.83 363.69 87.06"/><rect class="cls-4" x="235.2" y="127.64" width="214.43" height="139.17" rx="34.38" transform="translate(-7.08 12.84) rotate(-2.13)"/><rect class="cls-5" x="244.74" y="139" width="194.72" height="115.87" rx="34.38" transform="translate(-7.07 12.83) rotate(-2.13)"/><path d="M308.24,197.65a4.05,4.05,0,0,0-3.19,1.41,5.37,5.37,0,0,0-1,3.69,5.06,5.06,0,0,0,1.38,3.63,4.5,4.5,0,0,0,3.42,1.17,5.37,5.37,0,0,0,1.89-.37,12.61,12.61,0,0,0,1.47-.74,2.74,2.74,0,0,1,.77.89,2.94,2.94,0,0,1,.3,1.24,2.23,2.23,0,0,1-1.18,2,7.28,7.28,0,0,1-3.77.93,11.31,11.31,0,0,1-3.48-.4,7.75,7.75,0,0,1-2.89-1.5,7.59,7.59,0,0,1-2-2.67,10.23,10.23,0,0,1-.84-3.94,9.75,9.75,0,0,1,.53-3.81,7.94,7.94,0,0,1,1.74-2.82,7.71,7.71,0,0,1,2.66-1.81,9.84,9.84,0,0,1,3.33-.7,7.75,7.75,0,0,1,3.94.68,2.42,2.42,0,0,1,1.47,2.06,2.07,2.07,0,0,1-.31,1.25,3.13,3.13,0,0,1-.79.86,8.58,8.58,0,0,0-1.56-.74A4.89,4.89,0,0,0,308.24,197.65Z"/><path d="M318.48,210.66a2.37,2.37,0,0,1-2.64-2.46l-.53-14.2.95-.18a9.79,9.79,0,0,1,1.26-.15,6.41,6.41,0,0,1,1.12.06,1.87,1.87,0,0,1,.82.31,1.47,1.47,0,0,1,.52.67,3.42,3.42,0,0,1,.21,1.15l.4,10.84,6.29-.23a4.27,4.27,0,0,1,.39.8,3.32,3.32,0,0,1,.2,1,2.07,2.07,0,0,1-.41,1.56,1.65,1.65,0,0,1-1.22.5Z"/><path d="M328.05,201.86a9.94,9.94,0,0,1,.54-3.81,7.59,7.59,0,0,1,4.42-4.62,9.85,9.85,0,0,1,3.39-.7,9.66,9.66,0,0,1,3.44.45,8,8,0,0,1,2.83,1.58,7.81,7.81,0,0,1,1.95,2.69,9.91,9.91,0,0,1,.81,3.77,10.06,10.06,0,0,1-.51,3.82,7.67,7.67,0,0,1-1.73,2.84,7.85,7.85,0,0,1-2.69,1.8,10.33,10.33,0,0,1-3.44.7,9.85,9.85,0,0,1-3.48-.46,7.7,7.7,0,0,1-2.81-1.62,7.88,7.88,0,0,1-1.92-2.7A10.23,10.23,0,0,1,328.05,201.86Zm4.95-.18a5.75,5.75,0,0,0,1.15,3.69,3.36,3.36,0,0,0,2.77,1.14,3.4,3.4,0,0,0,2.7-1.34,7.39,7.39,0,0,0-.27-7.44,3.3,3.3,0,0,0-2.78-1.13,3.37,3.37,0,0,0-2.68,1.32A5.61,5.61,0,0,0,333,201.68Z"/><path d="M353,202.67c-.82-.25-1.56-.5-2.23-.76a6.88,6.88,0,0,1-1.74-1,4.49,4.49,0,0,1-1.17-1.4,4.87,4.87,0,0,1-.47-2,4.48,4.48,0,0,1,1.66-3.8,8.05,8.05,0,0,1,5-1.58,14.31,14.31,0,0,1,2.21.08,6.38,6.38,0,0,1,1.76.44,3,3,0,0,1,1.17.84,2,2,0,0,1,.46,1.23,2.26,2.26,0,0,1-.28,1.24,3.66,3.66,0,0,1-.77.89,6.36,6.36,0,0,0-1.64-.61,8.05,8.05,0,0,0-2.24-.21,3.72,3.72,0,0,0-1.8.41,1,1,0,0,0-.54.89.79.79,0,0,0,.38.66,3.59,3.59,0,0,0,1.09.44l1.47.41a10.63,10.63,0,0,1,4.05,2,4.47,4.47,0,0,1,1.51,3.42,4.57,4.57,0,0,1-1.7,3.84,8.62,8.62,0,0,1-5.35,1.65,12.81,12.81,0,0,1-2.36-.12,7.56,7.56,0,0,1-1.91-.54,3.34,3.34,0,0,1-1.3-.94,2.16,2.16,0,0,1-.51-1.34,2.06,2.06,0,0,1,.42-1.38,3.58,3.58,0,0,1,1-.9,7.5,7.5,0,0,0,1.92,1,6.53,6.53,0,0,0,2.45.35,3.25,3.25,0,0,0,1.88-.48,1.22,1.22,0,0,0,.51-1,.93.93,0,0,0-.47-.82,5.57,5.57,0,0,0-1.26-.52Z"/><path d="M363.09,194.81a2.58,2.58,0,0,1,.62-1.89,2.55,2.55,0,0,1,1.84-.75l9.06-.34a3.54,3.54,0,0,1,.38.78,4,4,0,0,1,.19,1,2,2,0,0,1-.4,1.5,1.63,1.63,0,0,1-1.18.48l-5.79.22.09,2.55,6.18-.23a3.69,3.69,0,0,1,.37.77,3.42,3.42,0,0,1,.19,1,2.06,2.06,0,0,1-.38,1.5,1.63,1.63,0,0,1-1.17.48l-5,.19.11,2.88,7.05-.26a3.15,3.15,0,0,1,.38.78,3.91,3.91,0,0,1,.19,1,2.07,2.07,0,0,1-.4,1.51,1.59,1.59,0,0,1-1.18.5l-8,.3a2.37,2.37,0,0,1-2.64-2.46Z"/><path d="M385,208.55h-1.07c-.4,0-.82,0-1.25-.07s-.87-.09-1.3-.15a7.38,7.38,0,0,1-1.21-.3,2,2,0,0,1-1.58-1.95l-.48-12.82a1.21,1.21,0,0,1,.29-.91,2.18,2.18,0,0,1,.84-.54,12.31,12.31,0,0,1,2.48-.6c.88-.11,1.66-.18,2.36-.21a13.39,13.39,0,0,1,3.9.38,7.84,7.84,0,0,1,3,1.49,7.34,7.34,0,0,1,2,2.66,10,10,0,0,1,.83,3.88,10.25,10.25,0,0,1-.51,3.85,7.46,7.46,0,0,1-1.78,2.82,7.9,7.9,0,0,1-2.87,1.77A12.69,12.69,0,0,1,385,208.55Zm-1.68-4a6.44,6.44,0,0,0,.74.07,7.78,7.78,0,0,0,.83,0,4.85,4.85,0,0,0,1.7-.34,3.38,3.38,0,0,0,1.32-.9,3.85,3.85,0,0,0,.82-1.53,6.56,6.56,0,0,0,.23-2.22,5.34,5.34,0,0,0-1.29-3.68,4,4,0,0,0-3.12-1.13q-.39,0-.78.06c-.26,0-.53.06-.81.11Z"/><rect class="cls-7" x="236.69" y="248.48" width="214.43" height="18.8" rx="4.55" transform="translate(-9.33 12.94) rotate(-2.13)"/><path class="cls-1" d="M508.05,122.42S557.66,11.33,570.21,19.09s91.24,103.33,91.24,103.33l-13.15.22s-68.06-89.52-75.71-89.81c-10.05-.38-7.71-14.53-54.52,89.81"/><polygon class="cls-2" points="515.08 107.14 523.23 111.17 523.63 110.29 515.27 106.75 515.08 107.14"/><path class="cls-2" d="M516.9,103.27c.74,0,8.82,2.41,8.82,2.41l.55-1.2-9.11-1.76Z"/><polygon class="cls-2" points="521.59 114.82 512.36 112.98 511.94 113.9 520.93 116.28 521.59 114.82"/><ellipse class="cls-8" cx="568.71" cy="19.39" rx="4.48" ry="3.88"/><polygon class="cls-2" points="509.52 119.18 519.36 119.78 518.73 121.18 508.91 120.52 509.52 119.18"/><polygon class="cls-2" points="519.9 96.98 529.98 96.35 529.12 98.21 519.36 98.12 519.9 96.98"/><polygon class="cls-2" points="531.66 92.68 523.63 89.28 524.15 88.21 532.06 91.8 531.66 92.68"/><polygon class="cls-2" points="535.56 84.23 528.98 78.49 529.7 77.06 536.02 83.24 535.56 84.23"/><polygon class="cls-2" points="531.57 73.39 539.36 76.12 538.77 77.37 531.11 74.27 531.57 73.39"/><path class="cls-2" d="M535.78,65.26c-.22-.18,8.21,1.19,8.21,1.19l-.48,1-8.15-1.37Z"/><path class="cls-2" d="M540,57.3c.3,0,8.48,0,8.48,0l-.58,1.15L539.67,58Z"/><path class="cls-2" d="M538.17,60.77c-.22.13,8.61,0,8.61,0l-.6,1.2-8.34-.6Z"/><polygon class="cls-2" points="544.59 49.13 552.88 48.93 552.28 50.06 544.1 50.01 544.59 49.13"/><path class="cls-2" d="M549,41.7c-.26.09,6.65,2.36,6.65,2.36l-.53.92L548,43.34Z"/><polygon class="cls-2" points="552.88 35.43 560.07 37.14 559.24 38.29 552.43 36.13 552.88 35.43"/><polygon class="cls-2" points="558.3 27.67 562.75 34.03 562.16 34.61 556.98 29.45 558.3 27.67"/><polygon class="cls-2" points="567.35 23.09 568.17 32.08 569.05 32.41 568.2 23.27 567.35 23.09"/><polygon class="cls-2" points="572.93 21.21 571.26 32.7 572.1 32.8 573.19 21.44 572.93 21.21"/><polygon class="cls-2" points="581.66 29.8 579.3 38 582.93 31.14 581.66 29.8"/><polygon class="cls-2" points="581.12 39.85 586.62 35.09 587.3 35.83 581.51 40.27 581.12 39.85"/><polygon class="cls-2" points="583.65 42.54 589.95 38.73 590.64 39.49 584.38 43.34 583.65 42.54"/><polygon class="cls-2" points="596.61 46.14 591.21 51.06 591.82 51.78 597.07 46.66 596.61 46.14"/><polygon class="cls-2" points="600.75 50.82 593.73 54.01 594.56 54.98 601.09 51.21 600.75 50.82"/><polygon class="cls-2" points="605.37 56.1 597.47 58.45 598.72 59.95 606.06 56.89 605.37 56.1"/><polygon class="cls-2" points="605.8 68.54 613.3 65.24 606.79 69.75 605.8 68.54"/><polygon class="cls-2" points="626.47 80.65 620.59 86.97 621.57 88.21 627.63 82.01 626.47 80.65"/><polygon class="cls-2" points="632.73 102.44 640.89 97.73 641.96 99.01 633.69 103.68 632.73 102.44"/><polygon class="cls-2" points="637.03 107.98 644.69 103.68 645.87 103.68 646.6 104.54 638.15 109.43 637.03 107.98"/><polygon class="cls-2" points="651.91 110.92 643.64 116.55 644.9 118.19 652.48 111.6 651.91 110.92"/><path class="cls-2" d="M646.6,120.41l10.59-2.22s1.93,1,1.67,1.11.92,1.11.92,1.11l-12,1.51Z"/><polygon class="cls-2" points="628.34 96.82 634.71 91.36 635.54 91.36 636.16 92.1 628.78 97.39 628.34 96.82"/><polygon class="cls-2" points="612.69 77.06 619.15 72.06 619.85 72.87 613.3 77.83 612.69 77.06"/><rect class="cls-4" x="484.2" y="117.64" width="214.43" height="139.17" rx="34.38" transform="translate(-6.54 22.07) rotate(-2.13)"/><rect class="cls-5" x="493.74" y="129" width="194.72" height="115.87" rx="34.38" transform="translate(-6.53 22.06) rotate(-2.13)"/><path d="M557.24,187.65a4.05,4.05,0,0,0-3.19,1.41,5.37,5.37,0,0,0-1,3.69,5.06,5.06,0,0,0,1.38,3.63,4.5,4.5,0,0,0,3.42,1.17,5.37,5.37,0,0,0,1.89-.37,12.61,12.61,0,0,0,1.47-.74,2.74,2.74,0,0,1,.77.89,2.94,2.94,0,0,1,.3,1.24,2.23,2.23,0,0,1-1.18,2,7.28,7.28,0,0,1-3.77.93,11.31,11.31,0,0,1-3.48-.4,7.75,7.75,0,0,1-2.89-1.5,7.59,7.59,0,0,1-2-2.67,10.23,10.23,0,0,1-.84-3.94,9.75,9.75,0,0,1,.53-3.81,7.94,7.94,0,0,1,1.74-2.82,7.71,7.71,0,0,1,2.66-1.81,9.84,9.84,0,0,1,3.33-.7,7.75,7.75,0,0,1,3.94.68,2.42,2.42,0,0,1,1.47,2.06,2.07,2.07,0,0,1-.31,1.25,3.13,3.13,0,0,1-.79.86,8.58,8.58,0,0,0-1.56-.74A4.89,4.89,0,0,0,557.24,187.65Z"/><path d="M567.48,200.66a2.37,2.37,0,0,1-2.64-2.46l-.53-14.2,1-.18a9.79,9.79,0,0,1,1.26-.15,6.41,6.41,0,0,1,1.12.06,1.87,1.87,0,0,1,.82.31,1.47,1.47,0,0,1,.52.67,3.42,3.42,0,0,1,.21,1.15l.4,10.84,6.29-.23a4.27,4.27,0,0,1,.39.8,3.32,3.32,0,0,1,.2,1,2.07,2.07,0,0,1-.41,1.56,1.65,1.65,0,0,1-1.22.5Z"/><path d="M577.05,191.86a9.94,9.94,0,0,1,.54-3.81,7.59,7.59,0,0,1,4.42-4.62,9.85,9.85,0,0,1,3.39-.7,9.66,9.66,0,0,1,3.44.45,8,8,0,0,1,2.83,1.58,7.81,7.81,0,0,1,2,2.69,9.91,9.91,0,0,1,.81,3.77,10.06,10.06,0,0,1-.51,3.82,7.67,7.67,0,0,1-1.73,2.84,7.85,7.85,0,0,1-2.69,1.8,10.33,10.33,0,0,1-3.44.7,9.85,9.85,0,0,1-3.48-.46,7.7,7.7,0,0,1-2.81-1.62,7.88,7.88,0,0,1-1.92-2.7A10.23,10.23,0,0,1,577.05,191.86Zm5-.18a5.75,5.75,0,0,0,1.15,3.69,3.36,3.36,0,0,0,2.77,1.14,3.4,3.4,0,0,0,2.7-1.34,7.39,7.39,0,0,0-.27-7.44,3.3,3.3,0,0,0-2.78-1.13,3.37,3.37,0,0,0-2.68,1.32A5.61,5.61,0,0,0,582,191.68Z"/><path d="M602,192.67c-.82-.25-1.56-.5-2.23-.76a6.88,6.88,0,0,1-1.74-1,4.49,4.49,0,0,1-1.17-1.4,4.87,4.87,0,0,1-.47-2,4.48,4.48,0,0,1,1.66-3.8,8.05,8.05,0,0,1,5-1.58,14.31,14.31,0,0,1,2.21.08,6.38,6.38,0,0,1,1.76.44,3,3,0,0,1,1.17.84,2,2,0,0,1,.46,1.23,2.26,2.26,0,0,1-.28,1.24,3.66,3.66,0,0,1-.77.89,6.36,6.36,0,0,0-1.64-.61,8.05,8.05,0,0,0-2.24-.21,3.72,3.72,0,0,0-1.8.41,1,1,0,0,0-.54.89.79.79,0,0,0,.38.66,3.59,3.59,0,0,0,1.09.44l1.47.41a10.63,10.63,0,0,1,4.05,2,4.47,4.47,0,0,1,1.51,3.42,4.57,4.57,0,0,1-1.7,3.84,8.62,8.62,0,0,1-5.35,1.65,12.81,12.81,0,0,1-2.36-.12,7.56,7.56,0,0,1-1.91-.54,3.34,3.34,0,0,1-1.3-.94,2.16,2.16,0,0,1-.51-1.34,2.06,2.06,0,0,1,.42-1.38,3.58,3.58,0,0,1,1-.9,7.5,7.5,0,0,0,1.92,1,6.53,6.53,0,0,0,2.45.35,3.25,3.25,0,0,0,1.88-.48,1.22,1.22,0,0,0,.51-1,.93.93,0,0,0-.47-.82,5.57,5.57,0,0,0-1.26-.52Z"/><path d="M612.09,184.81a2.58,2.58,0,0,1,.62-1.89,2.55,2.55,0,0,1,1.84-.75l9.06-.34a3.54,3.54,0,0,1,.38.78,4,4,0,0,1,.19,1,2,2,0,0,1-.4,1.5,1.63,1.63,0,0,1-1.18.48l-5.79.22.09,2.55,6.18-.23a3.69,3.69,0,0,1,.37.77,3.42,3.42,0,0,1,.19,1,2.06,2.06,0,0,1-.38,1.5,1.63,1.63,0,0,1-1.17.48l-5.05.19.11,2.88,7.05-.26a3.15,3.15,0,0,1,.38.78,3.91,3.91,0,0,1,.19,1,2.07,2.07,0,0,1-.4,1.51,1.59,1.59,0,0,1-1.18.5l-8,.3a2.37,2.37,0,0,1-2.64-2.46Z"/><path d="M634,198.55h-1.07c-.4,0-.82,0-1.25-.07s-.87-.09-1.3-.15a7.38,7.38,0,0,1-1.21-.3,2,2,0,0,1-1.58-1.95l-.48-12.82a1.21,1.21,0,0,1,.29-.91,2.18,2.18,0,0,1,.84-.54,12.31,12.31,0,0,1,2.48-.6c.88-.11,1.66-.18,2.36-.21a13.39,13.39,0,0,1,3.9.38,7.84,7.84,0,0,1,3,1.49,7.34,7.34,0,0,1,2,2.66,10,10,0,0,1,.83,3.88,10.25,10.25,0,0,1-.51,3.85,7.46,7.46,0,0,1-1.78,2.82,7.9,7.9,0,0,1-2.87,1.77A12.69,12.69,0,0,1,634,198.55Zm-1.68-4a6.44,6.44,0,0,0,.74.07,7.78,7.78,0,0,0,.83,0,4.85,4.85,0,0,0,1.7-.34,3.38,3.38,0,0,0,1.32-.9,3.85,3.85,0,0,0,.82-1.53,6.56,6.56,0,0,0,.23-2.22,5.34,5.34,0,0,0-1.29-3.68,4,4,0,0,0-3.12-1.13q-.39,0-.78.06c-.26,0-.53.06-.81.11Z"/><rect class="cls-7" x="489.36" y="223.35" width="214.43" height="33.24" rx="4.55" transform="translate(-8.49 22.3) rotate(-2.13)"/><path class="cls-1" d="M754.05,110.42S803.66-.67,816.21,7.09s91.24,103.33,91.24,103.33l-13.15.22s-68.06-89.52-75.71-89.81c-10.05-.38-7.71-14.53-54.52,89.81"/><polygon class="cls-2" points="761.08 95.14 769.23 99.17 769.63 98.29 761.27 94.75 761.08 95.14"/><path class="cls-2" d="M762.9,91.27c.74,0,8.82,2.41,8.82,2.41l.55-1.2-9.11-1.76Z"/><polygon class="cls-2" points="767.59 102.82 758.36 100.98 757.94 101.9 766.93 104.28 767.59 102.82"/><ellipse class="cls-9" cx="814.71" cy="7.39" rx="4.48" ry="3.88"/><polygon class="cls-2" points="755.52 107.18 765.36 107.78 764.73 109.18 754.91 108.52 755.52 107.18"/><polygon class="cls-2" points="765.9 84.98 775.98 84.35 775.12 86.21 765.36 86.12 765.9 84.98"/><polygon class="cls-2" points="777.66 80.68 769.63 77.28 770.15 76.21 778.06 79.8 777.66 80.68"/><polygon class="cls-2" points="781.56 72.23 774.98 66.49 775.7 65.06 782.02 71.24 781.56 72.23"/><polygon class="cls-2" points="777.57 61.39 785.36 64.12 784.77 65.37 777.11 62.27 777.57 61.39"/><path class="cls-2" d="M781.78,53.26c-.22-.18,8.21,1.19,8.21,1.19l-.48,1-8.15-1.37Z"/><path class="cls-2" d="M786,45.3c.3,0,8.48,0,8.48,0l-.58,1.15L785.67,46Z"/><path class="cls-2" d="M784.17,48.77c-.22.13,8.61,0,8.61,0l-.6,1.2-8.34-.6Z"/><polygon class="cls-2" points="790.59 37.13 798.88 36.93 798.28 38.06 790.1 38.01 790.59 37.13"/><path class="cls-2" d="M795,29.7c-.26.09,6.65,2.36,6.65,2.36l-.53.92L794,31.34Z"/><polygon class="cls-2" points="798.88 23.43 806.07 25.14 805.24 26.29 798.43 24.13 798.88 23.43"/><polygon class="cls-2" points="804.3 15.67 808.75 22.03 808.16 22.61 802.98 17.45 804.3 15.67"/><polygon class="cls-2" points="813.35 11.09 814.17 20.08 815.05 20.41 814.2 11.27 813.35 11.09"/><polygon class="cls-2" points="818.93 9.21 817.26 20.7 818.1 20.8 819.19 9.44 818.93 9.21"/><polygon class="cls-2" points="827.66 17.8 825.3 26 828.93 19.14 827.66 17.8"/><polygon class="cls-2" points="827.12 27.85 832.62 23.09 833.3 23.83 827.51 28.27 827.12 27.85"/><polygon class="cls-2" points="829.65 30.54 835.95 26.73 836.64 27.49 830.38 31.34 829.65 30.54"/><polygon class="cls-2" points="842.61 34.14 837.21 39.06 837.82 39.78 843.07 34.66 842.61 34.14"/><polygon class="cls-2" points="846.75 38.82 839.73 42.01 840.56 42.98 847.09 39.21 846.75 38.82"/><polygon class="cls-2" points="851.37 44.1 843.47 46.45 844.72 47.95 852.06 44.89 851.37 44.1"/><polygon class="cls-2" points="851.8 56.54 859.3 53.24 852.79 57.75 851.8 56.54"/><polygon class="cls-2" points="872.47 68.65 866.59 74.97 867.57 76.21 873.63 70.01 872.47 68.65"/><polygon class="cls-2" points="878.73 90.44 886.89 85.73 887.96 87.01 879.69 91.68 878.73 90.44"/><polygon class="cls-2" points="883.03 95.98 890.69 91.68 891.87 91.68 892.6 92.54 884.15 97.43 883.03 95.98"/><polygon class="cls-2" points="897.91 98.92 889.64 104.55 890.9 106.19 898.48 99.6 897.91 98.92"/><path class="cls-2" d="M892.6,108.41l10.59-2.22s1.93,1,1.67,1.11.92,1.11.92,1.11l-12,1.51Z"/><polygon class="cls-2" points="874.34 84.82 880.71 79.36 881.54 79.36 882.16 80.1 874.78 85.39 874.34 84.82"/><polygon class="cls-2" points="858.69 65.06 865.15 60.06 865.85 60.87 859.3 65.83 858.69 65.06"/><rect class="cls-4" x="730.2" y="105.64" width="214.43" height="139.17" rx="34.38" transform="translate(-5.92 31.19) rotate(-2.13)"/><rect class="cls-5" x="739.74" y="117" width="194.72" height="115.87" rx="34.38" transform="translate(-5.91 31.18) rotate(-2.13)"/><path d="M803.24,175.65a4.05,4.05,0,0,0-3.19,1.41,5.37,5.37,0,0,0-1,3.69,5.06,5.06,0,0,0,1.38,3.63,4.5,4.5,0,0,0,3.42,1.17,5.37,5.37,0,0,0,1.89-.37,12.61,12.61,0,0,0,1.47-.74,2.74,2.74,0,0,1,.77.89,2.94,2.94,0,0,1,.3,1.24,2.23,2.23,0,0,1-1.18,2,7.28,7.28,0,0,1-3.77.93,11.31,11.31,0,0,1-3.48-.4,7.75,7.75,0,0,1-2.89-1.5,7.59,7.59,0,0,1-2-2.67,10.23,10.23,0,0,1-.84-3.94,9.75,9.75,0,0,1,.53-3.81,7.94,7.94,0,0,1,1.74-2.82,7.71,7.71,0,0,1,2.66-1.81,9.84,9.84,0,0,1,3.33-.7,7.75,7.75,0,0,1,3.94.68,2.42,2.42,0,0,1,1.47,2.06,2.07,2.07,0,0,1-.31,1.25,3.13,3.13,0,0,1-.79.86,8.58,8.58,0,0,0-1.56-.74A4.89,4.89,0,0,0,803.24,175.65Z"/><path d="M813.48,188.66a2.37,2.37,0,0,1-2.64-2.46l-.53-14.2,1-.18a9.79,9.79,0,0,1,1.26-.15,6.41,6.41,0,0,1,1.12.06,1.87,1.87,0,0,1,.82.31,1.47,1.47,0,0,1,.52.67,3.42,3.42,0,0,1,.21,1.15l.4,10.84,6.29-.23a4.27,4.27,0,0,1,.39.8,3.32,3.32,0,0,1,.2,1,2.07,2.07,0,0,1-.41,1.56,1.65,1.65,0,0,1-1.22.5Z"/><path d="M823.05,179.86a9.94,9.94,0,0,1,.54-3.81,7.59,7.59,0,0,1,4.42-4.62,9.85,9.85,0,0,1,3.39-.7,9.66,9.66,0,0,1,3.44.45,8,8,0,0,1,2.83,1.58,7.81,7.81,0,0,1,2,2.69,9.91,9.91,0,0,1,.81,3.77,10.06,10.06,0,0,1-.51,3.82,7.67,7.67,0,0,1-1.73,2.84,7.85,7.85,0,0,1-2.69,1.8,10.33,10.33,0,0,1-3.44.7,9.85,9.85,0,0,1-3.48-.46,7.7,7.7,0,0,1-2.81-1.62,7.88,7.88,0,0,1-1.92-2.7A10.23,10.23,0,0,1,823.05,179.86Zm5-.18a5.75,5.75,0,0,0,1.15,3.69,3.36,3.36,0,0,0,2.77,1.14,3.4,3.4,0,0,0,2.7-1.34,7.39,7.39,0,0,0-.27-7.44,3.3,3.3,0,0,0-2.78-1.13,3.37,3.37,0,0,0-2.68,1.32A5.61,5.61,0,0,0,828,179.68Z"/><path d="M848,180.67c-.82-.25-1.56-.5-2.23-.76a6.88,6.88,0,0,1-1.74-1,4.49,4.49,0,0,1-1.17-1.4,4.87,4.87,0,0,1-.47-2,4.48,4.48,0,0,1,1.66-3.8,8.05,8.05,0,0,1,5-1.58,14.31,14.31,0,0,1,2.21.08,6.38,6.38,0,0,1,1.76.44,3,3,0,0,1,1.17.84,2,2,0,0,1,.46,1.23,2.26,2.26,0,0,1-.28,1.24,3.66,3.66,0,0,1-.77.89,6.36,6.36,0,0,0-1.64-.61,8.05,8.05,0,0,0-2.24-.21,3.72,3.72,0,0,0-1.8.41,1,1,0,0,0-.54.89.79.79,0,0,0,.38.66,3.59,3.59,0,0,0,1.09.44l1.47.41a10.63,10.63,0,0,1,4.05,2,4.47,4.47,0,0,1,1.51,3.42,4.57,4.57,0,0,1-1.7,3.84,8.62,8.62,0,0,1-5.35,1.65,12.81,12.81,0,0,1-2.36-.12,7.56,7.56,0,0,1-1.91-.54,3.34,3.34,0,0,1-1.3-.94,2.16,2.16,0,0,1-.51-1.34,2.06,2.06,0,0,1,.42-1.38,3.58,3.58,0,0,1,1-.9,7.5,7.5,0,0,0,1.92,1,6.53,6.53,0,0,0,2.45.35,3.25,3.25,0,0,0,1.88-.48,1.22,1.22,0,0,0,.51-1,.93.93,0,0,0-.47-.82,5.57,5.57,0,0,0-1.26-.52Z"/><path d="M858.09,172.81a2.58,2.58,0,0,1,.62-1.89,2.55,2.55,0,0,1,1.84-.75l9.06-.34a3.54,3.54,0,0,1,.38.78,4,4,0,0,1,.19,1,2,2,0,0,1-.4,1.5,1.63,1.63,0,0,1-1.18.48l-5.79.22.09,2.55,6.18-.23a3.69,3.69,0,0,1,.37.77,3.42,3.42,0,0,1,.19,1,2.06,2.06,0,0,1-.38,1.5,1.63,1.63,0,0,1-1.17.48l-5.05.19.11,2.88,7.05-.26a3.15,3.15,0,0,1,.38.78,3.91,3.91,0,0,1,.19,1,2.07,2.07,0,0,1-.4,1.51,1.59,1.59,0,0,1-1.18.5l-8,.3a2.37,2.37,0,0,1-2.64-2.46Z"/><path d="M880,186.55h-1.07c-.4,0-.82,0-1.25-.07s-.87-.09-1.3-.15a7.38,7.38,0,0,1-1.21-.3,2,2,0,0,1-1.58-1.95l-.48-12.82a1.21,1.21,0,0,1,.29-.91,2.18,2.18,0,0,1,.84-.54,12.31,12.31,0,0,1,2.48-.6c.88-.11,1.66-.18,2.36-.21a13.39,13.39,0,0,1,3.9.38,7.84,7.84,0,0,1,3,1.49,7.34,7.34,0,0,1,2,2.66,10,10,0,0,1,.83,3.88,10.25,10.25,0,0,1-.51,3.85,7.46,7.46,0,0,1-1.78,2.82,7.9,7.9,0,0,1-2.87,1.77A12.69,12.69,0,0,1,880,186.55Zm-1.68-4a6.44,6.44,0,0,0,.74.07,7.78,7.78,0,0,0,.83,0,4.85,4.85,0,0,0,1.7-.34,3.38,3.38,0,0,0,1.32-.9,3.85,3.85,0,0,0,.82-1.53,6.56,6.56,0,0,0,.23-2.22,5.34,5.34,0,0,0-1.29-3.68,4,4,0,0,0-3.12-1.13q-.39,0-.78.06c-.26,0-.53.06-.81.11Z"/><rect class="cls-7" x="731.24" y="189.12" width="215.4" height="55.19" rx="27.6" transform="translate(-7.46 31.28) rotate(-2.13)"/><path class="cls-1" d="M989.05,117.42s49.61-111.09,62.16-103.33,91.24,103.33,91.24,103.33l-13.15.22s-68.06-89.52-75.71-89.81c-10-.38-7.71-14.53-54.52,89.81"/><polygon class="cls-2" points="996.08 102.14 1004.23 106.17 1004.63 105.29 996.27 101.75 996.08 102.14"/><path class="cls-2" d="M997.9,98.27c.74,0,8.82,2.41,8.82,2.41l.55-1.2-9.11-1.76Z"/><polygon class="cls-2" points="1002.59 109.82 993.36 107.98 992.94 108.9 1001.93 111.28 1002.59 109.82"/><ellipse class="cls-10" cx="1049.71" cy="14.39" rx="4.48" ry="3.88"/><polygon class="cls-2" points="990.52 114.18 1000.36 114.78 999.73 116.18 989.91 115.52 990.52 114.18"/><polygon class="cls-2" points="1000.9 91.98 1010.98 91.35 1010.12 93.21 1000.36 93.12 1000.9 91.98"/><polygon class="cls-2" points="1012.66 87.68 1004.63 84.28 1005.15 83.21 1013.06 86.8 1012.66 87.68"/><polygon class="cls-2" points="1016.56 79.23 1009.98 73.49 1010.7 72.06 1017.02 78.24 1016.56 79.23"/><polygon class="cls-2" points="1012.57 68.39 1020.36 71.12 1019.77 72.37 1012.11 69.27 1012.57 68.39"/><path class="cls-2" d="M1016.78,60.26c-.22-.18,8.21,1.19,8.21,1.19l-.48,1-8.15-1.37Z"/><path class="cls-2" d="M1021,52.3c.3,0,8.48,0,8.48,0l-.58,1.15-8.27-.47Z"/><path class="cls-2" d="M1019.17,55.77c-.22.13,8.61,0,8.61,0l-.6,1.2-8.34-.6Z"/><polygon class="cls-2" points="1025.59 44.13 1033.88 43.93 1033.28 45.06 1025.1 45.01 1025.59 44.13"/><path class="cls-2" d="M1030,36.7c-.26.09,6.65,2.36,6.65,2.36l-.53.92L1029,38.34Z"/><polygon class="cls-2" points="1033.88 30.43 1041.07 32.14 1040.24 33.29 1033.43 31.13 1033.88 30.43"/><polygon class="cls-2" points="1039.3 22.67 1043.75 29.03 1043.16 29.61 1037.98 24.45 1039.3 22.67"/><polygon class="cls-2" points="1048.35 18.09 1049.17 27.08 1050.05 27.41 1049.2 18.27 1048.35 18.09"/><polygon class="cls-2" points="1053.93 16.21 1052.26 27.7 1053.1 27.8 1054.19 16.44 1053.93 16.21"/><polygon class="cls-2" points="1062.66 24.8 1060.3 33 1063.93 26.14 1062.66 24.8"/><polygon class="cls-2" points="1062.12 34.85 1067.62 30.09 1068.3 30.83 1062.51 35.27 1062.12 34.85"/><polygon class="cls-2" points="1064.65 37.54 1070.95 33.73 1071.64 34.49 1065.38 38.34 1064.65 37.54"/><polygon class="cls-2" points="1077.61 41.14 1072.2 46.06 1072.82 46.78 1078.07 41.66 1077.61 41.14"/><polygon class="cls-2" points="1081.75 45.82 1074.73 49.01 1075.56 49.98 1082.09 46.21 1081.75 45.82"/><polygon class="cls-2" points="1086.37 51.1 1078.47 53.45 1079.72 54.95 1087.06 51.89 1086.37 51.1"/><polygon class="cls-2" points="1086.8 63.54 1094.3 60.24 1087.79 64.75 1086.8 63.54"/><polygon class="cls-2" points="1107.47 75.65 1101.59 81.97 1102.57 83.21 1108.63 77.01 1107.47 75.65"/><polygon class="cls-2" points="1113.73 97.44 1121.89 92.73 1122.96 94.01 1114.69 98.68 1113.73 97.44"/><polygon class="cls-2" points="1118.03 102.98 1125.69 98.68 1126.87 98.68 1127.6 99.54 1119.15 104.43 1118.03 102.98"/><polygon class="cls-2" points="1132.91 105.92 1124.64 111.55 1125.9 113.19 1133.48 106.6 1132.91 105.92"/><path class="cls-2" d="M1127.6,115.41l10.59-2.22s1.93,1,1.67,1.11.92,1.11.92,1.11l-12,1.51Z"/><polygon class="cls-2" points="1109.34 91.82 1115.71 86.36 1116.54 86.36 1117.16 87.1 1109.78 92.39 1109.34 91.82"/><polygon class="cls-2" points="1093.69 72.06 1100.15 67.06 1100.85 67.87 1094.3 72.83 1093.69 72.06"/><rect class="cls-4" x="965.2" y="112.64" width="214.43" height="139.17" rx="34.38" transform="translate(-6.02 39.91) rotate(-2.13)"/><rect class="cls-5" x="974.74" y="124" width="194.72" height="115.87" rx="34.38" transform="translate(-6.01 39.9) rotate(-2.13)"/><path d="M1038.24,182.65a4.05,4.05,0,0,0-3.19,1.41,5.37,5.37,0,0,0-1,3.69,5.06,5.06,0,0,0,1.38,3.63,4.5,4.5,0,0,0,3.42,1.17,5.37,5.37,0,0,0,1.89-.37,12.61,12.61,0,0,0,1.47-.74,2.74,2.74,0,0,1,.77.89,2.94,2.94,0,0,1,.3,1.24,2.23,2.23,0,0,1-1.18,2,7.28,7.28,0,0,1-3.77.93,11.31,11.31,0,0,1-3.48-.4,7.75,7.75,0,0,1-2.89-1.5,7.59,7.59,0,0,1-2-2.67,10.23,10.23,0,0,1-.84-3.94,9.75,9.75,0,0,1,.53-3.81,7.94,7.94,0,0,1,1.74-2.82,7.71,7.71,0,0,1,2.66-1.81,9.84,9.84,0,0,1,3.33-.7,7.75,7.75,0,0,1,3.94.68,2.42,2.42,0,0,1,1.47,2.06,2.07,2.07,0,0,1-.31,1.25,3.13,3.13,0,0,1-.79.86,8.58,8.58,0,0,0-1.56-.74A4.89,4.89,0,0,0,1038.24,182.65Z"/><path d="M1048.48,195.66a2.37,2.37,0,0,1-2.64-2.46l-.53-14.2,1-.18a9.79,9.79,0,0,1,1.26-.15,6.41,6.41,0,0,1,1.12.06,1.87,1.87,0,0,1,.82.31,1.47,1.47,0,0,1,.52.67,3.42,3.42,0,0,1,.21,1.15l.4,10.84,6.29-.23a4.27,4.27,0,0,1,.39.8,3.32,3.32,0,0,1,.2,1,2.07,2.07,0,0,1-.41,1.56,1.65,1.65,0,0,1-1.22.5Z"/><path d="M1058.05,186.86a9.94,9.94,0,0,1,.54-3.81,7.59,7.59,0,0,1,4.42-4.62,9.85,9.85,0,0,1,3.39-.7,9.66,9.66,0,0,1,3.44.45,8,8,0,0,1,2.83,1.58,7.81,7.81,0,0,1,1.95,2.69,9.91,9.91,0,0,1,.81,3.77,10.06,10.06,0,0,1-.51,3.82,7.67,7.67,0,0,1-1.73,2.84,7.85,7.85,0,0,1-2.69,1.8,10.33,10.33,0,0,1-3.44.7,9.85,9.85,0,0,1-3.48-.46,7.7,7.7,0,0,1-2.81-1.62,7.88,7.88,0,0,1-1.92-2.7A10.23,10.23,0,0,1,1058.05,186.86Zm5-.18a5.75,5.75,0,0,0,1.15,3.69,3.36,3.36,0,0,0,2.77,1.14,3.4,3.4,0,0,0,2.7-1.34,7.39,7.39,0,0,0-.27-7.44,3.3,3.3,0,0,0-2.78-1.13,3.37,3.37,0,0,0-2.68,1.32A5.61,5.61,0,0,0,1063,186.68Z"/><path d="M1083,187.67c-.82-.25-1.56-.5-2.23-.76a6.88,6.88,0,0,1-1.74-1,4.49,4.49,0,0,1-1.17-1.4,4.87,4.87,0,0,1-.47-2,4.48,4.48,0,0,1,1.66-3.8,8.05,8.05,0,0,1,5-1.58,14.31,14.31,0,0,1,2.21.08,6.38,6.38,0,0,1,1.76.44,3,3,0,0,1,1.17.84,2,2,0,0,1,.46,1.23,2.26,2.26,0,0,1-.28,1.24,3.66,3.66,0,0,1-.77.89,6.36,6.36,0,0,0-1.64-.61,8.05,8.05,0,0,0-2.24-.21,3.72,3.72,0,0,0-1.8.41,1,1,0,0,0-.54.89.79.79,0,0,0,.38.66,3.59,3.59,0,0,0,1.09.44l1.47.41a10.63,10.63,0,0,1,4,2,4.47,4.47,0,0,1,1.51,3.42,4.57,4.57,0,0,1-1.7,3.84,8.62,8.62,0,0,1-5.35,1.65,12.81,12.81,0,0,1-2.36-.12,7.56,7.56,0,0,1-1.91-.54,3.34,3.34,0,0,1-1.3-.94,2.16,2.16,0,0,1-.51-1.34,2.06,2.06,0,0,1,.42-1.38,3.58,3.58,0,0,1,1-.9,7.5,7.5,0,0,0,1.92,1,6.53,6.53,0,0,0,2.45.35,3.25,3.25,0,0,0,1.88-.48,1.22,1.22,0,0,0,.51-1,.93.93,0,0,0-.47-.82,5.57,5.57,0,0,0-1.26-.52Z"/><path d="M1093.09,179.81a2.58,2.58,0,0,1,.62-1.89,2.55,2.55,0,0,1,1.84-.75l9.06-.34a3.54,3.54,0,0,1,.38.78,4,4,0,0,1,.19,1,2,2,0,0,1-.4,1.5,1.63,1.63,0,0,1-1.18.48l-5.79.22.09,2.55,6.18-.23a3.69,3.69,0,0,1,.37.77,3.42,3.42,0,0,1,.19,1,2.06,2.06,0,0,1-.38,1.5,1.63,1.63,0,0,1-1.17.48l-5,.19.11,2.88,7-.26a3.15,3.15,0,0,1,.38.78,3.91,3.91,0,0,1,.19,1,2.07,2.07,0,0,1-.4,1.51,1.59,1.59,0,0,1-1.18.5l-8,.3a2.37,2.37,0,0,1-2.64-2.46Z"/><path d="M1115,193.55h-1.07c-.4,0-.82,0-1.25-.07s-.87-.09-1.3-.15a7.38,7.38,0,0,1-1.21-.3,2,2,0,0,1-1.58-1.95l-.48-12.82a1.21,1.21,0,0,1,.29-.91,2.18,2.18,0,0,1,.84-.54,12.31,12.31,0,0,1,2.48-.6c.88-.11,1.66-.18,2.36-.21a13.39,13.39,0,0,1,3.9.38,7.84,7.84,0,0,1,3,1.49,7.34,7.34,0,0,1,2,2.66,10,10,0,0,1,.83,3.88,10.25,10.25,0,0,1-.51,3.85,7.46,7.46,0,0,1-1.78,2.82,7.9,7.9,0,0,1-2.87,1.77A12.69,12.69,0,0,1,1115,193.55Zm-1.68-4a6.44,6.44,0,0,0,.74.07,7.78,7.78,0,0,0,.83,0,4.85,4.85,0,0,0,1.7-.34,3.38,3.38,0,0,0,1.32-.9,3.85,3.85,0,0,0,.82-1.53,6.56,6.56,0,0,0,.23-2.22,5.34,5.34,0,0,0-1.29-3.68,4,4,0,0,0-3.12-1.13q-.39,0-.78.06c-.26,0-.53.06-.81.11Z"/><path class="cls-7" d="M983,175.32H1162.2a18.56,18.56,0,0,1,18.56,18.56v28A28.81,28.81,0,0,1,1152,250.71H995.46a28.81,28.81,0,0,1-28.81-28.81V191.65A16.33,16.33,0,0,1,983,175.32Z" transform="translate(-7.16 39.98) rotate(-2.13)"/><path class="cls-1" d="M1220.05,114.42s49.61-111.09,62.16-103.33,91.24,103.33,91.24,103.33l-13.15.22s-68.06-89.52-75.71-89.81c-10-.38-7.71-14.53-54.52,89.81"/><polygon class="cls-2" points="1227.08 99.14 1235.23 103.17 1235.63 102.29 1227.27 98.75 1227.08 99.14"/><path class="cls-2" d="M1228.9,95.27c.74,0,8.82,2.41,8.82,2.41l.55-1.2-9.11-1.76Z"/><polygon class="cls-2" points="1233.59 106.82 1224.36 104.98 1223.94 105.9 1232.93 108.28 1233.59 106.82"/><ellipse class="cls-11" cx="1280.71" cy="11.39" rx="4.48" ry="3.88"/><polygon class="cls-2" points="1221.52 111.18 1231.36 111.78 1230.73 113.18 1220.91 112.52 1221.52 111.18"/><polygon class="cls-2" points="1231.9 88.98 1241.97 88.35 1241.12 90.21 1231.36 90.12 1231.9 88.98"/><polygon class="cls-2" points="1243.66 84.68 1235.63 81.28 1236.15 80.21 1244.06 83.8 1243.66 84.68"/><polygon class="cls-2" points="1247.56 76.23 1240.98 70.49 1241.7 69.06 1248.03 75.24 1247.56 76.23"/><polygon class="cls-2" points="1243.57 65.39 1251.36 68.12 1250.78 69.37 1243.11 66.27 1243.57 65.39"/><path class="cls-2" d="M1247.78,57.26c-.22-.18,8.21,1.19,8.21,1.19l-.48,1-8.15-1.37Z"/><path class="cls-2" d="M1252,49.3c.3,0,8.48,0,8.48,0l-.58,1.15-8.27-.47Z"/><path class="cls-2" d="M1250.17,52.77c-.22.13,8.61,0,8.61,0l-.6,1.2-8.34-.6Z"/><polygon class="cls-2" points="1256.59 41.13 1264.88 40.93 1264.28 42.06 1256.1 42.01 1256.59 41.13"/><path class="cls-2" d="M1261,33.7c-.26.09,6.65,2.36,6.65,2.36l-.53.92L1260,35.34Z"/><polygon class="cls-2" points="1264.88 27.43 1272.07 29.14 1271.24 30.29 1264.43 28.13 1264.88 27.43"/><polygon class="cls-2" points="1270.3 19.67 1274.75 26.03 1274.16 26.61 1268.98 21.45 1270.3 19.67"/><polygon class="cls-2" points="1279.35 15.09 1280.17 24.08 1281.05 24.41 1280.2 15.27 1279.35 15.09"/><polygon class="cls-2" points="1284.93 13.21 1283.26 24.7 1284.1 24.8 1285.19 13.44 1284.93 13.21"/><polygon class="cls-2" points="1293.66 21.8 1291.3 30 1294.93 23.14 1293.66 21.8"/><polygon class="cls-2" points="1293.12 31.85 1298.62 27.09 1299.3 27.83 1293.51 32.27 1293.12 31.85"/><polygon class="cls-2" points="1295.65 34.54 1301.95 30.73 1302.64 31.49 1296.38 35.34 1295.65 34.54"/><polygon class="cls-2" points="1308.61 38.14 1303.2 43.06 1303.82 43.78 1309.07 38.66 1308.61 38.14"/><polygon class="cls-2" points="1312.75 42.82 1305.73 46.01 1306.56 46.98 1313.09 43.21 1312.75 42.82"/><polygon class="cls-2" points="1317.37 48.1 1309.47 50.45 1310.72 51.95 1318.06 48.89 1317.37 48.1"/><polygon class="cls-2" points="1317.8 60.54 1325.3 57.24 1318.79 61.75 1317.8 60.54"/><polygon class="cls-2" points="1338.47 72.65 1332.59 78.97 1333.57 80.21 1339.63 74.01 1338.47 72.65"/><polygon class="cls-2" points="1344.73 94.44 1352.89 89.73 1353.96 91.01 1345.69 95.68 1344.73 94.44"/><polygon class="cls-2" points="1349.03 99.98 1356.69 95.68 1357.87 95.68 1358.6 96.54 1350.15 101.43 1349.03 99.98"/><polygon class="cls-2" points="1363.91 102.92 1355.64 108.55 1356.9 110.19 1364.48 103.6 1363.91 102.92"/><path class="cls-2" d="M1358.6,112.41l10.59-2.22s1.93,1,1.67,1.11.92,1.11.92,1.11l-12,1.51Z"/><polygon class="cls-2" points="1340.34 88.82 1346.71 83.36 1347.54 83.36 1348.16 84.1 1340.78 89.39 1340.34 88.82"/><polygon class="cls-2" points="1324.69 69.06 1331.15 64.06 1331.85 64.87 1325.3 69.83 1324.69 69.06"/><rect class="cls-4" x="1196.2" y="109.64" width="214.43" height="139.17" rx="34.38" transform="translate(-5.75 48.48) rotate(-2.13)"/><rect class="cls-5" x="1205.74" y="121" width="194.72" height="115.87" rx="34.38" transform="translate(-5.74 48.47) rotate(-2.13)"/><path d="M1269.24,179.65a4.05,4.05,0,0,0-3.19,1.41,5.37,5.37,0,0,0-1,3.69,5.06,5.06,0,0,0,1.38,3.63,4.5,4.5,0,0,0,3.42,1.17,5.37,5.37,0,0,0,1.89-.37,12.61,12.61,0,0,0,1.47-.74,2.74,2.74,0,0,1,.77.89,2.94,2.94,0,0,1,.3,1.24,2.23,2.23,0,0,1-1.18,2,7.28,7.28,0,0,1-3.77.93,11.31,11.31,0,0,1-3.48-.4,7.75,7.75,0,0,1-2.89-1.5,7.59,7.59,0,0,1-2-2.67,10.23,10.23,0,0,1-.84-3.94,9.75,9.75,0,0,1,.53-3.81,7.94,7.94,0,0,1,1.74-2.82,7.71,7.71,0,0,1,2.66-1.81,9.84,9.84,0,0,1,3.33-.7,7.75,7.75,0,0,1,3.94.68,2.42,2.42,0,0,1,1.47,2.06,2.07,2.07,0,0,1-.31,1.25,3.13,3.13,0,0,1-.79.86,8.58,8.58,0,0,0-1.56-.74A4.89,4.89,0,0,0,1269.24,179.65Z"/><path d="M1279.48,192.66a2.37,2.37,0,0,1-2.64-2.46l-.53-14.2,1-.18a9.79,9.79,0,0,1,1.26-.15,6.41,6.41,0,0,1,1.12.06,1.87,1.87,0,0,1,.82.31,1.47,1.47,0,0,1,.52.67,3.42,3.42,0,0,1,.21,1.15l.4,10.84,6.29-.23a4.27,4.27,0,0,1,.39.8,3.32,3.32,0,0,1,.2,1,2.07,2.07,0,0,1-.41,1.56,1.65,1.65,0,0,1-1.22.5Z"/><path d="M1289.05,183.86a9.94,9.94,0,0,1,.54-3.81,7.59,7.59,0,0,1,4.42-4.62,9.85,9.85,0,0,1,3.39-.7,9.66,9.66,0,0,1,3.44.45,8,8,0,0,1,2.83,1.58,7.81,7.81,0,0,1,1.95,2.69,9.91,9.91,0,0,1,.81,3.77,10.06,10.06,0,0,1-.51,3.82,7.67,7.67,0,0,1-1.73,2.84,7.85,7.85,0,0,1-2.69,1.8,10.33,10.33,0,0,1-3.44.7,9.85,9.85,0,0,1-3.48-.46,7.7,7.7,0,0,1-2.81-1.62,7.88,7.88,0,0,1-1.92-2.7A10.23,10.23,0,0,1,1289.05,183.86Zm5-.18a5.75,5.75,0,0,0,1.15,3.69,3.36,3.36,0,0,0,2.77,1.14,3.4,3.4,0,0,0,2.7-1.34,7.39,7.39,0,0,0-.27-7.44,3.3,3.3,0,0,0-2.78-1.13,3.37,3.37,0,0,0-2.68,1.32A5.61,5.61,0,0,0,1294,183.68Z"/><path d="M1314,184.67c-.82-.25-1.56-.5-2.23-.76a6.88,6.88,0,0,1-1.74-1,4.49,4.49,0,0,1-1.17-1.4,4.87,4.87,0,0,1-.47-2,4.48,4.48,0,0,1,1.66-3.8,8.05,8.05,0,0,1,5-1.58,14.31,14.31,0,0,1,2.21.08,6.38,6.38,0,0,1,1.76.44,3,3,0,0,1,1.17.84,2,2,0,0,1,.46,1.23,2.26,2.26,0,0,1-.28,1.24,3.66,3.66,0,0,1-.77.89,6.36,6.36,0,0,0-1.64-.61,8.05,8.05,0,0,0-2.24-.21,3.72,3.72,0,0,0-1.8.41,1,1,0,0,0-.54.89.79.79,0,0,0,.38.66,3.59,3.59,0,0,0,1.09.44l1.47.41a10.63,10.63,0,0,1,4,2,4.47,4.47,0,0,1,1.51,3.42,4.57,4.57,0,0,1-1.7,3.84,8.62,8.62,0,0,1-5.35,1.65,12.81,12.81,0,0,1-2.36-.12,7.56,7.56,0,0,1-1.91-.54,3.34,3.34,0,0,1-1.3-.94,2.16,2.16,0,0,1-.51-1.34,2.06,2.06,0,0,1,.42-1.38,3.58,3.58,0,0,1,1-.9,7.5,7.5,0,0,0,1.92,1,6.53,6.53,0,0,0,2.45.35,3.25,3.25,0,0,0,1.88-.48,1.22,1.22,0,0,0,.51-1,.93.93,0,0,0-.47-.82,5.57,5.57,0,0,0-1.26-.52Z"/><path d="M1324.09,176.81a2.58,2.58,0,0,1,.62-1.89,2.55,2.55,0,0,1,1.84-.75l9.06-.34a3.54,3.54,0,0,1,.38.78,4,4,0,0,1,.19,1,2,2,0,0,1-.4,1.5,1.63,1.63,0,0,1-1.18.48l-5.79.22.09,2.55,6.18-.23a3.69,3.69,0,0,1,.37.77,3.42,3.42,0,0,1,.19,1,2.06,2.06,0,0,1-.38,1.5,1.63,1.63,0,0,1-1.17.48l-5,.19.11,2.88,7-.26a3.15,3.15,0,0,1,.38.78,3.91,3.91,0,0,1,.19,1,2.07,2.07,0,0,1-.4,1.51,1.59,1.59,0,0,1-1.18.5l-8,.3a2.37,2.37,0,0,1-2.64-2.46Z"/><path d="M1346,190.55h-1.07c-.4,0-.82,0-1.25-.07s-.87-.09-1.3-.15a7.38,7.38,0,0,1-1.21-.3,2,2,0,0,1-1.58-1.95l-.48-12.82a1.21,1.21,0,0,1,.29-.91,2.18,2.18,0,0,1,.84-.54,12.31,12.31,0,0,1,2.48-.6c.88-.11,1.66-.18,2.36-.21a13.39,13.39,0,0,1,3.9.38,7.84,7.84,0,0,1,3,1.49,7.34,7.34,0,0,1,2,2.66,10,10,0,0,1,.83,3.88,10.25,10.25,0,0,1-.51,3.85,7.46,7.46,0,0,1-1.78,2.82,7.9,7.9,0,0,1-2.87,1.77A12.69,12.69,0,0,1,1346,190.55Zm-1.68-4a6.44,6.44,0,0,0,.74.07,7.78,7.78,0,0,0,.83,0,4.85,4.85,0,0,0,1.7-.34,3.38,3.38,0,0,0,1.32-.9,3.85,3.85,0,0,0,.82-1.53,6.56,6.56,0,0,0,.23-2.22,5.34,5.34,0,0,0-1.29-3.68,4,4,0,0,0-3.12-1.13q-.39,0-.78.06c-.26,0-.53.06-.81.11Z"/><path class="cls-7" d="M1217.72,150.27h170.71a23.28,23.28,0,0,1,23.28,23.28v37a37.87,37.87,0,0,1-37.87,37.87h-139.3a37.87,37.87,0,0,1-37.87-37.87V171.32a21.05,21.05,0,0,1,21.05-21.05Z" transform="translate(-6.5 48.52) rotate(-2.13)"/><path class="cls-1" d="M1455.05,121.42s49.61-111.09,62.16-103.33,91.24,103.33,91.24,103.33l-13.15.22s-68.06-89.52-75.71-89.81c-10-.38-7.71-14.53-54.52,89.81"/><polygon class="cls-2" points="1462.08 106.14 1470.23 110.17 1470.63 109.29 1462.27 105.75 1462.08 106.14"/><path class="cls-2" d="M1463.9,102.27c.74,0,8.82,2.41,8.82,2.41l.55-1.2-9.11-1.76Z"/><polygon class="cls-2" points="1468.59 113.82 1459.36 111.98 1458.94 112.9 1467.93 115.28 1468.59 113.82"/><ellipse class="cls-12" cx="1515.71" cy="18.39" rx="4.48" ry="3.88"/><polygon class="cls-2" points="1456.52 118.18 1466.36 118.78 1465.73 120.18 1455.91 119.52 1456.52 118.18"/><polygon class="cls-2" points="1466.9 95.98 1476.97 95.35 1476.12 97.21 1466.36 97.12 1466.9 95.98"/><polygon class="cls-2" points="1478.66 91.68 1470.63 88.28 1471.15 87.21 1479.06 90.8 1478.66 91.68"/><polygon class="cls-2" points="1482.56 83.23 1475.98 77.49 1476.7 76.06 1483.03 82.24 1482.56 83.23"/><polygon class="cls-2" points="1478.57 72.39 1486.36 75.12 1485.78 76.37 1478.11 73.27 1478.57 72.39"/><path class="cls-2" d="M1482.78,64.26c-.22-.18,8.21,1.19,8.21,1.19l-.48,1-8.15-1.37Z"/><path class="cls-2" d="M1487,56.3c.3,0,8.48,0,8.48,0l-.58,1.15-8.27-.47Z"/><path class="cls-2" d="M1485.17,59.77c-.22.13,8.61,0,8.61,0l-.6,1.2-8.34-.6Z"/><polygon class="cls-2" points="1491.59 48.13 1499.88 47.93 1499.28 49.06 1491.1 49.01 1491.59 48.13"/><path class="cls-2" d="M1496,40.7c-.26.09,6.65,2.36,6.65,2.36l-.53.92L1495,42.34Z"/><polygon class="cls-2" points="1499.88 34.43 1507.07 36.14 1506.24 37.29 1499.43 35.13 1499.88 34.43"/><polygon class="cls-2" points="1505.3 26.67 1509.75 33.03 1509.16 33.61 1503.98 28.45 1505.3 26.67"/><polygon class="cls-2" points="1514.35 22.09 1515.17 31.08 1516.05 31.41 1515.2 22.27 1514.35 22.09"/><polygon class="cls-2" points="1519.93 20.21 1518.26 31.7 1519.1 31.8 1520.19 20.44 1519.93 20.21"/><polygon class="cls-2" points="1528.66 28.8 1526.3 37 1529.93 30.14 1528.66 28.8"/><polygon class="cls-2" points="1528.12 38.85 1533.62 34.09 1534.3 34.83 1528.51 39.27 1528.12 38.85"/><polygon class="cls-2" points="1530.65 41.54 1536.95 37.73 1537.64 38.49 1531.38 42.34 1530.65 41.54"/><polygon class="cls-2" points="1543.61 45.14 1538.2 50.06 1538.82 50.78 1544.07 45.66 1543.61 45.14"/><polygon class="cls-2" points="1547.75 49.82 1540.73 53.01 1541.56 53.98 1548.09 50.21 1547.75 49.82"/><polygon class="cls-2" points="1552.37 55.1 1544.47 57.45 1545.72 58.95 1553.06 55.89 1552.37 55.1"/><polygon class="cls-2" points="1552.8 67.54 1560.3 64.24 1553.79 68.75 1552.8 67.54"/><polygon class="cls-2" points="1573.47 79.65 1567.59 85.97 1568.57 87.21 1574.63 81.01 1573.47 79.65"/><polygon class="cls-2" points="1579.73 101.44 1587.89 96.73 1588.96 98.01 1580.69 102.68 1579.73 101.44"/><polygon class="cls-2" points="1584.03 106.98 1591.69 102.68 1592.87 102.68 1593.6 103.54 1585.15 108.43 1584.03 106.98"/><polygon class="cls-2" points="1598.91 109.92 1590.64 115.55 1591.9 117.19 1599.48 110.6 1598.91 109.92"/><path class="cls-2" d="M1593.6,119.41l10.59-2.22s1.93,1,1.67,1.11.92,1.11.92,1.11l-12,1.51Z"/><polygon class="cls-2" points="1575.34 95.82 1581.71 90.36 1582.54 90.36 1583.16 91.1 1575.78 96.39 1575.34 95.82"/><polygon class="cls-2" points="1559.69 76.06 1566.15 71.06 1566.85 71.87 1560.3 76.83 1559.69 76.06"/><rect class="cls-4" x="1431.2" y="116.64" width="214.43" height="139.17" rx="34.38" transform="translate(-5.85 57.21) rotate(-2.13)"/><rect class="cls-5" x="1440.74" y="128" width="194.72" height="115.87" rx="34.38" transform="translate(-5.84 57.19) rotate(-2.13)"/><path d="M1504.24,186.65a4.05,4.05,0,0,0-3.19,1.41,5.37,5.37,0,0,0-1,3.69,5.06,5.06,0,0,0,1.38,3.63,4.5,4.5,0,0,0,3.42,1.17,5.37,5.37,0,0,0,1.89-.37,12.61,12.61,0,0,0,1.47-.74,2.74,2.74,0,0,1,.77.89,2.94,2.94,0,0,1,.3,1.24,2.23,2.23,0,0,1-1.18,2,7.28,7.28,0,0,1-3.77.93,11.31,11.31,0,0,1-3.48-.4,7.75,7.75,0,0,1-2.89-1.5,7.59,7.59,0,0,1-2-2.67,10.23,10.23,0,0,1-.84-3.94,9.75,9.75,0,0,1,.53-3.81,7.94,7.94,0,0,1,1.74-2.82,7.71,7.71,0,0,1,2.66-1.81,9.84,9.84,0,0,1,3.33-.7,7.75,7.75,0,0,1,3.94.68,2.42,2.42,0,0,1,1.47,2.06,2.07,2.07,0,0,1-.31,1.25,3.13,3.13,0,0,1-.79.86,8.58,8.58,0,0,0-1.56-.74A4.89,4.89,0,0,0,1504.24,186.65Z"/><path d="M1514.48,199.66a2.37,2.37,0,0,1-2.64-2.46l-.53-14.2,1-.18a9.79,9.79,0,0,1,1.26-.15,6.41,6.41,0,0,1,1.12.06,1.87,1.87,0,0,1,.82.31,1.47,1.47,0,0,1,.52.67,3.42,3.42,0,0,1,.21,1.15l.4,10.84,6.29-.23a4.27,4.27,0,0,1,.39.8,3.32,3.32,0,0,1,.2,1,2.07,2.07,0,0,1-.41,1.56,1.65,1.65,0,0,1-1.22.5Z"/><path d="M1524.05,190.86a9.94,9.94,0,0,1,.54-3.81,7.59,7.59,0,0,1,4.42-4.62,9.85,9.85,0,0,1,3.39-.7,9.66,9.66,0,0,1,3.44.45,8,8,0,0,1,2.83,1.58,7.81,7.81,0,0,1,1.95,2.69,9.91,9.91,0,0,1,.81,3.77,10.06,10.06,0,0,1-.51,3.82,7.67,7.67,0,0,1-1.73,2.84,7.85,7.85,0,0,1-2.69,1.8,10.33,10.33,0,0,1-3.44.7,9.85,9.85,0,0,1-3.48-.46,7.7,7.7,0,0,1-2.81-1.62,7.88,7.88,0,0,1-1.92-2.7A10.23,10.23,0,0,1,1524.05,190.86Zm5-.18a5.75,5.75,0,0,0,1.15,3.69,3.36,3.36,0,0,0,2.77,1.14,3.4,3.4,0,0,0,2.7-1.34,7.39,7.39,0,0,0-.27-7.44,3.3,3.3,0,0,0-2.78-1.13,3.37,3.37,0,0,0-2.68,1.32A5.61,5.61,0,0,0,1529,190.68Z"/><path d="M1549,191.67c-.82-.25-1.56-.5-2.23-.76a6.88,6.88,0,0,1-1.74-1,4.49,4.49,0,0,1-1.17-1.4,4.87,4.87,0,0,1-.47-2,4.48,4.48,0,0,1,1.66-3.8,8.05,8.05,0,0,1,5-1.58,14.31,14.31,0,0,1,2.21.08,6.38,6.38,0,0,1,1.76.44,3,3,0,0,1,1.17.84,2,2,0,0,1,.46,1.23,2.26,2.26,0,0,1-.28,1.24,3.66,3.66,0,0,1-.77.89,6.36,6.36,0,0,0-1.64-.61,8.05,8.05,0,0,0-2.24-.21,3.72,3.72,0,0,0-1.8.41,1,1,0,0,0-.54.89.79.79,0,0,0,.38.66,3.59,3.59,0,0,0,1.09.44l1.47.41a10.63,10.63,0,0,1,4,2,4.47,4.47,0,0,1,1.51,3.42,4.57,4.57,0,0,1-1.7,3.84,8.62,8.62,0,0,1-5.35,1.65,12.81,12.81,0,0,1-2.36-.12,7.56,7.56,0,0,1-1.91-.54,3.34,3.34,0,0,1-1.3-.94,2.16,2.16,0,0,1-.51-1.34,2.06,2.06,0,0,1,.42-1.38,3.58,3.58,0,0,1,1-.9,7.5,7.5,0,0,0,1.92,1,6.53,6.53,0,0,0,2.45.35,3.25,3.25,0,0,0,1.88-.48,1.22,1.22,0,0,0,.51-1,.93.93,0,0,0-.47-.82,5.57,5.57,0,0,0-1.26-.52Z"/><path d="M1559.09,183.81a2.58,2.58,0,0,1,.62-1.89,2.55,2.55,0,0,1,1.84-.75l9.06-.34a3.54,3.54,0,0,1,.38.78,4,4,0,0,1,.19,1,2,2,0,0,1-.4,1.5,1.63,1.63,0,0,1-1.18.48l-5.79.22.09,2.55,6.18-.23a3.69,3.69,0,0,1,.37.77,3.42,3.42,0,0,1,.19,1,2.06,2.06,0,0,1-.38,1.5,1.63,1.63,0,0,1-1.17.48l-5,.19.11,2.88,7-.26a3.15,3.15,0,0,1,.38.78,3.91,3.91,0,0,1,.19,1,2.07,2.07,0,0,1-.4,1.51,1.59,1.59,0,0,1-1.18.5l-8,.3a2.37,2.37,0,0,1-2.64-2.46Z"/><path d="M1581,197.55h-1.07c-.4,0-.82,0-1.25-.07s-.87-.09-1.3-.15a7.38,7.38,0,0,1-1.21-.3,2,2,0,0,1-1.58-1.95l-.48-12.82a1.21,1.21,0,0,1,.29-.91,2.18,2.18,0,0,1,.84-.54,12.31,12.31,0,0,1,2.48-.6c.88-.11,1.66-.18,2.36-.21a13.39,13.39,0,0,1,3.9.38,7.84,7.84,0,0,1,3,1.49,7.34,7.34,0,0,1,2,2.66,10,10,0,0,1,.83,3.88,10.25,10.25,0,0,1-.51,3.85,7.46,7.46,0,0,1-1.78,2.82,7.9,7.9,0,0,1-2.87,1.77A12.69,12.69,0,0,1,1581,197.55Zm-1.68-4a6.44,6.44,0,0,0,.74.07,7.78,7.78,0,0,0,.83,0,4.85,4.85,0,0,0,1.7-.34,3.38,3.38,0,0,0,1.32-.9,3.85,3.85,0,0,0,.82-1.53,6.56,6.56,0,0,0,.23-2.22,5.34,5.34,0,0,0-1.29-3.68,4,4,0,0,0-3.12-1.13q-.39,0-.78.06c-.26,0-.53.06-.81.11Z"/><rect class="cls-7" x="1431.69" y="140.33" width="214.43" height="117.55" rx="36.78" transform="translate(-6.33 57.23) rotate(-2.13)"/><path class="cls-1" d="M1697.05,107.42S1746.66-3.67,1759.21,4.09s91.24,103.33,91.24,103.33l-13.15.22s-68.06-89.52-75.71-89.81c-10-.38-7.71-14.53-54.52,89.81"/><polygon class="cls-2" points="1704.08 92.14 1712.23 96.17 1712.63 95.29 1704.27 91.75 1704.08 92.14"/><path class="cls-2" d="M1705.9,88.27c.74,0,8.82,2.41,8.82,2.41l.55-1.2-9.11-1.76Z"/><polygon class="cls-2" points="1710.59 99.82 1701.36 97.98 1700.94 98.9 1709.93 101.28 1710.59 99.82"/><ellipse class="cls-13" cx="1757.71" cy="4.39" rx="4.48" ry="3.88"/><polygon class="cls-2" points="1698.52 104.18 1708.36 104.78 1707.73 106.18 1697.91 105.52 1698.52 104.18"/><polygon class="cls-2" points="1708.9 81.98 1718.97 81.35 1718.12 83.21 1708.36 83.12 1708.9 81.98"/><polygon class="cls-2" points="1720.66 77.68 1712.63 74.28 1713.15 73.21 1721.06 76.8 1720.66 77.68"/><polygon class="cls-2" points="1724.56 69.23 1717.98 63.49 1718.7 62.06 1725.03 68.24 1724.56 69.23"/><polygon class="cls-2" points="1720.57 58.39 1728.36 61.12 1727.78 62.37 1720.11 59.27 1720.57 58.39"/><path class="cls-2" d="M1724.78,50.26c-.22-.18,8.21,1.19,8.21,1.19l-.48,1-8.15-1.37Z"/><path class="cls-2" d="M1729,42.3c.3,0,8.48,0,8.48,0l-.58,1.15-8.27-.47Z"/><path class="cls-2" d="M1727.17,45.77c-.22.13,8.61,0,8.61,0l-.6,1.2-8.34-.6Z"/><polygon class="cls-2" points="1733.59 34.13 1741.88 33.93 1741.28 35.06 1733.1 35.01 1733.59 34.13"/><path class="cls-2" d="M1738,26.7c-.26.09,6.65,2.36,6.65,2.36l-.53.92L1737,28.34Z"/><polygon class="cls-2" points="1741.88 20.43 1749.07 22.14 1748.24 23.29 1741.43 21.13 1741.88 20.43"/><polygon class="cls-2" points="1747.3 12.67 1751.75 19.03 1751.16 19.61 1745.98 14.45 1747.3 12.67"/><polygon class="cls-2" points="1756.35 8.09 1757.17 17.08 1758.05 17.41 1757.2 8.27 1756.35 8.09"/><polygon class="cls-2" points="1761.93 6.21 1760.26 17.7 1761.1 17.8 1762.19 6.44 1761.93 6.21"/><polygon class="cls-2" points="1770.66 14.79 1768.3 23 1771.93 16.14 1770.66 14.79"/><polygon class="cls-2" points="1770.12 24.85 1775.62 20.09 1776.3 20.83 1770.51 25.27 1770.12 24.85"/><polygon class="cls-2" points="1772.65 27.54 1778.95 23.73 1779.64 24.49 1773.38 28.34 1772.65 27.54"/><polygon class="cls-2" points="1785.61 31.14 1780.2 36.06 1780.82 36.78 1786.07 31.66 1785.61 31.14"/><polygon class="cls-2" points="1789.75 35.82 1782.73 39.01 1783.56 39.98 1790.09 36.21 1789.75 35.82"/><polygon class="cls-2" points="1794.37 41.1 1786.47 43.45 1787.72 44.95 1795.06 41.89 1794.37 41.1"/><polygon class="cls-2" points="1794.8 53.54 1802.3 50.24 1795.79 54.75 1794.8 53.54"/><polygon class="cls-2" points="1815.47 65.65 1809.59 71.97 1810.57 73.21 1816.63 67.01 1815.47 65.65"/><polygon class="cls-2" points="1821.73 87.44 1829.89 82.73 1830.96 84.01 1822.69 88.68 1821.73 87.44"/><polygon class="cls-2" points="1826.03 92.98 1833.69 88.68 1834.87 88.68 1835.6 89.54 1827.15 94.43 1826.03 92.98"/><polygon class="cls-2" points="1840.91 95.92 1832.64 101.55 1833.9 103.19 1841.48 96.6 1840.91 95.92"/><path class="cls-2" d="M1835.6,105.41l10.59-2.22s1.93,1,1.67,1.11.92,1.11.92,1.11l-12,1.51Z"/><polygon class="cls-2" points="1817.34 81.82 1823.71 76.36 1824.54 76.36 1825.16 77.1 1817.78 82.39 1817.34 81.82"/><polygon class="cls-2" points="1801.69 62.06 1808.15 57.06 1808.85 57.87 1802.3 62.83 1801.69 62.06"/><rect class="cls-4" x="1673.2" y="102.64" width="214.43" height="139.17" rx="34.38" transform="matrix(1, -0.04, 0.04, 1, -5.16, 66.17)"/><rect class="cls-5" x="1682.74" y="114" width="194.72" height="115.87" rx="34.38" transform="translate(-5.15 66.16) rotate(-2.13)"/><path d="M1746.24,172.65a4.05,4.05,0,0,0-3.19,1.41,5.37,5.37,0,0,0-1,3.69,5.06,5.06,0,0,0,1.38,3.63,4.5,4.5,0,0,0,3.42,1.17,5.37,5.37,0,0,0,1.89-.37,12.61,12.61,0,0,0,1.47-.74,2.74,2.74,0,0,1,.77.89,2.94,2.94,0,0,1,.3,1.24,2.23,2.23,0,0,1-1.18,2,7.28,7.28,0,0,1-3.77.93,11.31,11.31,0,0,1-3.48-.4,7.75,7.75,0,0,1-2.89-1.5,7.59,7.59,0,0,1-2-2.67,10.23,10.23,0,0,1-.84-3.94,9.75,9.75,0,0,1,.53-3.81,7.94,7.94,0,0,1,1.74-2.82,7.71,7.71,0,0,1,2.66-1.81,9.84,9.84,0,0,1,3.33-.7,7.75,7.75,0,0,1,3.94.68,2.42,2.42,0,0,1,1.47,2.06,2.07,2.07,0,0,1-.31,1.25,3.13,3.13,0,0,1-.79.86,8.58,8.58,0,0,0-1.56-.74A4.89,4.89,0,0,0,1746.24,172.65Z"/><path d="M1756.48,185.66a2.37,2.37,0,0,1-2.64-2.46l-.53-14.2,1-.18a9.79,9.79,0,0,1,1.26-.15,6.41,6.41,0,0,1,1.12.06,1.87,1.87,0,0,1,.82.31,1.47,1.47,0,0,1,.52.67,3.42,3.42,0,0,1,.21,1.15l.4,10.84,6.29-.23a4.27,4.27,0,0,1,.39.8,3.32,3.32,0,0,1,.2,1,2.07,2.07,0,0,1-.41,1.56,1.65,1.65,0,0,1-1.22.5Z"/><path d="M1766.05,176.86a9.94,9.94,0,0,1,.54-3.81,7.59,7.59,0,0,1,4.42-4.62,9.85,9.85,0,0,1,3.39-.7,9.66,9.66,0,0,1,3.44.45,8,8,0,0,1,2.83,1.58,7.81,7.81,0,0,1,1.95,2.69,9.91,9.91,0,0,1,.81,3.77,10.06,10.06,0,0,1-.51,3.82,7.67,7.67,0,0,1-1.73,2.84,7.85,7.85,0,0,1-2.69,1.8,10.33,10.33,0,0,1-3.44.7,9.85,9.85,0,0,1-3.48-.46,7.7,7.7,0,0,1-2.81-1.62,7.88,7.88,0,0,1-1.92-2.7A10.23,10.23,0,0,1,1766.05,176.86Zm5-.18a5.75,5.75,0,0,0,1.15,3.69,3.36,3.36,0,0,0,2.77,1.14,3.4,3.4,0,0,0,2.7-1.34,7.39,7.39,0,0,0-.27-7.44,3.3,3.3,0,0,0-2.78-1.13,3.37,3.37,0,0,0-2.68,1.32A5.61,5.61,0,0,0,1771,176.68Z"/><path d="M1791,177.67c-.82-.25-1.56-.5-2.23-.76a6.88,6.88,0,0,1-1.74-1,4.49,4.49,0,0,1-1.17-1.4,4.87,4.87,0,0,1-.47-2,4.48,4.48,0,0,1,1.66-3.8,8.05,8.05,0,0,1,5-1.58,14.31,14.31,0,0,1,2.21.08,6.38,6.38,0,0,1,1.76.44,3,3,0,0,1,1.17.84,2,2,0,0,1,.46,1.23,2.26,2.26,0,0,1-.28,1.24,3.66,3.66,0,0,1-.77.89,6.36,6.36,0,0,0-1.64-.61,8.05,8.05,0,0,0-2.24-.21,3.72,3.72,0,0,0-1.8.41,1,1,0,0,0-.54.89.79.79,0,0,0,.38.66,3.59,3.59,0,0,0,1.09.44l1.47.41a10.63,10.63,0,0,1,4,2,4.47,4.47,0,0,1,1.51,3.42,4.57,4.57,0,0,1-1.7,3.84,8.62,8.62,0,0,1-5.35,1.65,12.81,12.81,0,0,1-2.36-.12,7.56,7.56,0,0,1-1.91-.54,3.34,3.34,0,0,1-1.3-.94,2.16,2.16,0,0,1-.51-1.34,2.06,2.06,0,0,1,.42-1.38,3.58,3.58,0,0,1,1-.9,7.5,7.5,0,0,0,1.92,1,6.53,6.53,0,0,0,2.45.35,3.25,3.25,0,0,0,1.88-.48,1.22,1.22,0,0,0,.51-1,.93.93,0,0,0-.47-.82,5.57,5.57,0,0,0-1.26-.52Z"/><path d="M1801.09,169.81a2.58,2.58,0,0,1,.62-1.89,2.55,2.55,0,0,1,1.84-.75l9.06-.34a3.54,3.54,0,0,1,.38.78,4,4,0,0,1,.19,1,2,2,0,0,1-.4,1.5,1.63,1.63,0,0,1-1.18.48l-5.79.22.09,2.55,6.18-.23a3.69,3.69,0,0,1,.37.77,3.42,3.42,0,0,1,.19,1,2.06,2.06,0,0,1-.38,1.5,1.63,1.63,0,0,1-1.17.48l-5,.19.11,2.88,7-.26a3.15,3.15,0,0,1,.38.78,3.91,3.91,0,0,1,.19,1,2.07,2.07,0,0,1-.4,1.51,1.59,1.59,0,0,1-1.18.5l-8,.3a2.37,2.37,0,0,1-2.64-2.46Z"/><path d="M1823,183.55h-1.07c-.4,0-.82,0-1.25-.07s-.87-.09-1.3-.15a7.38,7.38,0,0,1-1.21-.3,2,2,0,0,1-1.58-1.95l-.48-12.82a1.21,1.21,0,0,1,.29-.91,2.18,2.18,0,0,1,.84-.54,12.31,12.31,0,0,1,2.48-.6c.88-.11,1.66-.18,2.36-.21a13.39,13.39,0,0,1,3.9.38,7.84,7.84,0,0,1,3,1.49,7.34,7.34,0,0,1,2,2.66,10,10,0,0,1,.83,3.88,10.25,10.25,0,0,1-.51,3.85,7.46,7.46,0,0,1-1.78,2.82,7.9,7.9,0,0,1-2.87,1.77A12.69,12.69,0,0,1,1823,183.55Zm-1.68-4a6.44,6.44,0,0,0,.74.07,7.78,7.78,0,0,0,.83,0,4.85,4.85,0,0,0,1.7-.34,3.38,3.38,0,0,0,1.32-.9,3.85,3.85,0,0,0,.82-1.53,6.56,6.56,0,0,0,.23-2.22,5.34,5.34,0,0,0-1.29-3.68,4,4,0,0,0-3.12-1.13q-.39,0-.78.06c-.26,0-.53.06-.81.11Z"/><rect class="cls-7" x="1672.32" y="104.31" width="214.43" height="137.57" rx="33.48" transform="translate(-5.2 66.14) rotate(-2.13)"/></g></svg>