<svg xmlns="http://www.w3.org/2000/svg" width="345" height="295" viewBox="0 0 345 295"><defs><style>.cls-1{fill:#6b492d;}.cls-2{fill:#fbebd2;}.cls-3{fill:red;}.cls-4{fill:#c62430;}.cls-5{fill:#f2a0c6;}.cls-6{fill:#f2afa0;}.cls-7{fill:#8c6239;}.cls-8{fill:#b78b84;}.cls-9{fill:#fcee21;}.cls-10{fill:none;stroke:#000;stroke-linecap:round;stroke-miterlimit:10;stroke-width:2px;}</style></defs><g id="dyredele"><path class="cls-1" d="M109.51,194.38c-.45.89-21,41-21,41s34,9,35,13,17-30,17-30S110.51,192.38,109.51,194.38Z"/><path class="cls-2" d="M34.51,108.38s-35-74,38-92c0,0-28,46-1,70S34.51,108.38,34.51,108.38Z"/><path class="cls-2" d="M305.51,72.38s30-65-59-72c0,0,49.79,36.8,33.89,51.9s23.21,20.1,23.21,20.1"/><ellipse class="cls-3" cx="106.48" cy="241.77" rx="6.84" ry="19.07" transform="translate(-157.45 253.32) rotate(-68.74)"/><ellipse class="cls-4" cx="106.73" cy="241.8" rx="4.34" ry="17.29" transform="translate(-157.32 253.58) rotate(-68.74)"/><ellipse class="cls-2" cx="107.64" cy="242.6" rx="1.71" ry="7.25" transform="translate(-157.48 254.93) rotate(-68.74)"/><path class="cls-5" d="M38.85,126.62c-2.34.76-29.34,2.76-37.34-28.24,0,0,17.68-4.3,32.84,4.35S38.85,126.62,38.85,126.62Z"/><path class="cls-6" d="M42.84,126.71c-1.71.55-21.36,2-27.18-20.56,0,0,12.87-3.12,23.9,3.17S42.84,126.71,42.84,126.71Z"/><path class="cls-5" d="M312.11,87.57c2.56.15,30.5-4.62,31.38-36.37,0,0-19,.25-32.38,12.31S312.11,87.57,312.11,87.57Z"/><path class="cls-6" d="M303.62,91.73c2.21.13,26.35-4,27.11-31.42,0,0-16.41.22-28,10.64S303.62,91.73,303.62,91.73Z"/><path class="cls-7" d="M35.51,104.38a4.92,4.92,0,0,1,.2-1.17c1-3.45,6.49-13.54,37.8-16.83,38-4,147-47,205-35s34,67,10,84C264.77,152.19,232.22,214,241.2,253.1c.09.43.2.85.31,1.28,1.08-.19,2.89,18-29,23-31.68,4.92-37.9-10-36-10,3.14,3.53-55.83-62.81-49-55,7,8-72-50-72-50S28.51,110.38,35.51,104.38Z"/><path class="cls-1" d="M54.73,111.72a4.19,4.19,0,0,1,.18-1c.85-3,5.69-11.88,33.16-14.77,33.34-3.51,129-41.23,179.85-30.7s29.83,58.78,8.77,73.69c-20.82,14.75-49.38,69-41.5,103.28.08.37.17.75.27,1.12.95-.16,2.54,15.83-25.44,20.18-27.79,4.32-33.25-8.76-31.59-8.77,2.76,3.1-49-55.1-43-48.26,6.14,7-63.16-43.86-63.16-43.86S48.59,117,54.73,111.72Z"/><path class="cls-8" d="M166.77,256.42s6.74-10,16.74-5,15,20,11,23-5.55,2.67-5.55,2.67-11.05-2.64-12.45-8.67a3.35,3.35,0,0,1,0-1S167,256.47,166.77,256.42Z"/><path class="cls-6" d="M170.51,259.26s5.55-7.62,13.79-3.83,12.37,15.18,9.07,17.45-4.58,2-4.58,2-9.1-2-10.26-6.58a2.42,2.42,0,0,1,0-.76S170.72,259.3,170.51,259.26Z"/><path class="cls-8" d="M239.91,243.58c-.4-.2-15.4-8.2-17.4,3.8s-.18,22.38,6.41,24.19,13.59-15.19,12.59-18.19S239.91,243.58,239.91,243.58Z"/><path class="cls-6" d="M239.23,245.64c-.32-.16-12.45-6.63-14.07,3.07s-.13,18.1,5.19,19.56,11-12.28,10.17-14.71A50.88,50.88,0,0,1,239.23,245.64Z"/><path class="cls-9" d="M234.74,250.72a19.23,19.23,0,0,1-3,7.84,20.09,20.09,0,0,1,1.4,5.7c1.12,12.18-9.08,23.07-22.77,24.33s-25.71-7.59-26.83-19.77a20.22,20.22,0,0,1,0-3.65,21.09,21.09,0,0,1-5.33-6.31,25.18,25.18,0,0,0-1.29,10.57c1.42,15.43,16.63,26.64,34,25s30.26-15.39,28.84-30.82A25.59,25.59,0,0,0,234.74,250.72Z"/><line class="cls-10" x1="224.35" y1="130.53" x2="249.51" y2="105.38"/><line class="cls-10" x1="249.51" y1="130.53" x2="224.35" y2="105.38"/><line class="cls-10" x1="145.04" y1="159.9" x2="160.82" y2="128.01"/><line class="cls-10" x1="168.87" y1="151.84" x2="136.99" y2="136.06"/></g></svg>