<svg xmlns="http://www.w3.org/2000/svg" width="320" height="625" viewBox="0 0 320 625"><defs><style>.cls-1{fill:#ffd6ae;}.cls-2,.cls-8{fill:#f7b9a1;}.cls-16,.cls-17,.cls-18,.cls-19,.cls-20,.cls-21,.cls-22,.cls-23,.cls-24,.cls-26,.cls-27,.cls-3{fill:none;}.cls-24,.cls-3{stroke:#020202;}.cls-16,.cls-17,.cls-18,.cls-20,.cls-21,.cls-22,.cls-24,.cls-25,.cls-26,.cls-27,.cls-3{stroke-linecap:round;}.cls-10,.cls-12,.cls-13,.cls-14,.cls-16,.cls-17,.cls-18,.cls-19,.cls-20,.cls-21,.cls-22,.cls-24,.cls-25,.cls-26,.cls-27,.cls-29,.cls-3,.cls-30,.cls-8{stroke-miterlimit:10;}.cls-3{stroke-width:2.01px;}.cls-4{fill:#ed1c24;}.cls-5{fill:#c62430;}.cls-10,.cls-12,.cls-6{fill:#fbebd2;}.cls-7{fill:#c69189;}.cls-8{stroke:#f7b9a1;stroke-width:0.62px;}.cls-13,.cls-9{fill:#f2a0c6;}.cls-10,.cls-12,.cls-13,.cls-29,.cls-30{stroke:#221f1f;}.cls-10{stroke-width:0.76px;}.cls-11{fill:#221f1f;}.cls-12,.cls-19{stroke-width:0.45px;}.cls-13{stroke-width:0.79px;}.cls-14{fill:#c8aca6;stroke-width:0.7px;opacity:0.69;}.cls-14,.cls-25,.cls-26,.cls-27{stroke:#000;}.cls-15{fill:#d94625;}.cls-16,.cls-17,.cls-18,.cls-19{stroke:#b27996;}.cls-16{stroke-width:0.57px;}.cls-17{stroke-width:0.23px;}.cls-18{stroke-width:0.21px;}.cls-20,.cls-21,.cls-22{stroke:#f2afa0;}.cls-20{stroke-width:1.04px;}.cls-21{stroke-width:1.09px;}.cls-22{stroke-width:0.88px;}.cls-24{stroke-width:2.09px;}.cls-25{fill:#ad7996;}.cls-25,.cls-26{stroke-width:0.44px;}.cls-27{stroke-width:0.44px;}.cls-28{fill:#3a3f9b;}.cls-29,.cls-30{fill:#fff;}.cls-29{stroke-width:0.78px;}.cls-30{stroke-width:0.61px;}.cls-31{fill:#ffe000;}</style></defs><g id="vinder_krop" data-name="vinder krop"><path class="cls-1" d="M190.45,464l26.32,38.77s.11,11.81-3.84,17.87l-2.33,73.52s-2.21,5.58,6,8.32,16.9,6,16.9,6,12.75,3.34,11.11,8.17S260,624.26,260,624.26s8.85-1.79-6-8.32c0,0,13,6.42,15.66,2.57s-12.87-8.32-12.87-8.32,21.88,7.11,21-.75c0,0-1.59-5.79-17.66-7.63,0,0,19.45,2.79,17.39-4.75S251,586.85,251,586.85s-12.23-6-13.35-23.76l6.78-29.88s25.5-20.68-1.71-38.16-.16-.58-.16-.58S244,450.91,239.12,434"/><path class="cls-2" d="M271.52,611.93c2.22-.27,4.81-.84,4-2.18a5.89,5.89,0,0,0-5-2.75C270.14,608.62,269.72,611.16,271.52,611.93Z"/><path class="cls-2" d="M266.12,618.24c1.39-.06,3-.28,2.44-1.09a4.46,4.46,0,0,0-3.28-1.81C265.11,616.26,265,617.71,266.12,618.24Z"/><path class="cls-2" d="M271.16,601c2.55-.48,4.35-1.42,4.62-3.07.31-1.84-1.62-3.39-4.55-4.66A5.48,5.48,0,0,0,271.16,601Z"/><path class="cls-2" d="M259.72,623.26c.94-.14,1.6-.42,1.69-1s-.63-1.1-1.73-1.54A1.59,1.59,0,0,0,259.72,623.26Z"/><path class="cls-3" d="M242.9,534.55l5.85-7c4-6.25,6.92-12.15,5.41-17.91-1.73-6.64-9.8-14.26-21.88-20.8"/><path class="cls-1" d="M310.38,265.88c-4.11-4.44-7.21-.88-12.67-.13-3.27.45-12.71-2.07-12.37-1.95s-10.1-4.94-28.93-32.83c0,0-12.76-12.86-18.22-25.71-4.77-11.22-19-25.68-22.36-29.63a5.8,5.8,0,0,0-1.34-4.08c-3.67-4.07-13.77-.94-22.56,7s-13,17.69-9.27,21.71a5.38,5.38,0,0,0,3.27,1.59l-.39.24s23.06,12.5,25.59,18.08,38.43,47.57,38.43,47.57,9,14.47,14.29,25.76c2,4.17,3.44,7.9,3.78,10.32,1.26,8.95.5,23.32,4.81,24.16s9.42-1.47,9.84-6.71-2.87-15-2.87-15,8.4,19.73,14,17.2-5.32-22.81-5.32-22.81,13,21.52,20,15.59c6.56-5.61-7.1-22.14-7.6-22.9s16.16,11.11,16.73,4.74c1.18-13.43-17.82-18.25-17.82-18.25S317,273,310.38,265.88Z"/><path class="cls-2" d="M308.48,296.47c2.44,1.34,5.47,2.65,5.64.72a7.28,7.28,0,0,0-3-6.4C309.51,292.13,307.23,294.39,308.48,296.47Z"/><path class="cls-2" d="M305.36,272.54c2.21-1.7,4.63-3.94,2.93-4.88a7.3,7.3,0,0,0-7.09.22C301.8,269.85,303,272.85,305.36,272.54Z"/><path class="cls-2" d="M289,320c1.23,1.18,2.46,1.78,3.56,1.28s1.43-2.18,1.11-4.24A4.2,4.2,0,0,0,289,320Z"/><path class="cls-2" d="M272.46,322.84c.77,1.52,1.73,2.5,2.92,2.4s2.08-1.57,2.48-3.62A4.21,4.21,0,0,0,272.46,322.84Z"/><path class="cls-2" d="M301.28,312.47c1.54,1.57,3.06,2.4,4.35,1.81s1.63-2.74,1.14-5.41A4.66,4.66,0,0,0,301.28,312.47Z"/><path class="cls-4" d="M214.2,171.49c3.69,4.1-.41,14-9.35,21.88a37.54,37.54,0,0,1-13.74,8.07c-3.93,1.13-7.22.88-9-1-3.75-4,.49-13.9,9.34-21.89S210.5,167.39,214.2,171.49Z"/><path class="cls-5" d="M210.1,174.86c2.8,3.11-.31,10.61-7.09,16.6a28.61,28.61,0,0,1-10.43,6.12c-3,.86-5.47.66-6.82-.79-2.84-3.07.37-10.54,7.09-16.6S207.29,171.75,210.1,174.86Z"/><path class="cls-6" d="M201.78,182.22c.93,1-.1,3.54-2.36,5.53a9.52,9.52,0,0,1-3.47,2,2.24,2.24,0,0,1-2.28-.26c-.94-1,.13-3.51,2.36-5.53S200.84,181.19,201.78,182.22Z"/><path class="cls-1" d="M3.11,312.24c1.92-5.74,6.24-3.78,11.54-5.36,3.18-.95,10.77-7.14,10.52-6.89s7.18-8.67,12.82-41.83c0,0,6.33-17,6-30.94C43.68,215,50.67,196,52.11,191a5.75,5.75,0,0,1-.46-4.27c1.66-5.22,12.2-6.55,23.54-3s19.25,10.73,17.51,15.93a5.44,5.44,0,0,1-2.33,2.8l.45.05s-15.9,20.91-15.9,27-15.39,59.18-15.39,59.18-2.19,16.87-2.37,29.34c-.06,4.61.14,8.62.83,11,2.57,8.67,9.24,21.43,5.65,24s-9.24,2.55-11.8-2-3.59-14.8-3.59-14.8.51,21.43-5.64,21.43-4.62-23-4.62-23-3,25-11.8,22.45c-8.33-2.4-2.71-23.08-2.56-24s-10.18,16.79-13.34,11.23c-6.67-11.74,8.72-24,8.72-24S0,321.42,3.11,312.24Z"/><path class="cls-2" d="M17.56,339.29c-1.67,2.23-3.9,4.68-4.86,3a7.25,7.25,0,0,1,.13-7.09C14.82,335.76,17.85,336.88,17.56,339.29Z"/><path class="cls-2" d="M10.47,316.22c-2.73-.63-5.87-1.67-4.7-3.22a7.34,7.34,0,0,1,6.57-2.74C12.62,312.31,12.81,315.51,10.47,316.22Z"/><path class="cls-2" d="M45.17,352.6c-.64,1.58-1.52,2.63-2.72,2.63-1.35,0-2.22-1.39-2.78-3.4A4.24,4.24,0,0,1,45.17,352.6Z"/><path class="cls-2" d="M61.48,348.4c-.07,1.7-.54,3-1.67,3.39s-2.56-.57-3.77-2.27A4.23,4.23,0,0,1,61.48,348.4Z"/><path class="cls-2" d="M30.81,350.88c-.76,2.06-1.8,3.44-3.24,3.44s-2.62-1.82-3.29-4.45A4.7,4.7,0,0,1,30.81,350.88Z"/><path class="cls-4" d="M51.89,186.58c-1.68,5.26,6.19,12.56,17.65,16a38,38,0,0,0,15.93,1.66c4.06-.59,7-2.19,7.79-4.66,1.75-5.24-6.22-12.45-17.64-16S53.57,181.32,51.89,186.58Z"/><path class="cls-5" d="M57,188c-1.27,4,4.69,9.53,13.39,12.18a28.9,28.9,0,0,0,12.08,1.26c3.09-.46,5.29-1.66,5.92-3.54,1.32-4-4.72-9.44-13.39-12.18S58.31,184,57,188Z"/><path class="cls-6" d="M67.71,191.21c-.42,1.33,1.57,3.18,4.46,4.06a9.7,9.7,0,0,0,4,.42c1-.15,1.76-.56,2-1.18.44-1.32-1.57-3.15-4.46-4.06S68.14,189.88,67.71,191.21Z"/><path class="cls-1" d="M80.2,323.05c-4.28,32.53-.35,72.9-2.35,83.47C74,427,71.47,452,76.88,454.38s21.28-16,36.05-9.62,14.06,12.92,19.23-9.7,7.8-14.36,26.18-13.67,23.37,14.48,27.9,34.79,40.3,18,49.24,10.83,6.42-24.76,4.22-35.3c-1.34-6.46-11.73-22.28-11.73-22.28s-2.74-54.89-6.91-93c0,0-54.51,11.23-74.77,12.76S80.2,323.05,80.2,323.05Z"/><ellipse class="cls-7" cx="151.14" cy="357.19" rx="2.09" ry="1.99" transform="translate(-199.57 191.57) rotate(-41.79)"/><polygon points="172.3 442.09 135.12 444.79 129.17 374.13 166.35 371.42 172.3 442.09"/><path class="cls-1" d="M95.9,260.27c1.52-28.92.95-55.87-5.86-60.11-12-7.43-15.66,8.84-16-9.91a178.61,178.61,0,0,0-7-16.51c-1.89-3.71-3.78-6.59-5.1-6.65-3.74-.18,23.28-42.36,61.88-46,1.53-.15-.77-12.65,4.46-13.84l35.89,1.38L166,124s.73,6.9,6.94,4.7,37.64,21.24,33.84,50.94c-.27-.14-.95.41-1.88,1.41-4,4.25-12.37,16.51-12.38,17.48,0,2.32-19-15.89-16.75,13.05.79,10.21,2.16,28.83,3.62,48.66"/><ellipse class="cls-8" cx="115.86" cy="183.25" rx="7.91" ry="6.11" transform="translate(-69.79 295.22) rotate(-88.8)"/><ellipse class="cls-7" cx="113.77" cy="184.03" rx="1.56" ry="1.96" transform="translate(-32.06 24.2) rotate(-10.65)"/><ellipse class="cls-8" cx="156.1" cy="189.67" rx="4.33" ry="6.33" transform="translate(-35.08 35.42) rotate(-11.65)"/><ellipse class="cls-7" cx="156.95" cy="189.55" rx="1.94" ry="1.3" transform="translate(-41.57 334.99) rotate(-86.6)"/><polygon class="cls-2" points="64.71 169.62 70.18 166.13 65.47 170.81 64.71 169.62"/><polygon class="cls-2" points="69.84 179.64 73.06 177.29 70.17 180.41 69.84 179.64"/><path class="cls-2" d="M74.19,193.55l3.46-1.67s-3.33,2.61-3.41,2.36Z"/><path class="cls-2" d="M72.28,185.53a26.12,26.12,0,0,0,4.39-2.86c1.23-1.19-4.42,3.13-3.89,4.14Z"/><path class="cls-2" d="M205.14,180.83a22.27,22.27,0,0,0-2.35-3.64c-.95-1,1.55,4.52,1.55,4.52Z"/><polygon class="cls-2" points="201.74 184.91 198.5 176.05 201.02 185.85 201.74 184.91"/><path class="cls-2" d="M194.53,195l-7.1-3s7.15,1.33,7.7,2.06Z"/><path class="cls-2" d="M197.36,190.87s-3.79-4.75-4.31-4.88,5,3.26,4.87,4.08Z"/><polygon class="cls-2" points="199.28 188.19 196.03 183.74 199.54 187.83 199.28 188.19"/><ellipse class="cls-4" cx="144.98" cy="109.04" rx="19.75" ry="4.41" transform="matrix(1, -0.01, 0.01, 1, -0.96, 1.29)"/><ellipse class="cls-5" cx="144.9" cy="108.75" rx="14.59" ry="3.01" transform="translate(-0.95 1.28) rotate(-0.5)"/><ellipse class="cls-6" cx="144.89" cy="108.86" rx="4.63" ry="0.96" transform="translate(-0.95 1.28) rotate(-0.5)"/><path class="cls-9" d="M73.22,248.59c-.2,4.31-4.31,16.27-6.86,31,0,0-10.39,48.43-9.41,52.16l-.07,2.74s23.2,10,30.06,10.2a100.77,100.77,0,0,1,16.86,2c2.36.58,14.32,1.37,16.47,2.54s10.59,1.38,11.18,1.18,10.39.2,14.11-.78a68.91,68.91,0,0,0,8.24-2.94s21.76,0,29.21-2.75,40-11.76,43.72-20c0,0-3.53-32.93-5.49-33.52,0,0-6.27-32.16-6.66-35.88s-4.51-25.68-9.61-30.78l-9.41-14.9c0-.06,8.33,7.49,9.8,8.82,1.16,1,10-1.76,15.1-4.9s17.25-14.51,15.68-20.39L224.57,178S213,139.38,211.83,138s-5.1-10.39-11.37-12S193,112.72,132,122.92c0,0-44.9-1.38-59.61,12,0,0-28.23,69-26.66,71.16s-5.1,5.49,16.08,16.28l17.05,1.17S73.42,244.27,73.22,248.59Z"/><path class="cls-10" d="M128.06,173.56c-10.77,0-19.5,7.9-19.5,17.65a16.37,16.37,0,0,0,2.87,9.23,6,6,0,0,0-2.87,5c0,3.37,3,6.1,6.74,6.1a6.79,6.79,0,0,0,6.19-3.69,21.17,21.17,0,0,0,6.57,1c10.78,0,19.51-7.9,19.51-17.66S138.84,173.56,128.06,173.56Z"/><path class="cls-11" d="M133.43,175.25c-7.36.16-13.14,7.19-12.91,15.71,0,.4,0,.79.07,1.19,5.7-2.22,10.34-2.39,12.92,1.37-3.66,1.9-5.95,5.32-7.61,9.42a12.24,12.24,0,0,0,8.35,3.14c7.36-.16,13.13-7.19,12.91-15.71S140.78,175.09,133.43,175.25Z"/><path class="cls-12" d="M159,184.08a9.71,9.71,0,0,1,12.37,6,9,9,0,0,1,.15,5.17,3.21,3.21,0,0,1,2.22,2.1,3.35,3.35,0,0,1-2.23,4.18,3.42,3.42,0,0,1-3.61-.91,10.24,10.24,0,0,1-3,1.56A9.51,9.51,0,1,1,159,184.08Z"/><path class="cls-11" d="M165.25,185.23c-3.54.08-6.33,3.4-6.24,7.42,0,.18,0,.37,0,.56a4.77,4.77,0,0,1,6.21.63,6.66,6.66,0,0,0-3.67,4.44,5.92,5.92,0,0,0,4,1.48c3.54-.09,6.33-3.41,6.23-7.42S168.79,185.14,165.25,185.23Z"/><path class="cls-13" d="M158.81,213.57c14.88,7.15,34-5.86,41.81,12.48s15.69,38,40.14,26c3.31-1.13,3.68-9.78,8.93-7.51,8.17,3.53,4,23.5-8.56,22.33-5.82-.54-12.78-1.86-18.82-2.65-21.22-8.29-27-30-52.94-22-4.72,2.63-9.06,4.87-10.78,10.31"/><path class="cls-14" d="M244.77,265.41c-5.69-4.38-.9-17.56,3.85-19.93,4-2,3.45,6.17,3.69,8.67S247.91,267.83,244.77,265.41Z"/><path class="cls-15" d="M132.86,160.88c-10.08-.69-23.14.63-32.11,7.1-3.58,2.59-4.24,5-2.34,7.92-.2.45-.07.3,0,0,1.9,2.89,4.94,2.92,7.71.8C113,171.4,123,171,131,171.62c3.16.24,6.42-1.5,6.87-5.33.35.15.16.11,0,0C138.26,162.47,136.89,161.15,132.86,160.88Z"/><path class="cls-15" d="M180.53,166.88c-6.07-5-15-6.46-22.62-6-3.06.2-4.46,1.34-4.29,4.21h0c.16,2.87,2.36,4,4.84,3.85,6.22-.37,12.71.44,17.65,4.44a3.46,3.46,0,0,0,5.5-.88c.19.27.14.21,0,0C183,170.44,183,168.86,180.53,166.88Z"/><line class="cls-16" x1="85.9" y1="203.96" x2="78.28" y2="223.22"/><line class="cls-16" x1="189.11" y1="197.49" x2="194.91" y2="208.57"/><line class="cls-16" x1="194.83" y1="208.4" x2="204.74" y2="217.54"/><path class="cls-17" d="M201,126.36s-8.88,7.32-10.29,29"/><path class="cls-18" d="M215.69,168.47s.81,4.65,8.25,9.54"/><path class="cls-17" d="M72.49,133.9s5.66,11.4,8.28,22.1"/><path class="cls-19" d="M90.11,202.14c-5.89,1.1-8.24,4.91-8,6"/><path class="cls-1" d="M127.1,116.53c-5.72-1.92.61-11.66-1.58-15.08-.79-1.22-.49-.77-3.19-.66-10.25.4-28.93,5.44-27.83-15l.42-19.62S77.36,50.56,83.3,42.25s10.87.22,10.87.22S103.43,1.13,144.42.74s34.45,33.78,34.45,33.78,4.1-11.36,10.19,2.6S179.19,49,179.19,49s10,31.17.38,40.32-17.55,10-18.13,9.27c0,0,8.07,11,2.23,14.49S132.82,118.45,127.1,116.53Z"/><path class="cls-20" d="M135.17,82c6.19-1.31,10.7-1.76,17-.33"/><path class="cls-21" d="M92,50.28c-7.18,7.72-3.91-2.45-1.8-5.7"/><path class="cls-21" d="M182.6,42.77c7.1,6.39,3.3-2.48,1.13-5.24"/><path class="cls-22" d="M138.35,61.93c6.39,8.15,4.76,8.51,11.13-.15"/><line class="cls-23" x1="115.94" y1="111.28" x2="191.05" y2="108.88"/><path class="cls-1" d="M129.16,447.17l-30.5,48.11s-.37,12.74,3.46,19.85l.75,79.77s2.09,6.34-6.2,8.14-17.06,4.08-17.06,4.08-12.85,1.81-11.31,7.25-15.52,6.12-15.52,6.12S44,617.3,59,612.34c0,0-13.13,5.11-15.74.58s13.07-7.18,13.07-7.18-22.07,4.59-21-3.76c0,0,1.71-6,17.86-5.76,0,0-19.55.26-17.32-7.59s26.73-7.3,26.73-7.3,12.39-4.76,13.89-23.8l-6.16-33.25s-25.1-25.93,2.54-41,.17-.61.17-.61S71.37,433.55,75.93,418"/><path class="cls-2" d="M41.45,605.53c-2.22-.6-4.81-1.58-4-2.92a5.09,5.09,0,0,1,5.08-2.26C42.9,602.14,43.27,605,41.45,605.53Z"/><path class="cls-2" d="M46.72,613.11c-1.39-.26-3-.72-2.42-1.52a3.83,3.83,0,0,1,3.32-1.49C47.78,611.11,47.9,612.71,46.72,613.11Z"/><path class="cls-2" d="M42,593.73c-2.54-.88-4.32-2.15-4.56-4-.27-2,1.69-3.43,4.66-4.4A6.27,6.27,0,0,1,42,593.73Z"/><path class="cls-2" d="M53,619.43c-.94-.27-1.6-.68-1.68-1.26s.66-1.1,1.77-1.42A1.8,1.8,0,0,1,53,619.43Z"/><path class="cls-24" d="M71.79,526l-5.71-8.35c-3.88-7.33-6.67-14.11-5-20.12,1.88-6.94,10.13-14,22.37-19.4"/><line class="cls-25" x1="187.88" y1="460.59" x2="238.78" y2="428.8"/><line class="cls-26" x1="192.55" y1="452.27" x2="197.36" y2="458.88"/><line class="cls-26" x1="188.94" y1="455.28" x2="193.15" y2="460.68"/><line class="cls-26" x1="198.56" y1="449.27" x2="202.16" y2="455.28"/><line class="cls-26" x1="205.77" y1="446.26" x2="209.37" y2="451.07"/><line class="cls-26" x1="211.18" y1="440.86" x2="215.38" y2="446.86"/><line class="cls-26" x1="202.16" y1="447.47" x2="205.77" y2="452.27"/><line class="cls-26" x1="207.57" y1="443.86" x2="211.78" y2="448.67"/><line class="cls-26" x1="214.78" y1="439.05" x2="218.39" y2="444.46"/><line class="cls-26" x1="219.59" y1="436.65" x2="224.39" y2="443.86"/><line class="cls-26" x1="223.79" y1="434.85" x2="228" y2="441.46"/><line class="cls-26" x1="228.6" y1="431.84" x2="232.21" y2="437.85"/><line class="cls-26" x1="232.21" y1="428.84" x2="235.21" y2="434.85"/><line class="cls-26" x1="235.21" y1="428.84" x2="237.61" y2="433.04"/><line class="cls-25" x1="119.64" y1="462.18" x2="72.87" y2="449.87"/><line class="cls-26" x1="77.78" y1="448.07" x2="75.98" y2="453.47"/><line class="cls-26" x1="83.19" y1="448.67" x2="80.79" y2="455.88"/><line class="cls-26" x1="86.8" y1="451.07" x2="84.99" y2="455.88"/><line class="cls-26" x1="92.8" y1="453.47" x2="91" y2="459.48"/><line class="cls-26" x1="89.2" y1="449.27" x2="86.8" y2="455.88"/><line class="cls-26" x1="101.22" y1="453.47" x2="98.81" y2="460.08"/><line class="cls-26" x1="97.61" y1="452.87" x2="95.21" y2="458.88"/><line class="cls-26" x1="104.22" y1="455.88" x2="101.82" y2="461.89"/><line class="cls-26" x1="110.23" y1="457.08" x2="107.83" y2="461.89"/><line class="cls-26" x1="115.04" y1="458.88" x2="113.23" y2="461.89"/><line class="cls-26" x1="118.04" y1="459.48" x2="115.04" y2="463.09"/><line class="cls-26" x1="112.63" y1="458.88" x2="110.83" y2="461.89"/><line class="cls-26" x1="75.98" y1="448.67" x2="73.58" y2="452.87"/><path class="cls-26" d="M45.26,215.33c.68.2,15,13.45,31,9.83"/><line class="cls-26" x1="47.14" y1="214.93" x2="45.94" y2="217.33"/><line class="cls-26" x1="49.54" y1="216.73" x2="48.34" y2="219.14"/><line class="cls-26" x1="51.34" y1="218.53" x2="50.14" y2="220.94"/><line class="cls-26" x1="53.15" y1="219.74" x2="51.95" y2="222.74"/><line class="cls-26" x1="54.35" y1="223.34" x2="55.55" y2="219.74"/><line class="cls-26" x1="58.56" y1="221.54" x2="57.35" y2="225.14"/><line class="cls-26" x1="62.16" y1="223.34" x2="60.96" y2="226.95"/><line class="cls-26" x1="65.77" y1="223.34" x2="64.56" y2="226.95"/><line class="cls-26" x1="69.37" y1="223.94" x2="68.17" y2="226.95"/><line class="cls-26" x1="71.17" y1="224.54" x2="69.97" y2="228.15"/><line class="cls-26" x1="74.78" y1="224.54" x2="73.58" y2="227.55"/><line class="cls-26" x1="73.58" y1="223.94" x2="72.38" y2="226.95"/><path class="cls-27" d="M211.48,220.64c0-.47,24.09-11,23.42-21"/><line class="cls-27" x1="212.38" y1="218.53" x2="214.18" y2="220.94"/><line class="cls-27" x1="214.18" y1="217.33" x2="216.58" y2="219.74"/><line class="cls-27" x1="215.98" y1="216.13" x2="219.59" y2="218.53"/><line class="cls-27" x1="219.59" y1="214.33" x2="221.99" y2="217.33"/><line class="cls-27" x1="222.59" y1="212.53" x2="224.39" y2="214.93"/><line class="cls-27" x1="224.39" y1="211.32" x2="226.8" y2="214.33"/><line class="cls-27" x1="225.6" y1="209.52" x2="229.2" y2="212.53"/><line class="cls-27" x1="228.6" y1="207.72" x2="231" y2="209.52"/><line class="cls-27" x1="229.8" y1="205.92" x2="232.81" y2="208.92"/><line class="cls-27" x1="231" y1="203.51" x2="234.61" y2="205.92"/><line class="cls-27" x1="232.21" y1="202.91" x2="235.81" y2="204.71"/><line class="cls-27" x1="233.41" y1="201.11" x2="235.81" y2="202.31"/><path class="cls-27" d="M125.11,108.75s35.09.08,39.25-5.15"/><line class="cls-27" x1="127.65" y1="106.77" x2="127.65" y2="110.38"/><line class="cls-27" x1="130.06" y1="107.97" x2="130.06" y2="110.38"/><line class="cls-27" x1="133.06" y1="106.77" x2="132.46" y2="110.38"/><line class="cls-27" x1="135.47" y1="107.37" x2="135.47" y2="109.78"/><line class="cls-27" x1="139.07" y1="107.37" x2="139.67" y2="109.18"/><line class="cls-27" x1="142.08" y1="106.77" x2="142.68" y2="108.58"/><line class="cls-27" x1="145.08" y1="107.37" x2="145.08" y2="109.78"/><line class="cls-27" x1="147.48" y1="106.17" x2="147.48" y2="109.18"/><line class="cls-27" x1="150.49" y1="106.17" x2="151.09" y2="108.58"/><line class="cls-27" x1="154.69" y1="106.17" x2="155.29" y2="108.58"/><line class="cls-27" x1="152.29" y1="104.97" x2="152.89" y2="108.58"/><line class="cls-27" x1="157.1" y1="104.37" x2="157.7" y2="107.97"/><line class="cls-27" x1="159.5" y1="104.97" x2="160.7" y2="107.37"/><line class="cls-27" x1="161.3" y1="104.37" x2="162.51" y2="106.77"/><line class="cls-27" x1="161.9" y1="102.57" x2="164.31" y2="105.57"/><circle class="cls-28" cx="153.67" cy="43" r="8.57"/><circle class="cls-29" cx="152.88" cy="43.55" r="7.62"/><path class="cls-11" d="M150,45.54c.59-.64,1.35-1.13,2-1.72-1.12-1.51-3-2.54-4.84-1.44a3.5,3.5,0,0,0-.62,5.26,3.46,3.46,0,0,0,5.29.16,4,4,0,0,0,.66-1.12A14,14,0,0,1,150,45.54Z"/><ellipse class="cls-28" cx="125.87" cy="45.23" rx="7.88" ry="8.07"/><ellipse class="cls-30" cx="126.74" cy="45.33" rx="7" ry="7.17"/><path class="cls-11" d="M128.41,46.26c-1.06.12-2.14-.06-3.2,0-.18,2.47.75,5.16,3.28,5.62s4.68-1.82,4.75-4.68a4.34,4.34,0,0,0-4.7-4.74A4.42,4.42,0,0,0,127,43C127.44,44.15,128.2,45,128.41,46.26Z"/><path class="cls-31" d="M121,180.06a17.86,17.86,0,0,1,0,9.33,15.58,15.58,0,0,1-.63-4.66A16.32,16.32,0,0,1,121,180.06Z"/><path class="cls-31" d="M125.82,184.83a19.75,19.75,0,0,1-9.82,0,17.24,17.24,0,0,1,4.91-.63A17.56,17.56,0,0,1,125.82,184.83Z"/><path class="cls-31" d="M160.53,186.67a6.26,6.26,0,0,1,.62,2.85,6.14,6.14,0,0,1-.62,2.86,6,6,0,0,1-.62-2.86A6.26,6.26,0,0,1,160.53,186.67Z"/><path class="cls-31" d="M163.47,189.59a7.59,7.59,0,0,1-6,0,7.48,7.48,0,0,1,6,0Z"/></g></svg>